<svg xmlns="http://www.w3.org/2000/svg"><defs><font id="FranceTVBrownWebBold" horiz-adv-x="600"><font-face ascent="960" descent="-250"/><glyph horiz-adv-x="242"/><glyph unicode="!" horiz-adv-x="348" d="M239 485v215H109V485l23-255h84zM89 73c0-47 38-83 85-83s85 36 85 83-38 83-85 83-85-36-85-83z"/><glyph unicode="&quot;" horiz-adv-x="450" d="M185 700H55l23-290h84zm210 0H265l23-290h84z"/><glyph unicode="#" horiz-adv-x="677" d="M300 405h106l-30-110H270zM95 515V405h91l-30-110H36V185h91L78 0h114l49 185h106L298 0h114l49 185h120v110h-91l31 110h120v110h-91l49 185H485l-49-185H330l49 185H265l-49-185z"/><glyph unicode="$" horiz-adv-x="570" d="M29 123c57-56 136-88 206-99V-80h120V26c105 22 174 98 174 190 0 222-330 192-330 280 0 36 38 64 103 64 59 0 110-20 148-46l64 95c-47 35-104 58-159 66v105H235V674c-91-18-171-74-171-177 0-218 330-170 330-283 0-40-37-74-105-74-74 0-135 29-183 69z"/><glyph unicode="%" horiz-adv-x="899" d="M298 0l409 700H601L192 0zM31 520c0-108 80-190 190-190s190 82 190 190-80 190-190 190S31 628 31 520zm260 0c0-47-27-80-70-80s-70 33-70 80 27 80 70 80 70-33 70-80zm197-340c0-108 80-190 190-190s190 82 190 190-80 190-190 190-190-82-190-190zm260 0c0-47-27-80-70-80s-70 33-70 80 27 80 70 80 70-33 70-80z"/><glyph unicode="&amp;" horiz-adv-x="696" d="M486 425c7-31 14-70 14-113 0-27-4-53-10-75L356 391c49 38 92 86 92 155 0 94-71 164-168 164-89 0-168-66-168-152 0-47 21-89 55-134-67-45-125-111-125-205C42 80 165-10 302-10c80 0 139 15 196 52l37-42h162L582 132c29 49 43 111 43 179 0 55-14 116-21 140zm-240-91l172-201c-29-18-69-28-108-28-85 0-138 49-138 112 0 54 32 93 74 117zm74 215c0-25-19-48-45-70-19 21-36 46-36 70 0 25 17 46 40 46 25 0 41-21 41-46z"/><glyph unicode="'" horiz-adv-x="240" d="M185 700H55l23-290h84z"/><glyph unicode="(" horiz-adv-x="328" d="M166 230c0 163 56 302 130 412l-95 68C107 579 46 415 46 230s61-349 155-480l95 68C222-72 166 67 166 230z"/><glyph unicode=")" horiz-adv-x="328" d="M162 230c0-163-56-302-130-412l95-68c94 131 155 295 155 480s-61 349-155 480l-95-68c74-110 130-249 130-412z"/><glyph unicode="*" horiz-adv-x="518" d="M174 270l85 117 85-117 88 64-85 117 138 45-34 104-137-45v145H204V555L67 599 33 496l138-45-85-117z"/><glyph unicode="+" horiz-adv-x="580" d="M60 315V205h175V30h110v175h175v110H345v175H235V315z"/><glyph unicode="," horiz-adv-x="332" d="M110 150L35-140h90l130 290z"/><glyph unicode="-" horiz-adv-x="440" d="M65 315V205h310v110z"/><glyph unicode="." horiz-adv-x="320" d="M75 73c0-47 38-83 85-83s85 36 85 83-38 83-85 83-85-36-85-83z"/><glyph unicode="/" horiz-adv-x="490" d="M142 0l325 700H347L22 0z"/><glyph unicode="0" horiz-adv-x="632" d="M579 350c0 225-102 360-263 360S53 575 53 350 155-10 316-10s263 135 263 360zm-135 0c0-145-47-240-128-240s-128 95-128 240 47 240 128 240 128-95 128-240z"/><glyph unicode="1" horiz-adv-x="386" d="M32 472l130 72V0h135v700h-95L32 600z"/><glyph unicode="2" horiz-adv-x="590" d="M380 222c80 76 150 150 150 258 0 123-98 230-239 230-132 0-221-86-251-215l117-30c16 76 63 124 127 125 63 0 112-48 112-110 0-60-39-105-108-173L55 80V0h475v120H273z"/><glyph unicode="3" horiz-adv-x="597" d="M525 620v80H70V580h263L190 425v-80c28 12 56 20 88 20 34 0 64-9 86-27 28-23 46-58 46-99 0-77-58-129-125-129-70 0-115 34-148 88L30 140C82 37 180-10 286-10c150 0 259 108 259 251 0 105-68 192-163 221z"/><glyph unicode="4" horiz-adv-x="637" d="M384 700L24 240v-80h328V0h132v160h115v120H484v420zM216 280l136 175V280z"/><glyph unicode="5" horiz-adv-x="574" d="M37 106C96 26 179-10 270-10c149 0 257 102 257 240 0 151-110 241-240 241-21 0-53-5-80-15l15 124h265v120H107L67 329l84-12c34 23 73 38 116 38 69 0 125-51 125-124 0-69-53-121-125-121-57 0-98 26-135 70z"/><glyph unicode="6" horiz-adv-x="596" d="M283 700L147 477C91 385 45 302 45 226 45 81 158-10 302-10c139 0 258 99 258 250 0 146-113 235-240 235h-24l136 225zM179 235c0 43 20 85 41 116 25 8 50 14 75 14 81 0 132-57 132-125 0-80-55-130-125-130-72 0-123 50-123 125z"/><glyph unicode="7" horiz-adv-x="540" d="M32 580h317L82 0h143l287 620v80H32z"/><glyph unicode="8" horiz-adv-x="594" d="M297-10c141 0 250 100 250 224 0 80-43 142-104 180 36 33 59 78 59 131 0 103-89 185-205 185S92 628 92 525c0-53 22-98 58-131C90 356 47 294 47 214 47 90 156-10 297-10zM182 220c0 63 50 110 115 110s115-47 115-110-50-110-115-110-115 47-115 110zm45 297c0 42 29 73 70 73s70-31 70-73-29-72-70-72-70 30-70 72z"/><glyph unicode="9" horiz-adv-x="596" d="M313 0l136 223c56 92 102 175 102 251 0 145-113 236-257 236-139 0-258-99-258-250 0-146 113-235 240-235h24L164 0zm104 465c0-43-20-85-41-116-25-8-50-14-75-14-81 0-132 57-132 125 0 80 55 130 125 130 72 0 123-50 123-125z"/><glyph unicode=":" horiz-adv-x="352" d="M91 73c0-47 38-83 85-83s85 36 85 83-38 83-85 83-85-36-85-83zm0 339c0-47 38-83 85-83s85 36 85 83-38 83-85 83-85-36-85-83z"/><glyph unicode=";" horiz-adv-x="358" d="M115 150L40-140h90l130 290zm-10 262c0-47 38-83 85-83s85 36 85 83-38 83-85 83-85-36-85-83z"/><glyph unicode="&lt;" horiz-adv-x="580" d="M246 260l266 116v119L52 295v-70L512 25v119z"/><glyph unicode="=" horiz-adv-x="580" d="M60 210V100h460v110zm0 210V310h460v110z"/><glyph unicode="&gt;" horiz-adv-x="580" d="M68 144V25l460 200v70L68 495V376l266-116z"/><glyph unicode="?" horiz-adv-x="529" d="M171 73c0-47 38-83 85-83s85 36 85 83-38 83-85 83-85-36-85-83zm-4 457c17 40 47 63 92 63 43 0 75-29 75-65 0-75-157-115-157-227 0-56 40-93 54-105l87 60c-13 15-20 27-20 41 0 58 163 85 163 233 0 110-103 180-200 180-105 0-178-58-207-146z"/><glyph unicode="@" horiz-adv-x="950" d="M486 583c176 0 306-124 306-298 0-75-26-150-72-150-21 0-34 10-42 23-7 12-10 25-10 56v241H562v-21c-35 23-73 31-109 31-92 0-209-78-209-215S361 35 453 35c76 0 117 30 145 53 28-32 74-53 119-53 130 0 185 133 185 250 0 234-178 405-414 405-132 0-238-47-315-123C92 487 42 374 42 250 42 6 234-190 479-190c98 0 185 33 253 84l-56 84c-54-36-130-61-204-61-177 0-320 148-320 333 0 95 37 179 97 239 58 58 139 94 237 94zM354 250c0 63 47 115 115 115 37 0 71-16 89-36V217c0-17 1-31 2-44-17-21-52-38-91-38-68 0-115 52-115 115z"/><glyph unicode="A" horiz-adv-x="692" d="M145 0l64 155h270L543 0h143L396 700H296L6 0zm201 490l84-215H259z"/><glyph unicode="B" horiz-adv-x="641" d="M84 700V0h273c90 0 144 24 183 63 39 38 64 92 64 151 0 78-43 148-105 179 23 24 45 71 45 117 0 57-26 107-65 141-34 30-78 49-157 49zm325-194c0-19-7-38-20-52-14-16-34-25-77-25h-93v153h93c43 0 63-9 77-25 13-14 20-32 20-51zM219 118v199h131c48 0 75-12 93-32 17-18 26-41 26-67s-9-50-26-68c-18-20-45-32-93-32z"/><glyph unicode="C" horiz-adv-x="711" d="M677 590c-63 69-158 120-269 120-211 0-366-152-366-360S194-10 410-10c121 0 223 56 287 139l-87 76c-60-64-117-95-200-95-144 0-233 108-233 240s92 240 232 240c78 0 137-35 186-82z"/><glyph unicode="D" horiz-adv-x="746" d="M569 350c0-58-19-112-51-152-39-49-96-78-179-78H219v460h120c83 0 140-29 179-78 32-40 51-94 51-152zM84 700V0h240c111 0 184 24 241 66 86 64 139 168 139 284s-53 220-139 284c-57 42-130 66-241 66z"/><glyph unicode="E" horiz-adv-x="559" d="M504 580v120H84V0h430v120H219v195h225v120H219v145z"/><glyph unicode="F" horiz-adv-x="536" d="M504 580v120H84V0h135v315h225v120H219v145z"/><glyph unicode="G" horiz-adv-x="749" d="M677 590c-63 69-158 120-269 120-211 0-366-152-366-360S194-10 410-10c121 0 223 54 287 135v305H382V315h185V162c-46-36-94-52-157-52-144 0-233 108-233 240s92 240 232 240c78 0 137-35 186-82z"/><glyph unicode="H" horiz-adv-x="773" d="M554 0h135v700H554V435H219v265H84V0h135v315h335z"/><glyph unicode="I" horiz-adv-x="303" d="M84 0h135v700H84z"/><glyph unicode="J" horiz-adv-x="497" d="M419 700H284V205c0-37-6-54-16-67-14-18-36-28-61-28-46 0-76 30-94 59L9 113C51 33 126-10 209-10c80 0 154 39 188 106 15 30 22 68 22 124z"/><glyph unicode="K" horiz-adv-x="670" d="M508 0h171L351 378l308 322H486L219 420v280H84V0h135v339z"/><glyph unicode="L" horiz-adv-x="538" d="M84 0h430v120H219v580H84z"/><glyph unicode="M" horiz-adv-x="858" d="M184 700H84V0h133v430l199-295h26l199 295V0h133v700H674L430 341z"/><glyph unicode="N" horiz-adv-x="773" d="M689 700H556V246L184 700H84V0h133v454L589 0h100z"/><glyph unicode="O" horiz-adv-x="796" d="M177 350c0 132 92 240 221 240s221-108 221-240-92-240-221-240-221 108-221 240zm577 0c0 208-155 360-356 360S42 558 42 350 197-10 398-10s356 152 356 360z"/><glyph unicode="P" horiz-adv-x="609" d="M219 403v179h110c57 0 82-12 98-31 14-16 22-35 22-58s-8-43-22-59c-16-19-41-31-98-31zm127-118c98 0 158 32 196 82 27 35 42 79 42 126s-15 90-42 125c-38 50-98 82-196 82H84V0h135v285z"/><glyph unicode="Q" horiz-adv-x="800" d="M754 350c0 208-155 360-356 360S42 558 42 350 197-10 398-10c72 0 138 19 193 54l39-44h153L676 120c49 61 78 140 78 230zm-577 0c0 132 92 240 221 240s221-108 221-240c0-47-12-92-33-129L434 392l-85-74 157-179c-31-18-68-29-108-29-129 0-221 108-221 240z"/><glyph unicode="R" horiz-adv-x="652" d="M564 507c0 43-14 83-38 115-35 47-91 78-175 78H84V0h135v310h51L502 0h162L423 318c89 27 141 99 141 189zm-345-82v157h111c45 0 67-11 81-28 11-14 18-31 18-50s-7-37-18-51c-14-17-36-28-81-28z"/><glyph unicode="S" horiz-adv-x="557" d="M27 93C97 24 179-10 276-10c138 0 241 88 241 212 0 88-46 141-103 174-94 55-217 68-217 139 0 39 34 75 100 75 49 0 94-19 131-45l67 95c-59 46-130 70-202 70-123 0-231-73-231-200 0-78 43-130 97-162 93-54 223-64 223-147 0-61-54-91-108-91-64 0-126 29-170 68z"/><glyph unicode="T" horiz-adv-x="551" d="M23 700V580h185V0h135v580h185v120z"/><glyph unicode="U" horiz-adv-x="748" d="M374 110c-50 0-95 20-125 53-24 26-38 60-38 120v417H76V293c0-91 23-155 65-203C196 27 281-10 374-10S552 27 607 90c42 48 65 112 65 203v407H537V283c0-60-14-94-38-120-30-33-75-53-125-53z"/><glyph unicode="V" horiz-adv-x="670" d="M285 0h100l275 700H522L338 223 150 700H10z"/><glyph unicode="W" horiz-adv-x="979" d="M237 0h99l154 453L643 0h99l230 700H837L690 256 539 700h-99L290 258 146 700H7z"/><glyph unicode="X" horiz-adv-x="650" d="M625 700H470L326 484 183 700H25l222-330L-5 0h155l174 259L496 0h159L403 373z"/><glyph unicode="Y" horiz-adv-x="653" d="M634 700H483L328 451 173 700H19l240-383V0h135v317z"/><glyph unicode="Z" horiz-adv-x="594" d="M28 0h535v120H210l333 500v80H58V580h305L28 80z"/><glyph unicode="[" horiz-adv-x="390" d="M86-240h275v110H206v720h155v110H86z"/><glyph unicode="\" horiz-adv-x="490" d="M23 700L348 0h120L143 700z"/><glyph unicode="]" horiz-adv-x="390" d="M304 700H29V590h155v-720H29v-110h275z"/><glyph unicode="^" horiz-adv-x="580" d="M60 350h124l106 201 106-201h124L335 700h-90z"/><glyph unicode="_" horiz-adv-x="600" d="M55 0v-110h490V0z"/><glyph unicode="`" horiz-adv-x="340" d="M70 718l120-160h80l-60 160z"/><glyph unicode="a" horiz-adv-x="624" d="M428 485v-42c-42 34-93 52-149 52-131 0-236-105-236-252C43 95 149-10 281-10c61 0 110 21 147 52V0h120v485zM173 243c0 78 57 134 126 134 46 0 87-20 119-57V165c-28-35-68-57-117-57-70 0-128 55-128 135z"/><glyph unicode="b" horiz-adv-x="624" d="M76 710V0h120v42c37-31 86-52 147-52 132 0 238 105 238 253 0 147-105 252-236 252-52 0-99-15-139-44v259zm375-467c0-80-58-135-128-135-49 0-89 22-117 57v155c32 37 73 57 119 57 69 0 126-56 126-134z"/><glyph unicode="c" horiz-adv-x="543" d="M429 168c-24-28-67-58-123-58-79 0-134 56-134 132 0 77 62 133 134 133 47 0 81-21 113-52l83 75c-53 64-123 97-203 97-146 0-257-114-257-253S151-10 300-10c92 0 166 39 217 109z"/><glyph unicode="d" horiz-adv-x="624" d="M548 710H418V451c-40 29-88 44-139 44-131 0-236-105-236-252C43 95 149-10 281-10c61 0 110 21 147 52V0h120zM173 243c0 78 57 134 126 134 46 0 87-20 119-57V165c-28-35-68-57-117-57-70 0-128 55-128 135z"/><glyph unicode="e" horiz-adv-x="550" d="M424 153c-25-24-69-53-124-53-69 0-125 42-132 110h337c2 11 3 24 3 37 0 135-90 248-229 248-147 0-236-118-236-253C43 91 150-10 293-10c78 0 154 31 203 87zM172 300c6 47 48 88 107 88 58 0 95-42 99-88z"/><glyph unicode="f" horiz-adv-x="434" d="M433 679c-31 26-73 41-122 41-44 0-83-14-113-39-38-31-60-80-60-156v-40H23V380h115V0h130v380h145v105H268v41c0 35 5 48 13 58 9 12 26 21 46 21s39-7 54-17z"/><glyph unicode="g" horiz-adv-x="624" d="M428 485v-42c-42 34-93 52-149 52-131 0-236-105-236-252C43 95 149-10 281-10c56 0 102 17 137 44 0-63-10-93-30-115-22-26-57-39-99-39-80 0-129 42-155 65l-78-80c48-56 138-100 233-100 93 0 171 36 215 97 29 41 44 93 44 180v443zM173 243c0 78 57 134 126 134 46 0 87-20 119-57V165c-28-35-68-57-117-57-70 0-128 55-128 135z"/><glyph unicode="h" horiz-adv-x="624" d="M206 0v317c18 25 63 60 118 60 30 0 56-10 73-27 18-18 29-43 29-91V0h130v247c0 83-17 135-49 173-39 47-100 75-166 75-50 0-98-17-135-45v260H76V0z"/><glyph unicode="i" horiz-adv-x="282" d="M206 485H76V0h130zM59 660c0-45 37-80 82-80s82 35 82 80-37 80-82 80-82-35-82-80z"/><glyph unicode="j" horiz-adv-x="290" d="M-81-194c31-26 73-41 122-41 44 0 83 14 113 39 38 31 60 80 60 156v525H84V-41c0-35-5-48-13-58-9-12-26-21-46-21s-39 7-54 17zM67 660c0-45 37-80 82-80s82 35 82 80-37 80-82 80-82-35-82-80z"/><glyph unicode="k" horiz-adv-x="567" d="M551 485H382L206 306v404H76V0h130v213L395 0h171L332 264z"/><glyph unicode="l" horiz-adv-x="282" d="M206 710H76V0h130z"/><glyph unicode="m" horiz-adv-x="954" d="M206 0v317c18 23 58 60 113 60 25 0 53-8 73-30 15-17 24-39 24-83V0h130v259c0 20-2 38-4 54 17 25 61 64 117 64 25 0 53-8 73-30 15-17 24-39 24-83V0h130v257c0 72-17 124-48 162-39 48-102 76-171 76-72 0-133-35-172-76-37 45-95 76-160 76-51 0-105-19-139-53v43H76V0z"/><glyph unicode="n" horiz-adv-x="624" d="M206 0v317c18 25 63 60 118 60 30 0 56-10 73-27 18-18 29-43 29-91V0h130v247c0 83-17 135-49 173-39 47-100 75-166 75-54 0-106-20-145-53v43H76V0z"/><glyph unicode="o" horiz-adv-x="594" d="M172 242c0 73 49 135 125 135s125-62 125-135-49-134-125-134-125 61-125 134zm-130 0C42 102 151-10 297-10s255 112 255 252-109 253-255 253S42 382 42 242z"/><glyph unicode="p" horiz-adv-x="624" d="M76 485v-710h130V34c35-27 81-44 137-44 132 0 238 105 238 253 0 147-105 252-236 252-56 0-107-18-149-52v42zm375-242c0-80-58-135-128-135-49 0-89 22-117 57v155c32 37 73 57 119 57 69 0 126-56 126-134z"/><glyph unicode="q" horiz-adv-x="624" d="M428 485v-42c-42 34-93 52-149 52-131 0-236-105-236-252C43 95 149-10 281-10c56 0 102 17 137 44v-259h130v710zM173 243c0 78 57 134 126 134 46 0 87-20 119-57V165c-28-35-68-57-117-57-70 0-128 55-128 135z"/><glyph unicode="r" horiz-adv-x="405" d="M381 488c-14 3-24 4-39 4-59 0-112-20-141-56v49H76V0h130v305c31 48 82 69 130 69 19 0 32-1 45-3z"/><glyph unicode="s" horiz-adv-x="459" d="M31 60c58-49 129-70 198-70 95 0 190 54 190 152 0 170-235 147-235 207 0 25 30 36 66 36 35 0 68-14 94-31l58 88c-36 29-99 53-162 53-96 0-186-58-186-151 0-156 235-130 235-203 0-24-27-41-62-41-49 0-100 20-133 45z"/><glyph unicode="t" horiz-adv-x="452" d="M267 380h145v105H267v155H137V485H22V380h115V166c0-60 14-97 38-125 34-39 84-51 131-51 49 0 88 13 121 36l-42 92c-18-9-37-16-60-16-19 0-35 5-45 15-9 9-13 25-13 51z"/><glyph unicode="u" horiz-adv-x="615" d="M409 485V168c-18-23-58-60-113-60-25 0-53 8-73 30-15 17-24 39-24 83v264H69V228c0-72 17-124 48-162 37-46 97-76 163-76 53 0 102 20 139 53V0h120v485z"/><glyph unicode="v" horiz-adv-x="554" d="M149 485H12L232 0h90l220 485H409L279 197z"/><glyph unicode="w" horiz-adv-x="818" d="M408 294L531 0h90l183 485H673L568 206 454 485h-90L252 208 149 485H14L197 0h90z"/><glyph unicode="x" horiz-adv-x="544" d="M184 485H30l166-227L7 0h151l113 158L383 0h154L348 259l166 226H363l-90-127z"/><glyph unicode="y" horiz-adv-x="582" d="M243-225l329 710H438L301 183 151 485H12L234 44 109-225z"/><glyph unicode="z" horiz-adv-x="502" d="M444 485H59V375h205L39 80V0h425v110H218l226 295z"/><glyph unicode="{" horiz-adv-x="379" d="M230 522c0 29 10 47 27 57 14 8 30 11 69 11h19v107c-12 2-24 3-44 3-113 0-191-63-191-179 0-58 10-130 10-183 0-50-35-68-90-68v-80c55 0 90-18 90-68 0-53-10-125-10-183 0-116 78-179 191-179 20 0 32 1 44 3v107h-19c-39 0-55 3-69 11-17 10-27 28-27 57 0 49 10 122 10 175 0 85-37 104-73 117 36 13 73 32 73 117 0 53-10 126-10 175z"/><glyph unicode="|" horiz-adv-x="292" d="M206 700H86v-940h120z"/><glyph unicode="}" horiz-adv-x="379" d="M149 522c0-49-10-122-10-175 0-85 37-104 73-117-36-13-73-32-73-117 0-53 10-126 10-175 0-29-10-47-27-57-14-8-30-11-69-11H34v-107c12-2 24-3 44-3 113 0 191 63 191 179 0 58-10 130-10 183 0 50 35 68 90 68v80c-55 0-90 18-90 68 0 53 10 125 10 183 0 116-78 179-191 179-20 0-32-1-44-3V590h19c39 0 55-3 69-11 17-10 27-28 27-57z"/><glyph unicode="~" horiz-adv-x="580" d="M134 168c8 44 31 79 65 79 49 0 94-84 190-84 97 0 151 79 168 162l-107 27c-8-44-31-79-65-79-49 0-94 84-190 84-97 0-151-79-168-162z"/><glyph horiz-adv-x="242"/><glyph unicode="¡" horiz-adv-x="282" d="M56 412c0-47 38-83 85-83s85 36 85 83-38 83-85 83-85-36-85-83zm127-167H99L76-10v-215h130v215z"/><glyph unicode="¢" horiz-adv-x="551" d="M432 358c-24-28-67-58-123-58-79 0-134 56-134 132 0 77 62 133 134 133 47 0 81-21 113-52l83 75c-42 50-94 81-153 92v100H232V675C122 646 45 547 45 432c0-116 75-214 187-243V85h120v99c69 11 126 48 168 105z"/><glyph unicode="£" horiz-adv-x="592" d="M324 590c57 0 96-38 118-100l116 45c-39 99-110 175-234 175-149 0-251-101-251-225 0-55 20-100 42-141H58V244h99c4-14 6-29 6-43 0-65-56-103-105-121V0h480v120H258c24 24 35 54 35 86 0 13-2 25-5 38h154v100H251c-23 42-43 83-43 131 0 64 49 115 116 115z"/><glyph unicode="¤" horiz-adv-x="630" d="M525 350c0 37-10 72-27 102l82 81-81 82-83-83c-30 16-65 26-101 26-37 0-71-10-101-26l-83 83-81-82 82-81c-17-30-27-65-27-102 0-38 10-72 27-102l-82-81 81-82 83 82c30-16 64-25 101-25 36 0 71 9 101 25l83-82 81 82-82 81c17 30 27 64 27 102zm-120 0c0-52-40-91-90-91s-90 39-90 91 40 91 90 91 90-39 90-91z"/><glyph unicode="¥" horiz-adv-x="675" d="M598 360v100H495l150 240H494L339 451 184 700H30l150-240H77V360h165l28-43v-17H77V200h193V0h135v200h193v100H405v17l27 43z"/><glyph unicode="¦" horiz-adv-x="292" d="M206 150H86v-390h120zm0 550H86V310h120z"/><glyph unicode="§" horiz-adv-x="579" d="M409 213c0-30-13-62-38-78-91 40-201 48-201 127 0 30 13 62 38 78 91-40 201-48 201-127zm92-251c0 40-12 72-30 98 42 37 70 94 70 155 0 226-328 186-328 297 0 42 34 78 100 78 49 0 95-19 132-44l66 94c-59 47-130 70-202 70-129 0-231-80-231-197 0-40 12-72 30-98-42-37-70-94-70-155C38 34 366 76 366-37c0-42-34-78-100-78-49 0-95 19-132 44l-66-94c59-47 130-70 202-70 129 0 231 80 231 197z"/><glyph unicode="¨" horiz-adv-x="510" d="M70 639c0-44 36-78 80-78s80 34 80 78-36 77-80 77-80-33-80-77zm210 0c0-44 36-78 80-78s80 34 80 78-36 77-80 77-80-33-80-77z"/><glyph unicode="©" horiz-adv-x="838" d="M579 483c-36 42-92 68-157 68-115 0-203-86-203-201s89-200 211-200c67 0 127 32 163 77l-55 53c-29-31-64-50-109-50-69 0-123 53-123 120 0 70 53 121 119 121 47 0 79-20 102-42zM129 350c0 162 128 295 290 295s290-133 290-295S581 55 419 55 129 188 129 350zM419-25c210 0 375 168 375 375S629 725 419 725 44 557 44 350 209-25 419-25z"/><glyph unicode="ª" horiz-adv-x="436" d="M368 704h-89v-22c-24 19-52 28-86 28-84 0-151-70-151-160 0-42 15-80 39-108 27-31 69-52 113-52 33 0 62 9 85 28v-22h89zm-90-198c-15-22-38-36-69-36-44 0-77 35-77 80 0 42 30 80 76 80 31 0 54-14 70-37z"/><glyph unicode="«" horiz-adv-x="643" d="M191 437L31 247 189 57h145L175 249l159 188zm267 0L298 247 456 57h145L442 249l159 188z"/><glyph unicode="¬" horiz-adv-x="580" d="M513 420H53V310h350V100h110z"/><glyph unicode="­" horiz-adv-x="440" d="M65 315V205h310v110z"/><glyph unicode="®" horiz-adv-x="838" d="M401 321l107-162h95L488 327c9 3 17 6 24 11 30 18 49 49 49 88 0 35-14 65-38 86-21 19-48 30-96 30H281V159h87v162zm-33 71v70h62c20 0 30-6 37-14 4-5 7-13 7-22 0-8-3-16-7-21-7-9-17-13-37-13zm-239-42c0 162 128 295 290 295s290-133 290-295S581 55 419 55 129 188 129 350zM419-25c210 0 375 168 375 375S629 725 419 725 44 557 44 350 209-25 419-25z"/><glyph unicode="¯" horiz-adv-x="460" d="M70 681v-95h320v95z"/><glyph unicode="°" horiz-adv-x="422" d="M41 540c0-94 76-170 170-170s170 76 170 170-76 170-170 170S41 634 41 540zm100 0c0 39 31 70 70 70s70-31 70-70-31-70-70-70-70 31-70 70z"/><glyph unicode="±" horiz-adv-x="580" d="M235 274V148h110v126h175v110H345v126H235V384H60V274zM60 115V10h460v105z"/><glyph unicode="²" horiz-adv-x="325" d="M35 390v-50h255v82H185l34 34c51 51 66 91 66 128 0 69-56 126-131 126-62 0-113-38-129-112l78-20c6 34 24 50 51 50 24 0 41-21 41-44 0-24-10-44-45-79z"/><glyph unicode="³" horiz-adv-x="321" d="M99 500c12 6 34 10 46 10 31 0 53-18 53-49 0-29-22-49-51-49-27 0-48 12-60 30l-66-42c30-47 75-70 132-70 87 0 135 61 135 131 0 54-34 97-79 113l69 76v50H43v-82h118l-62-68z"/><glyph unicode="´" horiz-adv-x="340" d="M130 718L70 558h80l120 160z"/><glyph unicode="µ" horiz-adv-x="632" d="M307-10c47 0 92 23 124 53V0h120v485H421V168c-18-23-58-60-113-60-25 0-53 8-73 30-15 17-24 39-24 83v264H81v-710h130V25c28-25 62-35 96-35z"/><glyph unicode="¶" horiz-adv-x="724" d="M243 380c-54 5-95 50-95 105s41 100 95 105zm33 320c-70 0-107-10-139-29C73 634 28 564 28 485c0-119 96-215 215-215v-510h120v830h100v-830h120v830h100v110z"/><glyph unicode="·" horiz-adv-x="282" d="M56 250c0-47 38-83 85-83s85 36 85 83-38 83-85 83-85-36-85-83z"/><glyph unicode="¸" horiz-adv-x="300" d="M70-150h130l30 160h-95z"/><glyph unicode="¹" horiz-adv-x="270" d="M19 542l85 48V340h95v360h-60L19 635z"/><glyph unicode="º" horiz-adv-x="410" d="M278 550c0-45-27-80-73-80s-73 35-73 80 27 80 73 80 73-35 73-80zm-236 0c0-88 64-160 163-160s163 72 163 160-64 160-163 160S42 638 42 550z"/><glyph unicode="»" horiz-adv-x="643" d="M452 57l160 190-158 190H309l159-192L309 57zm-267 0l160 190-158 190H42l159-192L42 57z"/><glyph unicode="¼" horiz-adv-x="662" d="M174 0l409 700H477L68 0zM33 542l85 48V340h95v360h-60L33 635zm534-182h-60L318 120V70h164V0h85v70h61v75h-61zM423 145l59 75v-75z"/><glyph unicode="½" horiz-adv-x="695" d="M174 0l409 700H477L68 0zM33 542l85 48V340h95v360h-60L33 635zM403 50V0h255v82H553l34 34c51 51 66 91 66 128 0 69-56 126-131 126-62 0-113-38-129-112l78-20c6 34 24 50 51 50 24 0 41-21 41-44 0-24-10-44-45-79z"/><glyph unicode="¾" horiz-adv-x="714" d="M223 0l409 700H526L117 0zm393 360h-60L367 120V70h164V0h85v70h61v75h-61zM472 145l59 75v-75zM110 500c12 6 34 10 46 10 31 0 53-18 53-49 0-29-22-49-51-49-27 0-48 12-60 30l-66-42c30-47 75-70 132-70 87 0 135 61 135 131 0 54-34 97-79 113l69 76v50H54v-82h118l-62-68z"/><glyph unicode="¿" horiz-adv-x="467" d="M327 412c0 47-38 83-85 83s-85-36-85-83 38-83 85-83 85 36 85 83zm4-467c-17-40-47-63-92-63-43 0-75 29-75 65 0 75 157 115 157 227 0 56-40 93-54 105l-87-60c13-15 20-27 20-41 0-58-163-85-163-233 0-110 103-180 200-180 105 0 178 58 207 146z"/><glyph unicode="À" horiz-adv-x="692" d="M145 0l64 155h270L543 0h143L396 700H296L6 0zm201 490l84-215H259zM187 928l120-160h80l-60 160z"/><glyph unicode="Á" horiz-adv-x="692" d="M145 0l64 155h270L543 0h143L396 700H296L6 0zm201 490l84-215H259zm20 438l-60-160h80l120 160z"/><glyph unicode="Â" horiz-adv-x="692" d="M145 0l64 155h270L543 0h143L396 700H296L6 0zm201 490l84-215H259zm-75 438l-95-160h80l90 85 90-85h80l-95 160z"/><glyph unicode="Ã" horiz-adv-x="692" d="M145 0l64 155h270L543 0h143L396 700H296L6 0zm201 490l84-215H259zm108 433c-3-28-16-50-40-50-43 0-87 50-147 50-72 0-106-59-106-134l77-16c3 28 16 50 40 50 43 0 87-50 147-50 72 0 106 59 106 134z"/><glyph unicode="Ä" horiz-adv-x="692" d="M145 0l64 155h270L543 0h143L396 700H296L6 0zm201 490l84-215H259zM161 849c0-44 36-78 80-78s80 34 80 78-36 77-80 77-80-33-80-77zm210 0c0-44 36-78 80-78s80 34 80 78-36 77-80 77-80-33-80-77z"/><glyph unicode="Å" horiz-adv-x="692" d="M145 0l64 155h270L543 0h143L396 700H296L6 0zm201 490l84-215H259zM236 872c0-61 49-110 110-110s110 49 110 110-49 110-110 110-110-49-110-110zm75 0c0 22 16 37 35 37s35-15 35-37-16-37-35-37-35 15-35 37z"/><glyph unicode="Æ" horiz-adv-x="964" d="M909 580v120H410L-11 0h151l93 155h256V0h430v120H624v195h225v120H624v145zM305 275l184 306V275z"/><glyph unicode="Ç" horiz-adv-x="711" d="M677 590c-63 69-158 120-269 120-211 0-366-152-366-360C42 162 166 19 350-6l-58-144h130L448-8C552 2 640 55 697 129l-87 76c-60-64-117-95-200-95-144 0-233 108-233 240s92 240 232 240c78 0 137-35 186-82z"/><glyph unicode="È" horiz-adv-x="559" d="M504 580v120H84V0h430v120H219v195h225v120H219v145zM160 928l120-160h80l-60 160z"/><glyph unicode="É" horiz-adv-x="559" d="M504 580v120H84V0h430v120H219v195h225v120H219v145zM298 928l-60-160h80l120 160z"/><glyph unicode="Ê" horiz-adv-x="559" d="M504 580v120H84V0h430v120H219v195h225v120H219v145zM224 928l-95-160h80l90 85 90-85h80l-95 160z"/><glyph unicode="Ë" horiz-adv-x="559" d="M504 580v120H84V0h430v120H219v195h225v120H219v145zM110 849c0-44 36-78 80-78s80 34 80 78-36 77-80 77-80-33-80-77zm210 0c0-44 36-78 80-78s80 34 80 78-36 77-80 77-80-33-80-77z"/><glyph unicode="Ì" horiz-adv-x="303" d="M84 0h135v700H84zM-1 928l120-160h80l-60 160z"/><glyph unicode="Í" horiz-adv-x="303" d="M84 0h135v700H84zm80 928l-60-160h80l120 160z"/><glyph unicode="Î" horiz-adv-x="303" d="M84 0h135v700H84zm-8 928l-95-160h80l90 85 90-85h80l-95 160z"/><glyph unicode="Ï" horiz-adv-x="303" d="M84 0h135v700H84zM-34 849c0-44 36-78 80-78s80 34 80 78-36 77-80 77-80-33-80-77zm210 0c0-44 36-78 80-78s80 34 80 78-36 77-80 77-80-33-80-77z"/><glyph unicode="Ð" horiz-adv-x="782" d="M20 320h100V0h240c111 0 184 24 241 66 86 64 139 168 139 284s-53 220-139 284c-57 42-130 66-241 66H120V430H20zm585 30c0-58-19-112-51-152-39-49-96-78-179-78H255v200h200v110H255v150h120c83 0 140-29 179-78 32-40 51-94 51-152z"/><glyph unicode="Ñ" horiz-adv-x="773" d="M689 700H556V246L184 700H84V0h133v454L589 0h100zM494 923c-3-28-16-50-40-50-43 0-87 50-147 50-72 0-106-59-106-134l77-16c3 28 16 50 40 50 43 0 87-50 147-50 72 0 106 59 106 134z"/><glyph unicode="Ò" horiz-adv-x="796" d="M177 350c0 132 92 240 221 240s221-108 221-240-92-240-221-240-221 108-221 240zm577 0c0 208-155 360-356 360S42 558 42 350 197-10 398-10s356 152 356 360zM258 928l120-160h80l-60 160z"/><glyph unicode="Ó" horiz-adv-x="796" d="M177 350c0 132 92 240 221 240s221-108 221-240-92-240-221-240-221 108-221 240zm577 0c0 208-155 360-356 360S42 558 42 350 197-10 398-10s356 152 356 360zM398 928l-60-160h80l120 160z"/><glyph unicode="Ô" horiz-adv-x="796" d="M177 350c0 132 92 240 221 240s221-108 221-240-92-240-221-240-221 108-221 240zm577 0c0 208-155 360-356 360S42 558 42 350 197-10 398-10s356 152 356 360zM323 928l-95-160h80l90 85 90-85h80l-95 160z"/><glyph unicode="Õ" horiz-adv-x="796" d="M177 350c0 132 92 240 221 240s221-108 221-240-92-240-221-240-221 108-221 240zm577 0c0 208-155 360-356 360S42 558 42 350 197-10 398-10s356 152 356 360zM506 923c-3-28-16-50-40-50-43 0-87 50-147 50-72 0-106-59-106-134l77-16c3 28 16 50 40 50 43 0 87-50 147-50 72 0 106 59 106 134z"/><glyph unicode="Ö" horiz-adv-x="796" d="M177 350c0 132 92 240 221 240s221-108 221-240-92-240-221-240-221 108-221 240zm577 0c0 208-155 360-356 360S42 558 42 350 197-10 398-10s356 152 356 360zM213 849c0-44 36-78 80-78s80 34 80 78-36 77-80 77-80-33-80-77zm210 0c0-44 36-78 80-78s80 34 80 78-36 77-80 77-80-33-80-77z"/><glyph unicode="×" horiz-adv-x="580" d="M145 483l-78-78 145-145L67 115l78-78 145 145L435 37l78 78-145 145 145 145-78 78-145-145z"/><glyph unicode="Ø" horiz-adv-x="805" d="M182 350c0 132 92 240 221 240 39 0 74-10 105-28L215 220c-21 38-33 82-33 130zm442 0c0-132-92-240-221-240-39 0-75 9-105 27l292 342c22-38 34-82 34-129zm-577 0c0-91 30-171 80-233L27 0h153l35 41c54-33 119-51 188-51 201 0 356 152 356 360 0 91-30 171-80 233l100 117H626l-35-41c-54 33-119 51-188 51-201 0-356-152-356-360z"/><glyph unicode="Ù" horiz-adv-x="748" d="M374 110c-50 0-95 20-125 53-24 26-38 60-38 120v417H76V293c0-91 23-155 65-203C196 27 281-10 374-10S552 27 607 90c42 48 65 112 65 203v407H537V283c0-60-14-94-38-120-30-33-75-53-125-53zM234 928l120-160h80l-60 160z"/><glyph unicode="Ú" horiz-adv-x="748" d="M374 110c-50 0-95 20-125 53-24 26-38 60-38 120v417H76V293c0-91 23-155 65-203C196 27 281-10 374-10S552 27 607 90c42 48 65 112 65 203v407H537V283c0-60-14-94-38-120-30-33-75-53-125-53zm0 818l-60-160h80l120 160z"/><glyph unicode="Û" horiz-adv-x="748" d="M374 110c-50 0-95 20-125 53-24 26-38 60-38 120v417H76V293c0-91 23-155 65-203C196 27 281-10 374-10S552 27 607 90c42 48 65 112 65 203v407H537V283c0-60-14-94-38-120-30-33-75-53-125-53zm-75 818l-95-160h80l90 85 90-85h80l-95 160z"/><glyph unicode="Ü" horiz-adv-x="748" d="M374 110c-50 0-95 20-125 53-24 26-38 60-38 120v417H76V293c0-91 23-155 65-203C196 27 281-10 374-10S552 27 607 90c42 48 65 112 65 203v407H537V283c0-60-14-94-38-120-30-33-75-53-125-53zM189 849c0-44 36-78 80-78s80 34 80 78-36 77-80 77-80-33-80-77zm210 0c0-44 36-78 80-78s80 34 80 78-36 77-80 77-80-33-80-77z"/><glyph unicode="Ý" horiz-adv-x="653" d="M634 700H483L328 451 173 700H19l240-383V0h135v317zM326 928l-60-160h80l120 160z"/><glyph unicode="Þ" horiz-adv-x="619" d="M346 167c98 0 158 32 196 82 27 35 42 79 42 126s-15 90-42 125c-38 50-98 82-196 82H219v118H84V0h135v167zM219 285v179h110c57 0 82-12 98-31 14-16 22-35 22-58s-8-43-22-59c-16-19-41-31-98-31z"/><glyph unicode="ß" horiz-adv-x="613" d="M261 327h54c45 0 69-11 87-25 24-19 39-54 39-88 0-62-39-109-104-109-17 0-39 6-54 12L234 17c33-18 71-27 111-27 127 0 226 101 226 227 0 80-44 154-110 191 27 31 43 73 43 117 0 113-93 195-215 195-72 0-133-32-171-81-20-26-33-56-39-97-2-14-3-30-3-47V0h130v496c0 40 7 60 20 75 15 18 38 29 64 29 49 0 84-35 84-84 0-25-10-47-25-61s-39-21-67-21h-21z"/><glyph unicode="à" horiz-adv-x="624" d="M428 485v-42c-42 34-93 52-149 52-131 0-236-105-236-252C43 95 149-10 281-10c61 0 110 21 147 52V0h120v485zM173 243c0 78 57 134 126 134 46 0 87-20 119-57V165c-28-35-68-57-117-57-70 0-128 55-128 135zm20 475l120-160h80l-60 160z"/><glyph unicode="á" horiz-adv-x="624" d="M428 485v-42c-42 34-93 52-149 52-131 0-236-105-236-252C43 95 149-10 281-10c61 0 110 21 147 52V0h120v485zM173 243c0 78 57 134 126 134 46 0 87-20 119-57V165c-28-35-68-57-117-57-70 0-128 55-128 135zm150 475l-60-160h80l120 160z"/><glyph unicode="â" horiz-adv-x="624" d="M428 485v-42c-42 34-93 52-149 52-131 0-236-105-236-252C43 95 149-10 281-10c61 0 110 21 147 52V0h120v485zM173 243c0 78 57 134 126 134 46 0 87-20 119-57V165c-28-35-68-57-117-57-70 0-128 55-128 135zm80 475l-95-160h80l90 85 90-85h80l-95 160z"/><glyph unicode="ã" horiz-adv-x="624" d="M428 485v-42c-42 34-93 52-149 52-131 0-236-105-236-252C43 95 149-10 281-10c61 0 110 21 147 52V0h120v485zM173 243c0 78 57 134 126 134 46 0 87-20 119-57V165c-28-35-68-57-117-57-70 0-128 55-128 135zm263 470c-3-28-16-50-40-50-43 0-87 50-147 50-72 0-106-59-106-134l77-16c3 28 16 50 40 50 43 0 87-50 147-50 72 0 106 59 106 134z"/><glyph unicode="ä" horiz-adv-x="624" d="M428 485v-42c-42 34-93 52-149 52-131 0-236-105-236-252C43 95 149-10 281-10c61 0 110 21 147 52V0h120v485zM173 243c0 78 57 134 126 134 46 0 87-20 119-57V165c-28-35-68-57-117-57-70 0-128 55-128 135zm-30 396c0-44 36-78 80-78s80 34 80 78-36 77-80 77-80-33-80-77zm210 0c0-44 36-78 80-78s80 34 80 78-36 77-80 77-80-33-80-77z"/><glyph unicode="å" horiz-adv-x="624" d="M428 485v-42c-42 34-93 52-149 52-131 0-236-105-236-252C43 95 149-10 281-10c61 0 110 21 147 52V0h120v485zM173 243c0 78 57 134 126 134 46 0 87-20 119-57V165c-28-35-68-57-117-57-70 0-128 55-128 135zm45 419c0-61 49-110 110-110s110 49 110 110-49 110-110 110-110-49-110-110zm75 0c0 22 16 37 35 37s35-15 35-37-16-37-35-37-35 15-35 37z"/><glyph unicode="æ" horiz-adv-x="815" d="M770 210c2 11 3 24 3 37 0 132-80 248-213 248-60 0-112-24-151-64-40 47-94 64-154 64-71 0-141-24-192-62l54-93c39 26 83 45 128 45 52 0 95-21 95-83-35 13-70 18-105 18-103 0-192-64-192-168 0-91 76-162 175-162 102 0 155 53 179 81 48-55 109-81 176-81 76 0 142 33 188 87l-73 72c-32-34-70-49-111-49-66 0-117 42-121 110zm-422-54c-23-32-62-56-110-56-35 0-65 20-65 52 0 50 61 63 100 63 20 0 45-3 66-15 2-15 5-30 9-44zm112 144c6 49 48 88 96 88 51 0 85-40 89-88z"/><glyph unicode="ç" horiz-adv-x="543" d="M184-150h130L340-7c74 9 133 46 177 106l-88 69c-24-28-67-58-123-58-79 0-134 56-134 132 0 77 62 133 134 133 47 0 81-21 113-52l83 75c-53 64-123 97-203 97-146 0-257-114-257-253C42 120 126 18 247-5z"/><glyph unicode="è" horiz-adv-x="550" d="M424 153c-25-24-69-53-124-53-69 0-125 42-132 110h337c2 11 3 24 3 37 0 135-90 248-229 248-147 0-236-118-236-253C43 91 150-10 293-10c78 0 154 31 203 87zM172 300c6 47 48 88 107 88 58 0 95-42 99-88zm-21 418l120-160h80l-60 160z"/><glyph unicode="é" horiz-adv-x="550" d="M424 153c-25-24-69-53-124-53-69 0-125 42-132 110h337c2 11 3 24 3 37 0 135-90 248-229 248-147 0-236-118-236-253C43 91 150-10 293-10c78 0 154 31 203 87zM172 300c6 47 48 88 107 88 58 0 95-42 99-88zm104 418l-60-160h80l120 160z"/><glyph unicode="ê" horiz-adv-x="550" d="M424 153c-25-24-69-53-124-53-69 0-125 42-132 110h337c2 11 3 24 3 37 0 135-90 248-229 248-147 0-236-118-236-253C43 91 150-10 293-10c78 0 154 31 203 87zM172 300c6 47 48 88 107 88 58 0 95-42 99-88zm32 418l-95-160h80l90 85 90-85h80l-95 160z"/><glyph unicode="ë" horiz-adv-x="550" d="M424 153c-25-24-69-53-124-53-69 0-125 42-132 110h337c2 11 3 24 3 37 0 135-90 248-229 248-147 0-236-118-236-253C43 91 150-10 293-10c78 0 154 31 203 87zM172 300c6 47 48 88 107 88 58 0 95-42 99-88zm-72 339c0-44 36-78 80-78s80 34 80 78-36 77-80 77-80-33-80-77zm210 0c0-44 36-78 80-78s80 34 80 78-36 77-80 77-80-33-80-77z"/><glyph unicode="ì" horiz-adv-x="282" d="M206 485H76V0h130zM-14 718l120-160h80l-60 160z"/><glyph unicode="í" horiz-adv-x="282" d="M206 485H76V0h130zm-50 233L96 558h80l120 160z"/><glyph unicode="î" horiz-adv-x="282" d="M206 485H76V0h130zM66 718l-95-160h80l90 85 90-85h80l-95 160z"/><glyph unicode="ï" horiz-adv-x="282" d="M206 485H76V0h130zM-44 639c0-44 36-78 80-78s80 34 80 78-36 77-80 77-80-33-80-77zm210 0c0-44 36-78 80-78s80 34 80 78-36 77-80 77-80-33-80-77z"/><glyph unicode="ð" horiz-adv-x="595" d="M553 242c0 77-46 152-89 211L349 612l45 24v110l-102-55-13 19H128l56-78-72-39V485l128 68 49-67c-5 1-9 1-14 1-129 0-232-105-232-245S152-10 298-10s255 112 255 252zM306 377c20 0 45-4 63-9 33-40 54-81 54-126 0-73-49-134-125-134s-125 61-125 134 48 135 133 135z"/><glyph unicode="ñ" horiz-adv-x="624" d="M206 0v317c18 25 63 60 118 60 30 0 56-10 73-27 18-18 29-43 29-91V0h130v247c0 83-17 135-49 173-39 47-100 75-166 75-54 0-106-20-145-53v43H76V0zm242 713c-3-28-16-50-40-50-43 0-87 50-147 50-72 0-106-59-106-134l77-16c3 28 16 50 40 50 43 0 87-50 147-50 72 0 106 59 106 134z"/><glyph unicode="ò" horiz-adv-x="594" d="M172 242c0 73 49 135 125 135s125-62 125-135-49-134-125-134-125 61-125 134zm-130 0C42 102 151-10 297-10s255 112 255 252-109 253-255 253S42 382 42 242zm120 476l120-160h80l-60 160z"/><glyph unicode="ó" horiz-adv-x="594" d="M172 242c0 73 49 135 125 135s125-62 125-135-49-134-125-134-125 61-125 134zm-130 0C42 102 151-10 297-10s255 112 255 252-109 253-255 253S42 382 42 242zm250 476l-60-160h80l120 160z"/><glyph unicode="ô" horiz-adv-x="594" d="M172 242c0 73 49 135 125 135s125-62 125-135-49-134-125-134-125 61-125 134zm-130 0C42 102 151-10 297-10s255 112 255 252-109 253-255 253S42 382 42 242zm180 476l-95-160h80l90 85 90-85h80l-95 160z"/><glyph unicode="õ" horiz-adv-x="594" d="M172 242c0 73 49 135 125 135s125-62 125-135-49-134-125-134-125 61-125 134zm-130 0C42 102 151-10 297-10s255 112 255 252-109 253-255 253S42 382 42 242zm363 471c-3-28-16-50-40-50-43 0-87 50-147 50-72 0-106-59-106-134l77-16c3 28 16 50 40 50 43 0 87-50 147-50 72 0 106 59 106 134z"/><glyph unicode="ö" horiz-adv-x="594" d="M172 242c0 73 49 135 125 135s125-62 125-135-49-134-125-134-125 61-125 134zm-130 0C42 102 151-10 297-10s255 112 255 252-109 253-255 253S42 382 42 242zm70 397c0-44 36-78 80-78s80 34 80 78-36 77-80 77-80-33-80-77zm210 0c0-44 36-78 80-78s80 34 80 78-36 77-80 77-80-33-80-77z"/><glyph unicode="÷" horiz-adv-x="580" d="M60 315V205h460v110zm155 122c0-41 34-73 75-73s75 32 75 73-34 73-75 73-75-32-75-73zm0-354c0-41 34-73 75-73s75 32 75 73-34 73-75 73-75-32-75-73z"/><glyph unicode="ø" horiz-adv-x="610" d="M560 243c0 59-20 112-53 155l76 87H449l-19-22c-36 20-79 32-125 32-146 0-255-112-255-252 0-59 20-113 53-156L27 0h134l19 22c36-20 79-32 125-32 146 0 255 113 255 253zm-385-1c0 76 51 140 130 140 17 0 33-3 47-9L186 183c-8 18-11 38-11 59zm260 1c0-76-51-140-130-140-17 0-33 3-47 9l166 190c8-18 11-38 11-59z"/><glyph unicode="ù" horiz-adv-x="615" d="M409 485V168c-18-23-58-60-113-60-25 0-53 8-73 30-15 17-24 39-24 83v264H69V228c0-72 17-124 48-162 37-46 97-76 163-76 53 0 102 20 139 53V0h120v485zM164 718l120-160h80l-60 160z"/><glyph unicode="ú" horiz-adv-x="615" d="M409 485V168c-18-23-58-60-113-60-25 0-53 8-73 30-15 17-24 39-24 83v264H69V228c0-72 17-124 48-162 37-46 97-76 163-76 53 0 102 20 139 53V0h120v485zM304 718l-60-160h80l120 160z"/><glyph unicode="û" horiz-adv-x="615" d="M409 485V168c-18-23-58-60-113-60-25 0-53 8-73 30-15 17-24 39-24 83v264H69V228c0-72 17-124 48-162 37-46 97-76 163-76 53 0 102 20 139 53V0h120v485zM229 718l-95-160h80l90 85 90-85h80l-95 160z"/><glyph unicode="ü" horiz-adv-x="615" d="M409 485V168c-18-23-58-60-113-60-25 0-53 8-73 30-15 17-24 39-24 83v264H69V228c0-72 17-124 48-162 37-46 97-76 163-76 53 0 102 20 139 53V0h120v485zM119 639c0-44 36-78 80-78s80 34 80 78-36 77-80 77-80-33-80-77zm210 0c0-44 36-78 80-78s80 34 80 78-36 77-80 77-80-33-80-77z"/><glyph unicode="ý" horiz-adv-x="582" d="M243-225l329 710H438L301 183 151 485H12L234 44 109-225zm67 943l-60-160h80l120 160z"/><glyph unicode="þ" horiz-adv-x="624" d="M76 710v-935h130V34c35-27 81-44 137-44 132 0 238 105 238 253 0 147-105 252-236 252-52 0-99-15-139-44v259zm375-467c0-80-58-135-128-135-49 0-89 22-117 57v155c32 37 73 57 119 57 69 0 126-56 126-134z"/><glyph unicode="ÿ" horiz-adv-x="582" d="M243-225l329 710H438L301 183 151 485H12L234 44 109-225zM116 639c0-44 36-78 80-78s80 34 80 78-36 77-80 77-80-33-80-77zm210 0c0-44 36-78 80-78s80 34 80 78-36 77-80 77-80-33-80-77z"/><glyph unicode="Ā" horiz-adv-x="692" d="M145 0l64 155h270L543 0h143L396 700H296L6 0zm201 490l84-215H259zM186 886v-95h320v95z"/><glyph unicode="ā" horiz-adv-x="624" d="M428 485v-42c-42 34-93 52-149 52-131 0-236-105-236-252C43 95 149-10 281-10c61 0 110 21 147 52V0h120v485zM173 243c0 78 57 134 126 134 46 0 87-20 119-57V165c-28-35-68-57-117-57-70 0-128 55-128 135zm-4 438v-95h320v95z"/><glyph unicode="Ă" horiz-adv-x="692" d="M145 0l64 155h270L543 0h143L396 700H296L6 0zm201 490l84-215H259zm-1 371c-37 0-60 26-60 57h-90c0-81 60-150 150-150s150 69 150 150h-90c0-31-23-57-60-57z"/><glyph unicode="ă" horiz-adv-x="624" d="M428 485v-42c-42 34-93 52-149 52-131 0-236-105-236-252C43 95 149-10 281-10c61 0 110 21 147 52V0h120v485zM173 243c0 78 57 134 126 134 46 0 87-20 119-57V165c-28-35-68-57-117-57-70 0-128 55-128 135zm155 408c-37 0-60 26-60 57h-90c0-81 60-150 150-150s150 69 150 150h-90c0-31-23-57-60-57z"/><glyph unicode="Ą" horiz-adv-x="692" d="M145 0l64 155h270l74-179c-16-22-27-49-27-78 0-70 58-113 133-113 20 0 42 4 57 10l-12 93c-6-2-15-3-22-3-27 0-46 15-46 42 0 32 28 59 50 73L396 700H296L6 0zm201 490l84-215H259z"/><glyph unicode="ą" horiz-adv-x="624" d="M428 485v-42c-42 34-93 52-149 52-131 0-236-105-236-252C43 95 149-10 281-10c61 0 110 21 147 52V-9c-23-24-40-56-40-93 0-70 58-113 133-113 20 0 42 4 57 10l-12 93c-6-2-15-3-22-3-27 0-46 15-46 42 0 32 28 59 50 73v485zM173 243c0 78 57 134 126 134 46 0 87-20 119-57V165c-28-35-68-57-117-57-70 0-128 55-128 135z"/><glyph unicode="Ć" horiz-adv-x="711" d="M677 590c-63 69-158 120-269 120-211 0-366-152-366-360S194-10 410-10c121 0 223 56 287 139l-87 76c-60-64-117-95-200-95-144 0-233 108-233 240s92 240 232 240c78 0 137-35 186-82zM408 928l-60-160h80l120 160z"/><glyph unicode="ć" horiz-adv-x="543" d="M429 168c-24-28-67-58-123-58-79 0-134 56-134 132 0 77 62 133 134 133 47 0 81-21 113-52l83 75c-53 64-123 97-203 97-146 0-257-114-257-253S151-10 300-10c92 0 166 39 217 109zM299 718l-60-160h80l120 160z"/><glyph unicode="Ĉ" horiz-adv-x="711" d="M677 590c-63 69-158 120-269 120-211 0-366-152-366-360S194-10 410-10c121 0 223 56 287 139l-87 76c-60-64-117-95-200-95-144 0-233 108-233 240s92 240 232 240c78 0 137-35 186-82zM333 928l-95-160h80l90 85 90-85h80l-95 160z"/><glyph unicode="ĉ" horiz-adv-x="543" d="M429 168c-24-28-67-58-123-58-79 0-134 56-134 132 0 77 62 133 134 133 47 0 81-21 113-52l83 75c-53 64-123 97-203 97-146 0-257-114-257-253S151-10 300-10c92 0 166 39 217 109zM229 718l-95-160h80l90 85 90-85h80l-95 160z"/><glyph unicode="Ċ" horiz-adv-x="711" d="M677 590c-63 69-158 120-269 120-211 0-366-152-366-360S194-10 410-10c121 0 223 56 287 139l-87 76c-60-64-117-95-200-95-144 0-233 108-233 240s92 240 232 240c78 0 137-35 186-82zM326 848c0-45 37-80 82-80s82 35 82 80-37 80-82 80-82-35-82-80z"/><glyph unicode="ċ" horiz-adv-x="543" d="M429 168c-24-28-67-58-123-58-79 0-134 56-134 132 0 77 62 133 134 133 47 0 81-21 113-52l83 75c-53 64-123 97-203 97-146 0-257-114-257-253S151-10 300-10c92 0 166 39 217 109zM222 638c0-45 37-80 82-80s82 35 82 80-37 80-82 80-82-35-82-80z"/><glyph unicode="Č" horiz-adv-x="711" d="M677 590c-63 69-158 120-269 120-211 0-366-152-366-360S194-10 410-10c121 0 223 56 287 139l-87 76c-60-64-117-95-200-95-144 0-233 108-233 240s92 240 232 240c78 0 137-35 186-82zM483 768l95 160h-80l-90-85-90 85h-80l95-160z"/><glyph unicode="č" horiz-adv-x="543" d="M429 168c-24-28-67-58-123-58-79 0-134 56-134 132 0 77 62 133 134 133 47 0 81-21 113-52l83 75c-53 64-123 97-203 97-146 0-257-114-257-253S151-10 300-10c92 0 166 39 217 109zm-50 390l95 160h-80l-90-85-90 85h-80l95-160z"/><glyph unicode="Ď" horiz-adv-x="746" d="M569 350c0-58-19-112-51-152-39-49-96-78-179-78H219v460h120c83 0 140-29 179-78 32-40 51-94 51-152zM84 700V0h240c111 0 184 24 241 66 86 64 139 168 139 284s-53 220-139 284c-57 42-130 66-241 66zm346 68l95 160h-80l-90-85-90 85h-80l95-160z"/><glyph unicode="ď" horiz-adv-x="644" d="M548 710H418V451c-40 29-88 44-139 44-131 0-236-105-236-252C43 95 149-10 281-10c61 0 110 21 147 52V0h120zM173 243c0 78 57 134 126 134 46 0 87-20 119-57V165c-28-35-68-57-117-57-70 0-128 55-128 135zm476 457l-60-160h80l120 160z"/><glyph unicode="Đ" horiz-adv-x="782" d="M20 320h100V0h240c111 0 184 24 241 66 86 64 139 168 139 284s-53 220-139 284c-57 42-130 66-241 66H120V430H20zm585 30c0-58-19-112-51-152-39-49-96-78-179-78H255v200h200v110H255v150h120c83 0 140-29 179-78 32-40 51-94 51-152z"/><glyph unicode="đ" horiz-adv-x="624" d="M548 545h80v105h-80v60H418v-60H288V545h130v-94c-40 29-88 44-139 44-131 0-236-105-236-252C43 95 149-10 281-10c61 0 110 21 147 52V0h120zM173 243c0 78 57 134 126 134 46 0 87-20 119-57V165c-28-35-68-57-117-57-70 0-128 55-128 135z"/><glyph unicode="Ē" horiz-adv-x="559" d="M504 580v120H84V0h430v120H219v195h225v120H219v145zM139 886v-95h320v95z"/><glyph unicode="ē" horiz-adv-x="550" d="M424 153c-25-24-69-53-124-53-69 0-125 42-132 110h337c2 11 3 24 3 37 0 135-90 248-229 248-147 0-236-118-236-253C43 91 150-10 293-10c78 0 154 31 203 87zM172 300c6 47 48 88 107 88 58 0 95-42 99-88zm-48 381v-95h320v95z"/><glyph unicode="Ĕ" horiz-adv-x="559" d="M504 580v120H84V0h430v120H219v195h225v120H219v145zM299 861c-37 0-60 26-60 57h-90c0-81 60-150 150-150s150 69 150 150h-90c0-31-23-57-60-57z"/><glyph unicode="ĕ" horiz-adv-x="550" d="M424 153c-25-24-69-53-124-53-69 0-125 42-132 110h337c2 11 3 24 3 37 0 135-90 248-229 248-147 0-236-118-236-253C43 91 150-10 293-10c78 0 154 31 203 87zM172 300c6 47 48 88 107 88 58 0 95-42 99-88zm113 351c-37 0-60 26-60 57h-90c0-81 60-150 150-150s150 69 150 150h-90c0-31-23-57-60-57z"/><glyph unicode="Ė" horiz-adv-x="559" d="M504 580v120H84V0h430v120H219v195h225v120H219v145zM217 848c0-45 37-80 82-80s82 35 82 80-37 80-82 80-82-35-82-80z"/><glyph unicode="ė" horiz-adv-x="550" d="M424 153c-25-24-69-53-124-53-69 0-125 42-132 110h337c2 11 3 24 3 37 0 135-90 248-229 248-147 0-236-118-236-253C43 91 150-10 293-10c78 0 154 31 203 87zM172 300c6 47 48 88 107 88 58 0 95-42 99-88zm31 338c0-45 37-80 82-80s82 35 82 80-37 80-82 80-82-35-82-80z"/><glyph unicode="Ę" horiz-adv-x="559" d="M504 580v120H84V0h269c-27-25-49-60-49-102 0-70 58-113 133-113 20 0 42 4 57 10l-12 93c-6-2-15-3-22-3-27 0-46 15-46 42 0 32 28 59 50 73h50v120H219v195h225v120H219v145z"/><glyph unicode="ę" horiz-adv-x="550" d="M424 153c-25-24-69-53-124-53-69 0-125 42-132 110h337c2 11 3 24 3 37 0 135-90 248-229 248-147 0-236-118-236-253C43 93 147-7 287-10c-23-24-39-56-39-92 0-70 58-113 133-113 20 0 42 4 57 10l-12 93c-6-2-15-3-22-3-27 0-46 15-46 42 0 43 28 73 49 86 34 15 65 36 89 64zM172 300c6 47 48 88 107 88 58 0 95-42 99-88z"/><glyph unicode="Ě" horiz-adv-x="559" d="M504 580v120H84V0h430v120H219v195h225v120H219v145zM374 768l95 160h-80l-90-85-90 85h-80l95-160z"/><glyph unicode="ě" horiz-adv-x="550" d="M424 153c-25-24-69-53-124-53-69 0-125 42-132 110h337c2 11 3 24 3 37 0 135-90 248-229 248-147 0-236-118-236-253C43 91 150-10 293-10c78 0 154 31 203 87zM172 300c6 47 48 88 107 88 58 0 95-42 99-88zm187 258l95 160h-80l-90-85-90 85h-80l95-160z"/><glyph unicode="Ĝ" horiz-adv-x="749" d="M677 590c-63 69-158 120-269 120-211 0-366-152-366-360S194-10 410-10c121 0 223 54 287 135v305H382V315h185V162c-46-36-94-52-157-52-144 0-233 108-233 240s92 240 232 240c78 0 137-35 186-82zM333 928l-95-160h80l90 85 90-85h80l-95 160z"/><glyph unicode="ĝ" horiz-adv-x="624" d="M428 485v-42c-42 34-93 52-149 52-131 0-236-105-236-252C43 95 149-10 281-10c56 0 102 17 137 44 0-63-10-93-30-115-22-26-57-39-99-39-80 0-129 42-155 65l-78-80c48-56 138-100 233-100 93 0 171 36 215 97 29 41 44 93 44 180v443zM173 243c0 78 57 134 126 134 46 0 87-20 119-57V165c-28-35-68-57-117-57-70 0-128 55-128 135zm80 475l-95-160h80l90 85 90-85h80l-95 160z"/><glyph unicode="Ğ" horiz-adv-x="749" d="M677 590c-63 69-158 120-269 120-211 0-366-152-366-360S194-10 410-10c121 0 223 54 287 135v305H382V315h185V162c-46-36-94-52-157-52-144 0-233 108-233 240s92 240 232 240c78 0 137-35 186-82zM408 861c-37 0-60 26-60 57h-90c0-81 60-150 150-150s150 69 150 150h-90c0-31-23-57-60-57z"/><glyph unicode="ğ" horiz-adv-x="624" d="M428 485v-42c-42 34-93 52-149 52-131 0-236-105-236-252C43 95 149-10 281-10c56 0 102 17 137 44 0-63-10-93-30-115-22-26-57-39-99-39-80 0-129 42-155 65l-78-80c48-56 138-100 233-100 93 0 171 36 215 97 29 41 44 93 44 180v443zM173 243c0 78 57 134 126 134 46 0 87-20 119-57V165c-28-35-68-57-117-57-70 0-128 55-128 135zm155 408c-37 0-60 26-60 57h-90c0-81 60-150 150-150s150 69 150 150h-90c0-31-23-57-60-57z"/><glyph unicode="Ġ" horiz-adv-x="749" d="M677 590c-63 69-158 120-269 120-211 0-366-152-366-360S194-10 410-10c121 0 223 54 287 135v305H382V315h185V162c-46-36-94-52-157-52-144 0-233 108-233 240s92 240 232 240c78 0 137-35 186-82zM326 848c0-45 37-80 82-80s82 35 82 80-37 80-82 80-82-35-82-80z"/><glyph unicode="ġ" horiz-adv-x="624" d="M428 485v-42c-42 34-93 52-149 52-131 0-236-105-236-252C43 95 149-10 281-10c56 0 102 17 137 44 0-63-10-93-30-115-22-26-57-39-99-39-80 0-129 42-155 65l-78-80c48-56 138-100 233-100 93 0 171 36 215 97 29 41 44 93 44 180v443zM173 243c0 78 57 134 126 134 46 0 87-20 119-57V165c-28-35-68-57-117-57-70 0-128 55-128 135zm73 395c0-45 37-80 82-80s82 35 82 80-37 80-82 80-82-35-82-80z"/><glyph unicode="Ģ" horiz-adv-x="749" d="M677 590c-63 69-158 120-269 120-211 0-366-152-366-360S194-10 410-10c121 0 223 54 287 135v305H382V315h185V162c-46-36-94-52-157-52-144 0-233 108-233 240s92 240 232 240c78 0 137-35 186-82zM344-55l-60-160h80L484-55z"/><glyph unicode="ģ" horiz-adv-x="624" d="M428 485v-42c-42 34-93 52-149 52-131 0-236-105-236-252C43 95 149-10 281-10c56 0 102 17 137 44 0-63-10-93-30-115-22-26-57-39-99-39-80 0-129 42-155 65l-78-80c48-56 138-100 233-100 93 0 171 36 215 97 29 41 44 93 44 180v443zM173 243c0 78 57 134 126 134 46 0 87-20 119-57V165c-28-35-68-57-117-57-70 0-128 55-128 135zm206 315l60 160h-80L239 558z"/><glyph unicode="Ĥ" horiz-adv-x="773" d="M554 0h135v700H554V435H219v265H84V0h135v315h335zM311 928l-95-160h80l90 85 90-85h80l-95 160z"/><glyph unicode="ĥ" horiz-adv-x="624" d="M206 0v317c18 25 63 60 118 60 30 0 56-10 73-27 18-18 29-43 29-91V0h130v247c0 83-17 135-49 173-39 47-100 75-166 75-50 0-98-17-135-45v260H76V0zM74 918l-95-160h80l90 85 90-85h80l-95 160z"/><glyph unicode="Ħ" horiz-adv-x="864" d="M837 631H737v69H602v-69H262v69H127v-69H27V526h100V0h135v315h340V0h135v526h100zM262 435v91h340v-91z"/><glyph unicode="ħ" horiz-adv-x="624" d="M206 0v317c18 25 63 60 118 60 30 0 56-10 73-27 18-18 29-43 29-91V0h130v247c0 83-17 135-49 173-39 47-100 75-166 75-50 0-98-17-135-45v95h130v95H206v70H76v-70H-4v-95h80V0z"/><glyph unicode="Ĩ" horiz-adv-x="303" d="M84 0h135v700H84zm175 923c-3-28-16-50-40-50-43 0-87 50-147 50-72 0-106-59-106-134l77-16c3 28 16 50 40 50 43 0 87-50 147-50 72 0 106 59 106 134z"/><glyph unicode="ĩ" horiz-adv-x="282" d="M206 485H76V0h130zm43 228c-3-28-16-50-40-50-43 0-87 50-147 50-72 0-106-59-106-134l77-16c3 28 16 50 40 50 43 0 87-50 147-50 72 0 106 59 106 134z"/><glyph unicode="Ī" horiz-adv-x="303" d="M84 0h135v700H84zM-9 886v-95h320v95z"/><glyph unicode="ī" horiz-adv-x="282" d="M206 485H76V0h130zM-19 681v-95h320v95z"/><glyph unicode="Ĭ" horiz-adv-x="303" d="M84 0h135v700H84zm67 861c-37 0-60 26-60 57H1c0-81 60-150 150-150s150 69 150 150h-90c0-31-23-57-60-57z"/><glyph unicode="ĭ" horiz-adv-x="282" d="M206 485H76V0h130zm-65 166c-37 0-60 26-60 57H-9c0-81 60-150 150-150s150 69 150 150h-90c0-31-23-57-60-57z"/><glyph unicode="Į" horiz-adv-x="303" d="M219 0v700H84V-27c-15-21-25-47-25-75 0-70 58-113 133-113 20 0 42 4 57 10l-12 93c-6-2-15-3-22-3-27 0-46 15-46 42 0 32 28 59 50 73z"/><glyph unicode="į" horiz-adv-x="282" d="M206 485H76V-20c-18-23-30-51-30-82 0-70 58-113 133-113 20 0 42 4 57 10l-12 93c-6-2-15-3-22-3-27 0-46 15-46 42 0 32 28 59 50 73zM59 660c0-45 37-80 82-80s82 35 82 80-37 80-82 80-82-35-82-80z"/><glyph unicode="İ" horiz-adv-x="303" d="M84 0h135v700H84zM69 848c0-45 37-80 82-80s82 35 82 80-37 80-82 80-82-35-82-80z"/><glyph unicode="ı" horiz-adv-x="282" d="M206 485H76V0h130z"/><glyph unicode="Ĳ" horiz-adv-x="800" d="M84 0h135v700H84zm638 700H587V205c0-37-6-54-16-67-14-18-36-28-61-28-46 0-76 30-94 59l-104-56C354 33 429-10 512-10c80 0 154 39 188 106 15 30 22 68 22 124z"/><glyph unicode="ĳ" horiz-adv-x="572" d="M206 485H76V0h130zM59 660c0-45 37-80 82-80s82 35 82 80-37 80-82 80-82-35-82-80zm142-854c31-26 73-41 122-41 44 0 83 14 113 39 38 31 60 80 60 156v525H366V-41c0-35-5-48-13-58-9-12-26-21-46-21s-39 7-54 17zm148 854c0-45 37-80 82-80s82 35 82 80-37 80-82 80-82-35-82-80z"/><glyph unicode="Ĵ" horiz-adv-x="497" d="M419 700H284V205c0-37-6-54-16-67-14-18-36-28-61-28-46 0-76 30-94 59L9 113C51 33 126-10 209-10c80 0 154 39 188 106 15 30 22 68 22 124zM271 928l-95-160h80l90 85 90-85h80l-95 160z"/><glyph unicode="ĵ" horiz-adv-x="290" d="M-81-194c31-26 73-41 122-41 44 0 83 14 113 39 38 31 60 80 60 156v525H84V-41c0-35-5-48-13-58-9-12-26-21-46-21s-39 7-54 17zM69 718l-95-160h80l90 85 90-85h80l-95 160z"/><glyph unicode="Ķ" horiz-adv-x="670" d="M508 0h171L351 378l308 322H486L219 420v280H84V0h135v339zM291-55l-60-160h80L431-55z"/><glyph unicode="ķ" horiz-adv-x="567" d="M551 485H382L206 306v404H76V0h130v213L395 0h171L332 264zM231-55l-60-160h80L371-55z"/><glyph unicode="ĸ" horiz-adv-x="567" d="M551 485H382L206 306v179H76V0h130v213L395 0h171L332 264z"/><glyph unicode="Ĺ" horiz-adv-x="538" d="M84 0h430v120H219v580H84zm80 928l-60-160h80l120 160z"/><glyph unicode="ĺ" horiz-adv-x="282" d="M206 710H76V0h130zm-50 213L96 763h80l120 160z"/><glyph unicode="Ļ" horiz-adv-x="538" d="M84 0h430v120H219v580H84zm147-55l-60-160h80L371-55z"/><glyph unicode="ļ" horiz-adv-x="282" d="M206 710H76V0h130zM71-55L11-215h80L211-55z"/><glyph unicode="Ľ" horiz-adv-x="541" d="M84 0h430v120H219v580H84zm236 700l-60-160h80l120 160z"/><glyph unicode="ľ" horiz-adv-x="302" d="M206 710H76V0h130zm101-10l-60-160h80l120 160z"/><glyph unicode="Ŀ" horiz-adv-x="545" d="M84 0h430v120H219v580H84zm250 355c0-45 37-80 82-80s82 35 82 80-37 80-82 80-82-35-82-80z"/><glyph unicode="ŀ" horiz-adv-x="404" d="M206 710H76V0h130zm51-380c0-45 37-80 82-80s82 35 82 80-37 80-82 80-82-35-82-80z"/><glyph unicode="Ł" horiz-adv-x="605" d="M151 0h430v120H286v224l140 81v132l-140-81v224H151V398L41 334V202l110 64z"/><glyph unicode="ł" horiz-adv-x="413" d="M277 710H147V398L37 334V202l110 64V0h130v341l110 64v132l-110-64z"/><glyph unicode="Ń" horiz-adv-x="773" d="M689 700H556V246L184 700H84V0h133v454L589 0h100zM385 928l-60-160h80l120 160z"/><glyph unicode="ń" horiz-adv-x="624" d="M206 0v317c18 25 63 60 118 60 30 0 56-10 73-27 18-18 29-43 29-91V0h130v247c0 83-17 135-49 173-39 47-100 75-166 75-54 0-106-20-145-53v43H76V0zm120 718l-60-160h80l120 160z"/><glyph unicode="Ņ" horiz-adv-x="773" d="M689 700H556V246L184 700H84V0h133v454L589 0h100zM331-55l-60-160h80L471-55z"/><glyph unicode="ņ" horiz-adv-x="624" d="M206 0v317c18 25 63 60 118 60 30 0 56-10 73-27 18-18 29-43 29-91V0h130v247c0 83-17 135-49 173-39 47-100 75-166 75-54 0-106-20-145-53v43H76V0zm40-55l-60-160h80L386-55z"/><glyph unicode="Ň" horiz-adv-x="773" d="M689 700H556V246L184 700H84V0h133v454L589 0h100zm-228 68l95 160h-80l-90-85-90 85h-80l95-160z"/><glyph unicode="ň" horiz-adv-x="624" d="M206 0v317c18 25 63 60 118 60 30 0 56-10 73-27 18-18 29-43 29-91V0h130v247c0 83-17 135-49 173-39 47-100 75-166 75-54 0-106-20-145-53v43H76V0zm209 558l95 160h-80l-90-85-90 85h-80l95-160z"/><glyph unicode="ŉ" horiz-adv-x="624" d="M146 700L76 540h90l120 160zM206 0v317c18 25 63 60 118 60 30 0 56-10 73-27 18-18 29-43 29-91V0h130v247c0 83-17 135-49 173-39 47-100 75-166 75-54 0-106-20-145-53v43H76V0z"/><glyph unicode="Ŋ" horiz-adv-x="773" d="M689 700H554V247L185 700H84V0h133v454L554 42v-62c0-37-6-54-16-67-14-18-36-28-61-28-46 0-76 30-94 59l-104-56c42-80 117-123 200-123 80 0 154 39 188 106 15 30 22 68 22 124z"/><glyph unicode="ŋ" horiz-adv-x="624" d="M206 0v317c18 25 63 60 118 60 30 0 56-10 73-27 18-18 29-43 29-91V-41c0-35-5-48-13-58-9-12-26-21-46-21s-39 7-54 17l-52-91c31-26 73-41 122-41 44 0 83 14 113 39 38 31 60 80 60 156v287c0 83-17 135-49 173-39 47-100 75-166 75-54 0-106-20-145-53v43H76V0z"/><glyph unicode="Ō" horiz-adv-x="796" d="M177 350c0 132 92 240 221 240s221-108 221-240-92-240-221-240-221 108-221 240zm577 0c0 208-155 360-356 360S42 558 42 350 197-10 398-10s356 152 356 360zM238 886v-95h320v95z"/><glyph unicode="ō" horiz-adv-x="594" d="M172 242c0 73 49 135 125 135s125-62 125-135-49-134-125-134-125 61-125 134zm-130 0C42 102 151-10 297-10s255 112 255 252-109 253-255 253S42 382 42 242zm95 439v-95h320v95z"/><glyph unicode="Ŏ" horiz-adv-x="796" d="M177 350c0 132 92 240 221 240s221-108 221-240-92-240-221-240-221 108-221 240zm577 0c0 208-155 360-356 360S42 558 42 350 197-10 398-10s356 152 356 360zM398 861c-37 0-60 26-60 57h-90c0-81 60-150 150-150s150 69 150 150h-90c0-31-23-57-60-57z"/><glyph unicode="ŏ" horiz-adv-x="594" d="M172 242c0 73 49 135 125 135s125-62 125-135-49-134-125-134-125 61-125 134zm-130 0C42 102 151-10 297-10s255 112 255 252-109 253-255 253S42 382 42 242zm255 409c-37 0-60 26-60 57h-90c0-81 60-150 150-150s150 69 150 150h-90c0-31-23-57-60-57z"/><glyph unicode="Ő" horiz-adv-x="796" d="M177 350c0 132 92 240 221 240s221-108 221-240-92-240-221-240-221 108-221 240zm577 0c0 208-155 360-356 360S42 558 42 350 197-10 398-10s356 152 356 360zM323 934l-60-160h75l120 160zm195 0l-60-160h75l120 160z"/><glyph unicode="ő" horiz-adv-x="594" d="M172 242c0 73 49 135 125 135s125-62 125-135-49-134-125-134-125 61-125 134zm-130 0C42 102 151-10 297-10s255 112 255 252-109 253-255 253S42 382 42 242zm179 476l-60-160h75l120 160zm195 0l-60-160h75l120 160z"/><glyph unicode="Œ" horiz-adv-x="1094" d="M398 110c-129 0-221 108-221 240s92 240 221 240 221-108 221-240-92-240-221-240zm-4 600C195 710 42 557 42 350S195-10 394-10c88 0 173 36 225 95V0h430v120H754v195h225v120H754v145h285v120H619v-85c-52 59-137 95-225 95z"/><glyph unicode="œ" horiz-adv-x="918" d="M172 242c0 73 49 135 125 135s125-62 125-135-49-134-125-134-125 61-125 134zm-130 0C42 102 151-10 297-10c75 0 137 29 180 78 43-51 107-78 184-78 78 0 154 31 203 87l-75 75c-23-25-66-56-121-56-69 0-125 46-132 114h337c2 11 3 24 3 37 0 135-90 248-229 248-75 0-132-31-170-78-43 47-105 78-180 78-146 0-255-113-255-253zm498 58c6 49 48 90 107 90 58 0 95-42 99-90z"/><glyph unicode="Ŕ" horiz-adv-x="652" d="M564 507c0 43-14 83-38 115-35 47-91 78-175 78H84V0h135v310h51L502 0h162L423 318c89 27 141 99 141 189zm-345-82v157h111c45 0 67-11 81-28 11-14 18-31 18-50s-7-37-18-51c-14-17-36-28-81-28zm81 503l-60-160h80l120 160z"/><glyph unicode="ŕ" horiz-adv-x="405" d="M381 488c-14 3-24 4-39 4-59 0-112-20-141-56v49H76V0h130v305c31 48 82 69 130 69 19 0 32-1 45-3zM222 718l-60-160h80l120 160z"/><glyph unicode="Ŗ" horiz-adv-x="652" d="M564 507c0 43-14 83-38 115-35 47-91 78-175 78H84V0h135v310h51L502 0h162L423 318c89 27 141 99 141 189zm-345-82v157h111c45 0 67-11 81-28 11-14 18-31 18-50s-7-37-18-51c-14-17-36-28-81-28zm62-480l-60-160h80L421-55z"/><glyph unicode="ŗ" horiz-adv-x="405" d="M381 488c-14 3-24 4-39 4-59 0-112-20-141-56v49H76V0h130v305c31 48 82 69 130 69 19 0 32-1 45-3zM71-55L11-215h80L211-55z"/><glyph unicode="Ř" horiz-adv-x="652" d="M564 507c0 43-14 83-38 115-35 47-91 78-175 78H84V0h135v310h51L502 0h162L423 318c89 27 141 99 141 189zm-345-82v157h111c45 0 67-11 81-28 11-14 18-31 18-50s-7-37-18-51c-14-17-36-28-81-28zm166 342l95 160h-80l-90-85-90 85h-80l95-160z"/><glyph unicode="ř" horiz-adv-x="405" d="M381 488c-14 3-24 4-39 4-59 0-112-20-141-56v49H76V0h130v305c31 48 82 69 130 69 19 0 32-1 45-3zm-74 70l95 160h-80l-90-85-90 85H62l95-160z"/><glyph unicode="Ś" horiz-adv-x="557" d="M27 93C97 24 179-10 276-10c138 0 241 88 241 212 0 88-46 141-103 174-94 55-217 68-217 139 0 39 34 75 100 75 49 0 94-19 131-45l67 95c-59 46-130 70-202 70-123 0-231-73-231-200 0-78 43-130 97-162 93-54 223-64 223-147 0-61-54-91-108-91-64 0-126 29-170 68zm265 835l-60-160h80l120 160z"/><glyph unicode="ś" horiz-adv-x="459" d="M31 60c58-49 129-70 198-70 95 0 190 54 190 152 0 170-235 147-235 207 0 25 30 36 66 36 35 0 68-14 94-31l58 88c-36 29-99 53-162 53-96 0-186-58-186-151 0-156 235-130 235-203 0-24-27-41-62-41-49 0-100 20-133 45zm209 658l-60-160h80l120 160z"/><glyph unicode="Ŝ" horiz-adv-x="557" d="M27 93C97 24 179-10 276-10c138 0 241 88 241 212 0 88-46 141-103 174-94 55-217 68-217 139 0 39 34 75 100 75 49 0 94-19 131-45l67 95c-59 46-130 70-202 70-123 0-231-73-231-200 0-78 43-130 97-162 93-54 223-64 223-147 0-61-54-91-108-91-64 0-126 29-170 68zm191 835l-95-160h80l90 85 90-85h80l-95 160z"/><glyph unicode="ŝ" horiz-adv-x="459" d="M31 60c58-49 129-70 198-70 95 0 190 54 190 152 0 170-235 147-235 207 0 25 30 36 66 36 35 0 68-14 94-31l58 88c-36 29-99 53-162 53-96 0-186-58-186-151 0-156 235-130 235-203 0-24-27-41-62-41-49 0-100 20-133 45zm134 658L70 558h80l90 85 90-85h80l-95 160z"/><glyph unicode="Ş" horiz-adv-x="557" d="M27 93C86 34 154 1 232-7l-55-143h130L334-4C442 16 517 96 517 202c0 88-46 141-103 174-94 55-217 68-217 139 0 39 34 75 100 75 49 0 94-19 131-45l67 95c-59 46-130 70-202 70-123 0-231-73-231-200 0-78 43-130 97-162 93-54 223-64 223-147 0-61-54-91-108-91-64 0-126 29-170 68z"/><glyph unicode="ş" horiz-adv-x="459" d="M31 60C76 21 130 0 184-7l-62-143h130L279-5c76 15 140 66 140 147 0 170-235 147-235 207 0 25 30 36 66 36 35 0 68-14 94-31l58 88c-36 29-99 53-162 53-96 0-186-58-186-151 0-156 235-130 235-203 0-24-27-41-62-41-49 0-100 20-133 45z"/><glyph unicode="Š" horiz-adv-x="557" d="M27 93C97 24 179-10 276-10c138 0 241 88 241 212 0 88-46 141-103 174-94 55-217 68-217 139 0 39 34 75 100 75 49 0 94-19 131-45l67 95c-59 46-130 70-202 70-123 0-231-73-231-200 0-78 43-130 97-162 93-54 223-64 223-147 0-61-54-91-108-91-64 0-126 29-170 68zm341 675l95 160h-80l-90-85-90 85h-80l95-160z"/><glyph unicode="š" horiz-adv-x="459" d="M31 60c58-49 129-70 198-70 95 0 190 54 190 152 0 170-235 147-235 207 0 25 30 36 66 36 35 0 68-14 94-31l58 88c-36 29-99 53-162 53-96 0-186-58-186-151 0-156 235-130 235-203 0-24-27-41-62-41-49 0-100 20-133 45zm284 498l95 160h-80l-90-85-90 85H70l95-160z"/><glyph unicode="Ţ" horiz-adv-x="551" d="M166-150h130L324 0h19v580h185v120H23V580h185V0h19z"/><glyph unicode="ţ" horiz-adv-x="452" d="M177-150h130L333-8c37 4 67 15 94 34l-42 92c-18-9-37-16-60-16-19 0-35 5-45 15-9 9-13 25-13 51v212h145v105H267v155H137V485H22V380h115V166c0-60 14-97 38-125 17-20 39-33 63-41z"/><glyph unicode="Ť" horiz-adv-x="551" d="M23 700V580h185V0h135v580h185v120zm327 68l95 160h-80l-90-85-90 85h-80l95-160z"/><glyph unicode="ť" horiz-adv-x="452" d="M267 380h145v105H267v155H137V485H22V380h115V166c0-60 14-97 38-125 34-39 84-51 131-51 49 0 88 13 121 36l-42 92c-18-9-37-16-60-16-19 0-35 5-45 15-9 9-13 25-13 51zm101 320l-60-160h80l120 160z"/><glyph unicode="Ŧ" horiz-adv-x="573" d="M494 320v110H354v150h185v120H34V580h185V430H79V320h140V0h135v320z"/><glyph unicode="ŧ" horiz-adv-x="467" d="M147 310H32V205h115v-39c0-60 14-97 38-125 34-39 84-51 131-51 49 0 88 13 121 36l-42 92c-18-9-37-16-60-16-19 0-35 5-45 15-9 9-13 25-13 51v37h145v105H277v70h145v105H277v155H147V485H32V380h115z"/><glyph unicode="Ũ" horiz-adv-x="748" d="M374 110c-50 0-95 20-125 53-24 26-38 60-38 120v417H76V293c0-91 23-155 65-203C196 27 281-10 374-10S552 27 607 90c42 48 65 112 65 203v407H537V283c0-60-14-94-38-120-30-33-75-53-125-53zm108 813c-3-28-16-50-40-50-43 0-87 50-147 50-72 0-106-59-106-134l77-16c3 28 16 50 40 50 43 0 87-50 147-50 72 0 106 59 106 134z"/><glyph unicode="ũ" horiz-adv-x="615" d="M409 485V168c-18-23-58-60-113-60-25 0-53 8-73 30-15 17-24 39-24 83v264H69V228c0-72 17-124 48-162 37-46 97-76 163-76 53 0 102 20 139 53V0h120v485zm3 228c-3-28-16-50-40-50-43 0-87 50-147 50-72 0-106-59-106-134l77-16c3 28 16 50 40 50 43 0 87-50 147-50 72 0 106 59 106 134z"/><glyph unicode="Ū" horiz-adv-x="748" d="M374 110c-50 0-95 20-125 53-24 26-38 60-38 120v417H76V293c0-91 23-155 65-203C196 27 281-10 374-10S552 27 607 90c42 48 65 112 65 203v407H537V283c0-60-14-94-38-120-30-33-75-53-125-53zM214 886v-95h320v95z"/><glyph unicode="ū" horiz-adv-x="615" d="M409 485V168c-18-23-58-60-113-60-25 0-53 8-73 30-15 17-24 39-24 83v264H69V228c0-72 17-124 48-162 37-46 97-76 163-76 53 0 102 20 139 53V0h120v485zM144 664v-95h320v95z"/><glyph unicode="Ŭ" horiz-adv-x="748" d="M374 110c-50 0-95 20-125 53-24 26-38 60-38 120v417H76V293c0-91 23-155 65-203C196 27 281-10 374-10S552 27 607 90c42 48 65 112 65 203v407H537V283c0-60-14-94-38-120-30-33-75-53-125-53zm0 751c-37 0-60 26-60 57h-90c0-81 60-150 150-150s150 69 150 150h-90c0-31-23-57-60-57z"/><glyph unicode="ŭ" horiz-adv-x="615" d="M409 485V168c-18-23-58-60-113-60-25 0-53 8-73 30-15 17-24 39-24 83v264H69V228c0-72 17-124 48-162 37-46 97-76 163-76 53 0 102 20 139 53V0h120v485zM304 651c-37 0-60 26-60 57h-90c0-81 60-150 150-150s150 69 150 150h-90c0-31-23-57-60-57z"/><glyph unicode="Ů" horiz-adv-x="748" d="M374 110c-50 0-95 20-125 53-24 26-38 60-38 120v417H76V293c0-91 23-155 65-203C196 27 281-10 374-10S552 27 607 90c42 48 65 112 65 203v407H537V283c0-60-14-94-38-120-30-33-75-53-125-53zM264 872c0-61 49-110 110-110s110 49 110 110-49 110-110 110-110-49-110-110zm75 0c0 22 16 37 35 37s35-15 35-37-16-37-35-37-35 15-35 37z"/><glyph unicode="ů" horiz-adv-x="615" d="M409 485V168c-18-23-58-60-113-60-25 0-53 8-73 30-15 17-24 39-24 83v264H69V228c0-72 17-124 48-162 37-46 97-76 163-76 53 0 102 20 139 53V0h120v485zM194 662c0-61 49-110 110-110s110 49 110 110-49 110-110 110-110-49-110-110zm75 0c0 22 16 37 35 37s35-15 35-37-16-37-35-37-35 15-35 37z"/><glyph unicode="Ű" horiz-adv-x="748" d="M374 110c-50 0-95 20-125 53-24 26-38 60-38 120v417H76V293c0-91 23-155 65-203C196 27 281-10 374-10S552 27 607 90c42 48 65 112 65 203v407H537V283c0-60-14-94-38-120-30-33-75-53-125-53zm-75 818l-60-160h75l120 160zm195 0l-60-160h75l120 160z"/><glyph unicode="ű" horiz-adv-x="615" d="M409 485V168c-18-23-58-60-113-60-25 0-53 8-73 30-15 17-24 39-24 83v264H69V228c0-72 17-124 48-162 37-46 97-76 163-76 53 0 102 20 139 53V0h120v485zM234 718l-60-160h75l120 160zm195 0l-60-160h75l120 160z"/><glyph unicode="Ų" horiz-adv-x="748" d="M374 110c-50 0-95 20-125 53-24 26-38 60-38 120v417H76V293c0-91 23-155 65-203C196 27 281-10 374-10c5 0 11 0 16 1-22-24-39-57-39-93 0-70 58-113 133-113 20 0 42 4 57 10l-12 93c-6-2-15-3-22-3-27 0-46 15-46 42 0 45 26 73 49 92 38 17 71 41 97 71 42 48 65 112 65 203v407H537V283c0-60-14-94-38-120-30-33-75-53-125-53z"/><glyph unicode="ų" horiz-adv-x="615" d="M409 485V168c-18-23-58-60-113-60-25 0-53 8-73 30-15 17-24 39-24 83v264H69V228c0-72 17-124 48-162 37-46 97-76 163-76 53 0 102 20 139 53V-9c-23-24-40-56-40-93 0-70 58-113 133-113 20 0 42 4 57 10l-12 93c-6-2-15-3-22-3-27 0-46 15-46 42 0 32 28 59 50 73v485z"/><glyph unicode="Ŵ" horiz-adv-x="979" d="M237 0h99l154 453L643 0h99l230 700H837L690 256 539 700h-99L290 258 146 700H7zm177 928l-95-160h80l90 85 90-85h80l-95 160z"/><glyph unicode="ŵ" horiz-adv-x="818" d="M408 294L531 0h90l183 485H673L568 206 454 485h-90L252 208 149 485H14L197 0h90zm-74 424l-95-160h80l90 85 90-85h80l-95 160z"/><glyph unicode="Ŷ" horiz-adv-x="653" d="M634 700H483L328 451 173 700H19l240-383V0h135v317zM252 928l-95-160h80l90 85 90-85h80l-95 160z"/><glyph unicode="ŷ" horiz-adv-x="582" d="M243-225l329 710H438L301 183 151 485H12L234 44 109-225zm-17 943l-95-160h80l90 85 90-85h80l-95 160z"/><glyph unicode="Ÿ" horiz-adv-x="653" d="M634 700H483L328 451 173 700H19l240-383V0h135v317zM142 849c0-44 36-78 80-78s80 34 80 78-36 77-80 77-80-33-80-77zm210 0c0-44 36-78 80-78s80 34 80 78-36 77-80 77-80-33-80-77z"/><glyph unicode="Ź" horiz-adv-x="594" d="M28 0h535v120H210l333 500v80H58V580h305L28 80zm267 928l-60-160h80l120 160z"/><glyph unicode="ź" horiz-adv-x="502" d="M444 485H59V375h205L39 80V0h425v110H218l226 295zM261 718l-60-160h80l120 160z"/><glyph unicode="Ż" horiz-adv-x="594" d="M28 0h535v120H210l333 500v80H58V580h305L28 80zm185 848c0-45 37-80 82-80s82 35 82 80-37 80-82 80-82-35-82-80z"/><glyph unicode="ż" horiz-adv-x="502" d="M444 485H59V375h205L39 80V0h425v110H218l226 295zM170 638c0-45 37-80 82-80s82 35 82 80-37 80-82 80-82-35-82-80z"/><glyph unicode="Ž" horiz-adv-x="594" d="M28 0h535v120H210l333 500v80H58V580h305L28 80zm342 768l95 160h-80l-90-85-90 85h-80l95-160z"/><glyph unicode="ž" horiz-adv-x="502" d="M444 485H59V375h205L39 80V0h425v110H218l226 295zm-117 73l95 160h-80l-90-85-90 85H82l95-160z"/><glyph unicode="ſ" horiz-adv-x="302" d="M371 679c-31 26-73 41-122 41-44 0-83-14-113-39-38-31-60-80-60-156V0h130v526c0 35 5 48 13 58 9 12 26 21 46 21s39-7 54-17z"/><glyph unicode="Ə" horiz-adv-x="745" d="M557 277c-8-88-86-167-190-167-102 0-174 83-183 167zM134 502c63 52 138 88 218 88 117 0 201-81 213-193H45c-3-16-4-34-4-53C41 152 172-9 367-9c208 0 336 168 336 360 0 214-139 359-352 359-102 0-218-49-293-124z"/><glyph unicode="Ɛ" horiz-adv-x="574" d="M299-10c105 0 194 41 267 124l-84 80c-45-44-102-84-176-84-77 0-125 44-125 106 0 31 13 56 34 73s49 26 90 26h79v114h-86c-36 0-57 7-73 21-15 13-24 32-24 55 0 53 42 85 101 85 49 0 95-25 131-58l78 86c-47 48-121 92-217 92-127 0-228-74-228-203 0-54 28-103 64-135-48-32-84-93-84-163C46 67 162-10 299-10z"/><glyph unicode="ƒ" horiz-adv-x="589" d="M146-19c-7-40-12-55-20-68-12-20-34-32-57-32-28 0-48 11-67 29l-75-76c37-46 90-68 148-68 51 0 104 20 139 59 28 31 46 71 56 132l59 363h183v110H347l11 65c7 40 12 55 20 68 12 20 34 32 57 32 28 0 48-11 67-29l75 76c-37 46-90 68-148 68-51 0-104-20-139-59-28-31-46-71-56-132l-15-89H57V320h144z"/><glyph unicode="Ɣ" horiz-adv-x="592" d="M468 700L297 301 128 700H-14l240-541-53-119c-25-58-33-98-33-124 0-71 55-151 158-151 102 0 153 80 153 151 0 26-4 68-29 124l-55 125 239 535zM295 23l15-35c8-19 18-45 18-66 0-19-11-37-33-37s-33 18-33 37c0 21 10 47 18 66z"/><glyph unicode="Ɨ" horiz-adv-x="353" d="M109 0h135v323h90v105h-90v272H109V428H19V323h90z"/><glyph unicode="Ɲ" horiz-adv-x="773" d="M689 700H556V246L184 700H84V-57c0-26-4-42-13-51-10-10-26-15-45-15-23 0-42 7-60 16l-42-92c33-23 73-36 122-36 47 0 99 12 133 51 24 28 38 65 38 125v513L589 0h100z"/><glyph unicode="Ƶ" horiz-adv-x="601" d="M516 320v110h-97l127 190v80H61V580h305L265 430H91V320h101L31 80V0h535v120H213l133 200z"/><glyph unicode="ƶ" horiz-adv-x="507" d="M447 485H62V375h205l-57-75H72V200h61L42 80V0h425v110H221l69 90h147v100h-71l81 105z"/><glyph unicode="Ǎ" horiz-adv-x="692" d="M145 0l64 155h270L543 0h143L396 700H296L6 0zm201 490l84-215H259zm75 278l95 160h-80l-90-85-90 85h-80l95-160z"/><glyph unicode="ǎ" horiz-adv-x="624" d="M428 485v-42c-42 34-93 52-149 52-131 0-236-105-236-252C43 95 149-10 281-10c61 0 110 21 147 52V0h120v485zM173 243c0 78 57 134 126 134 46 0 87-20 119-57V165c-28-35-68-57-117-57-70 0-128 55-128 135zm206 315l95 160h-80l-90-85-90 85h-80l95-160z"/><glyph unicode="Ǐ" horiz-adv-x="303" d="M84 0h135v700H84zm142 768l95 160h-80l-90-85-90 85h-80l95-160z"/><glyph unicode="ǐ" horiz-adv-x="282" d="M206 485H76V0h130zm10 73l95 160h-80l-90-85-90 85h-80l95-160z"/><glyph unicode="Ǒ" horiz-adv-x="796" d="M177 350c0 132 92 240 221 240s221-108 221-240-92-240-221-240-221 108-221 240zm577 0c0 208-155 360-356 360S42 558 42 350 197-10 398-10s356 152 356 360zM473 768l95 160h-80l-90-85-90 85h-80l95-160z"/><glyph unicode="ǒ" horiz-adv-x="594" d="M172 242c0 73 49 135 125 135s125-62 125-135-49-134-125-134-125 61-125 134zm-130 0C42 102 151-10 297-10s255 112 255 252-109 253-255 253S42 382 42 242zm330 316l95 160h-80l-90-85-90 85h-80l95-160z"/><glyph unicode="Ǔ" horiz-adv-x="748" d="M374 110c-50 0-95 20-125 53-24 26-38 60-38 120v417H76V293c0-91 23-155 65-203C196 27 281-10 374-10S552 27 607 90c42 48 65 112 65 203v407H537V283c0-60-14-94-38-120-30-33-75-53-125-53zm75 658l95 160h-80l-90-85-90 85h-80l95-160z"/><glyph unicode="ǔ" horiz-adv-x="615" d="M409 485V168c-18-23-58-60-113-60-25 0-53 8-73 30-15 17-24 39-24 83v264H69V228c0-72 17-124 48-162 37-46 97-76 163-76 53 0 102 20 139 53V0h120v485zm-29 73l95 160h-80l-90-85-90 85h-80l95-160z"/><glyph unicode="Ǧ" horiz-adv-x="749" d="M677 590c-63 69-158 120-269 120-211 0-366-152-366-360S194-10 410-10c121 0 223 54 287 135v305H382V315h185V162c-46-36-94-52-157-52-144 0-233 108-233 240s92 240 232 240c78 0 137-35 186-82zM478 768l95 160h-80l-90-85-90 85h-80l95-160z"/><glyph unicode="ǧ" horiz-adv-x="624" d="M428 485v-42c-42 34-93 52-149 52-131 0-236-105-236-252C43 95 149-10 281-10c56 0 102 17 137 44 0-63-10-93-30-115-22-26-57-39-99-39-80 0-129 42-155 65l-78-80c48-56 138-100 233-100 93 0 171 36 215 97 29 41 44 93 44 180v443zM173 243c0 78 57 134 126 134 46 0 87-20 119-57V165c-28-35-68-57-117-57-70 0-128 55-128 135zm211 315l95 160h-80l-90-85-90 85h-80l95-160z"/><glyph unicode="Ǩ" horiz-adv-x="670" d="M508 0h171L351 378l308 322H486L219 420v280H84V0h135v339zm-93 768l95 160h-80l-90-85-90 85h-80l95-160z"/><glyph unicode="ǩ" horiz-adv-x="567" d="M551 485H382L206 306v404H76V0h130v213L395 0h171L332 264zM221 763l95 160h-80l-90-85-90 85h-80l95-160z"/><glyph unicode="Ǫ" horiz-adv-x="796" d="M754 350c0 208-155 360-356 360S42 558 42 350C42 154 179 8 362-8c-23-25-40-57-40-94 0-70 58-113 133-113 20 0 42 4 57 10l-12 93c-6-2-15-3-22-3-27 0-46 15-46 42 0 31 26 58 48 72 159 35 274 172 274 351zm-577 0c0 132 92 240 221 240s221-108 221-240-92-240-221-240-221 108-221 240z"/><glyph unicode="ǫ" horiz-adv-x="594" d="M42 242C42 113 134 7 263-8c-23-24-41-57-41-94 0-70 58-113 133-113 20 0 42 4 57 10l-12 93c-6-2-15-3-22-3-27 0-46 15-46 42 0 35 22 61 44 75 104 32 176 126 176 240 0 140-109 253-255 253S42 382 42 242zm130 0c0 73 49 135 125 135s125-62 125-135-49-134-125-134-125 61-125 134z"/><glyph unicode="Ǹ" horiz-adv-x="773" d="M689 700H556V246L184 700H84V0h133v454L589 0h100zM240 928l120-160h80l-60 160z"/><glyph unicode="ǹ" horiz-adv-x="624" d="M206 0v317c18 25 63 60 118 60 30 0 56-10 73-27 18-18 29-43 29-91V0h130v247c0 83-17 135-49 173-39 47-100 75-166 75-54 0-106-20-145-53v43H76V0zm-2 718l120-160h80l-60 160z"/><glyph unicode="Ǻ" horiz-adv-x="692" d="M364 1119l-58-140h80l113 140zM145 0l64 155h270L543 0h143L396 700H296L6 0zm201 490l84-215H259zM236 842c0-61 49-110 110-110s110 49 110 110-49 110-110 110-110-49-110-110zm75 0c0 22 16 37 35 37s35-15 35-37-16-37-35-37-35 15-35 37z"/><glyph unicode="ǻ" horiz-adv-x="624" d="M218 647c0-61 49-110 110-110s110 49 110 110-49 110-110 110-110-49-110-110zm75 0c0 22 16 37 35 37s35-15 35-37-16-37-35-37-35 15-35 37zm45 307l-60-160h80l120 160zm90-469v-42c-42 34-93 52-149 52-131 0-236-105-236-252C43 95 149-10 281-10c61 0 110 21 147 52V0h120v485zM173 243c0 78 57 134 126 134 46 0 87-20 119-57V165c-28-35-68-57-117-57-70 0-128 55-128 135z"/><glyph unicode="Ǽ" horiz-adv-x="964" d="M909 580v120H410L-11 0h151l93 155h256V0h430v120H624v195h225v120H624v145zM305 275l184 306V275zm265 653l-60-160h80l120 160z"/><glyph unicode="ǽ" horiz-adv-x="815" d="M770 210c2 11 3 24 3 37 0 132-80 248-213 248-60 0-112-24-151-64-40 47-94 64-154 64-71 0-141-24-192-62l54-93c39 26 83 45 128 45 52 0 95-21 95-83-35 13-70 18-105 18-103 0-192-64-192-168 0-91 76-162 175-162 102 0 155 53 179 81 48-55 109-81 176-81 76 0 142 33 188 87l-73 72c-32-34-70-49-111-49-66 0-117 42-121 110zm-422-54c-23-32-62-56-110-56-35 0-65 20-65 52 0 50 61 63 100 63 20 0 45-3 66-15 2-15 5-30 9-44zm112 144c6 49 48 88 96 88 51 0 85-40 89-88zm-32 418l-60-160h80l120 160z"/><glyph unicode="Ǿ" horiz-adv-x="805" d="M182 350c0 132 92 240 221 240 39 0 74-10 105-28L215 220c-21 38-33 82-33 130zm442 0c0-132-92-240-221-240-39 0-75 9-105 27l292 342c22-38 34-82 34-129zm-577 0c0-91 30-171 80-233L27 0h153l35 41c54-33 119-51 188-51 201 0 356 152 356 360 0 91-30 171-80 233l100 117H626l-35-41c-54 33-119 51-188 51-201 0-356-152-356-360zm356 578l-60-160h80l120 160z"/><glyph unicode="ǿ" horiz-adv-x="610" d="M560 243c0 59-20 112-53 155l76 87H449l-19-22c-36 20-79 32-125 32-146 0-255-112-255-252 0-59 20-113 53-156L27 0h134l19 22c36-20 79-32 125-32 146 0 255 113 255 253zm-385-1c0 76 51 140 130 140 17 0 33-3 47-9L186 183c-8 18-11 38-11 59zm260 1c0-76-51-140-130-140-17 0-33 3-47 9l166 190c8-18 11-38 11-59zM305 718l-60-160h80l120 160z"/><glyph unicode="Ș" horiz-adv-x="557" d="M27 93C97 24 179-10 276-10c138 0 241 88 241 212 0 88-46 141-103 174-94 55-217 68-217 139 0 39 34 75 100 75 49 0 94-19 131-45l67 95c-59 46-130 70-202 70-123 0-231-73-231-200 0-78 43-130 97-162 93-54 223-64 223-147 0-61-54-91-108-91-64 0-126 29-170 68zM219-55l-60-160h80L359-55z"/><glyph unicode="ș" horiz-adv-x="459" d="M31 60c58-49 129-70 198-70 95 0 190 54 190 152 0 170-235 147-235 207 0 25 30 36 66 36 35 0 68-14 94-31l58 88c-36 29-99 53-162 53-96 0-186-58-186-151 0-156 235-130 235-203 0-24-27-41-62-41-49 0-100 20-133 45zM169-55l-60-160h80L309-55z"/><glyph unicode="Ț" horiz-adv-x="551" d="M23 700V580h185V0h135v580h185v120zM203-55l-60-160h80L343-55z"/><glyph unicode="ț" horiz-adv-x="452" d="M267 380h145v105H267v155H137V485H22V380h115V166c0-60 14-97 38-125 34-39 84-51 131-51 49 0 88 13 121 36l-42 92c-18-9-37-16-60-16-19 0-35 5-45 15-9 9-13 25-13 51zM232-55l-60-160h80L372-55z"/><glyph unicode="Ȟ" horiz-adv-x="773" d="M554 0h135v700H554V435H219v265H84V0h135v315h335zm-93 768l95 160h-80l-90-85-90 85h-80l95-160z"/><glyph unicode="ȟ" horiz-adv-x="624" d="M206 0v317c18 25 63 60 118 60 30 0 56-10 73-27 18-18 29-43 29-91V0h130v247c0 83-17 135-49 173-39 47-100 75-166 75-50 0-98-17-135-45v260H76V0zm15 763l95 160h-80l-90-85-90 85h-80l95-160z"/><glyph unicode="Ȯ" horiz-adv-x="796" d="M177 350c0 132 92 240 221 240s221-108 221-240-92-240-221-240-221 108-221 240zm577 0c0 208-155 360-356 360S42 558 42 350 197-10 398-10s356 152 356 360zM316 848c0-45 37-80 82-80s82 35 82 80-37 80-82 80-82-35-82-80z"/><glyph unicode="ȯ" horiz-adv-x="594" d="M172 242c0 73 49 135 125 135s125-62 125-135-49-134-125-134-125 61-125 134zm-130 0C42 102 151-10 297-10s255 112 255 252-109 253-255 253S42 382 42 242zm173 396c0-45 37-80 82-80s82 35 82 80-37 80-82 80-82-35-82-80z"/><glyph unicode="Ȳ" horiz-adv-x="653" d="M634 700H483L328 451 173 700H19l240-383V0h135v317zM170 886v-95h320v95z"/><glyph unicode="ȳ" horiz-adv-x="582" d="M243-225l329 710H438L301 183 151 485H12L234 44 109-225zM138 681v-95h320v95z"/><glyph unicode="ȷ" horiz-adv-x="290" d="M-81-194c31-26 73-41 122-41 44 0 83 14 113 39 38 31 60 80 60 156v525H84V-41c0-35-5-48-13-58-9-12-26-21-46-21s-39 7-54 17z"/><glyph unicode="Ʉ" horiz-adv-x="818" d="M11 428V323h100v-30c0-91 23-155 65-203C231 27 316-10 409-10S587 27 642 90c42 48 65 112 65 203v30h100v105H707v272H572V428H246v272H111V428zm398-318c-50 0-95 20-125 53-24 26-38 60-38 120v40h326v-40c0-60-14-94-38-120-30-33-75-53-125-53z"/><glyph unicode="ə" horiz-adv-x="550" d="M126 332c25 24 69 53 124 53 69 0 125-42 132-110H45c-2-11-3-24-3-37 0-135 90-248 229-248 147 0 236 118 236 253 0 151-107 252-250 252-78 0-154-31-203-87zm252-147c-6-47-48-88-107-88-58 0-95 42-99 88z"/><glyph unicode="ɛ" horiz-adv-x="498" d="M257-10c96 0 177 43 222 102l-78 66c-34-34-81-60-139-60-51 0-88 20-88 55 0 17 8 28 18 36 12 8 28 11 54 11h84v95h-67c-29 0-44 3-54 9-14 8-20 20-20 36 0 27 28 47 67 47 44 0 87-14 122-39l61 84c-41 32-96 63-187 63-104 0-193-48-193-142 0-38 20-74 48-97-38-22-63-66-63-111 0-78 72-155 213-155z"/><glyph unicode="ɣ" horiz-adv-x="516" d="M1 485L191 92 151 9c-24-51-30-88-30-111 0-65 47-133 138-133s138 68 138 133c0 23-6 60-30 111l-41 85 190 391H380L261 227 141 485zM259-10l14-37c6-17 14-40 14-58 0-16-9-32-28-32s-28 16-28 32c0 18 8 41 14 58z"/><glyph unicode="ɨ" horiz-adv-x="352" d="M241 485H111V333H26v-95h85V0h130v238h85v95h-85zM94 660c0-19 6-36 17-50 10-21 31-35 57-35 12 0 23 3 33 8 33 10 57 40 57 77 0 45-37 80-82 80s-82-35-82-80z"/><glyph unicode="ɲ" horiz-adv-x="624" d="M76-57c0-26-4-42-13-51-10-10-26-15-45-15-23 0-42 7-60 16l-42-92c33-23 72-36 121-36 47 0 97 12 131 51 24 28 38 65 38 125v376c18 25 63 60 118 60 30 0 56-10 73-27 18-18 29-43 29-91V0h130v247c0 83-17 135-49 173-39 47-100 75-166 75-54 0-106-20-145-53v43H76z"/><glyph unicode="ʉ" horiz-adv-x="688" d="M447 485V333H237v152H107V333H22v-95h85v-10c0-72 17-124 48-162 37-46 97-76 163-76 53 0 102 20 139 53V0h120v238h85v95h-85v152zM334 108c-25 0-53 8-73 30-15 17-24 39-24 83v17h210v-70c-18-23-58-60-113-60z"/><glyph unicode="ʻ" horiz-adv-x="287" d="M180 410l75 290h-90L35 410z"/><glyph unicode="ʼ" horiz-adv-x="281" d="M120 700L45 410h90l130 290z"/><glyph unicode="ˆ" horiz-adv-x="480" d="M165 718L70 558h80l90 85 90-85h80l-95 160z"/><glyph unicode="ˇ" horiz-adv-x="480" d="M315 558l95 160h-80l-90-85-90 85H70l95-160z"/><glyph unicode="ˉ" horiz-adv-x="500" d="M70 681v-95h320v95z"/><glyph unicode="˘" horiz-adv-x="440" d="M220 651c-37 0-60 26-60 57H70c0-81 60-150 150-150s150 69 150 150h-90c0-31-23-57-60-57z"/><glyph unicode="˙" horiz-adv-x="304" d="M70 638c0-45 37-80 82-80s82 35 82 80-37 80-82 80-82-35-82-80z"/><glyph unicode="˚" horiz-adv-x="360" d="M70 662c0-61 49-110 110-110s110 49 110 110-49 110-110 110S70 723 70 662zm75 0c0 22 16 37 35 37s35-15 35-37-16-37-35-37-35 15-35 37z"/><glyph unicode="˛" horiz-adv-x="330" d="M118 5C88-24 70-63 70-102c0-70 58-113 133-113 20 0 42 4 57 10l-14 99c-3-1-10-4-21-4-26 0-43 20-43 43 0 30 25 55 48 67z"/><glyph unicode="˜" horiz-adv-x="510" d="M363 713c-3-28-16-50-40-50-43 0-87 50-147 50-72 0-106-59-106-134l77-16c3 28 16 50 40 50 43 0 87-50 147-50 72 0 106 59 106 134z"/><glyph unicode="˝" horiz-adv-x="530" d="M130 718L70 558h75l120 160zm195 0l-60-160h75l120 160z"/><glyph unicode="̀" horiz-adv-x="1" d="M-447 718l120-160h80l-60 160z"/><glyph unicode="́" horiz-adv-x="1" d="M-277 718l-60-160h80l120 160z"/><glyph unicode="̂" horiz-adv-x="1" d="M-367 718l-95-160h80l90 85 90-85h80l-95 160z"/><glyph unicode="̃" horiz-adv-x="1" d="M-184 713c-3-28-16-50-40-50-43 0-87 50-147 50-72 0-106-59-106-134l77-16c3 28 16 50 40 50 43 0 87-50 147-50 72 0 106 59 106 134z"/><glyph unicode="̄" horiz-adv-x="1" d="M-389 681v-95h320v95z"/><glyph unicode="̆" horiz-adv-x="1" d="M-219 651c-37 0-60 26-60 57h-90c0-81 60-150 150-150s150 69 150 150h-90c0-31-23-57-60-57z"/><glyph unicode="̇" horiz-adv-x="1" d="M-221 638c0-45 37-80 82-80s82 35 82 80-37 80-82 80-82-35-82-80z"/><glyph unicode="̈" horiz-adv-x="1" d="M-439 639c0-44 36-78 80-78s80 34 80 78-36 77-80 77-80-33-80-77zm210 0c0-44 36-78 80-78s80 34 80 78-36 77-80 77-80-33-80-77z"/><glyph unicode="̊" horiz-adv-x="1" d="M-289 662c0-61 49-110 110-110s110 49 110 110-49 110-110 110-110-49-110-110zm75 0c0 22 16 37 35 37s35-15 35-37-16-37-35-37-35 15-35 37z"/><glyph unicode="̋" horiz-adv-x="1" d="M-420 718l-60-160h75l120 160zm195 0l-60-160h75l120 160z"/><glyph unicode="̌" horiz-adv-x="1" d="M-189 558l95 160h-80l-90-85-90 85h-80l95-160z"/><glyph unicode="̒" horiz-adv-x="1" d="M-254 558l60 160h-80l-120-160z"/><glyph unicode="̓" horiz-adv-x="1" d="M-109 700l-60-160h80L31 700z"/><glyph unicode="̣" horiz-adv-x="1" d="M-221-135c0-45 37-80 82-80s82 35 82 80-37 80-82 80-82-35-82-80z"/><glyph unicode="̦" horiz-adv-x="1" d="M70-55L10-215h80L210-55z"/><glyph unicode="̧" horiz-adv-x="1" d="M70-150h130l30 160h-95z"/><glyph unicode="̨" horiz-adv-x="1" d="M125 5C95-20 70-58 70-102c0-70 58-113 133-113 20 0 42 4 57 10l-12 93c-6-2-15-3-22-3-27 0-46 15-46 42 0 32 28 59 50 73z"/><glyph unicode="̮" horiz-adv-x="1" d="M-219-122c-37 0-60 26-60 57h-90c0-81 60-150 150-150S-69-146-69-65h-90c0-31-23-57-60-57z"/><glyph unicode="̱" horiz-adv-x="1" d="M-389-92v-95h320v95z"/><glyph unicode="̵" horiz-adv-x="1" d="M-389 292v-95h320v95z"/><glyph unicode="·" horiz-adv-x="375" d="M110 250c0-47 38-83 85-83s85 36 85 83-38 83-85 83-85-36-85-83z"/><glyph unicode="Δ" horiz-adv-x="614" d="M22 70V0h570v70L352 700h-90zm285 440l152-400H155z"/><glyph unicode="Ω" horiz-adv-x="830" d="M415 590c131 0 220-108 220-245 0-112-57-201-143-265V0h273v115h-89c52 56 89 147 89 235 0 199-149 360-350 360S65 549 65 350c0-88 37-179 89-235H65V0h273v80c-86 64-143 153-143 265 0 137 89 245 220 245z"/><glyph unicode="μ" horiz-adv-x="622" d="M302-10c47 0 92 23 124 53V0h120v485H416V168c-18-23-58-60-113-60-25 0-53 8-73 30-15 17-24 39-24 83v264H76v-710h130V25c28-25 62-35 96-35z"/><glyph unicode="π" horiz-adv-x="611" d="M143 0h120v360h99V161c0-79 9-126 69-171l85 80c-27 23-34 41-34 83v207h100v110H184c-39 0-72-6-93-14-33-12-61-31-81-61l70-72c15 19 39 33 63 36z"/><glyph unicode="Ѐ" horiz-adv-x="559" d="M504 580v120H84V0h430v120H219v195h225v120H219v145zM160 928l120-160h80l-60 160z"/><glyph unicode="Ё" horiz-adv-x="559" d="M504 580v120H84V0h430v120H219v195h225v120H219v145zM110 849c0-44 36-78 80-78s80 34 80 78-36 77-80 77-80-33-80-77zm210 0c0-44 36-78 80-78s80 34 80 78-36 77-80 77-80-33-80-77z"/><glyph unicode="Ђ" horiz-adv-x="772" d="M23 700V580h185V0h135v281c36 39 95 54 142 54 75 0 131-48 131-119 0-66-46-106-105-106-29 0-56 8-69 17L397 24c20-15 65-34 123-34 137 0 231 99 231 226 0 148-112 239-246 239-59 0-118-14-162-45v170h185v120z"/><glyph unicode="Ѓ" horiz-adv-x="518" d="M84 0h135v580h275v120H84zm211 928l-60-160h80l120 160z"/><glyph unicode="Є" horiz-adv-x="716" d="M677 590c-63 69-158 120-269 120-211 0-366-147-366-360S194-10 410-10c121 0 223 56 287 139l-87 76c-60-64-117-95-200-95-126 0-209 78-229 189h311v117H184c25 103 108 174 225 174 78 0 137-35 186-82z"/><glyph unicode="Ѕ" horiz-adv-x="557" d="M27 93C97 24 179-10 276-10c138 0 241 88 241 212 0 88-46 141-103 174-94 55-217 68-217 139 0 39 34 75 100 75 49 0 94-19 131-45l67 95c-59 46-130 70-202 70-123 0-231-73-231-200 0-78 43-130 97-162 93-54 223-64 223-147 0-61-54-91-108-91-64 0-126 29-170 68z"/><glyph unicode="І" horiz-adv-x="303" d="M84 0h135v700H84z"/><glyph unicode="Ї" horiz-adv-x="303" d="M84 0h135v700H84zM-34 849c0-44 36-78 80-78s80 34 80 78-36 77-80 77-80-33-80-77zm210 0c0-44 36-78 80-78s80 34 80 78-36 77-80 77-80-33-80-77z"/><glyph unicode="Ј" horiz-adv-x="497" d="M419 700H284V205c0-37-6-54-16-67-14-18-36-28-61-28-46 0-76 30-94 59L9 113C51 33 126-10 209-10c80 0 154 39 188 106 15 30 22 68 22 124z"/><glyph unicode="Љ" horiz-adv-x="1043" d="M86-10c68 0 119 25 153 104 23 54 31 133 35 248l8 238h230V0h262c78 0 131 23 171 59 44 41 72 99 72 164s-28 122-72 163c-40 36-93 59-171 59H647v255H162l-12-351c-3-96-9-155-21-190-12-37-39-49-73-49-9 0-18 0-34 3V-1c16-5 38-9 64-9zm672 337c48 0 75-11 94-31 18-19 30-44 30-73s-12-55-30-74c-19-20-46-31-94-31H647v209z"/><glyph unicode="Њ" horiz-adv-x="1049" d="M786 0c87 0 147 31 187 79 32 38 51 86 51 139s-19 100-51 138c-40 48-100 79-187 79H654v265H519V435H219v265H84V0h135v315h300V0zM654 118v199h116c48 0 75-12 93-32 17-18 26-41 26-67s-9-50-26-68c-18-20-45-32-93-32z"/><glyph unicode="Ћ" horiz-adv-x="775" d="M735 206c0 80-21 138-59 180-40 45-99 71-175 71-59 0-112-17-158-47v170h185v120H23V580h185V0h135v279c40 37 95 58 142 58 32 0 65-11 86-35 16-18 29-43 29-100V0h135z"/><glyph unicode="Ќ" horiz-adv-x="670" d="M508 0h171L351 378l308 322H486L219 420v280H84V0h135v339zM355 928l-60-160h80l120 160z"/><glyph unicode="Ѝ" horiz-adv-x="773" d="M84 0h100l372 460V0h133v700H589L217 240v460H84zm161 928l120-160h80l-60 160z"/><glyph unicode="Ў" horiz-adv-x="636" d="M152-10c123 0 179 73 258 233l235 477H502L332 350 153 700H5l254-496c-26-55-59-94-119-94-10 0-22 0-44 4V0c17-6 42-10 56-10zm28 928c0-81 65-150 150-150s150 69 150 150H380c0-39-17-65-50-65s-50 26-50 65z"/><glyph unicode="Џ" horiz-adv-x="753" d="M314-160h125V0h230v700H534V120H219v580H84V0h230z"/><glyph unicode="А" horiz-adv-x="692" d="M145 0l64 155h270L543 0h143L396 700H296L6 0zm201 490l84-215H259z"/><glyph unicode="Б" horiz-adv-x="618" d="M519 582v118H84V0h267c87 0 147 31 187 79 32 38 51 86 51 139s-19 100-51 138c-40 48-100 79-187 79H219v147zM219 118v199h116c48 0 75-12 93-32 17-18 26-41 26-67s-9-50-26-68c-18-20-45-32-93-32z"/><glyph unicode="В" horiz-adv-x="641" d="M84 700V0h273c90 0 144 24 183 63 39 38 64 92 64 151 0 78-43 148-105 179 23 24 45 71 45 117 0 57-26 107-65 141-34 30-78 49-157 49zm325-194c0-19-7-38-20-52-14-16-34-25-77-25h-93v153h93c43 0 63-9 77-25 13-14 20-32 20-51zM219 118v199h131c48 0 75-12 93-32 17-18 26-41 26-67s-9-50-26-68c-18-20-45-32-93-32z"/><glyph unicode="Г" horiz-adv-x="518" d="M84 0h135v580h275v120H84z"/><glyph unicode="Д" horiz-adv-x="796" d="M23-160h125V0h490v-160h125v280H658v580H174l-7-266c-3-133-11-223-74-314H23zm211 280c47 89 54 203 58 310l5 150h226V120z"/><glyph unicode="Е" horiz-adv-x="559" d="M504 580v120H84V0h430v120H219v195h225v120H219v145z"/><glyph unicode="Ж" horiz-adv-x="979" d="M820 0h167L685 380l282 320H803L557 420v280H422V420L181 700H12l282-326L-8 0h161l269 339V0h135v339z"/><glyph unicode="З" horiz-adv-x="578" d="M277-10c137 0 253 77 253 219 0 70-36 131-84 163 36 32 64 81 64 135 0 129-101 203-228 203-96 0-170-44-217-92l78-86c36 33 82 58 131 58 59 0 101-32 101-85 0-23-9-42-24-55-16-14-37-21-73-21h-86V315h79c41 0 69-9 90-26s34-42 34-73c0-62-48-106-125-106-74 0-132 40-177 84L9 114C82 31 172-10 277-10z"/><glyph unicode="И" horiz-adv-x="773" d="M84 0h100l372 460V0h133v700H589L217 240v460H84z"/><glyph unicode="Й" horiz-adv-x="773" d="M84 0h100l372 460V0h133v700H589L217 240v460H84zm160 918c0-81 65-150 150-150s150 69 150 150H444c0-39-17-65-50-65s-50 26-50 65z"/><glyph unicode="К" horiz-adv-x="670" d="M508 0h171L351 378l308 322H486L219 420v280H84V0h135v339z"/><glyph unicode="Л" horiz-adv-x="731" d="M150 349c-3-96-9-155-21-190-12-37-39-49-73-49-9 0-18 0-34 3V-1c16-5 38-9 64-9 68 0 119 25 153 104 23 54 31 133 35 248l8 238h230V0h135v700H162z"/><glyph unicode="М" horiz-adv-x="858" d="M184 700H84V0h133v430l199-295h26l199 295V0h133v700H674L430 341z"/><glyph unicode="Н" horiz-adv-x="773" d="M554 0h135v700H554V435H219v265H84V0h135v315h335z"/><glyph unicode="О" horiz-adv-x="796" d="M177 350c0 132 92 240 221 240s221-108 221-240-92-240-221-240-221 108-221 240zm577 0c0 208-155 360-356 360S42 558 42 350 197-10 398-10s356 152 356 360z"/><glyph unicode="П" horiz-adv-x="753" d="M84 0h135v580h315V0h135v700H84z"/><glyph unicode="Р" horiz-adv-x="609" d="M219 403v179h110c57 0 82-12 98-31 14-16 22-35 22-58s-8-43-22-59c-16-19-41-31-98-31zm127-118c98 0 158 32 196 82 27 35 42 79 42 126s-15 90-42 125c-38 50-98 82-196 82H84V0h135v285z"/><glyph unicode="С" horiz-adv-x="711" d="M677 590c-63 69-158 120-269 120-211 0-366-152-366-360S194-10 410-10c121 0 223 56 287 139l-87 76c-60-64-117-95-200-95-144 0-233 108-233 240s92 240 232 240c78 0 137-35 186-82z"/><glyph unicode="Т" horiz-adv-x="551" d="M23 700V580h185V0h135v580h185v120z"/><glyph unicode="У" horiz-adv-x="636" d="M152-10c123 0 179 73 258 233l235 477H502L332 350 153 700H5l254-496c-26-55-59-94-119-94-10 0-22 0-44 4V0c17-6 42-10 56-10z"/><glyph unicode="Ф" horiz-adv-x="863" d="M364-10h135v86c187 0 325 98 325 282S686 640 499 640v70H364v-70c-187 0-325-98-325-282S177 76 364 76zm135 531c91 0 190-35 190-163s-99-163-190-163zM364 195c-91 0-190 35-190 163s99 163 190 163z"/><glyph unicode="Х" horiz-adv-x="650" d="M625 700H470L326 484 183 700H25l222-330L-5 0h155l174 259L496 0h159L403 373z"/><glyph unicode="Ц" horiz-adv-x="807" d="M649-160h125v280H669v580H534V120H219v580H84V0h565z"/><glyph unicode="Ч" horiz-adv-x="677" d="M458 0h135v700H458V403c-38-15-85-23-136-23-42 0-83 8-110 34-22 21-34 54-34 111v175H43V522c0-167 87-262 272-262 50 0 103 10 143 23z"/><glyph unicode="Ш" horiz-adv-x="1033" d="M84 0h865v700H814V120H584v580H449V120H219v580H84z"/><glyph unicode="Щ" horiz-adv-x="1087" d="M84 0h845v-160h125v280H949v580H814V120H584v580H449V120H219v580H84z"/><glyph unicode="Ъ" horiz-adv-x="719" d="M323 445v255H28V580h160V0h262c78 0 130 21 170 57 45 41 73 100 73 165s-28 124-73 165c-40 36-92 58-170 58zm111-118c48 0 75-11 94-31 18-19 30-44 30-73s-12-55-30-74c-19-20-46-31-94-31H323v209z"/><glyph unicode="Ы" horiz-adv-x="873" d="M219 445v255H84V0h262c78 0 130 21 170 57 45 41 73 100 73 165s-28 124-73 165c-40 36-92 58-170 58zm111-118c48 0 75-11 94-31 18-19 30-44 30-73s-12-55-30-74c-19-20-46-31-94-31H219v209zM654 0h135v700H654z"/><glyph unicode="Ь" horiz-adv-x="615" d="M219 445v255H84V0h262c78 0 130 21 170 57 45 41 73 100 73 165s-28 124-73 165c-40 36-92 58-170 58zm111-118c48 0 75-11 94-31 18-19 30-44 30-73s-12-55-30-74c-19-20-46-31-94-31H219v209z"/><glyph unicode="Э" horiz-adv-x="717" d="M121 508c49 47 108 82 192 82 112 0 195-69 219-174H224V299h311c-19-114-102-189-222-189-90 0-147 31-207 95l-87-76C83 46 185-10 313-10c209 0 361 142 361 360S512 710 313 710c-117 0-211-51-274-120z"/><glyph unicode="Ю" horiz-adv-x="1036" d="M644-10c201 0 350 156 350 360S845 710 644 710c-175 0-311-119-343-284h-82v274H84V0h135v305h77C316 123 458-10 644-10zm0 600c129 0 215-108 215-240s-86-240-215-240-215 108-215 240 86 240 215 240z"/><glyph unicode="Я" horiz-adv-x="667" d="M448 288V0h135v700H321c-98 0-158-32-196-82-27-35-42-78-42-125 0-97 61-168 148-193L3 0h162l215 288zm0 115H327c-43 0-63 8-79 22-18 16-30 41-30 68s12 51 30 67c16 14 36 22 79 22h121z"/><glyph unicode="а" horiz-adv-x="624" d="M428 485v-42c-42 34-93 52-149 52-131 0-236-105-236-252C43 95 149-10 281-10c61 0 110 21 147 52V0h120v485zM173 243c0 78 57 134 126 134 46 0 87-20 119-57V165c-28-35-68-57-117-57-70 0-128 55-128 135z"/><glyph unicode="б" horiz-adv-x="613" d="M191 235c0 73 49 132 125 132s125-59 125-132-49-132-125-132-125 59-125 132zM61 277c0-83 16-142 45-182C151 32 226-10 316-10c147 0 255 112 255 247 0 147-110 241-235 241-61 0-116-24-150-55 13 89 60 135 162 146 70 7 139 18 187 38v110c-48-20-119-26-191-34C168 662 61 561 61 311z"/><glyph unicode="в" horiz-adv-x="571" d="M486 350c0 44-20 82-52 107-23 18-52 28-103 28H76V0h295c57 0 90 15 115 38 27 26 45 62 45 102 0 53-34 106-79 130 22 20 34 48 34 80zM206 100v100h135c24 0 36-5 45-14s15-22 15-36-6-27-15-36-21-14-45-14zm0 195v90h96c20 0 29-4 36-9 11-8 18-22 18-36s-7-28-18-36c-7-5-16-9-36-9z"/><glyph unicode="г" horiz-adv-x="438" d="M76 0h130v370h205v115H76z"/><glyph unicode="д" horiz-adv-x="666" d="M28-140h120V0h367v-140h120v250h-90v375H150l-5-164c-4-116-20-176-65-211H28zm194 250c27 47 38 104 42 199l3 66h148V110z"/><glyph unicode="е" horiz-adv-x="550" d="M424 153c-25-24-69-53-124-53-69 0-125 42-132 110h337c2 11 3 24 3 37 0 135-90 248-229 248-147 0-236-118-236-253C43 91 150-10 293-10c78 0 154 31 203 87zM172 300c6 47 48 88 107 88 58 0 95-42 99-88z"/><glyph unicode="ж" horiz-adv-x="838" d="M234 254L4 0h163l187 213V0h130v213L666 0h168L604 264l215 221H655L484 306v179H354V306L192 485H19z"/><glyph unicode="з" horiz-adv-x="502" d="M243-10c141 0 213 77 213 155 0 45-25 89-63 111 28 23 48 59 48 97 0 94-89 142-193 142-91 0-146-31-187-63l61-84c35 25 78 39 122 39 39 0 67-20 67-47 0-16-6-28-20-36-10-6-25-9-54-9h-67v-95h84c26 0 42-3 54-11 10-8 18-19 18-36 0-35-37-55-88-55-58 0-105 26-139 60L21 92C66 33 147-10 243-10z"/><glyph unicode="и" horiz-adv-x="617" d="M76 0h90l245 281V0h130v485h-90L206 204v281H76z"/><glyph unicode="й" horiz-adv-x="617" d="M76 0h90l245 281V0h130v485h-90L206 204v281H76zm90 708c0-81 65-150 150-150s150 69 150 150H366c0-39-17-65-50-65s-50 26-50 65z"/><glyph unicode="к" horiz-adv-x="567" d="M551 485H382L206 306v179H76V0h130v213L395 0h171L332 264z"/><glyph unicode="л" horiz-adv-x="603" d="M251 370h146V0h130v485H135l-8-223c-2-63-5-104-19-128-11-18-31-26-56-26-7 0-19 1-25 2V0c18-4 40-6 53-6 55 0 96 14 122 53 28 42 40 101 44 196z"/><glyph unicode="м" horiz-adv-x="727" d="M76 0h125v261L359 64h9l158 197V0h125v485h-90L367 233 166 485H76z"/><glyph unicode="н" horiz-adv-x="622" d="M76 0h130v200h210V0h130v485H416V315H206v170H76z"/><glyph unicode="о" horiz-adv-x="594" d="M172 242c0 73 49 135 125 135s125-62 125-135-49-134-125-134-125 61-125 134zm-130 0C42 102 151-10 297-10s255 112 255 252-109 253-255 253S42 382 42 242z"/><glyph unicode="п" horiz-adv-x="612" d="M76 0h130v370h200V0h130v485H76z"/><glyph unicode="р" horiz-adv-x="624" d="M76 485v-710h130V34c35-27 81-44 137-44 132 0 238 105 238 253 0 147-105 252-236 252-56 0-107-18-149-52v42zm375-242c0-80-58-135-128-135-49 0-89 22-117 57v155c32 37 73 57 119 57 69 0 126-56 126-134z"/><glyph unicode="с" horiz-adv-x="543" d="M429 168c-24-28-67-58-123-58-79 0-134 56-134 132 0 77 62 133 134 133 47 0 81-21 113-52l83 75c-53 64-123 97-203 97-146 0-257-114-257-253S151-10 300-10c92 0 166 39 217 109z"/><glyph unicode="т" horiz-adv-x="484" d="M177 0h130v370h150v115H27V370h150z"/><glyph unicode="у" horiz-adv-x="582" d="M243-225l329 710H438L301 183 151 485H12L234 44 109-225z"/><glyph unicode="ф" horiz-adv-x="764" d="M447 685H317V495C131 483 42 370 42 243 42 115 131 0 317-10v-228h130v228C633 0 722 115 722 243c0 127-89 240-275 252zM317 105c-80 5-145 49-145 138 0 88 65 131 145 137zm130 275c80-6 145-49 145-137 0-89-65-133-145-138z"/><glyph unicode="х" horiz-adv-x="544" d="M184 485H30l166-227L7 0h151l113 158L383 0h154L348 259l166 226H363l-90-127z"/><glyph unicode="ц" horiz-adv-x="657" d="M506-140h120v255h-90v370H406V115H206v370H76V0h430z"/><glyph unicode="ч" horiz-adv-x="552" d="M346 0h130v485H346V282c-17-9-43-17-75-17-39 0-65 10-81 29-13 15-19 37-19 72v119H41V352c0-67 16-105 42-134 38-42 98-63 162-63 46 0 76 7 101 15z"/><glyph unicode="ш" horiz-adv-x="882" d="M76 0h730v485H676V115H506v370H376V115H206v370H76z"/><glyph unicode="щ" horiz-adv-x="927" d="M76 0h700v-140h120v255h-90v370H676V115H506v370H376V115H206v370H76z"/><glyph unicode="ъ" horiz-adv-x="597" d="M374 0c63 0 102 16 132 42 37 32 61 79 61 131s-24 98-61 130c-30 26-69 42-132 42h-97v140H27V375h120V0zm-97 240h82c28 0 44-7 56-18 13-12 22-29 22-49s-9-38-22-50c-12-11-28-18-56-18h-82z"/><glyph unicode="ы" horiz-adv-x="752" d="M676 485H546V0h130zM206 240h82c28 0 44-7 56-18 13-12 22-29 22-49s-9-38-22-50c-12-11-28-18-56-18h-82zM303 0c63 0 102 16 132 42 37 32 61 79 61 131s-24 98-61 130c-30 26-69 42-132 42h-97v140H76V0z"/><glyph unicode="ь" horiz-adv-x="526" d="M206 240h82c28 0 44-7 56-18 13-12 22-29 22-49s-9-38-22-50c-12-11-28-18-56-18h-82zM303 0c63 0 102 16 132 42 37 32 61 79 61 131s-24 98-61 130c-30 26-69 42-132 42h-97v140H76V0z"/><glyph unicode="э" horiz-adv-x="546" d="M376 200c-13-61-63-95-128-95-53 0-104 25-132 63L28 99C80 30 157-10 251-10c147 0 252 105 252 252S395 495 252 495c-89 0-157-40-209-97l84-75c35 35 77 57 124 57 60 0 105-31 120-85H170v-95z"/><glyph unicode="ю" horiz-adv-x="804" d="M76 0h130v195h59C285 78 382-10 511-10c146 0 250 112 250 252S657 495 511 495c-122 0-214-78-242-185h-63v175H76zm315 242c0 73 46 137 120 137s120-64 120-137-46-136-120-136-120 63-120 136z"/><glyph unicode="я" horiz-adv-x="563" d="M177 0l114 160h66V0h130v485H240c-61 0-98-15-126-40-33-29-54-73-54-120 0-65 40-123 97-146L30 0zm80 265c-27 0-42 7-52 19-9 10-15 24-15 39s6 28 15 38c10 12 25 19 52 19h100V265z"/><glyph unicode="ѐ" horiz-adv-x="550" d="M424 153c-25-24-69-53-124-53-69 0-125 42-132 110h337c2 11 3 24 3 37 0 135-90 248-229 248-147 0-236-118-236-253C43 91 150-10 293-10c78 0 154 31 203 87zM172 300c6 47 48 88 107 88 58 0 95-42 99-88zm-21 418l120-160h80l-60 160z"/><glyph unicode="ё" horiz-adv-x="550" d="M424 153c-25-24-69-53-124-53-69 0-125 42-132 110h337c2 11 3 24 3 37 0 135-90 248-229 248-147 0-236-118-236-253C43 91 150-10 293-10c78 0 154 31 203 87zM172 300c6 47 48 88 107 88 58 0 95-42 99-88zm-72 339c0-44 36-78 80-78s80 34 80 78-36 77-80 77-80-33-80-77zm210 0c0-44 36-78 80-78s80 34 80 78-36 77-80 77-80-33-80-77z"/><glyph unicode="ђ" horiz-adv-x="624" d="M426 259V-41c0-35-5-48-13-58-9-12-26-21-46-21s-39 7-54 17l-52-91c31-26 73-41 122-41 44 0 83 14 113 39 38 31 60 80 60 156v287c0 83-17 135-49 173-39 47-100 75-166 75-50 0-98-17-135-45v95h130v95H206v70H76v-70H-4v-95h80V0h130v317c18 25 63 60 118 60 30 0 56-10 73-27 18-18 29-43 29-91z"/><glyph unicode="ѓ" horiz-adv-x="438" d="M76 0h130v370h205v115H76zm168 718l-60-160h80l120 160z"/><glyph unicode="є" horiz-adv-x="545" d="M375 200v95H174c18 52 65 85 123 85 50 0 90-24 121-57l84 75c-55 61-123 97-203 97-146 0-257-114-257-253S151-10 300-10c92 0 164 40 217 109l-88 69c-24-32-71-63-126-63-67 0-118 35-134 95z"/><glyph unicode="ѕ" horiz-adv-x="459" d="M31 60c58-49 129-70 198-70 95 0 190 54 190 152 0 170-235 147-235 207 0 25 30 36 66 36 35 0 68-14 94-31l58 88c-36 29-99 53-162 53-96 0-186-58-186-151 0-156 235-130 235-203 0-24-27-41-62-41-49 0-100 20-133 45z"/><glyph unicode="і" horiz-adv-x="282" d="M206 485H76V0h130zM59 660c0-45 37-80 82-80s82 35 82 80-37 80-82 80-82-35-82-80z"/><glyph unicode="ї" horiz-adv-x="282" d="M206 485H76V0h130zM-44 663c0-44 36-78 80-78s80 34 80 78-36 77-80 77-80-33-80-77zm210 0c0-44 36-78 80-78s80 34 80 78-36 77-80 77-80-33-80-77z"/><glyph unicode="ј" horiz-adv-x="290" d="M-81-194c31-26 73-41 122-41 44 0 83 14 113 39 38 31 60 80 60 156v525H84V-41c0-35-5-48-13-58-9-12-26-21-46-21s-39 7-54 17zM67 660c0-45 37-80 82-80s82 35 82 80-37 80-82 80-82-35-82-80z"/><glyph unicode="љ" horiz-adv-x="837" d="M614 0c63 0 102 16 132 42 37 32 61 79 61 131s-24 98-61 130c-30 26-69 42-132 42h-97v140H135l-8-223c-2-63-5-104-19-128-11-18-31-26-56-26-7 0-19 1-25 2V0c18-4 40-6 53-6 55 0 96 14 122 53 28 42 40 101 44 196l5 127h136V0zm-97 240h82c28 0 44-7 56-18 13-12 22-29 22-49s-9-38-22-50c-12-11-28-18-56-18h-82z"/><glyph unicode="њ" horiz-adv-x="836" d="M76 0h130v220h180V0h237c64 0 104 17 133 45 31 30 50 72 50 118s-19 87-50 117c-29 28-69 45-133 45H516v160H386V325H206v160H76zm600 163c0-16-7-31-18-42-10-10-24-16-50-16h-92v115h92c26 0 40-6 50-16 11-11 18-25 18-41z"/><glyph unicode="ћ" horiz-adv-x="624" d="M206 0v317c18 25 63 60 118 60 30 0 56-10 73-27 18-18 29-43 29-91V0h130v247c0 83-17 135-49 173-39 47-100 75-166 75-50 0-98-17-135-45v95h130v95H206v70H76v-70H-4v-95h80V0z"/><glyph unicode="ќ" horiz-adv-x="567" d="M551 485H382L206 306v179H76V0h130v213L395 0h171L332 264zM285 709l-60-160h80l120 160z"/><glyph unicode="ѝ" horiz-adv-x="617" d="M76 0h90l245 281V0h130v485h-90L206 204v281H76zm98 718l120-160h80l-60 160z"/><glyph unicode="ў" horiz-adv-x="582" d="M147 708c0-81 65-150 150-150s150 69 150 150H347c0-39-17-65-50-65s-50 26-50 65zm96-933l329 710H438L301 183 151 485H12L234 44 109-225z"/><glyph unicode="џ" horiz-adv-x="612" d="M246-140h120V0h170v485H406V115H206v370H76V0h170z"/><glyph unicode="Ѣ" horiz-adv-x="715" d="M441 0c87 0 147 31 187 79 32 38 51 86 51 139s-19 100-51 138c-40 48-100 79-187 79H309v85h185v100H309v90H174v-90H29V520h145V0zM309 118v199h116c48 0 75-12 93-32 17-18 26-41 26-67s-9-50-26-68c-18-20-45-32-93-32z"/><glyph unicode="ѣ" horiz-adv-x="598" d="M415 390v95H270v155H140V485H25v-95h115V0h237c64 0 104 17 133 45 31 30 50 72 50 118s-19 87-50 117c-29 28-69 45-133 45H270v65zm15-227c0-16-7-31-18-42-10-10-24-16-50-16h-92v115h92c26 0 40-6 50-16 11-11 18-25 18-41z"/><glyph unicode="Ґ" horiz-adv-x="518" d="M84 0h135v580h275v280H369V700H84z"/><glyph unicode="ґ" horiz-adv-x="438" d="M76 0h130v370h205v255H291V485H76z"/><glyph unicode="Ғ" horiz-adv-x="552" d="M115 0h135v295h185v115H250v170h275v120H115V410H20V295h95z"/><glyph unicode="ғ" horiz-adv-x="470" d="M108 0h130v180h124v100H238v95h205v110H108V280H28V180h80z"/><glyph unicode="Қ" horiz-adv-x="710" d="M508 0h66v-160h125v280H575L351 378l308 322H486L219 420v280H84V0h135v339z"/><glyph unicode="қ" horiz-adv-x="601" d="M551 485H382L206 306v179H76V0h130v213L395 0h66v-140h120v255H464L332 264z"/><glyph unicode="Ң" horiz-adv-x="827" d="M554 0h115v-160h125v280H689v580H554V435H219v265H84V0h135v315h335z"/><glyph unicode="ң" horiz-adv-x="667" d="M76 0h130v200h210V0h100v-140h120v255h-90v370H416V315H206v170H76z"/><glyph unicode="Ү" horiz-adv-x="653" d="M634 700H483L328 451 173 700H19l240-383V0h135v317z"/><glyph unicode="ү" horiz-adv-x="547" d="M208-225h130V0l194 485H400L276 159 150 485H15L208 0z"/><glyph unicode="Ұ" horiz-adv-x="645" d="M630 700H479L324 451 169 700H15l240-383H100V200h155V0h135v200h155v117H390z"/><glyph unicode="ұ" horiz-adv-x="547" d="M208-225h130v125h130V0H338l194 485H400L276 159 150 485H15L208 0H79v-100h129z"/><glyph unicode="Ҳ" horiz-adv-x="701" d="M625 700H470L326 484 183 700H25l222-330L-5 0h155l174 259L496 0h69v-160h125v280H574L403 373z"/><glyph unicode="ҳ" horiz-adv-x="578" d="M432-140h120v255h-99L348 259l166 226H363l-90-127-89 127H30l166-227L7 0h151l113 158L383 0h49z"/><glyph unicode="Һ" horiz-adv-x="677" d="M219 700H84V0h135v297c38 15 85 23 136 23 42 0 83-8 110-34 22-21 34-54 34-111V0h135v178c0 167-87 262-272 262-50 0-103-10-143-23z"/><glyph unicode="һ" horiz-adv-x="624" d="M206 0v317c18 25 63 60 118 60 30 0 56-10 73-27 18-18 29-43 29-91V0h130v247c0 83-17 135-49 173-39 47-100 75-166 75-50 0-98-17-135-45v260H76V0z"/><glyph unicode="Ә" horiz-adv-x="745" d="M557 277c-8-88-86-167-190-167-102 0-174 83-183 167zM134 502c63 52 138 88 218 88 117 0 201-81 213-193H45c-3-16-4-34-4-53C41 152 172-9 367-9c208 0 336 168 336 360 0 214-139 359-352 359-102 0-218-49-293-124z"/><glyph unicode="ә" horiz-adv-x="550" d="M126 332c25 24 69 53 124 53 69 0 125-42 132-110H45c-2-11-3-24-3-37 0-135 90-248 229-248 147 0 236 118 236 253 0 151-107 252-250 252-78 0-154-31-203-87zm252-147c-6-47-48-88-107-88-58 0-95 42-99 88z"/><glyph unicode="Ө" horiz-adv-x="796" d="M398 105c-113 0-201 82-218 195h436c-17-113-105-195-218-195zm0 490c108 0 193-76 215-180H183c22 104 107 180 215 180zm356-245c0 208-155 360-356 360S42 558 42 350 197-10 398-10s356 152 356 360z"/><glyph unicode="ө" horiz-adv-x="594" d="M42 242C42 102 151-10 297-10s255 112 255 252-109 253-255 253S42 382 42 242zm255-142c-66 0-115 41-128 100h255c-12-59-62-100-127-100zm0 285c61 0 109-37 124-90H173c15 53 62 90 124 90z"/><glyph unicode="Ḃ" horiz-adv-x="641" d="M84 700V0h273c90 0 144 24 183 63 39 38 64 92 64 151 0 78-43 148-105 179 23 24 45 71 45 117 0 57-26 107-65 141-34 30-78 49-157 49zm325-194c0-19-7-38-20-52-14-16-34-25-77-25h-93v153h93c43 0 63-9 77-25 13-14 20-32 20-51zM219 118v199h131c48 0 75-12 93-32 17-18 26-41 26-67s-9-50-26-68c-18-20-45-32-93-32zm9 730c0-45 37-80 82-80s82 35 82 80-37 80-82 80-82-35-82-80z"/><glyph unicode="ḃ" horiz-adv-x="624" d="M76 710V0h120v42c37-31 86-52 147-52 132 0 238 105 238 253 0 147-105 252-236 252-52 0-99-15-139-44v259zm375-467c0-80-58-135-128-135-49 0-89 22-117 57v155c32 37 73 57 119 57 69 0 126-56 126-134zM285 638c0-45 37-80 82-80s82 35 82 80-37 80-82 80-82-35-82-80z"/><glyph unicode="Ḋ" horiz-adv-x="746" d="M569 350c0-58-19-112-51-152-39-49-96-78-179-78H219v460h120c83 0 140-29 179-78 32-40 51-94 51-152zM84 700V0h240c111 0 184 24 241 66 86 64 139 168 139 284s-53 220-139 284c-57 42-130 66-241 66zm164 148c0-45 37-80 82-80s82 35 82 80-37 80-82 80-82-35-82-80z"/><glyph unicode="ḋ" horiz-adv-x="624" d="M548 710H418V451c-40 29-88 44-139 44-131 0-236-105-236-252C43 95 149-10 281-10c61 0 110 21 147 52V0h120zM173 243c0 78 57 134 126 134 46 0 87-20 119-57V165c-28-35-68-57-117-57-70 0-128 55-128 135zm2 395c0-45 37-80 82-80s82 35 82 80-37 80-82 80-82-35-82-80z"/><glyph unicode="Ḍ" horiz-adv-x="746" d="M569 350c0-58-19-112-51-152-39-49-96-78-179-78H219v460h120c83 0 140-29 179-78 32-40 51-94 51-152zM84 700V0h240c111 0 184 24 241 66 86 64 139 168 139 284s-53 220-139 284c-57 42-130 66-241 66zm149-835c0-45 37-80 82-80s82 35 82 80-37 80-82 80-82-35-82-80z"/><glyph unicode="ḍ" horiz-adv-x="624" d="M548 710H418V451c-40 29-88 44-139 44-131 0-236-105-236-252C43 95 149-10 281-10c61 0 110 21 147 52V0h120zM173 243c0 78 57 134 126 134 46 0 87-20 119-57V165c-28-35-68-57-117-57-70 0-128 55-128 135zm64-378c0-45 37-80 82-80s82 35 82 80-37 80-82 80-82-35-82-80z"/><glyph unicode="Ḏ" horiz-adv-x="746" d="M569 350c0-58-19-112-51-152-39-49-96-78-179-78H219v460h120c83 0 140-29 179-78 32-40 51-94 51-152zM84 700V0h240c111 0 184 24 241 66 86 64 139 168 139 284s-53 220-139 284c-57 42-130 66-241 66zm81-792v-95h320v95z"/><glyph unicode="ḏ" horiz-adv-x="624" d="M548 710H418V451c-40 29-88 44-139 44-131 0-236-105-236-252C43 95 149-10 281-10c61 0 110 21 147 52V0h120zM173 243c0 78 57 134 126 134 46 0 87-20 119-57V165c-28-35-68-57-117-57-70 0-128 55-128 135zm-9-335v-95h320v95z"/><glyph unicode="Ḑ" horiz-adv-x="746" d="M569 350c0-58-19-112-51-152-39-49-96-78-179-78H219v460h120c83 0 140-29 179-78 32-40 51-94 51-152zM84 700V0h240c111 0 184 24 241 66 86 64 139 168 139 284s-53 220-139 284c-57 42-130 66-241 66zM236-55l-60-160h80L376-55z"/><glyph unicode="ḑ" horiz-adv-x="624" d="M548 710H418V451c-40 29-88 44-139 44-131 0-236-105-236-252C43 95 149-10 281-10c61 0 110 21 147 52V0h120zM173 243c0 78 57 134 126 134 46 0 87-20 119-57V165c-28-35-68-57-117-57-70 0-128 55-128 135zM278-55l-60-160h80L418-55z"/><glyph unicode="Ḟ" horiz-adv-x="536" d="M504 580v120H84V0h135v315h225v120H219v145zM218 848c0-45 37-80 82-80s82 35 82 80-37 80-82 80-82-35-82-80z"/><glyph unicode="ḟ" horiz-adv-x="434" d="M433 679c-31 26-73 41-122 41-44 0-83-14-113-39-38-31-60-80-60-156v-40H23V380h115V0h130v380h145v105H268v41c0 35 5 48 13 58 9 12 26 21 46 21s39-7 54-17zM207 843c0-45 37-80 82-80s82 35 82 80-37 80-82 80-82-35-82-80z"/><glyph unicode="Ḡ" horiz-adv-x="749" d="M677 590c-63 69-158 120-269 120-211 0-366-152-366-360S194-10 410-10c121 0 223 54 287 135v305H382V315h185V162c-46-36-94-52-157-52-144 0-233 108-233 240s92 240 232 240c78 0 137-35 186-82zM243 886v-95h320v95z"/><glyph unicode="ḡ" horiz-adv-x="624" d="M428 485v-42c-42 34-93 52-149 52-131 0-236-105-236-252C43 95 149-10 281-10c56 0 102 17 137 44 0-63-10-93-30-115-22-26-57-39-99-39-80 0-129 42-155 65l-78-80c48-56 138-100 233-100 93 0 171 36 215 97 29 41 44 93 44 180v443zM173 243c0 78 57 134 126 134 46 0 87-20 119-57V165c-28-35-68-57-117-57-70 0-128 55-128 135zm-4 438v-95h320v95z"/><glyph unicode="Ḣ" horiz-adv-x="773" d="M554 0h135v700H554V435H219v265H84V0h135v315h335zM309 848c0-45 37-80 82-80s82 35 82 80-37 80-82 80-82-35-82-80z"/><glyph unicode="ḣ" horiz-adv-x="624" d="M206 0v317c18 25 63 60 118 60 30 0 56-10 73-27 18-18 29-43 29-91V0h130v247c0 83-17 135-49 173-39 47-100 75-166 75-50 0-98-17-135-45v260H76V0zM59 843c0-45 37-80 82-80s82 35 82 80-37 80-82 80-82-35-82-80z"/><glyph unicode="Ḥ" horiz-adv-x="773" d="M554 0h135v700H554V435H219v265H84V0h135v315h335zM304-135c0-45 37-80 82-80s82 35 82 80-37 80-82 80-82-35-82-80z"/><glyph unicode="ḥ" horiz-adv-x="624" d="M206 0v317c18 25 63 60 118 60 30 0 56-10 73-27 18-18 29-43 29-91V0h130v247c0 83-17 135-49 173-39 47-100 75-166 75-50 0-98-17-135-45v260H76V0zm24-135c0-45 37-80 82-80s82 35 82 80-37 80-82 80-82-35-82-80z"/><glyph unicode="Ḫ" horiz-adv-x="773" d="M554 0h135v700H554V435H219v265H84V0h135v315h335zM386-122c-37 0-60 26-60 57h-90c0-81 60-150 150-150s150 69 150 150h-90c0-31-23-57-60-57z"/><glyph unicode="ḫ" horiz-adv-x="624" d="M206 0v317c18 25 63 60 118 60 30 0 56-10 73-27 18-18 29-43 29-91V0h130v247c0 83-17 135-49 173-39 47-100 75-166 75-50 0-98-17-135-45v260H76V0zm106-122c-37 0-60 26-60 57h-90c0-81 60-150 150-150s150 69 150 150h-90c0-31-23-57-60-57z"/><glyph unicode="Ḷ" horiz-adv-x="538" d="M84 0h430v120H219v580H84zm124-135c0-45 37-80 82-80s82 35 82 80-37 80-82 80-82-35-82-80z"/><glyph unicode="ḷ" horiz-adv-x="282" d="M206 710H76V0h130zM59-135c0-45 37-80 82-80s82 35 82 80-37 80-82 80-82-35-82-80z"/><glyph unicode="Ḹ" horiz-adv-x="538" d="M84 0h430v120H219v580H84zm124-135c0-45 37-80 82-80s82 35 82 80-37 80-82 80-82-35-82-80zM4 886v-95h320v95z"/><glyph unicode="ḹ" horiz-adv-x="282" d="M206 710H76V0h130zM59-135c0-45 37-80 82-80s82 35 82 80-37 80-82 80-82-35-82-80zM-19 886v-95h320v95z"/><glyph unicode="Ḻ" horiz-adv-x="538" d="M84 0h430v120H219v580H84zm51-92v-95h320v95z"/><glyph unicode="ḻ" horiz-adv-x="282" d="M206 710H76V0h130zM-19-92v-95h320v95z"/><glyph unicode="Ḿ" horiz-adv-x="858" d="M184 700H84V0h133v430l199-295h26l199 295V0h133v700H674L430 341zm266 228l-60-160h80l120 160z"/><glyph unicode="ḿ" horiz-adv-x="954" d="M206 0v317c18 23 58 60 113 60 25 0 53-8 73-30 15-17 24-39 24-83V0h130v259c0 20-2 38-4 54 17 25 61 64 117 64 25 0 53-8 73-30 15-17 24-39 24-83V0h130v257c0 72-17 124-48 162-39 48-102 76-171 76-72 0-133-35-172-76-37 45-95 76-160 76-51 0-105-19-139-53v43H76V0zm298 718l-60-160h80l120 160z"/><glyph unicode="Ṁ" horiz-adv-x="858" d="M184 700H84V0h133v430l199-295h26l199 295V0h133v700H674L430 341zm164 148c0-45 37-80 82-80s82 35 82 80-37 80-82 80-82-35-82-80z"/><glyph unicode="ṁ" horiz-adv-x="954" d="M206 0v317c18 23 58 60 113 60 25 0 53-8 73-30 15-17 24-39 24-83V0h130v259c0 20-2 38-4 54 17 25 61 64 117 64 25 0 53-8 73-30 15-17 24-39 24-83V0h130v257c0 72-17 124-48 162-39 48-102 76-171 76-72 0-133-35-172-76-37 45-95 76-160 76-51 0-105-19-139-53v43H76V0zm194 638c0-45 37-80 82-80s82 35 82 80-37 80-82 80-82-35-82-80z"/><glyph unicode="Ṃ" horiz-adv-x="858" d="M184 700H84V0h133v430l199-295h26l199 295V0h133v700H674L430 341zm164-835c0-45 37-80 82-80s82 35 82 80-37 80-82 80-82-35-82-80z"/><glyph unicode="ṃ" horiz-adv-x="954" d="M206 0v317c18 23 58 60 113 60 25 0 53-8 73-30 15-17 24-39 24-83V0h130v259c0 20-2 38-4 54 17 25 61 64 117 64 25 0 53-8 73-30 15-17 24-39 24-83V0h130v257c0 72-17 124-48 162-39 48-102 76-171 76-72 0-133-35-172-76-37 45-95 76-160 76-51 0-105-19-139-53v43H76V0zm193-135c0-45 37-80 82-80s82 35 82 80-37 80-82 80-82-35-82-80z"/><glyph unicode="Ṅ" horiz-adv-x="773" d="M689 700H556V246L184 700H84V0h133v454L589 0h100zM303 848c0-45 37-80 82-80s82 35 82 80-37 80-82 80-82-35-82-80z"/><glyph unicode="ṅ" horiz-adv-x="624" d="M206 0v317c18 25 63 60 118 60 30 0 56-10 73-27 18-18 29-43 29-91V0h130v247c0 83-17 135-49 173-39 47-100 75-166 75-54 0-106-20-145-53v43H76V0zm49 638c0-45 37-80 82-80s82 35 82 80-37 80-82 80-82-35-82-80z"/><glyph unicode="Ṇ" horiz-adv-x="773" d="M689 700H556V246L184 700H84V0h133v454L589 0h100zM308-135c0-45 37-80 82-80s82 35 82 80-37 80-82 80-82-35-82-80z"/><glyph unicode="ṇ" horiz-adv-x="624" d="M206 0v317c18 25 63 60 118 60 30 0 56-10 73-27 18-18 29-43 29-91V0h130v247c0 83-17 135-49 173-39 47-100 75-166 75-54 0-106-20-145-53v43H76V0zm24-135c0-45 37-80 82-80s82 35 82 80-37 80-82 80-82-35-82-80z"/><glyph unicode="Ṉ" horiz-adv-x="773" d="M689 700H556V246L184 700H84V0h133v454L589 0h100zM230-92v-95h320v95z"/><glyph unicode="ṉ" horiz-adv-x="624" d="M206 0v317c18 25 63 60 118 60 30 0 56-10 73-27 18-18 29-43 29-91V0h130v247c0 83-17 135-49 173-39 47-100 75-166 75-54 0-106-20-145-53v43H76V0zm-44-92v-95h320v95z"/><glyph unicode="Ṗ" horiz-adv-x="609" d="M219 403v179h110c57 0 82-12 98-31 14-16 22-35 22-58s-8-43-22-59c-16-19-41-31-98-31zm127-118c98 0 158 32 196 82 27 35 42 79 42 126s-15 90-42 125c-38 50-98 82-196 82H84V0h135v285zM238 848c0-45 37-80 82-80s82 35 82 80-37 80-82 80-82-35-82-80z"/><glyph unicode="ṗ" horiz-adv-x="624" d="M76 485v-710h130V34c35-27 81-44 137-44 132 0 238 105 238 253 0 147-105 252-236 252-56 0-107-18-149-52v42zm375-242c0-80-58-135-128-135-49 0-89 22-117 57v155c32 37 73 57 119 57 69 0 126-56 126-134zM250 638c0-45 37-80 82-80s82 35 82 80-37 80-82 80-82-35-82-80z"/><glyph unicode="Ṛ" horiz-adv-x="652" d="M564 507c0 43-14 83-38 115-35 47-91 78-175 78H84V0h135v310h51L502 0h162L423 318c89 27 141 99 141 189zm-345-82v157h111c45 0 67-11 81-28 11-14 18-31 18-50s-7-37-18-51c-14-17-36-28-81-28zm39-560c0-45 37-80 82-80s82 35 82 80-37 80-82 80-82-35-82-80z"/><glyph unicode="ṛ" horiz-adv-x="405" d="M381 488c-14 3-24 4-39 4-59 0-112-20-141-56v49H76V0h130v305c31 48 82 69 130 69 19 0 32-1 45-3zM59-135c0-45 37-80 82-80s82 35 82 80-37 80-82 80-82-35-82-80z"/><glyph unicode="Ṝ" horiz-adv-x="652" d="M564 507c0 43-14 83-38 115-35 47-91 78-175 78H84V0h135v310h51L502 0h162L423 318c89 27 141 99 141 189zm-345-82v157h111c45 0 67-11 81-28 11-14 18-31 18-50s-7-37-18-51c-14-17-36-28-81-28zm39-560c0-45 37-80 82-80s82 35 82 80-37 80-82 80-82-35-82-80zM140 886v-95h320v95z"/><glyph unicode="ṝ" horiz-adv-x="405" d="M381 488c-14 3-24 4-39 4-59 0-112-20-141-56v49H76V0h130v305c31 48 82 69 130 69 19 0 32-1 45-3zM59-135c0-45 37-80 82-80s82 35 82 80-37 80-82 80-82-35-82-80zm8 816v-95h320v95z"/><glyph unicode="Ṟ" horiz-adv-x="652" d="M564 507c0 43-14 83-38 115-35 47-91 78-175 78H84V0h135v310h51L502 0h162L423 318c89 27 141 99 141 189zm-345-82v157h111c45 0 67-11 81-28 11-14 18-31 18-50s-7-37-18-51c-14-17-36-28-81-28zM195-92v-95h320v95z"/><glyph unicode="ṟ" horiz-adv-x="405" d="M381 488c-14 3-24 4-39 4-59 0-112-20-141-56v49H76V0h130v305c31 48 82 69 130 69 19 0 32-1 45-3zM-9-92v-95h320v95z"/><glyph unicode="Ṡ" horiz-adv-x="557" d="M27 93C97 24 179-10 276-10c138 0 241 88 241 212 0 88-46 141-103 174-94 55-217 68-217 139 0 39 34 75 100 75 49 0 94-19 131-45l67 95c-59 46-130 70-202 70-123 0-231-73-231-200 0-78 43-130 97-162 93-54 223-64 223-147 0-61-54-91-108-91-64 0-126 29-170 68zm189 755c0-45 37-80 82-80s82 35 82 80-37 80-82 80-82-35-82-80z"/><glyph unicode="ṡ" horiz-adv-x="459" d="M31 60c58-49 129-70 198-70 95 0 190 54 190 152 0 170-235 147-235 207 0 25 30 36 66 36 35 0 68-14 94-31l58 88c-36 29-99 53-162 53-96 0-186-58-186-151 0-156 235-130 235-203 0-24-27-41-62-41-49 0-100 20-133 45zm122 578c0-45 37-80 82-80s82 35 82 80-37 80-82 80-82-35-82-80z"/><glyph unicode="Ṣ" horiz-adv-x="557" d="M27 93C97 24 179-10 276-10c138 0 241 88 241 212 0 88-46 141-103 174-94 55-217 68-217 139 0 39 34 75 100 75 49 0 94-19 131-45l67 95c-59 46-130 70-202 70-123 0-231-73-231-200 0-78 43-130 97-162 93-54 223-64 223-147 0-61-54-91-108-91-64 0-126 29-170 68zm179-228c0-45 37-80 82-80s82 35 82 80-37 80-82 80-82-35-82-80z"/><glyph unicode="ṣ" horiz-adv-x="459" d="M31 60c58-49 129-70 198-70 95 0 190 54 190 152 0 170-235 147-235 207 0 25 30 36 66 36 35 0 68-14 94-31l58 88c-36 29-99 53-162 53-96 0-186-58-186-151 0-156 235-130 235-203 0-24-27-41-62-41-49 0-100 20-133 45zm117-195c0-45 37-80 82-80s82 35 82 80-37 80-82 80-82-35-82-80z"/><glyph unicode="Ṫ" horiz-adv-x="551" d="M23 700V580h185V0h135v580h185v120zm170 148c0-45 37-80 82-80s82 35 82 80-37 80-82 80-82-35-82-80z"/><glyph unicode="ṫ" horiz-adv-x="452" d="M267 380h145v105H267v155H137V485H22V380h115V166c0-60 14-97 38-125 34-39 84-51 131-51 49 0 88 13 121 36l-42 92c-18-9-37-16-60-16-19 0-35 5-45 15-9 9-13 25-13 51zM120 783c0-45 37-80 82-80s82 35 82 80-37 80-82 80-82-35-82-80z"/><glyph unicode="Ṭ" horiz-adv-x="551" d="M23 700V580h185V0h135v580h185v120zm170-835c0-45 37-80 82-80s82 35 82 80-37 80-82 80-82-35-82-80z"/><glyph unicode="ṭ" horiz-adv-x="452" d="M267 380h145v105H267v155H137V485H22V380h115V166c0-60 14-97 38-125 34-39 84-51 131-51 49 0 88 13 121 36l-42 92c-18-9-37-16-60-16-19 0-35 5-45 15-9 9-13 25-13 51zm-71-515c0-45 37-80 82-80s82 35 82 80-37 80-82 80-82-35-82-80z"/><glyph unicode="Ṯ" horiz-adv-x="551" d="M23 700V580h185V0h135v580h185v120zm92-792v-95h320v95z"/><glyph unicode="ṯ" horiz-adv-x="452" d="M267 380h145v105H267v155H137V485H22V380h115V166c0-60 14-97 38-125 34-39 84-51 131-51 49 0 88 13 121 36l-42 92c-18-9-37-16-60-16-19 0-35 5-45 15-9 9-13 25-13 51zM118-92v-95h320v95z"/><glyph unicode="Ṽ" horiz-adv-x="670" d="M285 0h100l275 700H522L338 223 150 700H10zm158 923c-3-28-16-50-40-50-43 0-87 50-147 50-72 0-106-59-106-134l77-16c3 28 16 50 40 50 43 0 87-50 147-50 72 0 106 59 106 134z"/><glyph unicode="ṽ" horiz-adv-x="554" d="M149 485H12L232 0h90l220 485H409L279 197zm239 228c-3-28-16-50-40-50-43 0-87 50-147 50-72 0-106-59-106-134l77-16c3 28 16 50 40 50 43 0 87-50 147-50 72 0 106 59 106 134z"/><glyph unicode="Ẁ" horiz-adv-x="979" d="M237 0h99l154 453L643 0h99l230 700H837L690 256 539 700h-99L290 258 146 700H7zm93 928l120-160h80l-60 160z"/><glyph unicode="ẁ" horiz-adv-x="818" d="M408 294L531 0h90l183 485H673L568 206 454 485h-90L252 208 149 485H14L197 0h90zM249 718l120-160h80l-60 160z"/><glyph unicode="Ẃ" horiz-adv-x="979" d="M237 0h99l154 453L643 0h99l230 700H837L690 256 539 700h-99L290 258 146 700H7zm273 928l-60-160h80l120 160z"/><glyph unicode="ẃ" horiz-adv-x="818" d="M408 294L531 0h90l183 485H673L568 206 454 485h-90L252 208 149 485H14L197 0h90zm21 424l-60-160h80l120 160z"/><glyph unicode="Ẅ" horiz-adv-x="979" d="M237 0h99l154 453L643 0h99l230 700H837L690 256 539 700h-99L290 258 146 700H7zm67 849c0-44 36-78 80-78s80 34 80 78-36 77-80 77-80-33-80-77zm210 0c0-44 36-78 80-78s80 34 80 78-36 77-80 77-80-33-80-77z"/><glyph unicode="ẅ" horiz-adv-x="818" d="M408 294L531 0h90l183 485H673L568 206 454 485h-90L252 208 149 485H14L197 0h90zM224 639c0-44 36-78 80-78s80 34 80 78-36 77-80 77-80-33-80-77zm210 0c0-44 36-78 80-78s80 34 80 78-36 77-80 77-80-33-80-77z"/><glyph unicode="Ẋ" horiz-adv-x="650" d="M625 700H470L326 484 183 700H25l222-330L-5 0h155l174 259L496 0h159L403 373zM243 848c0-45 37-80 82-80s82 35 82 80-37 80-82 80-82-35-82-80z"/><glyph unicode="ẋ" horiz-adv-x="544" d="M184 485H30l166-227L7 0h151l113 158L383 0h154L348 259l166 226H363l-90-127zm6 153c0-45 37-80 82-80s82 35 82 80-37 80-82 80-82-35-82-80z"/><glyph unicode="Ẓ" horiz-adv-x="594" d="M28 0h535v120H210l333 500v80H58V580h305L28 80zm184-135c0-45 37-80 82-80s82 35 82 80-37 80-82 80-82-35-82-80z"/><glyph unicode="ẓ" horiz-adv-x="502" d="M444 485H59V375h205L39 80V0h425v110H218l226 295zM173-135c0-45 37-80 82-80s82 35 82 80-37 80-82 80-82-35-82-80z"/><glyph unicode="ẗ" horiz-adv-x="452" d="M267 380h145v105H267v155H137V485H22V380h115V166c0-60 14-97 38-125 34-39 84-51 131-51 49 0 88 13 121 36l-42 92c-18-9-37-16-60-16-19 0-35 5-45 15-9 9-13 25-13 51zM17 784c0-44 36-78 80-78s80 34 80 78-36 77-80 77-80-33-80-77zm210 0c0-44 36-78 80-78s80 34 80 78-36 77-80 77-80-33-80-77z"/><glyph unicode="Ạ" horiz-adv-x="692" d="M145 0l64 155h270L543 0h143L396 700H296L6 0zm201 490l84-215H259zm-82-625c0-45 37-80 82-80s82 35 82 80-37 80-82 80-82-35-82-80z"/><glyph unicode="ạ" horiz-adv-x="624" d="M428 485v-42c-42 34-93 52-149 52-131 0-236-105-236-252C43 95 149-10 281-10c61 0 110 21 147 52V0h120v485zM173 243c0 78 57 134 126 134 46 0 87-20 119-57V165c-28-35-68-57-117-57-70 0-128 55-128 135zm64-378c0-45 37-80 82-80s82 35 82 80-37 80-82 80-82-35-82-80z"/><glyph unicode="Ẹ" horiz-adv-x="559" d="M504 580v120H84V0h430v120H219v195h225v120H219v145zM223-135c0-45 37-80 82-80s82 35 82 80-37 80-82 80-82-35-82-80z"/><glyph unicode="ẹ" horiz-adv-x="550" d="M424 153c-25-24-69-53-124-53-69 0-125 42-132 110h337c2 11 3 24 3 37 0 135-90 248-229 248-147 0-236-118-236-253C43 91 150-10 293-10c78 0 154 31 203 87zM172 300c6 47 48 88 107 88 58 0 95-42 99-88zm40-435c0-45 37-80 82-80s82 35 82 80-37 80-82 80-82-35-82-80z"/><glyph unicode="Ẽ" horiz-adv-x="559" d="M504 580v120H84V0h430v120H219v195h225v120H219v145zm-91 343c-3-28-16-50-40-50-43 0-87 50-147 50-72 0-106-59-106-134l77-16c3 28 16 50 40 50 43 0 87-50 147-50 72 0 106 59 106 134z"/><glyph unicode="ẽ" horiz-adv-x="550" d="M424 153c-25-24-69-53-124-53-69 0-125 42-132 110h337c2 11 3 24 3 37 0 135-90 248-229 248-147 0-236-118-236-253C43 91 150-10 293-10c78 0 154 31 203 87zM172 300c6 47 48 88 107 88 58 0 95-42 99-88zm217 413c-3-28-16-50-40-50-43 0-87 50-147 50-72 0-106-59-106-134l77-16c3 28 16 50 40 50 43 0 87-50 147-50 72 0 106 59 106 134z"/><glyph unicode="Ị" horiz-adv-x="303" d="M84 0h135v700H84zM69-135c0-45 37-80 82-80s82 35 82 80-37 80-82 80-82-35-82-80z"/><glyph unicode="ị" horiz-adv-x="282" d="M206 485H76V0h130zM59 660c0-45 37-80 82-80s82 35 82 80-37 80-82 80-82-35-82-80zm0-795c0-45 37-80 82-80s82 35 82 80-37 80-82 80-82-35-82-80z"/><glyph unicode="Ọ" horiz-adv-x="796" d="M177 350c0 132 92 240 221 240s221-108 221-240-92-240-221-240-221 108-221 240zm577 0c0 208-155 360-356 360S42 558 42 350 197-10 398-10s356 152 356 360zM316-135c0-45 37-80 82-80s82 35 82 80-37 80-82 80-82-35-82-80z"/><glyph unicode="ọ" horiz-adv-x="594" d="M172 242c0 73 49 135 125 135s125-62 125-135-49-134-125-134-125 61-125 134zm-130 0C42 102 151-10 297-10s255 112 255 252-109 253-255 253S42 382 42 242zm173-377c0-45 37-80 82-80s82 35 82 80-37 80-82 80-82-35-82-80z"/><glyph unicode="Ụ" horiz-adv-x="748" d="M374 110c-50 0-95 20-125 53-24 26-38 60-38 120v417H76V293c0-91 23-155 65-203C196 27 281-10 374-10S552 27 607 90c42 48 65 112 65 203v407H537V283c0-60-14-94-38-120-30-33-75-53-125-53zm-82-245c0-45 37-80 82-80s82 35 82 80-37 80-82 80-82-35-82-80z"/><glyph unicode="ụ" horiz-adv-x="615" d="M409 485V168c-18-23-58-60-113-60-25 0-53 8-73 30-15 17-24 39-24 83v264H69V228c0-72 17-124 48-162 37-46 97-76 163-76 53 0 102 20 139 53V0h120v485zM218-135c0-45 37-80 82-80s82 35 82 80-37 80-82 80-82-35-82-80z"/><glyph unicode="Ỳ" horiz-adv-x="653" d="M634 700H483L328 451 173 700H19l240-383V0h135v317zM188 928l120-160h80l-60 160z"/><glyph unicode="ỳ" horiz-adv-x="582" d="M243-225l329 710H438L301 183 151 485H12L234 44 109-225zm-91 943l120-160h80l-60 160z"/><glyph unicode="Ỹ" horiz-adv-x="653" d="M634 700H483L328 451 173 700H19l240-383V0h135v317zM438 923c-3-28-16-50-40-50-43 0-87 50-147 50-72 0-106-59-106-134l77-16c3 28 16 50 40 50 43 0 87-50 147-50 72 0 106 59 106 134z"/><glyph unicode="ỹ" horiz-adv-x="582" d="M243-225l329 710H438L301 183 151 485H12L234 44 109-225zm165 938c-3-28-16-50-40-50-43 0-87 50-147 50-72 0-106-59-106-134l77-16c3 28 16 50 40 50 43 0 87-50 147-50 72 0 106 59 106 134z"/><glyph horiz-adv-x="540"/><glyph horiz-adv-x="1080"/><glyph horiz-adv-x="540"/><glyph horiz-adv-x="1080"/><glyph horiz-adv-x="360"/><glyph horiz-adv-x="270"/><glyph horiz-adv-x="180"/><glyph horiz-adv-x="590"/><glyph horiz-adv-x="320"/><glyph horiz-adv-x="135"/><glyph horiz-adv-x="45"/><glyph unicode="​" horiz-adv-x="0"/><glyph unicode="‒" horiz-adv-x="590" d="M50 375V265h490v110z"/><glyph unicode="–" horiz-adv-x="620" d="M65 315V205h490v110z"/><glyph unicode="—" horiz-adv-x="920" d="M65 315V205h790v110z"/><glyph unicode="―" horiz-adv-x="920" d="M65 315V205h790v110z"/><glyph unicode="‘" horiz-adv-x="287" d="M180 410l75 290h-90L35 410z"/><glyph unicode="’" horiz-adv-x="281" d="M120 700L45 410h90l130 290z"/><glyph unicode="‚" horiz-adv-x="332" d="M110 150L35-140h90l130 290z"/><glyph unicode="‛" horiz-adv-x="281" d="M16 700l130-290h90l-75 290z"/><glyph unicode="“" horiz-adv-x="527" d="M420 410l75 290h-90L275 410zm-240 0l75 290h-90L35 410z"/><glyph unicode="”" horiz-adv-x="521" d="M120 700L45 410h90l130 290zm240 0l-75-290h90l130 290z"/><glyph unicode="„" horiz-adv-x="572" d="M110 150L35-140h90l130 290zm240 0l-75-290h90l130 290z"/><glyph unicode="‟" horiz-adv-x="521" d="M256 700l130-290h90l-75 290zm-240 0l130-290h90l-75 290z"/><glyph unicode="†" horiz-adv-x="534" d="M327 375h170v110H327v215H207V485H37V375h170v-615h120z"/><glyph unicode="‡" horiz-adv-x="534" d="M327 206v169h170v110H327v215H207V485H37V375h170V206H37V96h170v-336h120V96h170v110z"/><glyph unicode="•" horiz-adv-x="635" d="M65 242C65 102 177-10 317-10s253 112 253 252-113 253-253 253S65 382 65 242z"/><glyph unicode="…" horiz-adv-x="930" d="M75 73c0-47 38-83 85-83s85 36 85 83-38 83-85 83-85-36-85-83zm305 0c0-47 38-83 85-83s85 36 85 83-38 83-85 83-85-36-85-83zm305 0c0-47 38-83 85-83s85 36 85 83-38 83-85 83-85-36-85-83z"/><glyph unicode="‰" horiz-adv-x="1153" d="M488 180c0-108 80-190 190-190 53 0 96 19 127 50 31-31 75-50 128-50 110 0 190 82 190 190s-80 190-190 190c-53 0-97-19-128-51-31 32-74 51-127 51-110 0-190-82-190-190zM31 520c0-108 80-190 190-190s190 82 190 190-80 190-190 190S31 628 31 520zM298 0l409 700H601L192 0zm705 180c0-47-27-80-70-80s-70 33-70 80 27 80 70 80 70-33 70-80zM291 520c0-47-27-80-70-80s-70 33-70 80 27 80 70 80 70-33 70-80zm457-340c0-47-27-80-70-80s-70 33-70 80 27 80 70 80 70-33 70-80z"/><glyph unicode="′" horiz-adv-x="240" d="M185 700H55l23-290h84z"/><glyph unicode="″" horiz-adv-x="450" d="M185 700H55l23-290h84zm210 0H265l23-290h84z"/><glyph unicode="‹" horiz-adv-x="376" d="M191 437L31 247 189 57h145L175 249l159 188z"/><glyph unicode="›" horiz-adv-x="376" d="M185 57l160 190-158 190H42l159-192L42 57z"/><glyph unicode="⁄" horiz-adv-x="189" d="M-59 0l409 700H244L-165 0z"/><glyph unicode="⁰" horiz-adv-x="347" d="M314 520c0 100-36 190-140 190S34 620 34 520s36-190 140-190 140 90 140 190zm-185 0c0 57 9 110 45 110s45-53 45-110-9-110-45-110-45 53-45 110z"/><glyph unicode="⁴" horiz-adv-x="355" d="M269 700h-60L20 460v-50h164v-70h85v70h61v75h-61zM125 485l59 75v-75z"/><glyph unicode="⁵" horiz-adv-x="310" d="M97 495c10 9 26 15 40 15 29 0 50-20 50-48 0-30-23-50-50-50s-47 12-59 25l-58-55c34-36 76-52 123-52 79 0 137 56 137 128 0 59-37 123-119 123-4 0-14-1-24-3l4 42h114v80H64L45 502z"/><glyph unicode="⁶" horiz-adv-x="333" d="M257 700H152L66 560c-14-24-36-61-36-103 0-79 69-127 140-127 79 0 140 58 140 129s-56 121-126 123zm-39-241c0-26-21-47-47-47-29 0-49 20-49 47 0 13 5 26 13 35 8 7 21 12 36 12 29 0 47-21 47-47z"/><glyph unicode="⁷" horiz-adv-x="296" d="M27 700v-82h139L40 340h98l139 310v50z"/><glyph unicode="⁸" horiz-adv-x="342" d="M171 330c83 0 140 52 140 117 0 35-19 69-49 87 20 18 33 43 33 71 0 58-55 105-124 105S47 663 47 605c0-28 13-53 33-71-30-18-49-52-49-87 0-65 57-117 140-117zm0 232c-17 0-32 13-32 34s15 34 32 34 32-13 32-34-15-34-32-34zm-50-106c0 26 20 47 50 47s50-21 50-47-20-46-50-46-50 20-50 46z"/><glyph unicode="⁹" horiz-adv-x="333" d="M76 340h105l86 140c14 24 36 61 36 103 0 79-69 127-140 127-79 0-140-58-140-129s56-121 126-123zm39 241c0 26 21 47 47 47 29 0 49-20 49-47 0-13-5-26-13-35-8-7-21-12-36-12-29 0-47 21-47 47z"/><glyph unicode="₀" horiz-adv-x="347" d="M314 180c0 100-36 190-140 190S34 280 34 180 70-10 174-10s140 90 140 190zm-185 0c0 57 9 110 45 110s45-53 45-110-9-110-45-110-45 53-45 110z"/><glyph unicode="₁" horiz-adv-x="270" d="M25 197l85 48V-5h95v360h-60L25 290z"/><glyph unicode="₂" horiz-adv-x="325" d="M35 50V0h255v82H185l34 34c51 51 66 91 66 128 0 69-56 126-131 126-62 0-113-38-129-112l78-20c6 34 24 50 51 50 24 0 41-21 41-44 0-24-10-44-45-79z"/><glyph unicode="₃" horiz-adv-x="321" d="M99 160c12 6 34 10 46 10 31 0 53-18 53-49 0-29-22-49-51-49-27 0-48 12-60 30L21 60c30-47 75-70 132-70 87 0 135 61 135 131 0 54-34 97-79 113l69 76v50H43v-82h118l-62-68z"/><glyph unicode="₄" horiz-adv-x="355" d="M269 360h-60L20 120V70h164V0h85v70h61v75h-61zM125 145l59 75v-75z"/><glyph unicode="₅" horiz-adv-x="310" d="M97 155c10 9 26 15 40 15 29 0 50-20 50-48 0-30-23-50-50-50S90 84 78 97L20 42C54 6 96-10 143-10c79 0 137 56 137 128 0 59-37 123-119 123-4 0-14-1-24-3l4 42h114v80H64L45 162z"/><glyph unicode="₆" horiz-adv-x="333" d="M257 360H152L66 220c-14-24-36-61-36-103C30 38 99-10 170-10c79 0 140 58 140 129s-56 121-126 123zm-39-241c0-26-21-47-47-47-29 0-49 20-49 47 0 13 5 26 13 35 8 7 21 12 36 12 29 0 47-21 47-47z"/><glyph unicode="₇" horiz-adv-x="296" d="M26 360v-82h139L39 0h98l139 310v50z"/><glyph unicode="₈" horiz-adv-x="342" d="M171-10c83 0 140 52 140 117 0 35-19 69-49 87 20 18 33 43 33 71 0 58-55 105-124 105S47 323 47 265c0-28 13-53 33-71-30-18-49-52-49-87C31 42 88-10 171-10zm0 232c-17 0-32 13-32 34s15 34 32 34 32-13 32-34-15-34-32-34zm-50-106c0 26 20 47 50 47s50-21 50-47-20-46-50-46-50 20-50 46z"/><glyph unicode="₉" horiz-adv-x="333" d="M76 0h105l86 140c14 24 36 61 36 103 0 79-69 127-140 127-79 0-140-58-140-129s56-121 126-123zm39 241c0 26 21 47 47 47 29 0 49-20 49-47 0-13-5-26-13-35-8-7-21-12-36-12-29 0-47 21-47 47z"/><glyph unicode="₡" horiz-adv-x="675" d="M263-80l20 113c20-6 42-10 64-12L329-80h75l18 102c94 11 172 58 224 125l-81 72c-39-42-77-67-122-78l68 385c14-10 27-21 40-32l76 75c-26 28-59 54-96 73l25 137h-75l-19-109c-21 5-43 8-65 9l18 100h-75l-19-104C159 650 46 520 46 350c0-130 64-235 167-290L188-80zm40 229l74 416h7c20 0 40-3 58-8l-75-422c-23 2-44 7-64 14zM176 350c0 88 46 166 123 198l-63-355c-39 40-60 95-60 157z"/><glyph unicode="₦" horiz-adv-x="836" d="M668 700H545V266L268 700H168V480H48V380h120v-60H48V220h120V0h123v434L568 0h100v220h120v100H668v60h120v100H668z"/><glyph unicode="€" horiz-adv-x="694" d="M441 710c-134 0-258-77-302-230H42V380h81c-1-10-1-20-1-30s0-20 1-30H42V220h97C183 66 307-10 441-10c93 0 180 42 221 95l-75 81c-28-24-67-56-144-56-80 0-132 47-161 110h157l36 100H256c-1 10-1 20-1 30s0 20 1 30h240l36 100H282c29 62 81 110 161 110 69 0 112-27 139-52l75 82c-46 55-130 90-216 90z"/><glyph unicode="₲" horiz-adv-x="684" d="M429 780H309V674C150 647 39 519 39 350S147 53 309 25V-80h120V23c87 13 161 58 210 121v281H351V315h163V185c-40-32-82-45-137-45-126 0-203 94-203 210 0 115 80 210 202 210 69 0 119-30 162-71l81 82c-47 51-113 91-190 104z"/><glyph unicode="₴" horiz-adv-x="642" d="M51 385h535v100h-59c5 15 8 30 8 46 0 123-122 179-220 179-81 0-152-28-208-70l67-95c39 27 88 45 133 45 54 0 98-25 98-76 0-11-3-21-9-29H51zm535-160v100H51V225h46c-3-14-5-29-5-43C92 64 200-10 321-10c103 0 185 37 255 103l-77 86c-39-35-93-69-168-69-58 0-109 32-109 88 0 10 1 19 4 27z"/><glyph unicode="₵" horiz-adv-x="674" d="M440 780H320V675C158 650 45 520 45 350 45 179 155 51 320 25V-80h120V25c85 14 156 59 205 122l-85 75c-53-57-104-82-176-82-127 0-204 95-204 210s80 210 203 210c68 0 119-29 162-69l80 78c-46 50-109 91-185 105z"/><glyph unicode="₸" horiz-adv-x="577" d="M221 0h135v440h185v100H36V440h185zM36 600h505v100H36z"/><glyph unicode="₹" horiz-adv-x="594" d="M394 0h162L329 303c28 14 50 32 69 55s33 54 41 85h81l35 100H438c-5 17-15 44-26 57h108l36 100H71V600h115c57 0 98-16 114-57H71V443h232c-24-48-70-63-117-63H71V280h118z"/><glyph unicode="₺" horiz-adv-x="611" d="M450 350c0-114-62-206-155-235v239l155 57v80l-155-57v44l155 57v80l-155-57v142H165V511L50 469v-80l115 42v-44L50 345v-80l115 42V0h65c203 0 350 152 350 350z"/><glyph unicode="₼" horiz-adv-x="684" d="M406 700H280V573c-43-9-82-29-115-55C99 466 57 385 57 275V0h128v285c0 68 22 111 56 139 12 9 24 18 39 24V0h126v447c13-6 26-14 37-23 34-28 56-71 56-139V0h128v275c0 110-42 191-108 243-33 26-71 45-113 55z"/><glyph unicode="₽" horiz-adv-x="685" d="M416 285c98 0 158 32 196 82 27 35 42 79 42 126s-15 90-42 125c-38 50-98 82-196 82H154V385H54V285h100v-60H54V125h100V0h135v125h203v100H289v60zM289 403v179h110c57 0 82-12 98-31 14-16 22-35 22-58s-8-43-22-59c-16-19-41-31-98-31z"/><glyph unicode="₿" horiz-adv-x="600" d="M403 780H293V670h-95v110H88V-80h110V30h95V-80h110V36c44 9 76 27 102 52 36 35 58 84 58 138 0 71-40 135-97 163 21 22 42 65 42 107 0 52-24 98-60 129-13 11-28 21-45 29zM220 320h103c45 0 67-9 83-24 16-16 25-37 25-63s-9-48-25-64c-16-15-38-24-83-24H220zm0 105v130h71c41 0 57-8 69-21 10-11 16-27 16-44s-6-33-16-44c-12-13-28-21-69-21z"/><glyph unicode="ℓ" horiz-adv-x="372" d="M324 65c-18-9-34-11-48-11-31 0-58 15-69 54-12 41-14 101-14 205 86 75 145 165 145 268 0 69-33 129-111 129-75 0-117-61-125-122-8-60-9-141-9-243v-37c-17-12-34-23-50-33v-65c17 9 34 19 51 30 2-68 10-130 31-174 22-46 60-76 135-76 29 0 64 11 83 25zM198 575c2 25 9 65 39 65s36-44 36-63c0-71-34-131-80-182 0 83 1 141 5 180z"/><glyph unicode="№" horiz-adv-x="1132" d="M88 0h133v455L584 0h99v700H550V245L187 700H88zm677 225h308v100H765zm154 242c-41 0-72 33-72 75s31 76 72 76c40 0 72-34 72-76s-32-75-72-75zm0-92c96 0 172 74 172 167s-76 168-172 168c-98 0-173-75-173-168s75-167 173-167z"/><glyph unicode="℗" horiz-adv-x="838" d="M129 350c0 162 128 295 290 295s290-133 290-295S581 55 419 55 129 188 129 350zM419-25c210 0 375 168 375 375S629 725 419 725 44 557 44 350 209-25 419-25zm-36 410v82h65c23 0 35-7 43-16 5-6 8-16 8-26s-3-19-8-25c-8-10-20-15-43-15zm0-75h69c48 0 75 11 96 30 24 21 38 51 38 86s-14 65-38 86c-21 19-48 30-96 30H296V159h87z"/><glyph unicode="™" horiz-adv-x="848" d="M33 700v-80h100V317h87v303h100v80zm539-206L432 700h-63V317h89v208l106-156h14l106 156V317h89v383h-64z"/><glyph unicode="Ω" horiz-adv-x="814" d="M407 590c131 0 220-108 220-245 0-112-57-201-143-265V0h273v115h-89c52 56 89 147 89 235 0 199-149 360-350 360S57 549 57 350c0-88 37-179 89-235H57V0h273v80c-86 64-143 153-143 265 0 137 89 245 220 245z"/><glyph unicode="℮" horiz-adv-x="799" d="M766 320c1 10 1 20 1 30 0 198-162 360-360 360S47 548 47 350 209-10 407-10c117 0 218 52 284 132l-38 32C596 85 510 40 407 40c-91 0-175 41-230 104v176zM407 660c92 0 173-39 230-101V370H177v187c56 63 138 103 230 103z"/><glyph unicode="⅐" horiz-adv-x="724" d="M179 0l409 700H482L73 0zM38 542l85 48V340h95v360h-60L38 635zm405-182v-82h139L456 0h98l139 310v50z"/><glyph unicode="⅑" horiz-adv-x="708" d="M178 0l409 700H481L72 0zM37 542l85 48V340h95v360h-60L37 635zM450 0h105l86 140c14 24 36 61 36 103 0 79-69 127-140 127-79 0-140-58-140-129s56-121 126-123zm39 241c0 26 21 47 47 47 29 0 49-20 49-47 0-13-5-26-13-35-8-7-21-12-36-12-29 0-47 21-47 47z"/><glyph unicode="⅒" horiz-adv-x="978" d="M177 0l409 700H480L71 0zM36 542l85 48V340h95v360h-60L36 635zm370-340l85 48V0h95v360h-60l-120-65zm540-22c0 100-36 190-140 190s-140-90-140-190S702-10 806-10s140 90 140 190zm-185 0c0 57 9 110 45 110s45-53 45-110-9-110-45-110-45 53-45 110z"/><glyph unicode="⅓" horiz-adv-x="711" d="M33 542l85 48V340h95v360h-60L33 635zM174 0l409 700H477L68 0zm310 160c12 6 34 10 46 10 31 0 53-18 53-49 0-29-22-49-51-49-27 0-48 12-60 30l-66-42c30-47 75-70 132-70 87 0 135 61 135 131 0 54-34 97-79 113l69 76v50H428v-82h118l-62-68z"/><glyph unicode="⅔" horiz-adv-x="791" d="M254 0l409 700H557L148 0zM43 390v-50h255v82H193l34 34c51 51 66 91 66 128 0 69-56 126-131 126-62 0-113-38-129-112l78-20c6 34 24 50 51 50 24 0 41-21 41-44 0-24-10-44-45-79zm521-230c12 6 34 10 46 10 31 0 53-18 53-49 0-29-22-49-51-49-27 0-48 12-60 30l-66-42c30-47 75-70 132-70 87 0 135 61 135 131 0 54-34 97-79 113l69 76v50H508v-82h118l-62-68z"/><glyph unicode="⅕" horiz-adv-x="692" d="M174 0l409 700H477L68 0zM33 542l85 48V340h95v360h-60L33 635zm442-387c10 9 26 15 40 15 29 0 50-20 50-48 0-30-23-50-50-50s-47 12-59 25l-58-55c34-36 76-52 123-52 79 0 137 56 137 128 0 59-37 123-119 123-4 0-14-1-24-3l4 42h114v80H442l-19-198z"/><glyph unicode="⅖" horiz-adv-x="772" d="M254 0l409 700H557L148 0zm301 155c10 9 26 15 40 15 29 0 50-20 50-48 0-30-23-50-50-50s-47 12-59 25l-58-55c34-36 76-52 123-52 79 0 137 56 137 128 0 59-37 123-119 123-4 0-14-1-24-3l4 42h114v80H522l-19-198zM43 390v-50h255v82H193l34 34c51 51 66 91 66 128 0 69-56 126-131 126-62 0-113-38-129-112l78-20c6 34 24 50 51 50 24 0 41-21 41-44 0-24-10-44-45-79z"/><glyph unicode="⅗" horiz-adv-x="744" d="M223 0l409 700H526L117 0zm301 155c10 9 26 15 40 15 29 0 50-20 50-48 0-30-23-50-50-50s-47 12-59 25l-58-55c34-36 76-52 123-52 79 0 137 56 137 128 0 59-37 123-119 123-4 0-14-1-24-3l4 42h114v80H491l-19-198zM110 500c12 6 34 10 46 10 31 0 53-18 53-49 0-29-22-49-51-49-27 0-48 12-60 30l-66-42c30-47 75-70 132-70 87 0 135 61 135 131 0 54-34 97-79 113l69 76v50H54v-82h118l-62-68z"/><glyph unicode="⅘" horiz-adv-x="780" d="M255 0l409 700H558L149 0zm23 700h-60L29 460v-50h164v-70h85v70h61v75h-61zM134 485l59 75v-75zm422-330c10 9 26 15 40 15 29 0 50-20 50-48 0-30-23-50-50-50s-47 12-59 25l-58-55c34-36 76-52 123-52 79 0 137 56 137 128 0 59-37 123-119 123-4 0-14-1-24-3l4 42h114v80H523l-19-198z"/><glyph unicode="⅙" horiz-adv-x="667" d="M175 0l409 700H478L69 0zM34 542l85 48V340h95v360h-60L34 635zm547-182H476l-86-140c-14-24-36-61-36-103 0-79 69-127 140-127 79 0 140 58 140 129s-56 121-126 123zm-39-241c0-26-21-47-47-47-29 0-49 20-49 47 0 13 5 26 13 35 8 7 21 12 36 12 29 0 47-21 47-47z"/><glyph unicode="⅚" horiz-adv-x="705" d="M211 0l409 700H514L105 0zM107 495c10 9 26 15 40 15 29 0 50-20 50-48 0-30-23-50-50-50s-47 12-59 25l-58-55c34-36 76-52 123-52 79 0 137 56 137 128 0 59-37 123-119 123-4 0-14-1-24-3l4 42h114v80H74L55 502zm510-135H512l-86-140c-14-24-36-61-36-103 0-79 69-127 140-127 79 0 140 58 140 129s-56 121-126 123zm-39-241c0-26-21-47-47-47-29 0-49 20-49 47 0 13 5 26 13 35 8 7 21 12 36 12 29 0 47-21 47-47z"/><glyph unicode="⅛" horiz-adv-x="702" d="M175 0l409 700H478L69 0zM34 542l85 48V340h95v360h-60L34 635zM529-10c83 0 140 52 140 117 0 35-19 69-49 87 20 18 33 43 33 71 0 58-55 105-124 105s-124-47-124-105c0-28 13-53 33-71-30-18-49-52-49-87 0-65 57-117 140-117zm0 232c-17 0-32 13-32 34s15 34 32 34 32-13 32-34-15-34-32-34zm-50-106c0 26 20 47 50 47s50-21 50-47-20-46-50-46-50 20-50 46z"/><glyph unicode="⅜" horiz-adv-x="752" d="M223 0l409 700H526L117 0zm354-10c83 0 140 52 140 117 0 35-19 69-49 87 20 18 33 43 33 71 0 58-55 105-124 105s-124-47-124-105c0-28 13-53 33-71-30-18-49-52-49-87 0-65 57-117 140-117zm0 232c-17 0-32 13-32 34s15 34 32 34 32-13 32-34-15-34-32-34zm-50-106c0 26 20 47 50 47s50-21 50-47-20-46-50-46-50 20-50 46zM110 500c12 6 34 10 46 10 31 0 53-18 53-49 0-29-22-49-51-49-27 0-48 12-60 30l-66-42c30-47 75-70 132-70 87 0 135 61 135 131 0 54-34 97-79 113l69 76v50H54v-82h118l-62-68z"/><glyph unicode="⅝" horiz-adv-x="739" d="M107 495c10 9 26 15 40 15 29 0 50-20 50-48 0-30-23-50-50-50s-47 12-59 25l-58-55c34-36 76-52 123-52 79 0 137 56 137 128 0 59-37 123-119 123-4 0-14-1-24-3l4 42h114v80H74L55 502zM211 0l409 700H514L105 0zm354-10c83 0 140 52 140 117 0 35-19 69-49 87 20 18 33 43 33 71 0 58-55 105-124 105s-124-47-124-105c0-28 13-53 33-71-30-18-49-52-49-87 0-65 57-117 140-117zm0 232c-17 0-32 13-32 34s15 34 32 34 32-13 32-34-15-34-32-34zm-50-106c0 26 20 47 50 47s50-21 50-47-20-46-50-46-50 20-50 46z"/><glyph unicode="⅞" horiz-adv-x="675" d="M52 700v-82h139L65 340h98l139 310v50zM148 0l409 700H451L42 0zm354-10c83 0 140 52 140 117 0 35-19 69-49 87 20 18 33 43 33 71 0 58-55 105-124 105s-124-47-124-105c0-28 13-53 33-71-30-18-49-52-49-87 0-65 57-117 140-117zm0 232c-17 0-32 13-32 34s15 34 32 34 32-13 32-34-15-34-32-34zm-50-106c0 26 20 47 50 47s50-21 50-47-20-46-50-46-50 20-50 46z"/><glyph unicode="⅟" horiz-adv-x="473" d="M184 0l409 700H487L78 0zM43 542l85 48V340h95v360h-60L43 635z"/><glyph unicode="Ⅰ" horiz-adv-x="303" d="M84 0h135v700H84z"/><glyph unicode="Ⅱ" horiz-adv-x="606" d="M84 0h135v700H84zm303 0h135v700H387z"/><glyph unicode="Ⅲ" horiz-adv-x="909" d="M84 0h135v700H84zm303 0h135v700H387zm303 0h135v700H690z"/><glyph unicode="Ⅳ" horiz-adv-x="973" d="M84 0h135v700H84zm504 0h100l275 700H825L641 223 453 700H313z"/><glyph unicode="Ⅴ" horiz-adv-x="670" d="M285 0h100l275 700H522L338 223 150 700H10z"/><glyph unicode="Ⅵ" horiz-adv-x="973" d="M285 0h100l275 700H522L338 223 150 700H10zm469 0h135v700H754z"/><glyph unicode="Ⅶ" horiz-adv-x="1276" d="M285 0h100l275 700H522L338 223 150 700H10zm469 0h135v700H754zm303 0h135v700h-135z"/><glyph unicode="Ⅷ" horiz-adv-x="1579" d="M285 0h100l275 700H522L338 223 150 700H10zm469 0h135v700H754zm303 0h135v700h-135zm303 0h135v700h-135z"/><glyph unicode="Ⅸ" horiz-adv-x="953" d="M84 0h135v700H84zm844 700H773L629 484 486 700H328l222-330L298 0h155l174 259L799 0h159L706 373z"/><glyph unicode="Ⅹ" horiz-adv-x="650" d="M625 700H470L326 484 183 700H25l222-330L-5 0h155l174 259L496 0h159L403 373z"/><glyph unicode="Ⅺ" horiz-adv-x="953" d="M625 700H470L326 484 183 700H25l222-330L-5 0h155l174 259L496 0h159L403 373zM734 0h135v700H734z"/><glyph unicode="Ⅻ" horiz-adv-x="1256" d="M625 700H470L326 484 183 700H25l222-330L-5 0h155l174 259L496 0h159L403 373zM734 0h135v700H734zm303 0h135v700h-135z"/><glyph unicode="Ⅼ" horiz-adv-x="538" d="M84 0h430v120H219v580H84z"/><glyph unicode="Ⅽ" horiz-adv-x="711" d="M677 590c-63 69-158 120-269 120-211 0-366-152-366-360S194-10 410-10c121 0 223 56 287 139l-87 76c-60-64-117-95-200-95-144 0-233 108-233 240s92 240 232 240c78 0 137-35 186-82z"/><glyph unicode="Ⅾ" horiz-adv-x="746" d="M569 350c0-58-19-112-51-152-39-49-96-78-179-78H219v460h120c83 0 140-29 179-78 32-40 51-94 51-152zM84 700V0h240c111 0 184 24 241 66 86 64 139 168 139 284s-53 220-139 284c-57 42-130 66-241 66z"/><glyph unicode="Ⅿ" horiz-adv-x="858" d="M184 700H84V0h133v430l199-295h26l199 295V0h133v700H674L430 341z"/><glyph unicode="ⅰ" horiz-adv-x="282" d="M206 485H76V0h130zM59 660c0-45 37-80 82-80s82 35 82 80-37 80-82 80-82-35-82-80z"/><glyph unicode="ⅱ" horiz-adv-x="564" d="M206 485H76V0h130zM59 660c0-45 37-80 82-80s82 35 82 80-37 80-82 80-82-35-82-80zm429-175H358V0h130zM341 660c0-45 37-80 82-80s82 35 82 80-37 80-82 80-82-35-82-80z"/><glyph unicode="ⅲ" horiz-adv-x="846" d="M206 485H76V0h130zM59 660c0-45 37-80 82-80s82 35 82 80-37 80-82 80-82-35-82-80zm429-175H358V0h130zM341 660c0-45 37-80 82-80s82 35 82 80-37 80-82 80-82-35-82-80zm429-175H640V0h130zM623 660c0-45 37-80 82-80s82 35 82 80-37 80-82 80-82-35-82-80z"/><glyph unicode="ⅳ" horiz-adv-x="836" d="M206 485H76V0h130zM59 660c0-45 37-80 82-80s82 35 82 80-37 80-82 80-82-35-82-80zm372-175H294L514 0h90l220 485H691L561 197z"/><glyph unicode="ⅴ" horiz-adv-x="554" d="M149 485H12L232 0h90l220 485H409L279 197z"/><glyph unicode="ⅵ" horiz-adv-x="836" d="M149 485H12L232 0h90l220 485H409L279 197zm611 0H630V0h130zM613 660c0-45 37-80 82-80s82 35 82 80-37 80-82 80-82-35-82-80z"/><glyph unicode="ⅶ" horiz-adv-x="1118" d="M149 485H12L232 0h90l220 485H409L279 197zm611 0H630V0h130zM613 660c0-45 37-80 82-80s82 35 82 80-37 80-82 80-82-35-82-80zm429-175H912V0h130zM895 660c0-45 37-80 82-80s82 35 82 80-37 80-82 80-82-35-82-80z"/><glyph unicode="ⅷ" horiz-adv-x="1400" d="M149 485H12L232 0h90l220 485H409L279 197zm611 0H630V0h130zM613 660c0-45 37-80 82-80s82 35 82 80-37 80-82 80-82-35-82-80zm429-175H912V0h130zM895 660c0-45 37-80 82-80s82 35 82 80-37 80-82 80-82-35-82-80zm429-175h-130V0h130zm-147 175c0-45 37-80 82-80s82 35 82 80-37 80-82 80-82-35-82-80z"/><glyph unicode="ⅸ" horiz-adv-x="826" d="M206 485H76V0h130zM59 660c0-45 37-80 82-80s82 35 82 80-37 80-82 80-82-35-82-80zm407-175H312l166-227L289 0h151l113 158L665 0h154L630 259l166 226H645l-90-127z"/><glyph unicode="ⅹ" horiz-adv-x="544" d="M184 485H30l166-227L7 0h151l113 158L383 0h154L348 259l166 226H363l-90-127z"/><glyph unicode="ⅺ" horiz-adv-x="826" d="M184 485H30l166-227L7 0h151l113 158L383 0h154L348 259l166 226H363l-90-127zm566 0H620V0h130zM603 660c0-45 37-80 82-80s82 35 82 80-37 80-82 80-82-35-82-80z"/><glyph unicode="ⅻ" horiz-adv-x="1108" d="M184 485H30l166-227L7 0h151l113 158L383 0h154L348 259l166 226H363l-90-127zm566 0H620V0h130zM603 660c0-45 37-80 82-80s82 35 82 80-37 80-82 80-82-35-82-80zm429-175H902V0h130zM885 660c0-45 37-80 82-80s82 35 82 80-37 80-82 80-82-35-82-80z"/><glyph unicode="ⅼ" horiz-adv-x="282" d="M206 710H76V0h130z"/><glyph unicode="ⅽ" horiz-adv-x="543" d="M429 168c-24-28-67-58-123-58-79 0-134 56-134 132 0 77 62 133 134 133 47 0 81-21 113-52l83 75c-53 64-123 97-203 97-146 0-257-114-257-253S151-10 300-10c92 0 166 39 217 109z"/><glyph unicode="ⅾ" horiz-adv-x="624" d="M548 710H418V451c-40 29-88 44-139 44-131 0-236-105-236-252C43 95 149-10 281-10c61 0 110 21 147 52V0h120zM173 243c0 78 57 134 126 134 46 0 87-20 119-57V165c-28-35-68-57-117-57-70 0-128 55-128 135z"/><glyph unicode="ⅿ" horiz-adv-x="954" d="M206 0v317c18 23 58 60 113 60 25 0 53-8 73-30 15-17 24-39 24-83V0h130v259c0 20-2 38-4 54 17 25 61 64 117 64 25 0 53-8 73-30 15-17 24-39 24-83V0h130v257c0 72-17 124-48 162-39 48-102 76-171 76-72 0-133-35-172-76-37 45-95 76-160 76-51 0-105-19-139-53v43H76V0z"/><glyph unicode="↉" horiz-adv-x="761" d="M224 0l409 700H527L118 0zm89 520c0 100-36 190-140 190S33 620 33 520s36-190 140-190 140 90 140 190zm-185 0c0 57 9 110 45 110s45-53 45-110-9-110-45-110-45 53-45 110zm406-360c12 6 34 10 46 10 31 0 53-18 53-49 0-29-22-49-51-49-27 0-48 12-60 30l-66-42c30-47 75-70 132-70 87 0 135 61 135 131 0 54-34 97-79 113l69 76v50H478v-82h118l-62-68z"/><glyph unicode="←" horiz-adv-x="967" d="M909 297H258l120 119-77 78L49 242 301-10l77 78-120 119h651z"/><glyph unicode="↑" horiz-adv-x="594" d="M240-80h114v649l120-121 78 77-255 255L42 525l78-77 120 121z"/><glyph unicode="→" horiz-adv-x="967" d="M58 187h651L589 68l77-78 252 252-252 252-77-78 120-119H58z"/><glyph unicode="↓" horiz-adv-x="594" d="M240 131L120 253l-78-78L297-80l255 255-78 78-120-122v649H240z"/><glyph unicode="↖" horiz-adv-x="829" d="M777 73L260 590h178v110H72V334h110v178L699-5z"/><glyph unicode="↗" horiz-adv-x="829" d="M130-5l517 517V334h110v366H391V590h178L52 73z"/><glyph unicode="↘" horiz-adv-x="829" d="M52 627l517-517H391V0h366v366H647V188L130 705z"/><glyph unicode="↙" horiz-adv-x="829" d="M699 705L182 188v178H72V0h366v110H260l517 517z"/><glyph unicode="↰" horiz-adv-x="776" d="M581 0h114v485H264l120 119-77 78L55 430l252-252 77 78-120 119h317z"/><glyph unicode="↱" horiz-adv-x="776" d="M195 375h317L392 256l77-78 252 252-252 252-77-78 120-119H81V0h114z"/><glyph unicode="↲" horiz-adv-x="795" d="M586 110H269l120 119-77 78L60 55l252-252 77 78L269 0h431v485H586z"/><glyph unicode="↳" horiz-adv-x="795" d="M209 485H95V0h431L406-119l77-78L735 55 483 307l-77-78 120-119H209z"/><glyph unicode="∂" horiz-adv-x="595" d="M553 242c0 77-46 152-89 211L279 710H128l161-224c-5 1-9 1-14 1-129 0-232-105-232-245S152-10 298-10s255 112 255 252zM306 377c20 0 45-4 63-9 33-40 54-81 54-126 0-73-49-134-125-134s-125 61-125 134 48 135 133 135z"/><glyph unicode="∆" horiz-adv-x="626" d="M28 70V0h570v70L358 700h-90zm285 440l152-400H161z"/><glyph unicode="∏" horiz-adv-x="632" d="M36 700V590h100V0h120v590h120V0h120v590h100v110z"/><glyph unicode="∑" horiz-adv-x="643" d="M428 326v70L236 590h227V490h110v210H43v-70l264-270L33 70V0h550v210H473V110H222z"/><glyph unicode="−" horiz-adv-x="580" d="M60 315V205h460v110z"/><glyph unicode="∕" horiz-adv-x="480" d="M87 0l409 700H390L-19 0z"/><glyph unicode="∙" horiz-adv-x="374" d="M102 250c0-47 38-83 85-83s85 36 85 83-38 83-85 83-85-36-85-83z"/><glyph unicode="√" horiz-adv-x="629" d="M20 485V375h96L291 0h90l249 700H514L328 179 187 485z"/><glyph unicode="∞" horiz-adv-x="830" d="M160 277c0 52 32 97 85 97 59 0 90-58 110-97-20-39-51-97-110-97-53 0-85 45-85 97zm255-88c41-75 97-119 176-119 102 0 189 83 189 207s-87 207-189 207c-79 0-135-44-176-119-41 75-97 119-176 119-102 0-189-83-189-207S137 70 239 70c79 0 135 44 176 119zm255 88c0-52-32-97-85-97-59 0-90 58-110 97 20 39 51 97 110 97 53 0 85-45 85-97z"/><glyph unicode="∧" horiz-adv-x="592" d="M-4 0h125l176 490L473 0h123L341 700h-90z"/><glyph unicode="∫" horiz-adv-x="602" d="M195-19c-7-40-12-55-20-68-12-20-34-32-57-32-28 0-48 11-67 29l-75-76c37-46 90-68 148-68 51 0 104 20 139 59 28 31 46 71 56 132l88 538c7 40 12 55 20 68 12 20 34 32 57 32 28 0 48-11 67-29l75 76c-37 46-90 68-148 68-51 0-104-20-139-59-28-31-46-71-56-132z"/><glyph unicode="≈" horiz-adv-x="580" d="M133 58c8 44 31 79 65 79 49 0 94-84 190-84 97 0 151 79 168 162l-107 27c-8-44-31-79-65-79-49 0-94 84-190 84-97 0-151-79-168-162zm0 220c8 44 31 79 65 79 49 0 94-84 190-84 97 0 151 79 168 162l-107 27c-8-44-31-79-65-79-49 0-94 84-190 84-97 0-151-79-168-162z"/><glyph unicode="≠" horiz-adv-x="580" d="M510 530H384l-62-110H60V310h200l-56-100H60V100h82L80-10h126l62 110h252v110H330l56 100h134v110h-72z"/><glyph unicode="≡" horiz-adv-x="590" d="M65 485V381h460v104zm0-346V35h460v104zm0 173V208h460v104z"/><glyph unicode="≤" horiz-adv-x="580" d="M58 115V10h460v105zm460 284v116L58 364v-70l460-151v116l-218 70z"/><glyph unicode="≥" horiz-adv-x="580" d="M62 115V10h460v105zm218 214L62 259V143l460 151v70L62 515V399z"/><glyph unicode="⋮" horiz-adv-x="320" d="M75 73c0-47 38-83 85-83s85 36 85 83-38 83-85 83-85-36-85-83zm0 277c0-47 38-83 85-83s85 36 85 83-38 83-85 83-85-36-85-83zm0 277c0-47 38-83 85-83s85 36 85 83-38 83-85 83-85-36-85-83z"/><glyph unicode="⌀" horiz-adv-x="822" d="M681 350c0-152-118-275-270-275-61 0-116 20-160 53l381 381c31-45 49-100 49-159zm-540 0c0 152 118 275 270 275 60 0 115-20 160-53L190 191c-31 45-49 100-49 159zm630 0c0 84-28 161-76 222l66 66-62 62-66-66c-61 48-138 76-222 76-198 0-360-162-360-360 0-84 28-161 76-222L61 62l62-62 66 66c61-48 138-76 222-76 198 0 360 162 360 360z"/><glyph unicode="░" horiz-adv-x="700" d="M700 0v50h-50v50h-50v50h-50v50h-50v50h-50v50h-50v50h-50v50h-50v50h-50v50h-50v50h-50v50h-50v50H50v50H0v-50h50v-50h50v-50h50v-50h50v-50h50v-50h50v-50h50v-50h50v-50h50v-50h50v-50h50v-50h50V50h50V0zm0 100v50h-50v50h-50v50h-50v50h-50v50h-50v50h-50v50h-50v50h-50v50h-50v50h-50v50h-50v50h-50v-50h50v-50h50v-50h50v-50h50v-50h50v-50h50v-50h50v-50h50v-50h50v-50h50v-50h50v-50zM600 0v50h-50v50h-50v50h-50v50h-50v50h-50v50h-50v50h-50v50h-50v50h-50v50h-50v50H50v50H0v-50h50v-50h50v-50h50v-50h50v-50h50v-50h50v-50h50v-50h50v-50h50v-50h50V50h50V0zm100 200v50h-50v50h-50v50h-50v50h-50v50h-50v50h-50v50h-50v50h-50v50h-50v50h-50v-50h50v-50h50v-50h50v-50h50v-50h50v-50h50v-50h50v-50h50v-50h50v-50zM500 0v50h-50v50h-50v50h-50v50h-50v50h-50v50h-50v50h-50v50h-50v50H50v50H0v-50h50v-50h50v-50h50v-50h50v-50h50v-50h50v-50h50v-50h50V50h50V0zM400 0v50h-50v50h-50v50h-50v50h-50v50h-50v50h-50v50H50v50H0v-50h50v-50h50v-50h50v-50h50v-50h50v-50h50V50h50V0zm300 300v50h-50v50h-50v50h-50v50h-50v50h-50v50h-50v50h-50v50h-50v-50h50v-50h50v-50h50v-50h50v-50h50v-50h50v-50h50v-50zm0 100v50h-50v50h-50v50h-50v50h-50v50h-50v50h-50v-50h50v-50h50v-50h50v-50h50v-50h50v-50zM300 0v50h-50v50h-50v50h-50v50h-50v50H50v50H0v-50h50v-50h50v-50h50v-50h50V50h50V0zm400 500v50h-50v50h-50v50h-50v50h-50v-50h50v-50h50v-50h50v-50zM200 0v50h-50v50h-50v50H50v50H0v-50h50v-50h50V50h50V0zM100 0v50H50v50H0V50h50V0zm600 600v50h-50v50h-50v-50h50v-50z"/><glyph unicode="■" horiz-adv-x="800" d="M750 0v700H50V0z"/><glyph unicode="□" horiz-adv-x="800" d="M750 0v700H50V0zM140 615h520V85H140z"/><glyph unicode="▮" horiz-adv-x="585" d="M535 0v700H50V0z"/><glyph unicode="▯" horiz-adv-x="585" d="M535 0v700H50V0zM140 615h305V85H140z"/><glyph unicode="▲" horiz-adv-x="576" d="M35 0h506L288 495z"/><glyph unicode="►" horiz-adv-x="565" d="M530 243L35 496V-10z"/><glyph unicode="▼" horiz-adv-x="576" d="M288-10l253 495H35z"/><glyph unicode="◄" horiz-adv-x="565" d="M530-10v506L35 243z"/><glyph unicode="◊" horiz-adv-x="560" d="M235 0h90l200 315v70L325 700h-90L35 385v-70zm-93 350l138 215 137-215-137-216z"/><glyph unicode="○" horiz-adv-x="820" d="M410-10c198 0 360 162 360 360S608 710 410 710 50 548 50 350 212-10 410-10zM140 350c0 152 119 275 270 275s270-123 270-275S561 75 410 75 140 198 140 350z"/><glyph unicode="●" horiz-adv-x="820" d="M410-10c198 0 360 162 360 360S608 710 410 710 50 548 50 350 212-10 410-10z"/><glyph unicode="◻" horiz-adv-x="585" d="M535 0v485H50V0zM140 400h305V85H140z"/><glyph unicode="◼" horiz-adv-x="585" d="M535 0v485H50V0z"/><glyph unicode="☮" horiz-adv-x="820" d="M410-10c198 0 360 162 360 360S608 710 410 710 50 548 50 350 212-10 410-10zM135 350c0 137 101 252 233 272V377L184 193c-31 44-49 98-49 157zm550 0c0-59-18-113-49-157L452 377v245c132-20 233-135 233-272zM238 134l130 130V78c-49 7-93 27-130 56zm344 0c-37-29-81-49-130-56v186z"/><glyph unicode="☺" horiz-adv-x="830" d="M647 307c-29-100-121-172-232-172s-203 72-232 172l10 4c6 3 9 7 9 12 0 7-4 17-14 17-6 0-14-3-19-5l-36-14c-6-2-11-7-11-15 0-11 8-17 14-17 5 0 12 3 18 5 34-109 136-190 261-190s227 81 261 190c6-2 13-5 18-5 6 0 14 6 14 17 0 8-5 13-11 15l-36 14c-5 2-13 5-19 5-10 0-14-10-14-17 0-5 3-9 9-12zm-132 51c25 0 40 48 40 110 0 61-15 111-40 111s-40-50-40-111c0-62 15-110 40-110zm-200 0c25 0 40 48 40 110 0 61-15 111-40 111s-40-50-40-111c0-62 15-110 40-110zM415-15c201 0 365 164 365 365S616 715 415 715 50 551 50 350 214-15 415-15zm0 35C234 20 87 169 87 350s147 330 328 330 328-149 328-330S596 20 415 20z"/><glyph unicode="☻" horiz-adv-x="820" d="M692 331c6-2 11-7 11-15 0-11-8-17-14-17-5 0-12 3-18 5-34-109-136-190-261-190s-227 81-261 190c-6-2-13-5-18-5-6 0-14 6-14 17 0 8 5 13 11 15l36 14c5 2 13 5 19 5 10 0 14-10 14-17 0-5-3-9-9-12l-10-4c29-100 121-172 232-172s203 72 232 172l-10 4c-6 3-9 7-9 12 0 7 4 17 14 17 6 0 14-3 19-5zm-182 27c-25 0-40 48-40 110 0 61 15 111 40 111s40-50 40-111c0-62-15-110-40-110zm-200 0c-25 0-40 48-40 110 0 61 15 111 40 111s40-50 40-111c0-62-15-110-40-110zM410-10c198 0 360 162 360 360S608 710 410 710 50 548 50 350 212-10 410-10z"/><glyph unicode="✎" horiz-adv-x="810" d="M750 0l-90 350-350 350H173L55 582V448L404 98zM502 187L217 472l69 69 281-283c1-4 2-8 2-13 0-32-26-58-58-58zm-34-15c0-24-17-41-48-41L104 448h88zm158 162c1-2 1-5 1-8 0-22-17-39-38-39L310 565v86zM274 577l-95-95H91v88l96 96h87zm412-467c0-25-19-44-43-44l-165 46c11 10 20 23 24 38h9c53 0 95 42 95 95v7c14 3 27 12 37 23zM162 537c26 0 52 29 52 53 0 12-9 18-19 18-26 0-52-27-52-51 0-13 8-20 19-20z"/><glyph unicode="✓" horiz-adv-x="760" d="M244 110c-20 47-67 136-103 176-9 10-19 14-32 14-30 0-59-26-59-52 0-14 4-23 15-39 32-45 69-115 102-182 17-35 36-42 65-42 36 0 52 11 69 48 152 334 250 443 397 632 7 9 12 17 12 26 0 12-15 24-25 24-13 0-26-14-39-28-162-175-312-391-402-577z"/><glyph unicode="✺" horiz-adv-x="800" d="M633 88l29 29-217 202 271-122 15 38-280 104 299-10v42l-299-11 280 105-16 38-269-122 216 202-29 29-205-221 125 275-38 15-105-279 11 298h-42l10-297-104 278-38-16 123-271-203 218-29-29 218-204L84 503l-15-38 278-104-297 10v-42l297 10L69 235l16-38 271 123-218-203 29-29 203 218L247 34l38-15 104 278L379 0h42l-11 297L515 19l38 16-125 273z"/><glyph unicode="❏" horiz-adv-x="700" d="M650 0v500H550v100H50V100h100V0zM460 185H140v330h320z"/><glyph unicode="❤" horiz-adv-x="790" d="M395 535c-12 102-80 175-156 175-109 0-189-93-189-233C50 260 216 76 395-10c179 86 345 270 345 487 0 140-80 233-189 233-76 0-144-73-156-175z"/><glyph unicode="➀" horiz-adv-x="900" d="M160 350c0 162 128 295 290 295s290-133 290-295S612 55 450 55 160 188 160 350zM450-25c210 0 375 168 375 375S660 725 450 725 75 557 75 350 240-25 450-25zM329 380l85 48V178h95v360h-60l-120-65z"/><glyph unicode="➁" horiz-adv-x="900" d="M160 350c0 162 128 295 290 295s290-133 290-295S612 55 450 55 160 188 160 350zM450-25c210 0 375 168 375 375S660 725 450 725 75 557 75 350 240-25 450-25zM326 231v-50h255v82H476l34 34c51 51 66 91 66 128 0 69-56 126-131 126-62 0-113-38-129-112l78-20c6 34 24 50 51 50 24 0 41-21 41-44 0-24-10-44-45-79z"/><glyph unicode="➂" horiz-adv-x="900" d="M160 350c0 162 128 295 290 295s290-133 290-295S612 55 450 55 160 188 160 350zM450-25c210 0 375 168 375 375S660 725 450 725 75 557 75 350 240-25 450-25zm-54 354c12 6 34 10 46 10 31 0 53-18 53-49 0-29-22-49-51-49-27 0-48 12-60 30l-66-42c30-47 75-70 132-70 87 0 135 61 135 131 0 54-34 97-79 113l69 76v50H340v-82h118l-62-68z"/><glyph unicode="➃" horiz-adv-x="900" d="M160 350c0 162 128 295 290 295s290-133 290-295S612 55 450 55 160 188 160 350zM450-25c210 0 375 168 375 375S660 725 450 725 75 557 75 350 240-25 450-25zm70 569h-60L271 304v-50h164v-70h85v70h61v75h-61zM376 329l59 75v-75z"/><glyph unicode="➄" horiz-adv-x="900" d="M160 350c0 162 128 295 290 295s290-133 290-295S612 55 450 55 160 188 160 350zM450-25c210 0 375 168 375 375S660 725 450 725 75 557 75 350 240-25 450-25zm-51 350c10 9 26 15 40 15 29 0 50-20 50-48 0-30-23-50-50-50s-47 12-59 25l-58-55c34-36 76-52 123-52 79 0 137 56 137 128 0 59-37 123-119 123-4 0-14-1-24-3l4 42h114v80H366l-19-198z"/><glyph unicode="➅" horiz-adv-x="900" d="M160 350c0 162 128 295 290 295s290-133 290-295S612 55 450 55 160 188 160 350zM450-25c210 0 375 168 375 375S660 725 450 725 75 557 75 350 240-25 450-25zm84 560H429l-86-140c-14-24-36-61-36-103 0-79 69-127 140-127 79 0 140 58 140 129s-56 121-126 123zm-39-241c0-26-21-47-47-47-29 0-49 20-49 47 0 13 5 26 13 35 8 7 21 12 36 12 29 0 47-21 47-47z"/><glyph unicode="➆" horiz-adv-x="900" d="M160 350c0 162 128 295 290 295s290-133 290-295S612 55 450 55 160 188 160 350zM450-25c210 0 375 168 375 375S660 725 450 725 75 557 75 350 240-25 450-25zM341 527v-82h139L354 167h98l139 310v50z"/><glyph unicode="➇" horiz-adv-x="900" d="M160 350c0 162 128 295 290 295s290-133 290-295S612 55 450 55 160 188 160 350zM450-25c210 0 375 168 375 375S660 725 450 725 75 557 75 350 240-25 450-25zm0 192c83 0 140 52 140 117 0 35-19 69-49 87 20 18 33 43 33 71 0 58-55 105-124 105s-124-47-124-105c0-28 13-53 33-71-30-18-49-52-49-87 0-65 57-117 140-117zm0 232c-17 0-32 13-32 34s15 34 32 34 32-13 32-34-15-34-32-34zm-50-106c0 26 20 47 50 47s50-21 50-47-20-46-50-46-50 20-50 46z"/><glyph unicode="➈" horiz-adv-x="900" d="M160 350c0 162 128 295 290 295s290-133 290-295S612 55 450 55 160 188 160 350zM450-25c210 0 375 168 375 375S660 725 450 725 75 557 75 350 240-25 450-25zm-78 193h105l86 140c14 24 36 61 36 103 0 79-69 127-140 127-79 0-140-58-140-129s56-121 126-123zm39 241c0 26 21 47 47 47 29 0 49-20 49-47 0-13-5-26-13-35-8-7-21-12-36-12-29 0-47 21-47 47z"/><glyph unicode="➊" horiz-adv-x="900" d="M331 472l119 64h57V180h-91v252l-85-48zM450-25c210 0 375 168 375 375S660 725 450 725 75 557 75 350 240-25 450-25z"/><glyph unicode="➋" horiz-adv-x="900" d="M445 346c32 32 45 54 45 79 0 27-19 48-45 48-30 0-49-21-55-55-23 6-47 14-70 20 17 71 65 109 129 109 69 0 123-57 123-122 0-33-13-73-64-124l-42-42h111v-74H330v46zm5-371c210 0 375 168 375 375S660 725 450 725 75 557 75 350 240-25 450-25z"/><glyph unicode="➌" horiz-adv-x="900" d="M400 379l66 72H344v74h227v-46l-70-77c47-14 80-59 80-112 0-66-48-127-131-127-53 0-97 22-127 65l62 40c14-18 33-30 58-30 30 0 54 19 54 53 0 30-21 52-56 52-11 0-29-2-41-7zm50-404c210 0 375 168 375 375S660 725 450 725 75 557 75 350 240-25 450-25z"/><glyph unicode="➍" horiz-adv-x="900" d="M518 327h61v-71h-61v-70h-81v70H273v47l188 239h57zm-81 0v82l-64-82zm13-352c210 0 375 168 375 375S660 725 450 725 75 557 75 350 240-25 450-25z"/><glyph unicode="➎" horiz-adv-x="900" d="M349 334l19 194h187v-76H441l-4-46c10 2 20 3 25 3 81 0 118-62 118-121 0-70-55-126-135-126-53 0-92 20-119 50l54 51c10-11 32-23 59-23 29 0 52 20 52 52 0 30-21 50-52 50-14 0-31-6-41-15zM450-25c210 0 375 168 375 375S660 725 450 725 75 557 75 350 240-25 450-25z"/><glyph unicode="➏" horiz-adv-x="900" d="M457 415c72-2 128-52 128-121s-61-127-138-127c-69 0-138 48-138 125 0 40 22 77 36 101l86 140h99zm40-121c0 28-18 49-49 49-15 0-29-6-37-12-7-9-14-22-14-37 0-29 20-49 51-49 28 0 49 21 49 49zM450-25c210 0 375 168 375 375S660 725 450 725 75 557 75 350 240-25 450-25z"/><glyph unicode="➐" horiz-adv-x="900" d="M589 525v-48c-22-50-48-105-70-155-23-51-47-103-68-153h-95l126 278H343v78zM450-25c210 0 375 168 375 375S660 725 450 725 75 557 75 350 240-25 450-25z"/><glyph unicode="➑" horiz-adv-x="900" d="M450 169c-81 0-138 52-138 115 0 33 19 68 51 87-22 20-35 45-35 71 0 56 55 103 122 103s122-47 122-103c0-26-13-51-35-71 32-19 51-54 51-87 0-63-57-115-138-115zm0 228c19 0 34 13 34 36s-15 36-34 36-34-13-34-36 15-36 34-36zm-52-104c0-28 20-48 52-48s52 20 52 48-20 49-52 49-52-21-52-49zm52-318c210 0 375 168 375 375S660 725 450 725 75 557 75 350 240-25 450-25z"/><glyph unicode="➒" horiz-adv-x="900" d="M450-25c210 0 375 168 375 375S660 725 450 725 75 557 75 350 240-25 450-25zm-1 313c-74 0-128 50-128 121 0 69 61 127 138 127 69 0 138-48 138-125 0-40-22-77-36-101l-86-140h-99zm-40 121c0-28 18-49 49-49 15 0 29 6 37 12 7 9 14 22 14 37 0 29-20 49-51 49-28 0-49-21-49-49z"/><glyph unicode="ﬀ" horiz-adv-x="868" d="M433 679c-31 26-73 41-122 41-44 0-83-14-113-39-38-31-60-80-60-156v-40H23V380h115V0h130v380h145v105H268v41c0 35 5 48 13 58 9 12 26 21 46 21s39-7 54-17zm434 0c-31 26-73 41-122 41-44 0-83-14-113-39-38-31-60-80-60-156v-40H457V380h115V0h130v380h145v105H702v41c0 35 5 48 13 58 9 12 26 21 46 21s39-7 54-17z"/><glyph unicode="ﬁ" horiz-adv-x="716" d="M433 679c-31 26-73 41-122 41-44 0-83-14-113-39-38-31-60-80-60-156v-40H23V380h115V0h130v380h145v105H268v41c0 35 5 48 13 58 9 12 26 21 46 21s39-7 54-17zm207-194H510V0h130zM493 660c0-45 37-80 82-80s82 35 82 80-37 80-82 80-82-35-82-80z"/><glyph unicode="ﬂ" horiz-adv-x="716" d="M433 679c-31 26-73 41-122 41-44 0-83-14-113-39-38-31-60-80-60-156v-40H23V380h115V0h130v380h145v105H268v41c0 35 5 48 13 58 9 12 26 21 46 21s39-7 54-17zm207 31H510V0h130z"/><glyph unicode="ﬃ" horiz-adv-x="1150" d="M433 679c-31 26-73 41-122 41-44 0-83-14-113-39-38-31-60-80-60-156v-40H23V380h115V0h130v380h145v105H268v41c0 35 5 48 13 58 9 12 26 21 46 21s39-7 54-17zm434 0c-31 26-73 41-122 41-44 0-83-14-113-39-38-31-60-80-60-156v-40H457V380h115V0h130v380h145v105H702v41c0 35 5 48 13 58 9 12 26 21 46 21s39-7 54-17zm207-194H944V0h130zM927 660c0-45 37-80 82-80s82 35 82 80-37 80-82 80-82-35-82-80z"/><glyph unicode="ﬄ" horiz-adv-x="1150" d="M433 679c-31 26-73 41-122 41-44 0-83-14-113-39-38-31-60-80-60-156v-40H23V380h115V0h130v380h145v105H268v41c0 35 5 48 13 58 9 12 26 21 46 21s39-7 54-17zm434 0c-31 26-73 41-122 41-44 0-83-14-113-39-38-31-60-80-60-156v-40H457V380h115V0h130v380h145v105H702v41c0 35 5 48 13 58 9 12 26 21 46 21s39-7 54-17zm207 31H944V0h130z"/><glyph horiz-adv-x="0"/></font>
</defs>
</svg>
