<svg xmlns="http://www.w3.org/2000/svg"><defs><font id="FranceTVBrownWebLight" horiz-adv-x="567"><font-face ascent="960" descent="-250"/><glyph horiz-adv-x="264"/><glyph unicode="!" horiz-adv-x="309" d="M136 210h37l10 246v244h-57V456zM102 42c0-29 23-52 52-52s52 23 52 52-23 52-52 52-52-23-52-52z"/><glyph unicode="&quot;" horiz-adv-x="392" d="M81 446h37l10 254H71zm193 0h37l10 254h-57z"/><glyph unicode="#" horiz-adv-x="624" d="M548 700h-57l-59-220H262l59 220h-57l-59-220H91v-54h99l-40-152H37v-54h99L76 0h57l60 220h170L303 0h57l59 220h114v54h-99l40 152h113v54h-99zM247 426h170l-40-152H207z"/><glyph unicode="$" horiz-adv-x="521" d="M34 127C90 65 169 27 246 21v-91h57v91c96 10 176 78 176 177 0 219-350 168-350 316 0 69 66 109 145 109 62 0 103-18 147-50l36 43c-29 22-80 55-154 62v92h-57v-91c-101-9-178-72-178-162 0-206 350-146 350-321 0-80-72-119-141-119-82 0-148 33-201 87z"/><glyph unicode="%" horiz-adv-x="808" d="M424 170c0-100 74-180 175-180s175 80 175 180-74 180-175 180-175-80-175-180zm297 0c0-71-54-130-122-130S477 99 477 170s54 130 122 130 122-59 122-130zM384 530c0 100-74 180-175 180S34 630 34 530s74-180 175-180 175 80 175 180zm198 170L174 0h52l408 700zM87 530c0 71 54 130 122 130s122-59 122-130-54-130-122-130S87 459 87 530z"/><glyph unicode="&amp;" horiz-adv-x="687" d="M554 134c27 48 41 104 41 159 0 49-9 98-18 130l-54-12c5-23 15-68 15-118 0-39-9-81-26-118L275 402c61 38 120 90 120 166 0 75-56 142-146 142s-146-67-146-142c0-57 34-110 83-158-72-45-137-110-137-209C49 79 163-10 299-10c99 0 174 40 224 99l93-89h79zm-448 67c0 70 45 121 122 170l254-244c-38-49-98-83-183-83-113 0-193 73-193 157zm232 367c0-55-52-94-103-128l-11 11c-32 31-64 73-64 117 0 52 39 88 89 88s89-36 89-88z"/><glyph unicode="'" horiz-adv-x="199" d="M81 446h37l10 254H71z"/><glyph unicode="(" horiz-adv-x="287" d="M110 230c0 180 65 327 153 447l-45 33C124 581 53 422 53 230s71-351 165-480l45 33C175-97 110 50 110 230z"/><glyph unicode=")" horiz-adv-x="288" d="M178 230c0-180-65-327-153-447l45-33c94 129 165 288 165 480S164 581 70 710l-45-33c88-120 153-267 153-447z"/><glyph unicode="*" horiz-adv-x="495" d="M454 532l-16 47-166-54v175h-50V525L56 579l-15-47 165-55-102-140 40-29 103 141 102-141 40 29-103 142z"/><glyph unicode="+" horiz-adv-x="540" d="M480 229v54H297v183h-54V283H60v-54h183V46h54v183z"/><glyph unicode="," horiz-adv-x="291" d="M46-140h50l96 240h-75z"/><glyph unicode="-" horiz-adv-x="404" d="M72 274v-49h260v49z"/><glyph unicode="." horiz-adv-x="290" d="M93 42c0-29 23-52 52-52s52 23 52 52-23 52-52 52-52-23-52-52z"/><glyph unicode="/" horiz-adv-x="446" d="M88 0l327 700h-58L30 0z"/><glyph unicode="0" horiz-adv-x="620" d="M310 47c-114 0-190 116-190 303s76 303 190 303 190-116 190-303S424 47 310 47zm250 303c0 225-101 360-250 360S60 575 60 350 161-10 310-10s250 135 250 360z"/><glyph unicode="1" horiz-adv-x="329" d="M31 546l135 75V0h60v700h-40L31 606z"/><glyph unicode="2" horiz-adv-x="559" d="M279 710c-134 0-215-98-232-218l54-12c21 112 85 173 178 173 89 0 153-75 153-158 0-84-49-143-138-231L62 37V0h445v57H163l171 168c96 94 158 167 158 270 0 124-98 215-213 215z"/><glyph unicode="3" horiz-adv-x="549" d="M37 109C79 37 158-10 255-10c133 0 237 103 237 239 0 126-95 227-221 228l196 206v37H72v-57h301L170 430v-37c24 8 58 10 88 10 99 0 174-75 174-174 0-96-69-182-177-182-76 0-133 33-172 92z"/><glyph unicode="4" horiz-adv-x="590" d="M380 0h60v180h115v57H440v463h-40L25 217v-37h355zM114 237l266 343V237z"/><glyph unicode="5" horiz-adv-x="541" d="M144 430l25 213h292v57H119L76 360l40-6c39 31 88 49 145 49 97 0 170-78 170-178 0-96-76-178-180-178-76 0-122 32-161 82L46 95C87 34 162-10 250-10c147 0 241 116 241 235 0 134-98 234-227 234-43 0-88-10-120-29z"/><glyph unicode="6" horiz-adv-x="555" d="M384 700h-68L101 368c-24-37-49-87-49-151C52 93 151-10 284-10s233 99 233 231c0 127-94 231-225 231-29 0-59-7-81-17zm-96-305c98 0 169-76 169-174S383 47 286 47c-101 0-174 77-174 174 0 65 32 106 51 137 42 26 82 37 125 37z"/><glyph unicode="7" horiz-adv-x="504" d="M28 643h378L98 0h63l317 663v37H28z"/><glyph unicode="8" horiz-adv-x="570" d="M285-10c132 0 230 90 230 213 0 82-47 154-121 190 47 31 76 82 76 141 0 97-78 176-185 176s-185-79-185-176c0-59 29-110 76-141-74-36-121-108-121-190C55 80 153-10 285-10zm0 663c73 0 125-53 125-119 0-65-51-116-125-118-74 2-125 53-125 118 0 66 52 119 125 119zm0-606c-100 0-170 70-170 156s70 156 170 156 170-70 170-156S385 47 285 47z"/><glyph unicode="9" horiz-adv-x="555" d="M171 0h68l215 332c24 37 49 87 49 151 0 124-99 227-232 227S38 611 38 479c0-127 94-231 225-231 29 0 59 7 81 17zm96 305c-98 0-169 76-169 174s74 174 171 174c101 0 174-77 174-174 0-65-32-106-51-137-42-26-82-37-125-37z"/><glyph unicode=":" horiz-adv-x="300" d="M98 42c0-29 23-52 52-52s52 23 52 52-23 52-52 52-52-23-52-52zm0 372c0-29 23-52 52-52s52 23 52 52-23 52-52 52-52-23-52-52z"/><glyph unicode=";" horiz-adv-x="323" d="M63-140h50l96 240h-75zm54 554c0-29 23-52 52-52s52 23 52 52-23 52-52 52-52-23-52-52z"/><glyph unicode="&lt;" horiz-adv-x="540" d="M473 123L150 256l323 133v58L53 273v-34L473 65z"/><glyph unicode="=" horiz-adv-x="540" d="M480 317v54H60v-54zm0-176v54H60v-54z"/><glyph unicode="&gt;" horiz-adv-x="540" d="M67 65l420 174v34L67 447v-58l323-133L67 123z"/><glyph unicode="?" horiz-adv-x="519" d="M106 557c24 66 85 99 148 99 85 0 141-57 141-126 0-137-207-144-207-263 0-28 14-56 49-87l40 37c-16 17-32 34-32 54 0 69 207 97 207 259 0 98-80 180-198 180-92 0-172-51-197-135zm84-515c0-29 23-52 52-52s52 23 52 52-23 52-52 52-52-23-52-52z"/><glyph unicode="@" horiz-adv-x="963" d="M908 285c0 234-169 405-408 405-125 0-225-39-302-106-92-81-150-201-150-334C48 7 243-190 485-190c95 0 184 31 253 84l-29 44c-61-43-140-74-223-74-209 0-381 170-381 386 0 115 49 218 127 289 67 60 155 97 268 97 204 0 351-147 351-351 0-83-22-196-119-196-21 0-39 8-51 21-15 16-22 39-22 71v274h-57v-46c-34 36-86 56-133 56-124 0-214-98-214-215S345 35 469 35c66 0 114 32 148 70 16-40 60-70 112-70 142 0 179 156 179 250zM602 163c-30-44-78-74-135-74-85 0-155 69-155 161s70 161 155 161c57 0 105-30 135-74z"/><glyph unicode="A" horiz-adv-x="670" d="M315 700L13 0h59l91 211h342L596 0h61L355 700zm19-92l146-340H188z"/><glyph unicode="B" horiz-adv-x="629" d="M521 529c0 49-21 93-54 124-31 29-72 47-137 47H101V0h252c73 0 122 20 159 53 42 38 69 92 69 154 0 84-51 157-123 190 38 31 63 79 63 132zM350 358c61 0 98-17 125-43 28-27 46-66 46-108s-18-81-46-108c-27-26-64-42-125-42H161v301zm-189 57v228h166c53 0 83-15 104-37 19-20 30-47 30-77s-11-57-30-77c-21-22-51-37-104-37z"/><glyph unicode="C" horiz-adv-x="705" d="M640 154C586 91 505 47 409 47c-174 0-297 133-297 303 0 168 123 303 291 303 87 0 165-39 215-89l39 39c-61 67-154 107-254 107-202 0-351-158-351-360C52 143 203-10 412-10c108 0 209 53 270 129z"/><glyph unicode="D" horiz-adv-x="743" d="M631 350c0-94-41-180-110-234-50-39-115-59-213-59H161v586h147c98 0 163-20 213-59 69-54 110-140 110-234zm60 0c0 116-53 220-139 284-57 42-130 66-241 66H101V0h210c111 0 184 24 241 66 86 64 139 168 139 284z"/><glyph unicode="E" horiz-adv-x="539" d="M481 643v57H101V0h390v57H161v301h250v57H161v228z"/><glyph unicode="F" horiz-adv-x="506" d="M481 643v57H101V0h60v358h250v57H161v228z"/><glyph unicode="G" horiz-adv-x="743" d="M403 710C201 710 52 552 52 350 52 143 203-10 412-10c108 0 210 52 270 129v296H392v-57h230V136c-53-54-127-89-213-89-174 0-297 133-297 303 0 168 123 303 291 303 87 0 165-39 215-89l39 39c-61 67-154 107-254 107z"/><glyph unicode="H" horiz-adv-x="772" d="M611 0h60v700h-60V415H161v285h-60V0h60v358h450z"/><glyph unicode="I" horiz-adv-x="262" d="M101 0h60v700h-60z"/><glyph unicode="J" horiz-adv-x="472" d="M23 102C51 36 117-10 193-10c64 0 121 31 154 81 20 29 31 66 31 124v505h-60V192c0-43-6-66-17-85-22-37-62-60-108-60-52 0-98 33-119 78z"/><glyph unicode="K" horiz-adv-x="602" d="M601 0L223 370l358 330h-79L161 386v314h-60V0h60v354L521 0z"/><glyph unicode="L" horiz-adv-x="518" d="M161 700h-60V0h390v57H161z"/><glyph unicode="M" horiz-adv-x="846" d="M685 568V0h60v700h-40L424 259 141 700h-40V0h60v567l257-402h10z"/><glyph unicode="N" horiz-adv-x="772" d="M101 0h60v583L631 0h40v700h-60V117L141 700h-40z"/><glyph unicode="O" horiz-adv-x="800" d="M52 350C52 146 202-10 400-10s348 156 348 360-150 360-348 360S52 554 52 350zm60 0c0 166 119 303 288 303s288-137 288-303S569 47 400 47 112 184 112 350z"/><glyph unicode="P" horiz-adv-x="592" d="M360 338c64 0 106 16 137 42 39 33 64 83 64 139s-25 106-64 139c-31 26-73 42-137 42H101V0h60v338zm-199 57v248h196c54 0 85-14 108-37 22-22 36-53 36-87s-14-65-36-87c-23-23-54-37-108-37z"/><glyph unicode="Q" horiz-adv-x="804" d="M52 350C52 146 202-10 400-10c88 0 166 31 226 83l66-73h76L665 112c52 63 83 146 83 238 0 204-150 360-348 360S52 554 52 350zm356-36l179-198c-49-43-113-69-187-69-169 0-288 137-288 303s119 303 288 303 288-137 288-303c0-73-23-141-63-193L449 350z"/><glyph unicode="R" horiz-adv-x="621" d="M621 0L351 358c58 2 96 18 125 45 34 31 55 76 55 126s-21 95-55 126c-31 28-72 45-136 45H101V0h60v358h118L549 0zM161 415v228h176c50 0 77-11 97-30 23-21 37-51 37-84s-14-63-37-84c-20-19-47-30-97-30z"/><glyph unicode="S" horiz-adv-x="524" d="M41 107C101 31 176-10 273-10c114 0 204 77 204 188 0 81-48 133-106 169-100 62-241 76-241 182 0 76 63 124 141 124 58 0 98-21 141-55l36 43c-32 28-89 69-179 69-112 0-199-75-199-184 0-71 43-112 95-144 102-63 252-77 252-204 0-81-74-131-144-131-89 0-148 45-189 96z"/><glyph unicode="T" horiz-adv-x="512" d="M26 700v-57h200V0h60v643h200v57z"/><glyph unicode="U" horiz-adv-x="744" d="M372-10c101 0 190 50 239 127 26 41 41 89 41 163v420h-60V277c0-61-11-98-31-130C522 86 452 47 372 47S222 86 183 147c-20 32-31 69-31 130v423H92V280c0-74 15-122 41-163C182 40 271-10 372-10z"/><glyph unicode="V" horiz-adv-x="648" d="M568 700L325 99 81 700H19L304 0h40l285 700z"/><glyph unicode="W" horiz-adv-x="956" d="M458 700L271 121 83 700H22L252 0h40l186 575L664 0h40l230 700h-61L685 121 498 700z"/><glyph unicode="X" horiz-adv-x="580" d="M71 0l219 330L507 0h68L324 381l211 319h-66L291 431 113 700H45l212-321L5 0z"/><glyph unicode="Y" horiz-adv-x="600" d="M570 700h-67L301 386 98 700H30l240-371V0h60v329z"/><glyph unicode="Z" horiz-adv-x="563" d="M25 37V0h510v57H108l407 606v37H55v-57h379z"/><glyph unicode="[" horiz-adv-x="348" d="M100-240h225v54H157v832h168v54H100z"/><glyph unicode="\" horiz-adv-x="446" d="M416 0L89 700H31L358 0z"/><glyph unicode="]" horiz-adv-x="348" d="M248 700H23v-54h168v-832H23v-54h225z"/><glyph unicode="^" horiz-adv-x="540" d="M74 350h59l136 266 137-266h59L288 700h-37z"/><glyph unicode="_" horiz-adv-x="554" d="M72 0v-49h410V0z"/><glyph unicode="`" horiz-adv-x="280" d="M70 674l95-140h45l-65 140z"/><glyph unicode="a" horiz-adv-x="592" d="M504 0v456h-55v-63c-41 46-101 73-167 73-55 0-107-20-145-51-52-44-85-111-85-187 0-82 37-153 97-195 45-32 93-43 136-43 71 0 130 31 164 77V0zm-57 144C411 82 351 44 284 44c-39 0-74 14-103 34-44 31-72 87-72 150 0 59 24 112 64 145 32 26 72 39 110 39 84 0 144-58 164-92z"/><glyph unicode="b" horiz-adv-x="592" d="M145 320c20 34 80 92 164 92 38 0 78-13 110-39 40-33 64-86 64-145 0-63-28-119-72-150-29-20-64-34-103-34-67 0-127 38-163 100zM307-10c43 0 91 11 136 43 60 42 97 113 97 195 0 76-33 143-85 187-38 31-90 51-145 51-63 0-122-25-165-71v315H88V0h55v67c34-46 93-77 164-77z"/><glyph unicode="c" horiz-adv-x="520" d="M291 44c-107 0-183 82-183 184s77 184 182 184c69 0 111-31 144-62l37 36c-38 41-97 80-181 80-139 0-239-107-239-238S150-10 291-10c79 0 149 36 195 95l-39 34c-41-47-92-75-156-75z"/><glyph unicode="d" horiz-adv-x="592" d="M447 144C411 82 351 44 284 44c-39 0-74 14-103 34-44 31-72 87-72 150 0 59 24 112 64 145 32 26 72 39 110 39 84 0 144-58 164-92zM285-10c71 0 130 31 164 77V0h55v710h-57V395c-43 46-102 71-165 71-55 0-107-20-145-51-52-44-85-111-85-187 0-82 37-153 97-195 45-32 93-43 136-43z"/><glyph unicode="e" horiz-adv-x="531" d="M271 412c79 0 141-57 153-137H114c17 79 76 137 157 137zm161-301c-36-38-87-67-144-67-120 0-175 79-178 179h372c1 9 1 16 1 20 0 127-90 223-212 223-129 0-218-107-218-238C53 87 145-10 283-10c69 0 139 30 185 84z"/><glyph unicode="f" horiz-adv-x="349" d="M348 690c-17 16-50 30-83 30-35 0-66-12-89-33-27-24-43-60-43-119V456H23v-54h110V0h57v402h138v54H190v112c0 41 7 61 20 75s32 23 54 23c23 0 40-5 56-17z"/><glyph unicode="g" horiz-adv-x="592" d="M504 2v454h-55v-63c-41 46-101 73-167 73-55 0-107-20-145-51-52-44-85-111-85-187 0-82 37-153 97-195 45-32 93-43 136-43 71 0 128 31 162 75V0c0-57-4-90-18-118-23-44-69-78-144-78-70 0-128 32-169 84l-42-29c52-73 129-109 211-109 97 0 162 44 194 105 19 36 25 80 25 147zm-57 142C411 82 351 44 284 44c-39 0-74 14-103 34-44 31-72 87-72 150 0 59 24 112 64 145 32 26 72 39 110 39 84 0 144-58 164-92z"/><glyph unicode="h" horiz-adv-x="585" d="M145 710H88V0h57v317c35 60 92 95 158 95 50 0 93-23 119-61 16-23 26-52 26-112V0h57v243c0 75-14 113-39 146-37 50-96 77-162 77-61 0-123-23-159-71z"/><glyph unicode="i" horiz-adv-x="233" d="M88 0h57v456H88zM66 614c0-28 22-50 50-50s51 22 51 50-23 51-51 51-50-23-50-51z"/><glyph unicode="j" horiz-adv-x="241" d="M74 614c0-28 22-50 50-50s51 22 51 50-23 51-51 51-50-23-50-51zM-62-220c17-16 50-30 83-30 35 0 66 12 89 33 27 24 43 60 43 119v554H96V-98c0-41-7-61-20-75s-32-23-54-23c-23 0-40 5-56 17z"/><glyph unicode="k" horiz-adv-x="492" d="M484 0L212 254l242 202h-83L145 266v444H88V0h57v241L404 0z"/><glyph unicode="l" horiz-adv-x="233" d="M88 0h57v710H88z"/><glyph unicode="m" horiz-adv-x="925" d="M143 456H88V0h57v317c30 57 90 95 152 95 50 0 91-24 115-60 16-24 26-54 26-118V0h57v241c0 25-2 47-5 65 28 55 84 106 157 106 50 0 91-24 115-60 16-24 26-54 26-118V0h57v241c0 61-10 98-27 129-33 58-96 96-171 96-91 0-147-51-179-97-32 59-95 97-171 97-63 0-121-29-154-72z"/><glyph unicode="n" horiz-adv-x="585" d="M143 456H88V0h57v317c35 60 92 95 158 95 50 0 93-23 119-61 16-23 26-52 26-112V0h57v243c0 75-14 113-39 146-37 50-96 77-162 77-64 0-124-25-161-74z"/><glyph unicode="o" horiz-adv-x="574" d="M465 228c0-102-75-184-178-184s-178 82-178 184 75 184 178 184 178-82 178-184zm57 0c0 131-99 238-235 238S52 359 52 228 151-10 287-10 522 97 522 228z"/><glyph unicode="p" horiz-adv-x="592" d="M145-240V65c34-44 91-75 162-75 43 0 91 11 136 43 60 42 97 113 97 195 0 76-33 143-85 187-38 31-90 51-145 51-66 0-126-27-167-73v63H88v-696zm0 560c20 34 80 92 164 92 38 0 78-13 110-39 40-33 64-86 64-145 0-63-28-119-72-150-29-20-64-34-103-34-67 0-127 38-163 100z"/><glyph unicode="q" horiz-adv-x="592" d="M504-240v696h-55v-63c-41 46-101 73-167 73-55 0-107-20-145-51-52-44-85-111-85-187 0-82 37-153 97-195 45-32 93-43 136-43 71 0 128 31 162 75v-305zm-57 384C411 82 351 44 284 44c-39 0-74 14-103 34-44 31-72 87-72 150 0 59 24 112 64 145 32 26 72 39 110 39 84 0 144-58 164-92z"/><glyph unicode="r" horiz-adv-x="345" d="M318 459c-17 2-25 2-29 2-71 0-123-39-144-70v65H88V0h57v305c24 59 80 101 147 101 8 0 10 0 26-2z"/><glyph unicode="s" horiz-adv-x="427" d="M45 55c50-45 108-65 173-65 88 0 162 52 162 137 0 164-263 107-263 207 0 53 53 78 101 78 47 0 76-9 114-34l31 40c-35 26-80 48-145 48-80 0-158-47-158-133 0-158 263-95 263-209 0-56-59-80-105-80-54 0-99 18-136 51z"/><glyph unicode="t" horiz-adv-x="373" d="M321 66c-17-11-40-22-65-22-21 0-37 7-49 20-11 12-18 29-18 67v271h138v54H189v151h-57V456H22v-54h110V135c0-60 15-96 43-119 19-16 48-26 76-26 38 0 69 13 96 33z"/><glyph unicode="u" horiz-adv-x="575" d="M432 0h55v456h-57V139c-30-57-90-95-152-95-50 0-91 24-115 60-16 24-26 54-26 118v234H80V213c0-61 10-98 27-129 33-58 96-94 171-94 63 0 122 30 154 72z"/><glyph unicode="v" horiz-adv-x="507" d="M272 0l211 456h-59L254 89 85 456H24L235 0z"/><glyph unicode="w" horiz-adv-x="744" d="M372 361L515 0h37l165 456h-59L531 99 390 456h-36L212 99 85 456H27L192 0h37z"/><glyph unicode="x" horiz-adv-x="470" d="M383 0h67L268 245l157 211h-67L236 289 112 456H45l157-212L20 0h67l147 201z"/><glyph unicode="y" horiz-adv-x="527" d="M181-240l323 696h-60L273 88 86 456H24L244 25 120-240z"/><glyph unicode="z" horiz-adv-x="477" d="M36 34V0h400v54H121l305 368v34H61v-54h279z"/><glyph unicode="{" horiz-adv-x="308" d="M120 230c32 13 44 45 44 88 0 75-11 161-11 226 0 40 6 64 24 81 19 17 40 21 93 21h11v51c-10 2-20 3-35 3-49 0-82-15-106-35-30-26-44-64-44-115 0-76 10-166 10-236 0-50-25-67-70-67v-34c45 0 70-17 70-67 0-70-10-160-10-236 0-51 14-89 44-115 24-20 57-35 106-35 15 0 25 1 35 3v51h-11c-53 0-74 4-93 21-18 17-24 41-24 81 0 65 11 151 11 226 0 43-12 75-44 88z"/><glyph unicode="|" horiz-adv-x="257" d="M100-240h57v940h-57z"/><glyph unicode="}" horiz-adv-x="308" d="M188 230c-32-13-44-45-44-88 0-75 11-161 11-226 0-40-6-64-24-81-19-17-40-21-93-21H27v-51c10-2 20-3 35-3 49 0 82 15 106 35 30 26 44 64 44 115 0 76-10 166-10 236 0 50 25 67 70 67v34c-45 0-70 17-70 67 0 70 10 160 10 236 0 51-14 89-44 115-24 20-57 35-106 35-15 0-25-1-35-3v-51h11c53 0 74-4 93-21 18-17 24-41 24-81 0-65-11-151-11-226 0-43 12-75 44-88z"/><glyph unicode="~" horiz-adv-x="540" d="M97 196c14 41 34 77 77 77 58 0 112-88 194-88 62 0 103 42 122 108l-47 23c-14-41-34-77-77-77-58 0-112 88-194 88-62 0-103-42-122-108z"/><glyph horiz-adv-x="264"/><glyph unicode="¡" horiz-adv-x="232" d="M88 4v-244h57V4l-10 246H98zM64 414c0-29 23-52 52-52s52 23 52 52-23 52-52 52-52-23-52-52z"/><glyph unicode="¢" horiz-adv-x="522" d="M289 258c-107 0-183 82-183 184s77 184 182 184c69 0 111-31 144-62l37 36c-34 36-85 72-155 79v91h-57v-92C134 663 49 563 49 442s84-221 208-236v-92h57v91c68 6 129 41 170 94l-39 34c-41-47-92-75-156-75z"/><glyph unicode="£" horiz-adv-x="556" d="M59 316v-54h101c14-30 25-60 25-91 0-75-51-106-126-134V0h450v57H189c36 31 53 71 53 119 0 30-9 58-21 86h173v54H194c-30 53-60 107-60 172 0 101 81 165 165 165s134-45 164-118l51 20c-46 116-136 155-215 155-129 0-225-94-225-220 0-69 28-124 56-174z"/><glyph unicode="¤" horiz-adv-x="598" d="M103 351c0-45 16-86 41-119l-75-74 37-37 75 74c33-25 74-40 118-40 45 0 86 15 119 40l74-74 37 37-74 74c25 33 40 74 40 119 0 44-15 85-40 118l74 75-37 37-74-75c-33 25-74 41-119 41-44 0-85-16-118-41l-75 75-37-37 75-75c-25-33-41-74-41-118zm57 0c0 77 62 139 139 139s139-62 139-139-62-139-139-139-139 62-139 139z"/><glyph unicode="¥" horiz-adv-x="606" d="M573 700h-67L304 386 101 700H33l158-245H83v-54h143l47-72v-29H83v-54h190V0h60v246h190v54H333v29l46 72h144v54H414z"/><glyph unicode="¦" horiz-adv-x="257" d="M100-240h57v390h-57zm0 550h57v390h-57z"/><glyph unicode="§" horiz-adv-x="556" d="M223 371c106-45 238-63 238-176 0-56-42-104-93-123-11 6-22 12-34 17-106 45-238 63-238 176 0 55 41 103 92 122 11-6 23-11 35-16zm42-564c-58 0-98 21-141 55l-36-42c32-28 89-70 179-70 110 0 199 70 199 175 0 49-18 84-47 111 65 37 102 93 102 161 0 234-370 170-370 338 0 72 65 118 141 118 58 0 98-21 141-55l36 42c-32 28-89 70-179 70-110 0-199-70-199-175 0-49 18-84 46-111-64-37-101-93-101-161C36 29 406 93 406-75c0-72-65-118-141-118z"/><glyph unicode="¨" horiz-adv-x="404" d="M233 599c0-28 22-50 50-50s51 22 51 50-23 51-51 51-50-23-50-51zm-163 0c0-28 22-50 50-50s51 22 51 50-23 51-51 51-50-23-50-51z"/><glyph unicode="©" horiz-adv-x="850" d="M97 350c0 181 147 328 328 328s328-147 328-328S606 22 425 22 97 169 97 350zM425-25c210 0 375 168 375 375S635 725 425 725 50 557 50 350 215-25 425-25zm165 508c-41 45-101 68-156 68-113 0-199-87-199-201 0-113 86-200 203-200 66 0 125 31 162 77l-29 28c-39-41-79-61-136-61-88 0-153 70-153 156 0 89 68 157 150 157 52 0 95-19 131-53z"/><glyph unicode="ª" horiz-adv-x="426" d="M298 489c-21-24-51-43-90-43-65 0-108 48-108 109s43 109 108 109c39 0 69-19 90-43zm-91-89c46 0 78 23 91 39v-29h49v290h-49v-29c-13 16-45 39-91 39-91 0-156-68-156-155s65-155 156-155z"/><glyph unicode="«" horiz-adv-x="528" d="M203 420L44 235 203 50h71L115 235l159 185zm200 0L244 235 403 50h71L315 235l159 185z"/><glyph unicode="¬" horiz-adv-x="540" d="M422 141h54v230H56v-54h366z"/><glyph unicode="­" horiz-adv-x="404" d="M72 274v-49h260v49z"/><glyph unicode="®" horiz-adv-x="850" d="M590 159L463 347c34 3 53 11 69 27 18 18 29 43 29 70s-11 51-29 69-42 29-89 29H311V159h47v188h50l129-188zM358 390v108h82c37 0 51-7 61-19 8-9 13-22 13-35s-5-26-13-35c-10-12-24-19-61-19zm67-415c207 0 375 168 375 375S632 725 425 725 50 557 50 350 218-25 425-25zM97 350c0 181 147 328 328 328s328-147 328-328S606 22 425 22 97 169 97 350z"/><glyph unicode="¯" horiz-adv-x="420" d="M70 619v-50h280v50z"/><glyph unicode="°" horiz-adv-x="412" d="M51 555c0-86 69-155 155-155s155 69 155 155-69 155-155 155S51 641 51 555zm51 0c0 57 46 104 103 104s104-47 104-104-47-103-104-103-103 46-103 103z"/><glyph unicode="±" horiz-adv-x="540" d="M480 271v54H297v161h-54V325H60v-54h183V110h54v161zm0-245v54H60V26z"/><glyph unicode="²" horiz-adv-x="313" d="M78 591c8 40 34 73 76 73 43 0 69-34 69-72 0-39-21-67-56-100L38 370v-30h235v46H120l78 72c48 44 75 84 75 134 0 68-52 118-118 118-70 0-108-49-122-107z"/><glyph unicode="³" horiz-adv-x="309" d="M27 397c22-38 64-67 117-67 77 0 128 60 128 126 0 69-50 111-100 117l85 97v30H47v-45h138l-86-98v-30c14 5 30 7 44 7 45-1 79-29 79-79 0-45-35-80-78-80-38 0-63 20-81 47z"/><glyph unicode="´" horiz-adv-x="280" d="M135 674L70 534h45l95 140z"/><glyph unicode="µ" horiz-adv-x="591" d="M290-10c63 0 122 30 154 72V0h55v456h-57V139c-30-57-90-95-152-95-50 0-91 24-115 60-16 24-26 54-26 118v234H92v-696h57V55c33-43 84-65 141-65z"/><glyph unicode="¶" horiz-adv-x="647" d="M266 700c-45 0-68-4-90-12C92 659 31 579 31 485c0-119 96-215 215-215v-510h57v886h146v-886h57v886h100v54zM88 485c0 89 70 161 158 161V324c-88 0-158 72-158 161z"/><glyph unicode="·" horiz-adv-x="250" d="M73 228c0-29 23-52 52-52s52 23 52 52-23 52-52 52-52-23-52-52z"/><glyph unicode="¸" horiz-adv-x="240" d="M70-140h75l25 150h-45z"/><glyph unicode="¹" horiz-adv-x="223" d="M96 640V340h50v360h-30l-95-50v-50z"/><glyph unicode="º" horiz-adv-x="409" d="M52 555c0-85 63-155 153-155s153 70 153 155-63 155-153 155S52 640 52 555zm49 0c0 59 43 109 104 109 59 0 104-50 104-109s-45-109-104-109-104 50-104 109z"/><glyph unicode="»" horiz-adv-x="528" d="M254 420l159-185L254 50h71l159 185-159 185zm-200 0l159-185L54 50h71l159 185-159 185z"/><glyph unicode="¼" horiz-adv-x="615" d="M111 0l408 700h-52L59 0zm8 640V340h50v360h-30l-95-50v-50zM294 85h176V0h49v85h60v44h-60v231h-30L294 115zm67 44l109 137V129z"/><glyph unicode="½" horiz-adv-x="644" d="M109 0l408 700h-52L57 0zm8 640V340h50v360h-30l-95-50v-50zm290-389c8 40 34 73 76 73 43 0 69-34 69-72 0-39-21-67-56-100L367 30V0h235v46H449l78 72c48 44 75 84 75 134 0 68-52 118-118 118-70 0-108-49-122-107z"/><glyph unicode="¾" horiz-adv-x="686" d="M35 397c22-38 64-67 117-67 77 0 128 60 128 126 0 69-50 111-100 117l85 97v30H55v-45h138l-86-98v-30c14 5 30 7 44 7 45-1 79-29 79-79 0-45-35-80-78-80-38 0-63 20-81 47zM182 0l408 700h-52L130 0zm183 85h176V0h49v85h60v44h-60v231h-30L365 115zm67 44l109 137V129z"/><glyph unicode="¿" horiz-adv-x="459" d="M382-97c-24-66-85-99-148-99-85 0-141 57-141 126C93 67 300 74 300 193c0 28-14 56-49 87l-40-37c16-17 32-34 32-54 0-69-207-97-207-259 0-98 80-180 198-180 92 0 172 51 197 135zm-84 511c0 29-23 52-52 52s-52-23-52-52 23-52 52-52 52 23 52 52z"/><glyph unicode="À" horiz-adv-x="670" d="M315 700L13 0h59l91 211h342L596 0h61L355 700zm19-92l146-340H188zM215 903l95-140h45l-65 140z"/><glyph unicode="Á" horiz-adv-x="670" d="M315 700L13 0h59l91 211h342L596 0h61L355 700zm19-92l146-340H188zm47 295l-66-140h46l96 140z"/><glyph unicode="Â" horiz-adv-x="670" d="M315 700L13 0h59l91 211h342L596 0h61L355 700zm19-92l146-340H188zm1 249l85-94h45l-95 140h-70l-95-140h45z"/><glyph unicode="Ã" horiz-adv-x="670" d="M315 700L13 0h59l91 211h342L596 0h61L355 700zm19-92l146-340H188zm-96 177c2 32 15 45 36 45 38 0 73-45 124-45 49 0 73 44 74 84l-40 11c-2-32-15-45-36-45-38 0-73 45-124 45-49 0-73-44-74-84z"/><glyph unicode="Ä" horiz-adv-x="670" d="M315 700L13 0h59l91 211h342L596 0h61L355 700zm19-92l146-340H188zm32 220c0-28 22-50 50-50s51 22 51 50-23 51-51 51-50-23-50-51zm-163 0c0-28 22-50 50-50s51 22 51 50-23 51-51 51-50-23-50-51z"/><glyph unicode="Å" horiz-adv-x="670" d="M315 700L13 0h59l91 211h342L596 0h61L355 700zm19-92l146-340H188zm-89 243c0-50 40-90 90-90s90 40 90 90-40 90-90 90-90-40-90-90zm40 0c0 28 22 50 50 50s50-22 50-50-22-50-50-50-50 22-50 50z"/><glyph unicode="Æ" horiz-adv-x="894" d="M836 643v57H414L-4 0h66l127 211h267V0h390v57H516v301h250v57H516v228zM223 268l233 392V268z"/><glyph unicode="Ç" horiz-adv-x="705" d="M640 154C586 91 505 47 409 47c-174 0-297 133-297 303 0 168 123 303 291 303 87 0 165-39 215-89l39 39c-61 67-154 107-254 107-202 0-351-158-351-360C52 157 183 11 370-8l-48-132h75l21 130c105 2 204 54 264 129z"/><glyph unicode="È" horiz-adv-x="539" d="M481 643v57H101V0h390v57H161v301h250v57H161v228zM196 903l95-140h45l-65 140z"/><glyph unicode="É" horiz-adv-x="539" d="M481 643v57H101V0h390v57H161v301h250v57H161v228zM320 903l-66-140h46l96 140z"/><glyph unicode="Ê" horiz-adv-x="539" d="M481 643v57H101V0h390v57H161v301h250v57H161v228zM296 857l85-94h45l-95 140h-70l-95-140h45z"/><glyph unicode="Ë" horiz-adv-x="539" d="M481 643v57H101V0h390v57H161v301h250v57H161v228zM327 828c0-28 22-50 50-50s51 22 51 50-23 51-51 51-50-23-50-51zm-163 0c0-28 22-50 50-50s51 22 51 50-23 51-51 51-50-23-50-51z"/><glyph unicode="Ì" horiz-adv-x="262" d="M101 0h60v700h-60zM11 903l95-140h45L86 903z"/><glyph unicode="Í" horiz-adv-x="262" d="M101 0h60v700h-60zm76 903l-66-140h46l96 140z"/><glyph unicode="Î" horiz-adv-x="262" d="M101 0h60v700h-60zm30 857l85-94h45l-95 140H96L1 763h45z"/><glyph unicode="Ï" horiz-adv-x="262" d="M101 0h60v700h-60zm61 828c0-28 22-50 50-50s51 22 51 50-23 51-51 51-50-23-50-51zm-163 0c0-28 22-50 50-50s51 22 51 50-23 51-51 51-50-23-50-51z"/><glyph unicode="Ð" horiz-adv-x="759" d="M17 358h100V0h210c111 0 184 24 241 66 86 64 139 168 139 284s-53 220-139 284c-57 42-130 66-241 66H117V415H17zm630-8c0-94-41-180-110-234-50-39-115-59-213-59H177v301h200v57H177v228h147c98 0 163-20 213-59 69-54 110-140 110-234z"/><glyph unicode="Ñ" horiz-adv-x="772" d="M101 0h60v583L631 0h40v700h-60V117L141 700h-40zm188 785c2 32 15 45 36 45 38 0 73-45 124-45 49 0 73 44 74 84l-40 11c-2-32-15-45-36-45-38 0-73 45-124 45-49 0-73-44-74-84z"/><glyph unicode="Ò" horiz-adv-x="800" d="M52 350C52 146 202-10 400-10s348 156 348 360-150 360-348 360S52 554 52 350zm60 0c0 166 119 303 288 303s288-137 288-303S569 47 400 47 112 184 112 350zm188 553l95-140h45l-65 140z"/><glyph unicode="Ó" horiz-adv-x="800" d="M52 350C52 146 202-10 400-10s348 156 348 360-150 360-348 360S52 554 52 350zm60 0c0 166 119 303 288 303s288-137 288-303S569 47 400 47 112 184 112 350zm313 553l-66-140h46l96 140z"/><glyph unicode="Ô" horiz-adv-x="800" d="M52 350C52 146 202-10 400-10s348 156 348 360-150 360-348 360S52 554 52 350zm60 0c0 166 119 303 288 303s288-137 288-303S569 47 400 47 112 184 112 350zm288 507l85-94h45l-95 140h-70l-95-140h45z"/><glyph unicode="Õ" horiz-adv-x="800" d="M52 350C52 146 202-10 400-10s348 156 348 360-150 360-348 360S52 554 52 350zm60 0c0 166 119 303 288 303s288-137 288-303S569 47 400 47 112 184 112 350zm191 435c2 32 15 45 36 45 38 0 73-45 124-45 49 0 73 44 74 84l-40 11c-2-32-15-45-36-45-38 0-73 45-124 45-49 0-73-44-74-84z"/><glyph unicode="Ö" horiz-adv-x="800" d="M52 350C52 146 202-10 400-10s348 156 348 360-150 360-348 360S52 554 52 350zm60 0c0 166 119 303 288 303s288-137 288-303S569 47 400 47 112 184 112 350zm319 478c0-28 22-50 50-50s51 22 51 50-23 51-51 51-50-23-50-51zm-163 0c0-28 22-50 50-50s51 22 51 50-23 51-51 51-50-23-50-51z"/><glyph unicode="×" horiz-adv-x="540" d="M421 67l38 38-151 151 151 151-38 38-151-151-151 151-38-38 151-151L81 105l38-38 151 151z"/><glyph unicode="Ø" horiz-adv-x="800" d="M400-10c198 0 348 156 348 360 0 113-47 212-122 277l52 73h-66l-29-41c-52 32-115 51-183 51-198 0-348-156-348-360 0-113 47-212 122-277L122 0h66l29 41c52-32 115-51 183-51zm288 360c0-166-119-303-288-303-57 0-108 15-151 42l343 489c60-56 96-137 96-228zm-576 0c0 166 119 303 288 303 56 0 107-15 150-42L207 122c-60 56-95 137-95 228z"/><glyph unicode="Ù" horiz-adv-x="744" d="M372-10c101 0 190 50 239 127 26 41 41 89 41 163v420h-60V277c0-61-11-98-31-130C522 86 452 47 372 47S222 86 183 147c-20 32-31 69-31 130v423H92V280c0-74 15-122 41-163C182 40 271-10 372-10zM272 903l95-140h45l-65 140z"/><glyph unicode="Ú" horiz-adv-x="744" d="M372-10c101 0 190 50 239 127 26 41 41 89 41 163v420h-60V277c0-61-11-98-31-130C522 86 452 47 372 47S222 86 183 147c-20 32-31 69-31 130v423H92V280c0-74 15-122 41-163C182 40 271-10 372-10zm25 913l-66-140h46l96 140z"/><glyph unicode="Û" horiz-adv-x="744" d="M372-10c101 0 190 50 239 127 26 41 41 89 41 163v420h-60V277c0-61-11-98-31-130C522 86 452 47 372 47S222 86 183 147c-20 32-31 69-31 130v423H92V280c0-74 15-122 41-163C182 40 271-10 372-10zm0 867l85-94h45l-95 140h-70l-95-140h45z"/><glyph unicode="Ü" horiz-adv-x="744" d="M372-10c101 0 190 50 239 127 26 41 41 89 41 163v420h-60V277c0-61-11-98-31-130C522 86 452 47 372 47S222 86 183 147c-20 32-31 69-31 130v423H92V280c0-74 15-122 41-163C182 40 271-10 372-10zm31 838c0-28 22-50 50-50s51 22 51 50-23 51-51 51-50-23-50-51zm-163 0c0-28 22-50 50-50s51 22 51 50-23 51-51 51-50-23-50-51z"/><glyph unicode="Ý" horiz-adv-x="600" d="M570 700h-67L301 386 98 700H30l240-371V0h60v329zM324 903l-66-140h46l96 140z"/><glyph unicode="Þ" horiz-adv-x="593" d="M101 700V0h60v206h199c64 0 106 16 137 42 39 33 64 83 64 139s-25 106-64 139c-31 26-73 42-137 42H161v132zm60-437v248h196c54 0 85-14 108-37 22-22 36-53 36-87s-14-65-36-87c-23-23-54-37-108-37z"/><glyph unicode="ß" horiz-adv-x="579" d="M199 21c30-21 74-31 116-31 123 0 213 94 213 212 0 89-51 166-130 198 42 33 65 83 65 140 0 99-74 180-188 180-59 0-107-21-140-56-30-32-47-76-47-154V0h57v510c0 62 10 92 29 114 22 26 57 42 101 42 82 0 131-56 131-126s-49-125-131-125h-22v-54h39c57 0 90-12 116-31 39-29 63-75 63-128 0-88-68-158-159-158-31 0-60 7-84 20z"/><glyph unicode="à" horiz-adv-x="592" d="M504 0v456h-55v-63c-41 46-101 73-167 73-55 0-107-20-145-51-52-44-85-111-85-187 0-82 37-153 97-195 45-32 93-43 136-43 71 0 130 31 164 77V0zm-57 144C411 82 351 44 284 44c-39 0-74 14-103 34-44 31-72 87-72 150 0 59 24 112 64 145 32 26 72 39 110 39 84 0 144-58 164-92zM208 674l95-140h45l-65 140z"/><glyph unicode="á" horiz-adv-x="592" d="M504 0v456h-55v-63c-41 46-101 73-167 73-55 0-107-20-145-51-52-44-85-111-85-187 0-82 37-153 97-195 45-32 93-43 136-43 71 0 130 31 164 77V0zm-57 144C411 82 351 44 284 44c-39 0-74 14-103 34-44 31-72 87-72 150 0 59 24 112 64 145 32 26 72 39 110 39 84 0 144-58 164-92zM312 674l-65-140h45l95 140z"/><glyph unicode="â" horiz-adv-x="592" d="M504 0v456h-55v-63c-41 46-101 73-167 73-55 0-107-20-145-51-52-44-85-111-85-187 0-82 37-153 97-195 45-32 93-43 136-43 71 0 130 31 164 77V0zm-57 144C411 82 351 44 284 44c-39 0-74 14-103 34-44 31-72 87-72 150 0 59 24 112 64 145 32 26 72 39 110 39 84 0 144-58 164-92zM297 628l85-94h45l-95 140h-70l-95-140h45z"/><glyph unicode="ã" horiz-adv-x="592" d="M504 0v456h-55v-63c-41 46-101 73-167 73-55 0-107-20-145-51-52-44-85-111-85-187 0-82 37-153 97-195 45-32 93-43 136-43 71 0 130 31 164 77V0zm-57 144C411 82 351 44 284 44c-39 0-74 14-103 34-44 31-72 87-72 150 0 59 24 112 64 145 32 26 72 39 110 39 84 0 144-58 164-92zM200 557c2 32 15 45 36 45 38 0 73-45 124-45 49 0 73 44 74 84l-40 11c-2-32-15-45-36-45-38 0-73 45-124 45-49 0-73-44-74-84z"/><glyph unicode="ä" horiz-adv-x="592" d="M504 0v456h-55v-63c-41 46-101 73-167 73-55 0-107-20-145-51-52-44-85-111-85-187 0-82 37-153 97-195 45-32 93-43 136-43 71 0 130 31 164 77V0zm-57 144C411 82 351 44 284 44c-39 0-74 14-103 34-44 31-72 87-72 150 0 59 24 112 64 145 32 26 72 39 110 39 84 0 144-58 164-92zM328 599c0-28 22-50 50-50s51 22 51 50-23 51-51 51-50-23-50-51zm-163 0c0-28 22-50 50-50s51 22 51 50-23 51-51 51-50-23-50-51z"/><glyph unicode="å" horiz-adv-x="592" d="M504 0v456h-55v-63c-41 46-101 73-167 73-55 0-107-20-145-51-52-44-85-111-85-187 0-82 37-153 97-195 45-32 93-43 136-43 71 0 130 31 164 77V0zm-57 144C411 82 351 44 284 44c-39 0-74 14-103 34-44 31-72 87-72 150 0 59 24 112 64 145 32 26 72 39 110 39 84 0 144-58 164-92zM207 622c0-50 40-90 90-90s90 40 90 90-40 90-90 90-90-40-90-90zm40 0c0 28 22 50 50 50s50-22 50-50-22-50-50-50-50 22-50 50z"/><glyph unicode="æ" horiz-adv-x="813" d="M233 466c-76 0-132-31-161-56l31-42c29 21 75 44 130 44 43 0 81-17 106-50 16-21 25-48 25-96v-7c-11 7-63 32-132 32-88 0-186-49-186-154 0-78 67-147 167-147 66 0 133 26 185 105C440 25 504-10 581-10c72 0 128 34 169 84l-37 35c-39-42-75-65-134-65-100 0-157 79-160 179h344c1 9 1 16 1 20 0 125-84 223-200 223-69 0-128-40-163-99-28 66-102 99-168 99zM215 44c-66 0-112 42-112 93 0 64 60 100 136 100 52 0 100-19 127-39 1-17 5-34 9-50-23-47-79-104-160-104zm349 368c73 0 134-55 141-137H420c17 79 69 137 144 137z"/><glyph unicode="ç" horiz-adv-x="520" d="M215-140h75L312-9c70 6 132 40 174 94l-39 34c-41-47-92-75-156-75-107 0-183 82-183 184s77 184 182 184c69 0 111-31 144-62l37 36c-38 41-97 80-181 80-139 0-239-107-239-238C51 105 137 4 263-8z"/><glyph unicode="è" horiz-adv-x="531" d="M271 412c79 0 141-57 153-137H114c17 79 76 137 157 137zm161-301c-36-38-87-67-144-67-120 0-175 79-178 179h372c1 9 1 16 1 20 0 127-90 223-212 223-129 0-218-107-218-238C53 87 145-10 283-10c69 0 139 30 185 84zM182 674l95-140h45l-65 140z"/><glyph unicode="é" horiz-adv-x="531" d="M271 412c79 0 141-57 153-137H114c17 79 76 137 157 137zm161-301c-36-38-87-67-144-67-120 0-175 79-178 179h372c1 9 1 16 1 20 0 127-90 223-212 223-129 0-218-107-218-238C53 87 145-10 283-10c69 0 139 30 185 84zM286 674l-65-140h45l95 140z"/><glyph unicode="ê" horiz-adv-x="531" d="M271 412c79 0 141-57 153-137H114c17 79 76 137 157 137zm161-301c-36-38-87-67-144-67-120 0-175 79-178 179h372c1 9 1 16 1 20 0 127-90 223-212 223-129 0-218-107-218-238C53 87 145-10 283-10c69 0 139 30 185 84zM271 628l85-94h45l-95 140h-70l-95-140h45z"/><glyph unicode="ë" horiz-adv-x="531" d="M271 412c79 0 141-57 153-137H114c17 79 76 137 157 137zm161-301c-36-38-87-67-144-67-120 0-175 79-178 179h372c1 9 1 16 1 20 0 127-90 223-212 223-129 0-218-107-218-238C53 87 145-10 283-10c69 0 139 30 185 84zM302 599c0-28 22-50 50-50s51 22 51 50-23 51-51 51-50-23-50-51zm-163 0c0-28 22-50 50-50s51 22 51 50-23 51-51 51-50-23-50-51z"/><glyph unicode="ì" horiz-adv-x="233" d="M88 0h57v456H88zM0 674l95-140h45L75 674z"/><glyph unicode="í" horiz-adv-x="233" d="M88 0h57v456H88zm70 674L93 534h45l95 140z"/><glyph unicode="î" horiz-adv-x="233" d="M88 0h57v456H88zm28 628l85-94h45l-95 140H81l-95-140h45z"/><glyph unicode="ï" horiz-adv-x="233" d="M88 0h57v456H88zm59 599c0-28 22-50 50-50s51 22 51 50-23 51-51 51-50-23-50-51zm-163 0c0-28 22-50 50-50s51 22 51 50-23 51-51 51-50-23-50-51z"/><glyph unicode="ð" horiz-adv-x="574" d="M361 452c-21 9-48 14-70 14-140 0-239-105-239-238S152-10 287-10c137 0 235 108 235 237 0 66-28 123-62 175L329 597l89 52v61l-118-69-45 69h-66l64-96-92-53v-61l121 70zm35-63c38-36 69-99 69-161 0-102-75-184-178-184s-178 82-178 184 74 184 188 184c43 0 77-11 99-23z"/><glyph unicode="ñ" horiz-adv-x="585" d="M143 456H88V0h57v317c35 60 92 95 158 95 50 0 93-23 119-61 16-23 26-52 26-112V0h57v243c0 75-14 113-39 146-37 50-96 77-162 77-64 0-124-25-161-74zm66 101c2 32 15 45 36 45 38 0 73-45 124-45 49 0 73 44 74 84l-40 11c-2-32-15-45-36-45-38 0-73 45-124 45-49 0-73-44-74-84z"/><glyph unicode="ò" horiz-adv-x="574" d="M465 228c0-102-75-184-178-184s-178 82-178 184 75 184 178 184 178-82 178-184zm57 0c0 131-99 238-235 238S52 359 52 228 151-10 287-10 522 97 522 228zM198 674l95-140h45l-65 140z"/><glyph unicode="ó" horiz-adv-x="574" d="M465 228c0-102-75-184-178-184s-178 82-178 184 75 184 178 184 178-82 178-184zm57 0c0 131-99 238-235 238S52 359 52 228 151-10 287-10 522 97 522 228zM302 674l-65-140h45l95 140z"/><glyph unicode="ô" horiz-adv-x="574" d="M465 228c0-102-75-184-178-184s-178 82-178 184 75 184 178 184 178-82 178-184zm57 0c0 131-99 238-235 238S52 359 52 228 151-10 287-10 522 97 522 228zM288 628l85-94h45l-95 140h-70l-95-140h45z"/><glyph unicode="õ" horiz-adv-x="574" d="M465 228c0-102-75-184-178-184s-178 82-178 184 75 184 178 184 178-82 178-184zm57 0c0 131-99 238-235 238S52 359 52 228 151-10 287-10 522 97 522 228zM191 557c2 32 15 45 36 45 38 0 73-45 124-45 49 0 73 44 74 84l-40 11c-2-32-15-45-36-45-38 0-73 45-124 45-49 0-73-44-74-84z"/><glyph unicode="ö" horiz-adv-x="574" d="M465 228c0-102-75-184-178-184s-178 82-178 184 75 184 178 184 178-82 178-184zm57 0c0 131-99 238-235 238S52 359 52 228 151-10 287-10 522 97 522 228zM319 599c0-28 22-50 50-50s51 22 51 50-23 51-51 51-50-23-50-51zm-163 0c0-28 22-50 50-50s51 22 51 50-23 51-51 51-50-23-50-51z"/><glyph unicode="÷" horiz-adv-x="540" d="M480 229v54H60v-54zM220 426c0-28 22-50 50-50s50 22 50 50-22 50-50 50-50-22-50-50zm0-340c0-28 22-50 50-50s50 22 50 50-22 50-50 50-50-22-50-50z"/><glyph unicode="ø" horiz-adv-x="574" d="M287-10c136 0 235 107 235 238 0 70-29 134-77 178l35 50h-64l-14-20c-33 19-72 30-115 30-136 0-235-107-235-238 0-70 29-134 77-178L94 0h64l14 20c33-19 72-30 115-30zM109 228c0 102 75 184 178 184 30 0 58-7 82-20L162 94c-33 34-53 81-53 134zm356 0c0-102-75-184-178-184-30 0-58 7-82 19l206 298c34-33 54-81 54-133z"/><glyph unicode="ù" horiz-adv-x="575" d="M432 0h55v456h-57V139c-30-57-90-95-152-95-50 0-91 24-115 60-16 24-26 54-26 118v234H80V213c0-61 10-98 27-129 33-58 96-94 171-94 63 0 122 30 154 72zM198 674l95-140h45l-65 140z"/><glyph unicode="ú" horiz-adv-x="575" d="M432 0h55v456h-57V139c-30-57-90-95-152-95-50 0-91 24-115 60-16 24-26 54-26 118v234H80V213c0-61 10-98 27-129 33-58 96-94 171-94 63 0 122 30 154 72zM302 674l-65-140h45l95 140z"/><glyph unicode="û" horiz-adv-x="575" d="M432 0h55v456h-57V139c-30-57-90-95-152-95-50 0-91 24-115 60-16 24-26 54-26 118v234H80V213c0-61 10-98 27-129 33-58 96-94 171-94 63 0 122 30 154 72zM288 628l85-94h45l-95 140h-70l-95-140h45z"/><glyph unicode="ü" horiz-adv-x="575" d="M432 0h55v456h-57V139c-30-57-90-95-152-95-50 0-91 24-115 60-16 24-26 54-26 118v234H80V213c0-61 10-98 27-129 33-58 96-94 171-94 63 0 122 30 154 72zM319 599c0-28 22-50 50-50s51 22 51 50-23 51-51 51-50-23-50-51zm-163 0c0-28 22-50 50-50s51 22 51 50-23 51-51 51-50-23-50-51z"/><glyph unicode="ý" horiz-adv-x="527" d="M181-240l323 696h-60L273 88 86 456H24L244 25 120-240zm121 914l-65-140h45l95 140z"/><glyph unicode="þ" horiz-adv-x="592" d="M145 320c20 34 80 92 164 92 38 0 78-13 110-39 40-33 64-86 64-145 0-63-28-119-72-150-29-20-64-34-103-34-67 0-127 38-163 100zM88-240h57V65c34-44 91-75 162-75 43 0 91 11 136 43 60 42 97 113 97 195 0 76-33 143-85 187-38 31-90 51-145 51-63 0-122-25-165-71v315H88z"/><glyph unicode="ÿ" horiz-adv-x="527" d="M181-240l323 696h-60L273 88 86 456H24L244 25 120-240zm124 839c0-28 22-50 50-50s51 22 51 50-23 51-51 51-50-23-50-51zm-163 0c0-28 22-50 50-50s51 22 51 50-23 51-51 51-50-23-50-51z"/><glyph unicode="Ā" horiz-adv-x="670" d="M315 700L13 0h59l91 211h342L596 0h61L355 700zm19-92l146-340H188zM195 848v-50h280v50z"/><glyph unicode="ā" horiz-adv-x="592" d="M504 0v456h-55v-63c-41 46-101 73-167 73-55 0-107-20-145-51-52-44-85-111-85-187 0-82 37-153 97-195 45-32 93-43 136-43 71 0 130 31 164 77V0zm-57 144C411 82 351 44 284 44c-39 0-74 14-103 34-44 31-72 87-72 150 0 59 24 112 64 145 32 26 72 39 110 39 84 0 144-58 164-92zM157 619v-50h280v50z"/><glyph unicode="Ă" horiz-adv-x="670" d="M315 700L13 0h59l91 211h342L596 0h61L355 700zm19-92l146-340H188zm76 280c0-41-34-75-75-75s-75 34-75 75h-50c0-69 56-125 125-125s125 56 125 125z"/><glyph unicode="ă" horiz-adv-x="592" d="M504 0v456h-55v-63c-41 46-101 73-167 73-55 0-107-20-145-51-52-44-85-111-85-187 0-82 37-153 97-195 45-32 93-43 136-43 71 0 130 31 164 77V0zm-57 144C411 82 351 44 284 44c-39 0-74 14-103 34-44 31-72 87-72 150 0 59 24 112 64 145 32 26 72 39 110 39 84 0 144-58 164-92zm-75 515c0-41-34-75-75-75s-75 34-75 75h-50c0-69 56-125 125-125s125 56 125 125z"/><glyph unicode="Ą" horiz-adv-x="670" d="M315 700L13 0h59l91 211h342L593 6c-37-25-69-66-69-117 0-68 58-109 120-109 23 0 43 6 50 9l-10 49c-9-2-23-5-40-5-32 0-64 20-64 60 0 49 43 87 77 107L355 700zm19-92l146-340H188z"/><glyph unicode="ą" horiz-adv-x="592" d="M504 0v456h-55v-63c-41 46-101 73-167 73-55 0-107-20-145-51-52-44-85-111-85-187 0-82 37-153 97-195 45-32 93-43 136-43 71 0 130 31 164 77V12c-41-26-78-68-78-123 0-68 58-109 120-109 23 0 43 6 50 9l-10 49c-9-2-23-5-40-5-32 0-64 20-64 60 0 49 43 87 77 107zm-57 144C411 82 351 44 284 44c-39 0-74 14-103 34-44 31-72 87-72 150 0 59 24 112 64 145 32 26 72 39 110 39 84 0 144-58 164-92z"/><glyph unicode="Ć" horiz-adv-x="705" d="M640 154C586 91 505 47 409 47c-174 0-297 133-297 303 0 168 123 303 291 303 87 0 165-39 215-89l39 39c-61 67-154 107-254 107-202 0-351-158-351-360C52 143 203-10 412-10c108 0 209 53 270 129zM425 903l-66-140h46l96 140z"/><glyph unicode="ć" horiz-adv-x="520" d="M291 44c-107 0-183 82-183 184s77 184 182 184c69 0 111-31 144-62l37 36c-38 41-97 80-181 80-139 0-239-107-239-238S150-10 291-10c79 0 149 36 195 95l-39 34c-41-47-92-75-156-75zm14 630l-65-140h45l95 140z"/><glyph unicode="Ĉ" horiz-adv-x="705" d="M640 154C586 91 505 47 409 47c-174 0-297 133-297 303 0 168 123 303 291 303 87 0 165-39 215-89l39 39c-61 67-154 107-254 107-202 0-351-158-351-360C52 143 203-10 412-10c108 0 209 53 270 129zM400 857l85-94h45l-95 140h-70l-95-140h45z"/><glyph unicode="ĉ" horiz-adv-x="520" d="M291 44c-107 0-183 82-183 184s77 184 182 184c69 0 111-31 144-62l37 36c-38 41-97 80-181 80-139 0-239-107-239-238S150-10 291-10c79 0 149 36 195 95l-39 34c-41-47-92-75-156-75zm-1 584l85-94h45l-95 140h-70l-95-140h45z"/><glyph unicode="Ċ" horiz-adv-x="705" d="M640 154C586 91 505 47 409 47c-174 0-297 133-297 303 0 168 123 303 291 303 87 0 165-39 215-89l39 39c-61 67-154 107-254 107-202 0-351-158-351-360C52 143 203-10 412-10c108 0 209 53 270 129zM350 828c0-28 22-50 50-50s51 22 51 50-23 51-51 51-50-23-50-51z"/><glyph unicode="ċ" horiz-adv-x="520" d="M291 44c-107 0-183 82-183 184s77 184 182 184c69 0 111-31 144-62l37 36c-38 41-97 80-181 80-139 0-239-107-239-238S150-10 291-10c79 0 149 36 195 95l-39 34c-41-47-92-75-156-75zm-51 555c0-28 22-50 50-50s51 22 51 50-23 51-51 51-50-23-50-51z"/><glyph unicode="Č" horiz-adv-x="705" d="M640 154C586 91 505 47 409 47c-174 0-297 133-297 303 0 168 123 303 291 303 87 0 165-39 215-89l39 39c-61 67-154 107-254 107-202 0-351-158-351-360C52 143 203-10 412-10c108 0 209 53 270 129zM315 903h-45l95-140h70l95 140h-45l-85-94z"/><glyph unicode="č" horiz-adv-x="520" d="M291 44c-107 0-183 82-183 184s77 184 182 184c69 0 111-31 144-62l37 36c-38 41-97 80-181 80-139 0-239-107-239-238S150-10 291-10c79 0 149 36 195 95l-39 34c-41-47-92-75-156-75zm-86 630h-45l95-140h70l95 140h-45l-85-94z"/><glyph unicode="Ď" horiz-adv-x="743" d="M631 350c0-94-41-180-110-234-50-39-115-59-213-59H161v586h147c98 0 163-20 213-59 69-54 110-140 110-234zm60 0c0 116-53 220-139 284-57 42-130 66-241 66H101V0h210c111 0 184 24 241 66 86 64 139 168 139 284zM253 903h-45l95-140h70l95 140h-45l-85-94z"/><glyph unicode="ď" horiz-adv-x="606" d="M447 144C411 82 351 44 284 44c-39 0-74 14-103 34-44 31-72 87-72 150 0 59 24 112 64 145 32 26 72 39 110 39 84 0 144-58 164-92zM285-10c71 0 130 31 164 77V0h55v710h-57V395c-43 46-102 71-165 71-55 0-107-20-145-51-52-44-85-111-85-187 0-82 37-153 97-195 45-32 93-43 136-43zm324 710l-65-140h45l95 140z"/><glyph unicode="Đ" horiz-adv-x="759" d="M17 358h100V0h210c111 0 184 24 241 66 86 64 139 168 139 284s-53 220-139 284c-57 42-130 66-241 66H117V415H17zm630-8c0-94-41-180-110-234-50-39-115-59-213-59H177v301h200v57H177v228h147c98 0 163-20 213-59 69-54 110-140 110-234z"/><glyph unicode="đ" horiz-adv-x="592" d="M285-10c71 0 130 31 164 77V0h55v555h85v50h-85v105h-57V605H317v-50h130V395c-43 46-102 71-165 71-55 0-107-20-145-51-52-44-85-111-85-187 0-82 37-153 97-195 45-32 93-43 136-43zm162 154C411 82 351 44 284 44c-39 0-74 14-103 34-44 31-72 87-72 150 0 59 24 112 64 145 32 26 72 39 110 39 84 0 144-58 164-92z"/><glyph unicode="Ē" horiz-adv-x="539" d="M481 643v57H101V0h390v57H161v301h250v57H161v228zM156 848v-50h280v50z"/><glyph unicode="ē" horiz-adv-x="531" d="M271 412c79 0 141-57 153-137H114c17 79 76 137 157 137zm161-301c-36-38-87-67-144-67-120 0-175 79-178 179h372c1 9 1 16 1 20 0 127-90 223-212 223-129 0-218-107-218-238C53 87 145-10 283-10c69 0 139 30 185 84zM131 619v-50h280v50z"/><glyph unicode="Ĕ" horiz-adv-x="539" d="M481 643v57H101V0h390v57H161v301h250v57H161v228zM371 888c0-41-34-75-75-75s-75 34-75 75h-50c0-69 56-125 125-125s125 56 125 125z"/><glyph unicode="ĕ" horiz-adv-x="531" d="M271 412c79 0 141-57 153-137H114c17 79 76 137 157 137zm161-301c-36-38-87-67-144-67-120 0-175 79-178 179h372c1 9 1 16 1 20 0 127-90 223-212 223-129 0-218-107-218-238C53 87 145-10 283-10c69 0 139 30 185 84zm-86 548c0-41-34-75-75-75s-75 34-75 75h-50c0-69 56-125 125-125s125 56 125 125z"/><glyph unicode="Ė" horiz-adv-x="539" d="M481 643v57H101V0h390v57H161v301h250v57H161v228zM246 828c0-28 22-50 50-50s51 22 51 50-23 51-51 51-50-23-50-51z"/><glyph unicode="ė" horiz-adv-x="531" d="M271 412c79 0 141-57 153-137H114c17 79 76 137 157 137zm161-301c-36-38-87-67-144-67-120 0-175 79-178 179h372c1 9 1 16 1 20 0 127-90 223-212 223-129 0-218-107-218-238C53 87 145-10 283-10c69 0 139 30 185 84zM221 599c0-28 22-50 50-50s51 22 51 50-23 51-51 51-50-23-50-51z"/><glyph unicode="Ę" horiz-adv-x="539" d="M481 643v57H101V0h257c-34-26-61-64-61-111 0-68 58-109 120-109 23 0 43 6 50 9l-10 49c-9-2-23-5-40-5-32 0-64 20-64 60 0 49 43 87 77 107h61v57H161v301h250v57H161v228z"/><glyph unicode="ę" horiz-adv-x="531" d="M271 412c79 0 141-57 153-137H114c17 79 76 137 157 137zm12-422c7 0 18 1 29 2-26-26-44-62-44-103 0-68 58-109 120-109 23 0 43 6 50 9l-10 49c-9-2-23-5-40-5-40 0-64 27-64 62 0 60 43 100 84 130 23 15 42 29 60 49l-36 37c-36-38-87-67-144-67-120 0-175 79-178 179h372c1 9 1 16 1 20 0 127-90 223-212 223-129 0-218-107-218-238C53 87 145-10 283-10z"/><glyph unicode="Ě" horiz-adv-x="539" d="M481 643v57H101V0h390v57H161v301h250v57H161v228zM211 903h-45l95-140h70l95 140h-45l-85-94z"/><glyph unicode="ě" horiz-adv-x="531" d="M271 412c79 0 141-57 153-137H114c17 79 76 137 157 137zm161-301c-36-38-87-67-144-67-120 0-175 79-178 179h372c1 9 1 16 1 20 0 127-90 223-212 223-129 0-218-107-218-238C53 87 145-10 283-10c69 0 139 30 185 84zM186 674h-45l95-140h70l95 140h-45l-85-94z"/><glyph unicode="Ĝ" horiz-adv-x="743" d="M403 710C201 710 52 552 52 350 52 143 203-10 412-10c108 0 210 52 270 129v296H392v-57h230V136c-53-54-127-89-213-89-174 0-297 133-297 303 0 168 123 303 291 303 87 0 165-39 215-89l39 39c-61 67-154 107-254 107zm-3 147l85-94h45l-95 140h-70l-95-140h45z"/><glyph unicode="ĝ" horiz-adv-x="592" d="M504 2v454h-55v-63c-41 46-101 73-167 73-55 0-107-20-145-51-52-44-85-111-85-187 0-82 37-153 97-195 45-32 93-43 136-43 71 0 128 31 162 75V0c0-57-4-90-18-118-23-44-69-78-144-78-70 0-128 32-169 84l-42-29c52-73 129-109 211-109 97 0 162 44 194 105 19 36 25 80 25 147zm-57 142C411 82 351 44 284 44c-39 0-74 14-103 34-44 31-72 87-72 150 0 59 24 112 64 145 32 26 72 39 110 39 84 0 144-58 164-92zM297 628l85-94h45l-95 140h-70l-95-140h45z"/><glyph unicode="Ğ" horiz-adv-x="743" d="M403 710C201 710 52 552 52 350 52 143 203-10 412-10c108 0 210 52 270 129v296H392v-57h230V136c-53-54-127-89-213-89-174 0-297 133-297 303 0 168 123 303 291 303 87 0 165-39 215-89l39 39c-61 67-154 107-254 107zm72 178c0-41-34-75-75-75s-75 34-75 75h-50c0-69 56-125 125-125s125 56 125 125z"/><glyph unicode="ğ" horiz-adv-x="592" d="M504 2v454h-55v-63c-41 46-101 73-167 73-55 0-107-20-145-51-52-44-85-111-85-187 0-82 37-153 97-195 45-32 93-43 136-43 71 0 128 31 162 75V0c0-57-4-90-18-118-23-44-69-78-144-78-70 0-128 32-169 84l-42-29c52-73 129-109 211-109 97 0 162 44 194 105 19 36 25 80 25 147zm-57 142C411 82 351 44 284 44c-39 0-74 14-103 34-44 31-72 87-72 150 0 59 24 112 64 145 32 26 72 39 110 39 84 0 144-58 164-92zm-75 515c0-41-34-75-75-75s-75 34-75 75h-50c0-69 56-125 125-125s125 56 125 125z"/><glyph unicode="Ġ" horiz-adv-x="743" d="M403 710C201 710 52 552 52 350 52 143 203-10 412-10c108 0 210 52 270 129v296H392v-57h230V136c-53-54-127-89-213-89-174 0-297 133-297 303 0 168 123 303 291 303 87 0 165-39 215-89l39 39c-61 67-154 107-254 107zm-53 118c0-28 22-50 50-50s51 22 51 50-23 51-51 51-50-23-50-51z"/><glyph unicode="ġ" horiz-adv-x="592" d="M504 2v454h-55v-63c-41 46-101 73-167 73-55 0-107-20-145-51-52-44-85-111-85-187 0-82 37-153 97-195 45-32 93-43 136-43 71 0 128 31 162 75V0c0-57-4-90-18-118-23-44-69-78-144-78-70 0-128 32-169 84l-42-29c52-73 129-109 211-109 97 0 162 44 194 105 19 36 25 80 25 147zm-57 142C411 82 351 44 284 44c-39 0-74 14-103 34-44 31-72 87-72 150 0 59 24 112 64 145 32 26 72 39 110 39 84 0 144-58 164-92zM247 599c0-28 22-50 50-50s51 22 51 50-23 51-51 51-50-23-50-51z"/><glyph unicode="Ģ" horiz-adv-x="743" d="M403 710C201 710 52 552 52 350 52 143 203-10 412-10c108 0 210 52 270 129v296H392v-57h230V136c-53-54-127-89-213-89-174 0-297 133-297 303 0 168 123 303 291 303 87 0 165-39 215-89l39 39c-61 67-154 107-254 107zM372-45l-65-140h45l95 140z"/><glyph unicode="ģ" horiz-adv-x="592" d="M504 2v454h-55v-63c-41 46-101 73-167 73-55 0-107-20-145-51-52-44-85-111-85-187 0-82 37-153 97-195 45-32 93-43 136-43 71 0 128 31 162 75V0c0-57-4-90-18-118-23-44-69-78-144-78-70 0-128 32-169 84l-42-29c52-73 129-109 211-109 97 0 162 44 194 105 19 36 25 80 25 147zm-57 142C411 82 351 44 284 44c-39 0-74 14-103 34-44 31-72 87-72 150 0 59 24 112 64 145 32 26 72 39 110 39 84 0 144-58 164-92zM317 534l65 140h-45l-95-140z"/><glyph unicode="Ĥ" horiz-adv-x="772" d="M611 0h60v700h-60V415H161v285h-60V0h60v358h450zM386 857l85-94h45l-95 140h-70l-95-140h45z"/><glyph unicode="ĥ" horiz-adv-x="585" d="M145 710H88V0h57v317c35 60 92 95 158 95 50 0 93-23 119-61 16-23 26-52 26-112V0h57v243c0 75-14 113-39 146-37 50-96 77-162 77-61 0-123-23-159-71zm-23 132l85-94h45l-95 140H87L-8 748h45z"/><glyph unicode="Ħ" horiz-adv-x="796" d="M773 605h-90v95h-60v-95H173v95h-60v-95H23v-55h90V0h60v358h450V0h60v550h90zM173 415v135h450V415z"/><glyph unicode="ħ" horiz-adv-x="585" d="M145 710H88V605H3v-50h85V0h57v317c35 60 92 95 158 95 50 0 93-23 119-61 16-23 26-52 26-112V0h57v243c0 75-14 113-39 146-37 50-96 77-162 77-61 0-123-23-159-71v160h130v50H145z"/><glyph unicode="Ĩ" horiz-adv-x="262" d="M101 0h60v700h-60zM34 785c2 32 15 45 36 45 38 0 73-45 124-45 49 0 73 44 74 84l-40 11c-2-32-15-45-36-45-38 0-73 45-124 45-49 0-73-44-74-84z"/><glyph unicode="ĩ" horiz-adv-x="233" d="M88 0h57v456H88zM19 557c2 32 15 45 36 45 38 0 73-45 124-45 49 0 73 44 74 84l-40 11c-2-32-15-45-36-45-38 0-73 45-124 45-49 0-73-44-74-84z"/><glyph unicode="Ī" horiz-adv-x="262" d="M101 0h60v700h-60zM-9 848v-50h280v50z"/><glyph unicode="ī" horiz-adv-x="233" d="M88 0h57v456H88zM-24 619v-50h280v50z"/><glyph unicode="Ĭ" horiz-adv-x="262" d="M101 0h60v700h-60zm105 888c0-41-34-75-75-75s-75 34-75 75H6c0-69 56-125 125-125s125 56 125 125z"/><glyph unicode="ĭ" horiz-adv-x="233" d="M88 0h57v456H88zm103 659c0-41-34-75-75-75s-75 34-75 75H-9c0-69 56-125 125-125s125 56 125 125z"/><glyph unicode="Į" horiz-adv-x="262" d="M161 700h-60V1C60-27 33-65 33-111c0-68 57-109 120-109 23 0 43 6 50 9l-10 49c-9-2-23-5-40-5-32 0-64 20-64 60 0 45 42 84 72 107z"/><glyph unicode="į" horiz-adv-x="233" d="M145 456H88V3C46-25 17-64 17-111c0-68 57-109 120-109 23 0 43 6 50 9l-10 49c-9-2-23-5-40-5-32 0-64 20-64 60 0 45 42 84 72 107zM66 614c0-28 22-50 50-50s51 22 51 50-23 51-51 51-50-23-50-51z"/><glyph unicode="İ" horiz-adv-x="262" d="M101 0h60v700h-60zM81 828c0-28 22-50 50-50s51 22 51 50-23 51-51 51-50-23-50-51z"/><glyph unicode="ı" horiz-adv-x="233" d="M88 0h57v456H88z"/><glyph unicode="Ĳ" horiz-adv-x="734" d="M101 0h60v700h-60zm184 102c28-66 94-112 170-112 64 0 121 31 154 81 20 29 31 66 31 124v505h-60V192c0-43-6-66-17-85-22-37-62-60-108-60-52 0-98 33-119 78z"/><glyph unicode="ĳ" horiz-adv-x="474" d="M88 0h57v456H88zM66 614c0-28 22-50 50-50s51 22 51 50-23 51-51 51-50-23-50-51zm241 0c0-28 22-50 50-50s51 22 51 50-23 51-51 51-50-23-50-51zM171-220c17-16 50-30 83-30 35 0 66 12 89 33 27 24 43 60 43 119v554h-57V-98c0-41-7-61-20-75s-32-23-54-23c-23 0-40 5-56 17z"/><glyph unicode="Ĵ" horiz-adv-x="472" d="M23 102C51 36 117-10 193-10c64 0 121 31 154 81 20 29 31 66 31 124v505h-60V192c0-43-6-66-17-85-22-37-62-60-108-60-52 0-98 33-119 78zm320 755l85-94h45l-95 140h-70l-95-140h45z"/><glyph unicode="ĵ" horiz-adv-x="241" d="M-62-220c17-16 50-30 83-30 35 0 66 12 89 33 27 24 43 60 43 119v554H96V-98c0-41-7-61-20-75s-32-23-54-23c-23 0-40 5-56 17zm181 848l85-94h45l-95 140H84l-95-140h45z"/><glyph unicode="Ķ" horiz-adv-x="602" d="M601 0L223 370l358 330h-79L161 386v314h-60V0h60v354L521 0zM291-45l-65-140h45l95 140z"/><glyph unicode="ķ" horiz-adv-x="492" d="M484 0L212 254l242 202h-83L145 266v444H88V0h57v241L404 0zM233-45l-65-140h45l95 140z"/><glyph unicode="ĸ" horiz-adv-x="492" d="M484 0L212 254l242 202h-83L145 266v190H88V0h57v241L404 0z"/><glyph unicode="Ĺ" horiz-adv-x="518" d="M161 700h-60V0h390v57H161zm6 203l-66-140h46l96 140z"/><glyph unicode="ĺ" horiz-adv-x="233" d="M88 0h57v710H88zm70 888L93 748h45l95 140z"/><glyph unicode="Ļ" horiz-adv-x="518" d="M161 700h-60V0h390v57H161zM271-45l-65-140h45l95 140z"/><glyph unicode="ļ" horiz-adv-x="233" d="M88 0h57v710H88zm0-45L23-185h45l95 140z"/><glyph unicode="Ľ" horiz-adv-x="520" d="M161 700h-60V0h390v57H161zm145 0l-65-140h45l95 140z"/><glyph unicode="ľ" horiz-adv-x="247" d="M88 0h57v710H88zm162 700l-65-140h45l95 140z"/><glyph unicode="Ŀ" horiz-adv-x="522" d="M161 700h-60V0h390v57H161zm170-326c0-28 22-50 50-50s51 22 51 50-23 51-51 51-50-23-50-51z"/><glyph unicode="ŀ" horiz-adv-x="266" d="M88 0h57v710H88zm107 335c0-28 22-50 50-50s51 22 51 50-23 51-51 51-50-23-50-51z"/><glyph unicode="Ł" horiz-adv-x="543" d="M185 700h-60V401L25 343v-63l100 58V0h390v57H185v315l150 87v63l-150-87z"/><glyph unicode="ł" horiz-adv-x="316" d="M135 0h57v371l100 58v61l-100-58v278h-57V399L35 342v-62l100 58z"/><glyph unicode="Ń" horiz-adv-x="772" d="M101 0h60v583L631 0h40v700h-60V117L141 700h-40zm310 903l-66-140h46l96 140z"/><glyph unicode="ń" horiz-adv-x="585" d="M143 456H88V0h57v317c35 60 92 95 158 95 50 0 93-23 119-61 16-23 26-52 26-112V0h57v243c0 75-14 113-39 146-37 50-96 77-162 77-64 0-124-25-161-74zm177 218l-65-140h45l95 140z"/><glyph unicode="Ņ" horiz-adv-x="772" d="M101 0h60v583L631 0h40v700h-60V117L141 700h-40zm245-45l-65-140h45l95 140z"/><glyph unicode="ņ" horiz-adv-x="585" d="M143 456H88V0h57v317c35 60 92 95 158 95 50 0 93-23 119-61 16-23 26-52 26-112V0h57v243c0 75-14 113-39 146-37 50-96 77-162 77-64 0-124-25-161-74zM268-45l-65-140h45l95 140z"/><glyph unicode="Ň" horiz-adv-x="772" d="M101 0h60v583L631 0h40v700h-60V117L141 700h-40zm200 903h-45l95-140h70l95 140h-45l-85-94z"/><glyph unicode="ň" horiz-adv-x="585" d="M143 456H88V0h57v317c35 60 92 95 158 95 50 0 93-23 119-61 16-23 26-52 26-112V0h57v243c0 75-14 113-39 146-37 50-96 77-162 77-64 0-124-25-161-74zm78 218h-45l95-140h70l95 140h-45l-85-94z"/><glyph unicode="ŉ" horiz-adv-x="585" d="M153 700L88 560h45l95 140zm-10-244H88V0h57v317c35 60 92 95 158 95 50 0 93-23 119-61 16-23 26-52 26-112V0h57v243c0 75-14 113-39 146-37 50-96 77-162 77-64 0-124-25-161-74z"/><glyph unicode="Ŋ" horiz-adv-x="772" d="M486-193c-52 0-98 33-119 78l-51-23c28-66 94-112 170-112 64 0 121 31 154 81 20 29 31 66 31 124v745h-60V117L141 700h-40V0h60v583L611 25v-73c0-43-6-66-17-85-22-37-62-60-108-60z"/><glyph unicode="ŋ" horiz-adv-x="585" d="M448-98c0-41-7-61-20-75s-32-23-54-23c-23 0-40 5-56 17l-28-41c17-16 50-30 83-30 35 0 66 12 89 33 27 24 43 60 43 119v341c0 75-14 113-39 146-37 50-96 77-162 77-64 0-124-25-161-74v64H88V0h57v317c35 60 92 95 158 95 50 0 93-23 119-61 16-23 26-52 26-112z"/><glyph unicode="Ō" horiz-adv-x="800" d="M52 350C52 146 202-10 400-10s348 156 348 360-150 360-348 360S52 554 52 350zm60 0c0 166 119 303 288 303s288-137 288-303S569 47 400 47 112 184 112 350zm148 498v-50h280v50z"/><glyph unicode="ō" horiz-adv-x="574" d="M465 228c0-102-75-184-178-184s-178 82-178 184 75 184 178 184 178-82 178-184zm57 0c0 131-99 238-235 238S52 359 52 228 151-10 287-10 522 97 522 228zM148 619v-50h280v50z"/><glyph unicode="Ŏ" horiz-adv-x="800" d="M52 350C52 146 202-10 400-10s348 156 348 360-150 360-348 360S52 554 52 350zm60 0c0 166 119 303 288 303s288-137 288-303S569 47 400 47 112 184 112 350zm363 538c0-41-34-75-75-75s-75 34-75 75h-50c0-69 56-125 125-125s125 56 125 125z"/><glyph unicode="ŏ" horiz-adv-x="574" d="M465 228c0-102-75-184-178-184s-178 82-178 184 75 184 178 184 178-82 178-184zm57 0c0 131-99 238-235 238S52 359 52 228 151-10 287-10 522 97 522 228zM363 669c0-41-34-75-75-75s-75 34-75 75h-50c0-69 56-125 125-125s125 56 125 125z"/><glyph unicode="Ő" horiz-adv-x="800" d="M52 350C52 146 202-10 400-10s348 156 348 360-150 360-348 360S52 554 52 350zm60 0c0 166 119 303 288 303s288-137 288-303S569 47 400 47 112 184 112 350zm269 553l-65-140h45l95 140zm150 0l-65-140h45l95 140z"/><glyph unicode="ő" horiz-adv-x="574" d="M465 228c0-102-75-184-178-184s-178 82-178 184 75 184 178 184 178-82 178-184zm57 0c0 131-99 238-235 238S52 359 52 228 151-10 287-10 522 97 522 228zM263 674l-65-140h45l95 140zm150 0l-65-140h45l95 140z"/><glyph unicode="Œ" horiz-adv-x="1126" d="M400 47c-169 0-288 137-288 303s119 303 288 303 288-137 288-303S569 47 400 47zm288 653V543c-55 100-163 167-288 167-198 0-348-156-348-360S202-10 400-10c125 0 233 67 288 167V0h390v57H748v301h250v57H748v228h320v57z"/><glyph unicode="œ" horiz-adv-x="943" d="M465 228c0-102-75-184-178-184s-178 82-178 184 75 184 178 184 178-82 178-184zm218 184c79 0 141-57 153-137H526c17 79 76 137 157 137zm161-301c-36-38-92-67-150-67-114 0-169 79-172 179h372c1 9 1 16 1 20 0 127-90 223-212 223-90 0-158-52-191-127-36 75-112 127-205 127-136 0-235-107-235-238S151-10 287-10c94 0 169 51 205 126C526 38 597-10 692-10c65 0 143 29 188 84z"/><glyph unicode="Ŕ" horiz-adv-x="621" d="M621 0L351 358c58 2 96 18 125 45 34 31 55 76 55 126s-21 95-55 126c-31 28-72 45-136 45H101V0h60v358h118L549 0zM161 415v228h176c50 0 77-11 97-30 23-21 37-51 37-84s-14-63-37-84c-20-19-47-30-97-30zm153 488l-66-140h46l96 140z"/><glyph unicode="ŕ" horiz-adv-x="345" d="M318 459c-17 2-25 2-29 2-71 0-123-39-144-70v65H88V0h57v305c24 59 80 101 147 101 8 0 10 0 26-2zM215 674l-65-140h45l95 140z"/><glyph unicode="Ŗ" horiz-adv-x="621" d="M621 0L351 358c58 2 96 18 125 45 34 31 55 76 55 126s-21 95-55 126c-31 28-72 45-136 45H101V0h60v358h118L549 0zM161 415v228h176c50 0 77-11 97-30 23-21 37-51 37-84s-14-63-37-84c-20-19-47-30-97-30zM296-45l-65-140h45l95 140z"/><glyph unicode="ŗ" horiz-adv-x="345" d="M318 459c-17 2-25 2-29 2-71 0-123-39-144-70v65H88V0h57v305c24 59 80 101 147 101 8 0 10 0 26-2zM88-45L23-185h45l95 140z"/><glyph unicode="Ř" horiz-adv-x="621" d="M621 0L351 358c58 2 96 18 125 45 34 31 55 76 55 126s-21 95-55 126c-31 28-72 45-136 45H101V0h60v358h118L549 0zM161 415v228h176c50 0 77-11 97-30 23-21 37-51 37-84s-14-63-37-84c-20-19-47-30-97-30zm55 488h-45l95-140h70l95 140h-45l-85-94z"/><glyph unicode="ř" horiz-adv-x="345" d="M318 459c-17 2-25 2-29 2-71 0-123-39-144-70v65H88V0h57v305c24 59 80 101 147 101 8 0 10 0 26-2zM120 674H75l95-140h70l95 140h-45l-85-94z"/><glyph unicode="Ś" horiz-adv-x="524" d="M41 107C101 31 176-10 273-10c114 0 204 77 204 188 0 81-48 133-106 169-100 62-241 76-241 182 0 76 63 124 141 124 58 0 98-21 141-55l36 43c-32 28-89 69-179 69-112 0-199-75-199-184 0-71 43-112 95-144 102-63 252-77 252-204 0-81-74-131-144-131-89 0-148 45-189 96zm256 796l-66-140h46l96 140z"/><glyph unicode="ś" horiz-adv-x="427" d="M45 55c50-45 108-65 173-65 88 0 162 52 162 137 0 164-263 107-263 207 0 53 53 78 101 78 47 0 76-9 114-34l31 40c-35 26-80 48-145 48-80 0-158-47-158-133 0-158 263-95 263-209 0-56-59-80-105-80-54 0-99 18-136 51zm198 619l-65-140h45l95 140z"/><glyph unicode="Ŝ" horiz-adv-x="524" d="M41 107C101 31 176-10 273-10c114 0 204 77 204 188 0 81-48 133-106 169-100 62-241 76-241 182 0 76 63 124 141 124 58 0 98-21 141-55l36 43c-32 28-89 69-179 69-112 0-199-75-199-184 0-71 43-112 95-144 102-63 252-77 252-204 0-81-74-131-144-131-89 0-148 45-189 96zm231 750l85-94h45l-95 140h-70l-95-140h45z"/><glyph unicode="ŝ" horiz-adv-x="427" d="M45 55c50-45 108-65 173-65 88 0 162 52 162 137 0 164-263 107-263 207 0 53 53 78 101 78 47 0 76-9 114-34l31 40c-35 26-80 48-145 48-80 0-158-47-158-133 0-158 263-95 263-209 0-56-59-80-105-80-54 0-99 18-136 51zm173 573l85-94h45l-95 140h-70L88 534h45z"/><glyph unicode="Ş" horiz-adv-x="524" d="M199-140h75L296-9c103 9 181 83 181 187 0 81-48 133-106 169-100 62-241 76-241 182 0 76 63 124 141 124 58 0 98-21 141-55l36 43c-32 28-89 69-179 69-112 0-199-75-199-184 0-71 43-112 95-144 102-63 252-77 252-204 0-81-74-131-144-131-89 0-148 45-189 96l-43-36C95 38 162-2 247-9z"/><glyph unicode="ş" horiz-adv-x="427" d="M45 55C88 16 138-4 193-9l-48-131h75L242-8c77 8 138 58 138 135 0 164-263 107-263 207 0 53 53 78 101 78 47 0 76-9 114-34l31 40c-35 26-80 48-145 48-80 0-158-47-158-133 0-158 263-95 263-209 0-56-59-80-105-80-54 0-99 18-136 51z"/><glyph unicode="Š" horiz-adv-x="524" d="M41 107C101 31 176-10 273-10c114 0 204 77 204 188 0 81-48 133-106 169-100 62-241 76-241 182 0 76 63 124 141 124 58 0 98-21 141-55l36 43c-32 28-89 69-179 69-112 0-199-75-199-184 0-71 43-112 95-144 102-63 252-77 252-204 0-81-74-131-144-131-89 0-148 45-189 96zm146 796h-45l95-140h70l95 140h-45l-85-94z"/><glyph unicode="š" horiz-adv-x="427" d="M45 55c50-45 108-65 173-65 88 0 162 52 162 137 0 164-263 107-263 207 0 53 53 78 101 78 47 0 76-9 114-34l31 40c-35 26-80 48-145 48-80 0-158-47-158-133 0-158 263-95 263-209 0-56-59-80-105-80-54 0-99 18-136 51zm88 619H88l95-140h70l95 140h-45l-85-94z"/><glyph unicode="Ţ" horiz-adv-x="512" d="M181-140h75L276 0h10v643h200v57H26v-57h200V0h10z"/><glyph unicode="ţ" horiz-adv-x="373" d="M189 402h138v54H189v151h-57V456H22v-54h110V135c0-60 15-96 43-119 10-9 22-16 36-20l-49-136h75l21 130c35 2 63 14 89 33l-26 43c-17-11-40-22-65-22-21 0-37 7-49 20-11 12-18 29-18 67z"/><glyph unicode="Ť" horiz-adv-x="512" d="M26 700v-57h200V0h60v643h200v57zm145 203h-45l95-140h70l95 140h-45l-85-94z"/><glyph unicode="ť" horiz-adv-x="373" d="M321 66c-17-11-40-22-65-22-21 0-37 7-49 20-11 12-18 29-18 67v271h138v54H189v151h-57V456H22v-54h110V135c0-60 15-96 43-119 19-16 48-26 76-26 38 0 69 13 96 33zm-27 634l-65-140h45l95 140z"/><glyph unicode="Ŧ" horiz-adv-x="546" d="M463 360v55H303v228h200v57H43v-57h200V415H83v-55h160V0h60v360z"/><glyph unicode="ŧ" horiz-adv-x="390" d="M202 227h138v54H202v121h138v54H202v151h-57V456H35v-54h110V281H35v-54h110v-92c0-60 15-96 43-119 19-16 48-26 76-26 38 0 69 13 96 33l-26 43c-17-11-40-22-65-22-21 0-37 7-49 20-11 12-18 29-18 67z"/><glyph unicode="Ũ" horiz-adv-x="744" d="M372-10c101 0 190 50 239 127 26 41 41 89 41 163v420h-60V277c0-61-11-98-31-130C522 86 452 47 372 47S222 86 183 147c-20 32-31 69-31 130v423H92V280c0-74 15-122 41-163C182 40 271-10 372-10zm-97 795c2 32 15 45 36 45 38 0 73-45 124-45 49 0 73 44 74 84l-40 11c-2-32-15-45-36-45-38 0-73 45-124 45-49 0-73-44-74-84z"/><glyph unicode="ũ" horiz-adv-x="575" d="M432 0h55v456h-57V139c-30-57-90-95-152-95-50 0-91 24-115 60-16 24-26 54-26 118v234H80V213c0-61 10-98 27-129 33-58 96-94 171-94 63 0 122 30 154 72zM191 557c2 32 15 45 36 45 38 0 73-45 124-45 49 0 73 44 74 84l-40 11c-2-32-15-45-36-45-38 0-73 45-124 45-49 0-73-44-74-84z"/><glyph unicode="Ū" horiz-adv-x="744" d="M372-10c101 0 190 50 239 127 26 41 41 89 41 163v420h-60V277c0-61-11-98-31-130C522 86 452 47 372 47S222 86 183 147c-20 32-31 69-31 130v423H92V280c0-74 15-122 41-163C182 40 271-10 372-10zM232 848v-50h280v50z"/><glyph unicode="ū" horiz-adv-x="575" d="M432 0h55v456h-57V139c-30-57-90-95-152-95-50 0-91 24-115 60-16 24-26 54-26 118v234H80V213c0-61 10-98 27-129 33-58 96-94 171-94 63 0 122 30 154 72zM148 619v-50h280v50z"/><glyph unicode="Ŭ" horiz-adv-x="744" d="M372-10c101 0 190 50 239 127 26 41 41 89 41 163v420h-60V277c0-61-11-98-31-130C522 86 452 47 372 47S222 86 183 147c-20 32-31 69-31 130v423H92V280c0-74 15-122 41-163C182 40 271-10 372-10zm75 898c0-41-34-75-75-75s-75 34-75 75h-50c0-69 56-125 125-125s125 56 125 125z"/><glyph unicode="ŭ" horiz-adv-x="575" d="M432 0h55v456h-57V139c-30-57-90-95-152-95-50 0-91 24-115 60-16 24-26 54-26 118v234H80V213c0-61 10-98 27-129 33-58 96-94 171-94 63 0 122 30 154 72zm-68 659c0-41-34-75-75-75s-75 34-75 75h-50c0-69 56-125 125-125s125 56 125 125z"/><glyph unicode="Ů" horiz-adv-x="744" d="M372-10c101 0 190 50 239 127 26 41 41 89 41 163v420h-60V277c0-61-11-98-31-130C522 86 452 47 372 47S222 86 183 147c-20 32-31 69-31 130v423H92V280c0-74 15-122 41-163C182 40 271-10 372-10zm-90 861c0-50 40-90 90-90s90 40 90 90-40 90-90 90-90-40-90-90zm40 0c0 28 22 50 50 50s50-22 50-50-22-50-50-50-50 22-50 50z"/><glyph unicode="ů" horiz-adv-x="575" d="M432 0h55v456h-57V139c-30-57-90-95-152-95-50 0-91 24-115 60-16 24-26 54-26 118v234H80V213c0-61 10-98 27-129 33-58 96-94 171-94 63 0 122 30 154 72zM198 622c0-50 40-90 90-90s90 40 90 90-40 90-90 90-90-40-90-90zm40 0c0 28 22 50 50 50s50-22 50-50-22-50-50-50-50 22-50 50z"/><glyph unicode="Ű" horiz-adv-x="744" d="M372-10c101 0 190 50 239 127 26 41 41 89 41 163v420h-60V277c0-61-11-98-31-130C522 86 452 47 372 47S222 86 183 147c-20 32-31 69-31 130v423H92V280c0-74 15-122 41-163C182 40 271-10 372-10zm-36 913l-65-140h45l95 140zm150 0l-65-140h45l95 140z"/><glyph unicode="ű" horiz-adv-x="575" d="M432 0h55v456h-57V139c-30-57-90-95-152-95-50 0-91 24-115 60-16 24-26 54-26 118v234H80V213c0-61 10-98 27-129 33-58 96-94 171-94 63 0 122 30 154 72zM256 674l-65-140h45l95 140zm150 0l-65-140h45l95 140z"/><glyph unicode="Ų" horiz-adv-x="744" d="M372-10c17 0 34 2 51 5-27-28-45-65-45-106 0-68 58-109 120-109 23 0 43 6 50 9l-10 49c-9-2-23-5-40-5-38 0-64 27-64 62 0 62 52 113 88 136s67 51 89 86c26 41 41 89 41 163v420h-60V277c0-61-11-98-31-130C522 86 452 47 372 47S222 86 183 147c-20 32-31 69-31 130v423H92V280c0-74 15-122 41-163C182 40 271-10 372-10z"/><glyph unicode="ų" horiz-adv-x="575" d="M487 456h-57V139c-30-57-90-95-152-95-50 0-91 24-115 60-16 24-26 54-26 118v234H80V213c0-61 10-98 27-129 33-58 96-94 171-94 63 0 122 30 154 72V12c-41-26-78-68-78-123 0-68 58-109 120-109 23 0 43 6 50 9l-10 49c-9-2-23-5-40-5-32 0-64 20-64 60 0 49 43 87 77 107z"/><glyph unicode="Ŵ" horiz-adv-x="956" d="M458 700L271 121 83 700H22L252 0h40l186 575L664 0h40l230 700h-61L685 121 498 700zm20 157l85-94h45l-95 140h-70l-95-140h45z"/><glyph unicode="ŵ" horiz-adv-x="744" d="M372 361L515 0h37l165 456h-59L531 99 390 456h-36L212 99 85 456H27L192 0h37zm0 267l85-94h45l-95 140h-70l-95-140h45z"/><glyph unicode="Ŷ" horiz-adv-x="600" d="M570 700h-67L301 386 98 700H30l240-371V0h60v329zM300 857l85-94h45l-95 140h-70l-95-140h45z"/><glyph unicode="ŷ" horiz-adv-x="527" d="M181-240l323 696h-60L273 88 86 456H24L244 25 120-240zm93 868l85-94h45l-95 140h-70l-95-140h45z"/><glyph unicode="Ÿ" horiz-adv-x="600" d="M570 700h-67L301 386 98 700H30l240-371V0h60v329zM331 828c0-28 22-50 50-50s51 22 51 50-23 51-51 51-50-23-50-51zm-163 0c0-28 22-50 50-50s51 22 51 50-23 51-51 51-50-23-50-51z"/><glyph unicode="Ź" horiz-adv-x="563" d="M25 37V0h510v57H108l407 606v37H55v-57h379zm275 866l-66-140h46l96 140z"/><glyph unicode="ź" horiz-adv-x="477" d="M36 34V0h400v54H121l305 368v34H61v-54h279zm220 640l-65-140h45l95 140z"/><glyph unicode="Ż" horiz-adv-x="563" d="M25 37V0h510v57H108l407 606v37H55v-57h379zm205 791c0-28 22-50 50-50s51 22 51 50-23 51-51 51-50-23-50-51z"/><glyph unicode="ż" horiz-adv-x="477" d="M36 34V0h400v54H121l305 368v34H61v-54h279zm150 565c0-28 22-50 50-50s51 22 51 50-23 51-51 51-50-23-50-51z"/><glyph unicode="Ž" horiz-adv-x="563" d="M25 37V0h510v57H108l407 606v37H55v-57h379zm171 866h-45l95-140h70l95 140h-45l-85-94z"/><glyph unicode="ž" horiz-adv-x="477" d="M36 34V0h400v54H121l305 368v34H61v-54h279zm115 640h-45l95-140h70l95 140h-45l-85-94z"/><glyph unicode="ſ" horiz-adv-x="253" d="M303 690c-17 16-50 30-83 30-35 0-66-12-89-33-27-24-43-60-43-119V0h57v568c0 41 7 61 20 75s32 23 54 23c23 0 40-5 56-17z"/><glyph unicode="Ə" horiz-adv-x="750" d="M367 47c-133 0-248 99-261 254h529C612 153 511 47 367 47zM47 358c-2-14-2-25-2-31C45 135 183-10 367-10c195 0 330 162 330 360 0 197-131 360-342 360-136 0-236-69-292-130l38-36c62 62 151 109 254 109 175 0 277-133 282-295z"/><glyph unicode="Ɛ" horiz-adv-x="545" d="M288-10c93 0 180 42 239 119l-42 32c-48-58-114-94-197-94-97 0-171 57-171 159 0 58 27 99 66 124 30 19 68 28 127 28h57v57h-68c-65 0-98 12-120 30-25 21-37 51-37 85 0 73 56 123 138 123 70 0 121-32 158-67l37 37c-38 42-105 87-195 87-109 0-198-64-198-180 0-65 39-117 85-144-59-28-110-98-110-180C57 88 137-10 288-10z"/><glyph unicode="ƒ" horiz-adv-x="487" d="M250 359h168v54H258l20 123c7 45 13 65 23 82 15 26 42 38 69 38 33 0 53-15 68-29l34 35c-29 33-70 48-103 48-46 0-84-18-109-55-16-24-28-57-37-114l-21-128H55v-54h139L126-76c-7-45-13-65-23-82-15-26-42-38-69-38-33 0-53 15-68 29l-34-35c29-33 70-48 103-48 46 0 84 18 109 55 16 24 28 57 37 114z"/><glyph unicode="Ɣ" horiz-adv-x="597" d="M575 700h-61L301 172 88 700H25L270 96 228-8c-16-41-28-85-28-127 0-57 32-115 101-115s101 58 101 115c0 42-12 86-28 127L331 97zM301-196c-21 0-44 19-44 61 0 39 10 71 26 112l18 47 18-47c16-43 26-74 26-112 0-42-23-61-44-61z"/><glyph unicode="Ɨ" horiz-adv-x="274" d="M167 360h80v55h-80v285h-60V415H27v-55h80V0h60z"/><glyph unicode="Ɲ" horiz-adv-x="772" d="M-57-217c27-20 59-33 97-33 28 0 59 10 78 26 28 23 43 59 43 119v688L631 0h40v700h-60V117L141 700h-40v-809c0-38-7-55-18-67-12-13-28-20-49-20-25 0-48 11-65 22z"/><glyph unicode="Ƶ" horiz-adv-x="571" d="M118 415v-55h127L28 37V0h510v57H111l203 303h164v55H351l167 248v37H58v-57h379L283 415z"/><glyph unicode="ƶ" horiz-adv-x="484" d="M84 260v-50h100L39 34V0h400v54H124l129 156h156v50H294l135 162v34H64v-54h279L225 260z"/><glyph unicode="Ǎ" horiz-adv-x="670" d="M315 700L13 0h59l91 211h342L596 0h61L355 700zm19-92l146-340H188zm-83 295h-45l95-140h70l95 140h-45l-85-94z"/><glyph unicode="ǎ" horiz-adv-x="592" d="M504 0v456h-55v-63c-41 46-101 73-167 73-55 0-107-20-145-51-52-44-85-111-85-187 0-82 37-153 97-195 45-32 93-43 136-43 71 0 130 31 164 77V0zm-57 144C411 82 351 44 284 44c-39 0-74 14-103 34-44 31-72 87-72 150 0 59 24 112 64 145 32 26 72 39 110 39 84 0 144-58 164-92zM218 674h-45l95-140h70l95 140h-45l-85-94z"/><glyph unicode="Ǐ" horiz-adv-x="262" d="M101 0h60v700h-60zM46 903H1l95-140h70l95 140h-45l-85-94z"/><glyph unicode="ǐ" horiz-adv-x="233" d="M88 0h57v456H88zM33 674h-45l95-140h70l95 140h-45l-85-94z"/><glyph unicode="Ǒ" horiz-adv-x="800" d="M52 350C52 146 202-10 400-10s348 156 348 360-150 360-348 360S52 554 52 350zm60 0c0 166 119 303 288 303s288-137 288-303S569 47 400 47 112 184 112 350zm203 553h-45l95-140h70l95 140h-45l-85-94z"/><glyph unicode="ǒ" horiz-adv-x="574" d="M465 228c0-102-75-184-178-184s-178 82-178 184 75 184 178 184 178-82 178-184zm57 0c0 131-99 238-235 238S52 359 52 228 151-10 287-10 522 97 522 228zM202 674h-45l95-140h70l95 140h-45l-85-94z"/><glyph unicode="Ǔ" horiz-adv-x="744" d="M372-10c101 0 190 50 239 127 26 41 41 89 41 163v420h-60V277c0-61-11-98-31-130C522 86 452 47 372 47S222 86 183 147c-20 32-31 69-31 130v423H92V280c0-74 15-122 41-163C182 40 271-10 372-10zm-84 913h-45l95-140h70l95 140h-45l-85-94z"/><glyph unicode="ǔ" horiz-adv-x="575" d="M432 0h55v456h-57V139c-30-57-90-95-152-95-50 0-91 24-115 60-16 24-26 54-26 118v234H80V213c0-61 10-98 27-129 33-58 96-94 171-94 63 0 122 30 154 72zM206 674h-45l95-140h70l95 140h-45l-85-94z"/><glyph unicode="Ǧ" horiz-adv-x="743" d="M403 710C201 710 52 552 52 350 52 143 203-10 412-10c108 0 210 52 270 129v296H392v-57h230V136c-53-54-127-89-213-89-174 0-297 133-297 303 0 168 123 303 291 303 87 0 165-39 215-89l39 39c-61 67-154 107-254 107zm-89 193h-45l95-140h70l95 140h-45l-85-94z"/><glyph unicode="ǧ" horiz-adv-x="592" d="M504 2v454h-55v-63c-41 46-101 73-167 73-55 0-107-20-145-51-52-44-85-111-85-187 0-82 37-153 97-195 45-32 93-43 136-43 71 0 128 31 162 75V0c0-57-4-90-18-118-23-44-69-78-144-78-70 0-128 32-169 84l-42-29c52-73 129-109 211-109 97 0 162 44 194 105 19 36 25 80 25 147zm-57 142C411 82 351 44 284 44c-39 0-74 14-103 34-44 31-72 87-72 150 0 59 24 112 64 145 32 26 72 39 110 39 84 0 144-58 164-92zM218 674h-45l95-140h70l95 140h-45l-85-94z"/><glyph unicode="Ǩ" horiz-adv-x="602" d="M601 0L223 370l358 330h-79L161 386v314h-60V0h60v354L521 0zM228 903h-45l95-140h70l95 140h-45l-85-94z"/><glyph unicode="ǩ" horiz-adv-x="492" d="M484 0L212 254l242 202h-83L145 266v444H88V0h57v241L404 0zM34 888h-45l95-140h70l95 140h-45l-85-94z"/><glyph unicode="Ǫ" horiz-adv-x="800" d="M52 350C52 152 192 0 381-9c-28-26-49-60-49-102 0-68 58-109 120-109 23 0 43 6 50 9l-10 49c-9-2-23-5-40-5-32 0-64 20-64 60 0 45 35 80 67 101 170 26 293 171 293 356 0 204-150 360-348 360S52 554 52 350zm60 0c0 166 119 303 288 303s288-137 288-303S569 47 400 47 112 184 112 350z"/><glyph unicode="ǫ" horiz-adv-x="574" d="M522 228c0 131-99 238-235 238S52 359 52 228C52 102 143-1 271-9c-28-26-49-60-49-102 0-68 58-109 120-109 23 0 43 6 50 9l-10 49c-9-2-23-5-40-5-32 0-64 20-64 60 0 49 42 87 76 107 100 28 168 120 168 228zm-57 0c0-102-75-184-178-184s-178 82-178 184 75 184 178 184 178-82 178-184z"/><glyph unicode="Ǹ" horiz-adv-x="772" d="M101 0h60v583L631 0h40v700h-60V117L141 700h-40zm191 903l95-140h45l-65 140z"/><glyph unicode="ǹ" horiz-adv-x="585" d="M143 456H88V0h57v317c35 60 92 95 158 95 50 0 93-23 119-61 16-23 26-52 26-112V0h57v243c0 75-14 113-39 146-37 50-96 77-162 77-64 0-124-25-161-74zm53 218l95-140h45l-65 140z"/><glyph unicode="Ǻ" horiz-adv-x="670" d="M245 821c0-50 40-90 90-90s90 40 90 90-40 90-90 90-90-40-90-90zm40 0c0 28 22 50 50 50s50-22 50-50-22-50-50-50-50 22-50 50zm85 236l-56-120h45l86 120zm-55-357L13 0h59l91 211h342L596 0h61L355 700zm19-92l146-340H188z"/><glyph unicode="ǻ" horiz-adv-x="592" d="M322 883l-65-140h45l95 140zM504 0v456h-55v-63c-41 46-101 73-167 73-55 0-107-20-145-51-52-44-85-111-85-187 0-82 37-153 97-195 45-32 93-43 136-43 71 0 130 31 164 77V0zm-57 144C411 82 351 44 284 44c-39 0-74 14-103 34-44 31-72 87-72 150 0 59 24 112 64 145 32 26 72 39 110 39 84 0 144-58 164-92zM207 607c0-50 40-90 90-90s90 40 90 90-40 90-90 90-90-40-90-90zm40 0c0 28 22 50 50 50s50-22 50-50-22-50-50-50-50 22-50 50z"/><glyph unicode="Ǽ" horiz-adv-x="894" d="M836 643v57H414L-4 0h66l127 211h267V0h390v57H516v301h250v57H516v228zM223 268l233 392V268zm309 635l-66-140h46l96 140z"/><glyph unicode="ǽ" horiz-adv-x="813" d="M233 466c-76 0-132-31-161-56l31-42c29 21 75 44 130 44 43 0 81-17 106-50 16-21 25-48 25-96v-7c-11 7-63 32-132 32-88 0-186-49-186-154 0-78 67-147 167-147 66 0 133 26 185 105C440 25 504-10 581-10c72 0 128 34 169 84l-37 35c-39-42-75-65-134-65-100 0-157 79-160 179h344c1 9 1 16 1 20 0 125-84 223-200 223-69 0-128-40-163-99-28 66-102 99-168 99zM215 44c-66 0-112 42-112 93 0 64 60 100 136 100 52 0 100-19 127-39 1-17 5-34 9-50-23-47-79-104-160-104zm349 368c73 0 134-55 141-137H420c17 79 69 137 144 137zM447 674l-65-140h45l95 140z"/><glyph unicode="Ǿ" horiz-adv-x="800" d="M400-10c198 0 348 156 348 360 0 113-47 212-122 277l52 73h-66l-29-41c-52 32-115 51-183 51-198 0-348-156-348-360 0-113 47-212 122-277L122 0h66l29 41c52-32 115-51 183-51zm288 360c0-166-119-303-288-303-57 0-108 15-151 42l343 489c60-56 96-137 96-228zm-576 0c0 166 119 303 288 303 56 0 107-15 150-42L207 122c-60 56-95 137-95 228zm313 553l-66-140h46l96 140z"/><glyph unicode="ǿ" horiz-adv-x="574" d="M287-10c136 0 235 107 235 238 0 70-29 134-77 178l35 50h-64l-14-20c-33 19-72 30-115 30-136 0-235-107-235-238 0-70 29-134 77-178L94 0h64l14 20c33-19 72-30 115-30zM109 228c0 102 75 184 178 184 30 0 58-7 82-20L162 94c-33 34-53 81-53 134zm356 0c0-102-75-184-178-184-30 0-58 7-82 19l206 298c34-33 54-81 54-133zM307 674l-65-140h45l95 140z"/><glyph unicode="Ș" horiz-adv-x="524" d="M41 107C101 31 176-10 273-10c114 0 204 77 204 188 0 81-48 133-106 169-100 62-241 76-241 182 0 76 63 124 141 124 58 0 98-21 141-55l36 43c-32 28-89 69-179 69-112 0-199-75-199-184 0-71 43-112 95-144 102-63 252-77 252-204 0-81-74-131-144-131-89 0-148 45-189 96zM236-45l-65-140h45l95 140z"/><glyph unicode="ș" horiz-adv-x="427" d="M45 55c50-45 108-65 173-65 88 0 162 52 162 137 0 164-263 107-263 207 0 53 53 78 101 78 47 0 76-9 114-34l31 40c-35 26-80 48-145 48-80 0-158-47-158-133 0-158 263-95 263-209 0-56-59-80-105-80-54 0-99 18-136 51zM195-45l-65-140h45l95 140z"/><glyph unicode="Ț" horiz-adv-x="512" d="M26 700v-57h200V0h60v643h200v57zM226-45l-65-140h45l95 140z"/><glyph unicode="ț" horiz-adv-x="373" d="M321 66c-17-11-40-22-65-22-21 0-37 7-49 20-11 12-18 29-18 67v271h138v54H189v151h-57V456H22v-54h110V135c0-60 15-96 43-119 19-16 48-26 76-26 38 0 69 13 96 33zM220-45l-65-140h45l95 140z"/><glyph unicode="Ȟ" horiz-adv-x="772" d="M611 0h60v700h-60V415H161v285h-60V0h60v358h450zM301 903h-45l95-140h70l95 140h-45l-85-94z"/><glyph unicode="ȟ" horiz-adv-x="585" d="M145 710H88V0h57v317c35 60 92 95 158 95 50 0 93-23 119-61 16-23 26-52 26-112V0h57v243c0 75-14 113-39 146-37 50-96 77-162 77-61 0-123-23-159-71zM34 888h-45l95-140h70l95 140h-45l-85-94z"/><glyph unicode="Ȯ" horiz-adv-x="800" d="M52 350C52 146 202-10 400-10s348 156 348 360-150 360-348 360S52 554 52 350zm60 0c0 166 119 303 288 303s288-137 288-303S569 47 400 47 112 184 112 350zm238 478c0-28 22-50 50-50s51 22 51 50-23 51-51 51-50-23-50-51z"/><glyph unicode="ȯ" horiz-adv-x="574" d="M465 228c0-102-75-184-178-184s-178 82-178 184 75 184 178 184 178-82 178-184zm57 0c0 131-99 238-235 238S52 359 52 228 151-10 287-10 522 97 522 228zM237 599c0-28 22-50 50-50s51 22 51 50-23 51-51 51-50-23-50-51z"/><glyph unicode="Ȳ" horiz-adv-x="600" d="M570 700h-67L301 386 98 700H30l240-371V0h60v329zM160 848v-50h280v50z"/><glyph unicode="ȳ" horiz-adv-x="527" d="M181-240l323 696h-60L273 88 86 456H24L244 25 120-240zm-51 859v-50h280v50z"/><glyph unicode="ȷ" horiz-adv-x="241" d="M-62-220c17-16 50-30 83-30 35 0 66 12 89 33 27 24 43 60 43 119v554H96V-98c0-41-7-61-20-75s-32-23-54-23c-23 0-40 5-56 17z"/><glyph unicode="Ʉ" horiz-adv-x="766" d="M383-10c101 0 190 50 239 127 26 41 41 89 41 163v80h80v55h-80v285h-60V415H163v285h-60V415H23v-55h80v-80c0-74 15-122 41-163C193 40 282-10 383-10zm189 157C533 86 463 47 383 47S233 86 194 147c-20 32-31 69-31 130v83h440v-83c0-61-11-98-31-130z"/><glyph unicode="ə" horiz-adv-x="531" d="M260 44c-79 0-141 57-153 137h310c-17-79-76-137-157-137zM99 345c36 38 87 67 144 67 120 0 175-79 178-179H49c-1-9-1-16-1-20C48 86 138-10 260-10c129 0 218 107 218 238 0 141-92 238-230 238-69 0-139-30-185-84z"/><glyph unicode="ɛ" horiz-adv-x="459" d="M233-10c70 0 147 27 196 88l-38 33c-38-41-85-67-157-67-55 0-123 23-123 92 0 26 10 46 26 59 18 15 44 22 92 22h76v49h-74c-43 0-66 7-83 21-13 11-22 28-22 49 0 52 52 76 102 76 58 0 103-23 133-47l31 39c-31 28-91 62-165 62-81 0-158-42-158-130 0-40 23-73 51-91-37-19-66-58-66-109 0-88 77-146 179-146z"/><glyph unicode="ɣ" horiz-adv-x="502" d="M476 456h-59L252 72 86 456H26L222 4l-22-52c-18-40-34-80-34-112 0-55 38-90 86-90s86 35 86 90c0 32-16 72-34 112L280 7zM256-70c8-21 25-60 25-88 0-29-15-38-29-38s-29 9-29 38c0 28 17 67 25 88l4 10z"/><glyph unicode="ɨ" horiz-adv-x="259" d="M79 614c0-28 22-50 50-50s51 22 51 50-23 51-51 51-50-23-50-51zM158 0v260h75v50h-75v146h-57V310H26v-50h75V0z"/><glyph unicode="ɲ" horiz-adv-x="585" d="M143 456H88v-565c0-38-7-55-18-67-12-13-27-20-48-20-25 0-46 11-63 22l-26-43c27-20 56-33 94-33 28 0 56 10 75 26 28 23 43 59 43 119v422c35 60 92 95 158 95 50 0 93-23 119-61 16-23 26-52 26-112V0h57v243c0 75-14 113-39 146-37 50-96 77-162 77-64 0-124-25-161-74z"/><glyph unicode="ʉ" horiz-adv-x="602" d="M19 310v-50h75v-47c0-61 10-98 27-129 33-58 96-94 171-94 63 0 122 30 154 72V0h55v260h75v50h-75v146h-57V310H151v146H94V310zM292 44c-50 0-91 24-115 60-16 24-26 54-26 118v38h293V139c-30-57-90-95-152-95z"/><glyph unicode="ʻ" horiz-adv-x="242" d="M200 700h-50L54 460h75z"/><glyph unicode="ʼ" horiz-adv-x="236" d="M57 460h50l96 240h-75z"/><glyph unicode="ˆ" horiz-adv-x="400" d="M200 628l85-94h45l-95 140h-70L70 534h45z"/><glyph unicode="ˇ" horiz-adv-x="400" d="M115 674H70l95-140h70l95 140h-45l-85-94z"/><glyph unicode="ˉ" horiz-adv-x="500" d="M70 619v-50h280v50z"/><glyph unicode="˘" horiz-adv-x="390" d="M270 659c0-41-34-75-75-75s-75 34-75 75H70c0-69 56-125 125-125s125 56 125 125z"/><glyph unicode="˙" horiz-adv-x="241" d="M70 599c0-28 22-50 50-50s51 22 51 50-23 51-51 51-50-23-50-51z"/><glyph unicode="˚" horiz-adv-x="320" d="M70 622c0-50 40-90 90-90s90 40 90 90-40 90-90 90-90-40-90-90zm40 0c0 28 22 50 50 50s50-22 50-50-22-50-50-50-50 22-50 50z"/><glyph unicode="˛" horiz-adv-x="310" d="M148 12c-41-26-78-68-78-123 0-68 58-109 120-109 23 0 43 6 50 9l-10 49c-9-2-23-5-40-5-32 0-64 20-64 60 0 49 43 87 77 107z"/><glyph unicode="˜" horiz-adv-x="414" d="M110 557c2 32 15 45 36 45 38 0 73-45 124-45 49 0 73 44 74 84l-40 11c-2-32-15-45-36-45-38 0-73 45-124 45-49 0-73-44-74-84z"/><glyph unicode="˝" horiz-adv-x="430" d="M135 674L70 534h45l95 140zm150 0l-65-140h45l95 140z"/><glyph unicode="̀" horiz-adv-x="1" d="M-397 674l95-140h45l-65 140z"/><glyph unicode="́" horiz-adv-x="1" d="M-233 674l-65-140h45l95 140z"/><glyph unicode="̂" horiz-adv-x="1" d="M-279 628l85-94h45l-95 140h-70l-95-140h45z"/><glyph unicode="̃" horiz-adv-x="1" d="M-376 557c2 32 15 45 36 45 38 0 73-45 124-45 49 0 73 44 74 84l-40 11c-2-32-15-45-36-45-38 0-73 45-124 45-49 0-73-44-74-84z"/><glyph unicode="̄" horiz-adv-x="1" d="M-349 619v-50h280v50z"/><glyph unicode="̆" horiz-adv-x="1" d="M-119 659c0-41-34-75-75-75s-75 34-75 75h-50c0-69 56-125 125-125s125 56 125 125z"/><glyph unicode="̇" horiz-adv-x="1" d="M-163 599c0-28 22-50 50-50s51 22 51 50-23 51-51 51-50-23-50-51z"/><glyph unicode="̈" horiz-adv-x="1" d="M-170 599c0-28 22-50 50-50s51 22 51 50-23 51-51 51-50-23-50-51zm-163 0c0-28 22-50 50-50s51 22 51 50-23 51-51 51-50-23-50-51z"/><glyph unicode="̊" horiz-adv-x="1" d="M-249 622c0-50 40-90 90-90s90 40 90 90-40 90-90 90-90-40-90-90zm40 0c0 28 22 50 50 50s50-22 50-50-22-50-50-50-50 22-50 50z"/><glyph unicode="̋" horiz-adv-x="1" d="M-294 674l-65-140h45l95 140zm150 0l-65-140h45l95 140z"/><glyph unicode="̌" horiz-adv-x="1" d="M-294 674h-45l95-140h70l95 140h-45l-85-94z"/><glyph unicode="̒" horiz-adv-x="1" d="M-250 534l65 140h-45l-95-140z"/><glyph unicode="̓" horiz-adv-x="1" d="M-104 700l-65-140h45l95 140z"/><glyph unicode="̣" horiz-adv-x="1" d="M-163-120c0-28 22-50 50-50s51 22 51 50-23 51-51 51-50-23-50-51z"/><glyph unicode="̦" horiz-adv-x="1" d="M85-45L20-185h45l95 140z"/><glyph unicode="̧" horiz-adv-x="1" d="M70-140h75l25 150h-45z"/><glyph unicode="̨" horiz-adv-x="1" d="M148 12c-41-26-78-68-78-123 0-68 58-109 120-109 23 0 43 6 50 9l-10 49c-9-2-23-5-40-5-32 0-64 20-64 60 0 49 43 87 77 107z"/><glyph unicode="̮" horiz-adv-x="1" d="M-119-55c0-41-34-75-75-75s-75 34-75 75h-50c0-69 56-125 125-125S-69-124-69-55z"/><glyph unicode="̱" horiz-adv-x="1" d="M-349-92v-50h280v50z"/><glyph unicode="̵" horiz-adv-x="1" d="M-349 253v-50h280v50z"/><glyph unicode="·" horiz-adv-x="304" d="M100 228c0-29 23-52 52-52s52 23 52 52-23 52-52 52-52-23-52-52z"/><glyph unicode="Δ" horiz-adv-x="605" d="M321 700h-37L28 34V0h549v34zm-19-106L512 54H93z"/><glyph unicode="Ω" horiz-adv-x="839" d="M420 656c160 0 293-128 293-301 0-209-163-321-163-321V0h220v54H645s125 113 125 301c0 195-148 355-350 355S70 550 70 355C70 167 195 54 195 54H70V0h220v34S127 146 127 355c0 173 133 301 293 301z"/><glyph unicode="μ" horiz-adv-x="583" d="M286-10c63 0 122 30 154 72V0h55v456h-57V139c-30-57-90-95-152-95-50 0-91 24-115 60-16 24-26 54-26 118v234H88v-696h57V55c33-43 84-65 141-65z"/><glyph unicode="π" horiz-adv-x="567" d="M67 327c25 42 61 67 102 70V0h57v402h156V140c0-49 6-73 15-92 14-29 36-47 50-58l32 45c-15 11-26 24-32 39-7 18-8 38-8 57v271h100v54H218c-47 0-79-7-106-18-45-19-74-51-93-82z"/><glyph unicode="Ѐ" horiz-adv-x="539" d="M481 643v57H101V0h390v57H161v301h250v57H161v228zM196 903l95-140h45l-65 140z"/><glyph unicode="Ё" horiz-adv-x="539" d="M481 643v57H101V0h390v57H161v301h250v57H161v228zM327 828c0-28 22-50 50-50s51 22 51 50-23 51-51 51-50-23-50-51zm-163 0c0-28 22-50 50-50s51 22 51 50-23 51-51 51-50-23-50-51z"/><glyph unicode="Ђ" horiz-adv-x="757" d="M503-10c134 0 218 99 218 222 0 142-102 238-235 238-83 0-149-29-195-66v259h205v57H26v-57h205V0h60v315c54 50 123 78 190 78 110 0 180-79 180-181 0-94-63-165-158-165-35 0-65 9-91 27l-31-45c32-24 76-39 122-39z"/><glyph unicode="Ѓ" horiz-adv-x="488" d="M101 0h60v643h300v57H101zm208 903l-66-140h46l96 140z"/><glyph unicode="Є" horiz-adv-x="709" d="M409 47c-166 0-286 121-296 280h399v56H113c15 152 133 270 290 270 87 0 165-39 215-89l39 39c-61 67-154 107-254 107-205 0-351-158-351-360C52 143 203-10 412-10c108 0 209 53 270 129l-42 35C586 91 505 47 409 47z"/><glyph unicode="Ѕ" horiz-adv-x="524" d="M41 107C101 31 176-10 273-10c114 0 204 77 204 188 0 81-48 133-106 169-100 62-241 76-241 182 0 76 63 124 141 124 58 0 98-21 141-55l36 43c-32 28-89 69-179 69-112 0-199-75-199-184 0-71 43-112 95-144 102-63 252-77 252-204 0-81-74-131-144-131-89 0-148 45-189 96z"/><glyph unicode="І" horiz-adv-x="262" d="M101 0h60v700h-60z"/><glyph unicode="Ї" horiz-adv-x="262" d="M101 0h60v700h-60zm61 828c0-28 22-50 50-50s51 22 51 50-23 51-51 51-50-23-50-51zm-163 0c0-28 22-50 50-50s51 22 51 50-23 51-51 51-50-23-50-51z"/><glyph unicode="Ј" horiz-adv-x="472" d="M23 102C51 36 117-10 193-10c64 0 121 31 154 81 20 29 31 66 31 124v505h-60V192c0-43-6-66-17-85-22-37-62-60-108-60-52 0-98 33-119 78z"/><glyph unicode="Љ" horiz-adv-x="1049" d="M606 57v306h177c65 0 106-19 134-50 24-27 39-63 39-103s-15-76-39-103c-28-31-69-50-134-50zM786 0c80 0 135 25 173 65 36 37 57 88 57 145s-21 108-57 145c-38 40-93 65-173 65H606v280H186l-12-403c-3-97-6-245-121-245-9 0-16 0-32 2V0c12-3 23-5 35-5 56 0 96 21 122 57 39 53 50 139 53 245l11 346h304V0z"/><glyph unicode="Њ" horiz-adv-x="1049" d="M956 208c0-42-18-82-46-109-27-26-64-42-125-42H606v301h179c61 0 98-16 125-42 28-27 46-66 46-108zm60 0c0 62-27 116-69 154-37 33-86 53-159 53H606v285h-60V415H161v285h-60V0h60v358h385V0h242c73 0 122 20 159 53 42 38 69 93 69 155z"/><glyph unicode="Ћ" horiz-adv-x="747" d="M475 393c43 0 87-13 120-47 27-28 43-66 43-130V0h60v220c0 79-23 132-62 170-40 40-98 60-158 60-82 0-149-36-187-71v264h205v57H26v-57h205V0h60v305c33 44 99 88 184 88z"/><glyph unicode="Ќ" horiz-adv-x="602" d="M601 0L223 370l358 330h-79L161 386v314h-60V0h60v354L521 0zM344 903l-66-140h46l96 140z"/><glyph unicode="Ѝ" horiz-adv-x="772" d="M671 700h-40L161 117v583h-60V0h40l470 583V0h60zM292 903l95-140h45l-65 140z"/><glyph unicode="Ў" horiz-adv-x="591" d="M148-5c95 0 134 53 208 210l234 495h-62L311 241C283 296 69 700 69 700H3l275-525C235 88 209 52 148 52c-9 0-21 0-40 3V0c13-3 31-5 40-5zm232 893c0-46-33-78-75-78s-75 32-75 78h-53c0-69 55-125 128-125s128 56 128 125z"/><glyph unicode="Џ" horiz-adv-x="742" d="M343-160h57V0h241v700h-60V57H161v643h-60V0h242z"/><glyph unicode="А" horiz-adv-x="670" d="M315 700L13 0h59l91 211h342L596 0h61L355 700zm19-92l146-340H188z"/><glyph unicode="Б" horiz-adv-x="608" d="M511 208c0-42-18-82-46-109-27-26-64-42-125-42H161v301h179c61 0 98-16 125-42 28-27 46-66 46-108zM101 0h242c73 0 122 20 159 53 42 38 69 93 69 155s-27 116-69 154c-37 33-86 53-159 53H161v228h340v57H101z"/><glyph unicode="В" horiz-adv-x="629" d="M521 529c0 49-21 93-54 124-31 29-72 47-137 47H101V0h252c73 0 122 20 159 53 42 38 69 92 69 154 0 84-51 157-123 190 38 31 63 79 63 132zM350 358c61 0 98-17 125-43 28-27 46-66 46-108s-18-81-46-108c-27-26-64-42-125-42H161v301zm-189 57v228h166c53 0 83-15 104-37 19-20 30-47 30-77s-11-57-30-77c-21-22-51-37-104-37z"/><glyph unicode="Г" horiz-adv-x="488" d="M101 0h60v643h300v57H101z"/><glyph unicode="Д" horiz-adv-x="763" d="M20-160h57V0h599v-160h56V57H625v643H190l-7-230c-4-127-8-279-88-413H20zM161 57c62 121 76 246 81 414l5 172h318V57z"/><glyph unicode="Е" horiz-adv-x="539" d="M481 643v57H101V0h390v57H161v301h250v57H161v228z"/><glyph unicode="Ж" horiz-adv-x="893" d="M416 360V0h60v360L814 0h77L536 377l335 323h-76L476 393v307h-60V393L101 700H21l335-325L1 0h75z"/><glyph unicode="З" horiz-adv-x="549" d="M259-10c151 0 231 98 231 216 0 82-51 152-110 180 46 27 85 79 85 144 0 116-89 180-198 180-90 0-157-45-195-87l37-37c37 35 88 67 158 67 82 0 138-50 138-123 0-34-12-64-37-85-22-18-55-30-120-30h-68v-57h57c59 0 97-9 127-28 39-25 66-66 66-124 0-102-74-159-171-159-83 0-149 36-197 94l-42-32C79 32 166-10 259-10z"/><glyph unicode="И" horiz-adv-x="772" d="M671 700h-40L161 117v583h-60V0h40l470 583V0h60z"/><glyph unicode="Й" horiz-adv-x="772" d="M671 700h-40L161 117v583h-60V0h40l470 583V0h60zM464 888c0-46-33-78-75-78s-75 32-75 78h-53c0-69 55-125 128-125s128 56 128 125z"/><glyph unicode="К" horiz-adv-x="602" d="M601 0L223 370l358 330h-79L161 386v314h-60V0h60v354L521 0z"/><glyph unicode="Л" horiz-adv-x="722" d="M56-5c56 0 96 21 122 57 39 53 50 139 53 245l11 346h319V0h60v700H186l-12-403c-3-97-6-245-121-245-9 0-16 0-32 2V0c12-3 23-5 35-5z"/><glyph unicode="М" horiz-adv-x="846" d="M685 568V0h60v700h-40L424 259 141 700h-40V0h60v567l257-402h10z"/><glyph unicode="Н" horiz-adv-x="772" d="M611 0h60v700h-60V415H161v285h-60V0h60v358h450z"/><glyph unicode="О" horiz-adv-x="800" d="M52 350C52 146 202-10 400-10s348 156 348 360-150 360-348 360S52 554 52 350zm60 0c0 166 119 303 288 303s288-137 288-303S569 47 400 47 112 184 112 350z"/><glyph unicode="П" horiz-adv-x="742" d="M101 0h60v643h420V0h60v700H101z"/><glyph unicode="Р" horiz-adv-x="592" d="M360 338c64 0 106 16 137 42 39 33 64 83 64 139s-25 106-64 139c-31 26-73 42-137 42H101V0h60v338zm-199 57v248h196c54 0 85-14 108-37 22-22 36-53 36-87s-14-65-36-87c-23-23-54-37-108-37z"/><glyph unicode="С" horiz-adv-x="705" d="M640 154C586 91 505 47 409 47c-174 0-297 133-297 303 0 168 123 303 291 303 87 0 165-39 215-89l39 39c-61 67-154 107-254 107-202 0-351-158-351-360C52 143 203-10 412-10c108 0 209 53 270 129z"/><glyph unicode="Т" horiz-adv-x="512" d="M26 700v-57h200V0h60v643h200v57z"/><glyph unicode="У" horiz-adv-x="591" d="M148-5c95 0 134 53 208 210l234 495h-62L311 241C283 296 69 700 69 700H3l275-525C235 88 209 52 148 52c-9 0-21 0-40 3V0c13-3 31-5 40-5z"/><glyph unicode="Ф" horiz-adv-x="818" d="M379-10h60v95c200 3 330 97 330 275 0 179-129 273-330 275v75h-60v-75c-201-2-330-96-330-275C49 182 178 88 379 85zm0 152c-157 1-270 62-270 218s112 217 270 219zm60 0v437c159-2 270-63 270-219S597 143 439 142z"/><glyph unicode="Х" horiz-adv-x="580" d="M71 0l219 330L507 0h68L324 381l211 319h-66L291 431 113 700H45l212-321L5 0z"/><glyph unicode="Ц" horiz-adv-x="779" d="M690-160h56V57H641v643h-60V57H161v643h-60V0h589z"/><glyph unicode="Ч" horiz-adv-x="635" d="M474 0h60v700h-60V378c-54-25-106-36-168-36-115 0-197 50-197 179v179H49V521c0-158 90-236 258-236 63 0 118 13 167 33z"/><glyph unicode="Ш" horiz-adv-x="1012" d="M101 0h810v700h-60V57H536v643h-60V57H161v643h-60z"/><glyph unicode="Щ" horiz-adv-x="1049" d="M960-160h56V57H911v643h-60V57H536v643h-60V57H161v643h-60V0h859z"/><glyph unicode="Ъ" horiz-adv-x="703" d="M200 0h242c73 0 122 20 159 53 42 38 69 93 69 155s-27 116-69 154c-37 33-86 53-159 53H260v285H30v-57h170zm410 208c0-42-18-82-46-109-27-26-64-42-125-42H260v301h179c61 0 98-16 125-42 28-27 46-66 46-108z"/><glyph unicode="Ы" horiz-adv-x="822" d="M511 208c0-42-18-82-46-109-27-26-64-42-125-42H161v301h179c61 0 98-16 125-42 28-27 46-66 46-108zM101 0h242c73 0 122 20 159 53 42 38 69 93 69 155s-27 116-69 154c-37 33-86 53-159 53H161v285h-60zm560 0h60v700h-60z"/><glyph unicode="Ь" horiz-adv-x="604" d="M511 208c0-42-18-82-46-109-27-26-64-42-125-42H161v301h179c61 0 98-16 125-42 28-27 46-66 46-108zM101 0h242c73 0 122 20 159 53 42 38 69 93 69 155s-27 116-69 154c-37 33-86 53-159 53H161v285h-60z"/><glyph unicode="Э" horiz-adv-x="709" d="M306 710c-100 0-193-40-254-107l39-39c50 50 128 89 215 89 168 0 277-116 289-270H197v-56h399C587 165 474 47 303 47 203 47 123 90 69 154l-42-35C87 42 189-10 303-10c212 0 354 154 354 360 0 202-134 360-351 360z"/><glyph unicode="Ю" horiz-adv-x="999" d="M609-10c192 0 338 156 338 360S801 710 609 710c-179 0-317-135-335-318H161v308h-60V0h60v335h111c7-196 150-345 337-345zm0 57c-160 0-278 132-278 303s118 303 278 303 278-132 278-303S769 47 609 47z"/><glyph unicode="Я" horiz-adv-x="621" d="M460 338V0h60v700H281c-64 0-106-16-137-42-39-33-64-83-64-139s25-106 64-139c29-25 69-41 128-42L17 0h72l255 338zm-176 57c-54 0-85 14-108 37-22 22-36 53-36 87s14 65 36 87c23 23 54 37 108 37h176V395z"/><glyph unicode="а" horiz-adv-x="592" d="M504 0v456h-55v-63c-41 46-101 73-167 73-55 0-107-20-145-51-52-44-85-111-85-187 0-82 37-153 97-195 45-32 93-43 136-43 71 0 130 31 164 77V0zm-57 144C411 82 351 44 284 44c-39 0-74 14-103 34-44 31-72 87-72 150 0 59 24 112 64 145 32 26 72 39 110 39 84 0 144-58 164-92z"/><glyph unicode="б" horiz-adv-x="595" d="M328 618c50 8 133 21 184 45v54c-53-24-131-36-186-44C173 649 73 571 73 328v-70c0-78 13-123 37-160C151 33 222-10 308-10c136 0 235 107 235 238 0 70-28 134-76 178-44 41-100 60-152 60-78 0-149-35-190-99 11 169 71 229 203 251zm158-390c0-102-75-184-178-184s-178 82-178 184 75 184 178 184 178-82 178-184z"/><glyph unicode="в" horiz-adv-x="518" d="M423 336c0 31-11 60-31 81-22 24-54 39-109 39H88V0h227c55 0 87 14 111 36 26 24 42 58 42 96 0 61-36 103-82 121 21 20 37 51 37 83zM145 51v164h164c45 0 68-11 83-29 12-14 19-33 19-53s-7-39-19-53c-15-18-38-29-83-29zm0 215v139h131c39 0 57-7 70-20s20-30 20-49-7-37-20-50-31-20-70-20z"/><glyph unicode="г" horiz-adv-x="404" d="M88 0h57v402h232v54H88z"/><glyph unicode="д" horiz-adv-x="609" d="M21-140h54V0h455v-140h54V54h-98v402H154l-3-115c-3-168-30-237-66-287H21zM146 54c32 56 56 129 60 286l1 62h222V54z"/><glyph unicode="е" horiz-adv-x="531" d="M271 412c79 0 141-57 153-137H114c17 79 76 137 157 137zm161-301c-36-38-87-67-144-67-120 0-175 79-178 179h372c1 9 1 16 1 20 0 127-90 223-212 223-129 0-218-107-218-238C53 87 145-10 283-10c69 0 139 30 185 84z"/><glyph unicode="ж" horiz-adv-x="735" d="M89 0l250 241V0h57v241L646 0h79L462 253l233 203h-81L396 266v190h-57V266L123 456H40l233-205L10 0z"/><glyph unicode="з" horiz-adv-x="463" d="M228-10c102 0 179 58 179 146 0 51-29 90-66 109 28 18 51 51 51 91 0 88-77 130-158 130-74 0-134-34-165-62l31-39c30 24 75 47 133 47 50 0 102-24 102-76 0-21-9-38-22-49-17-14-40-21-83-21h-74v-49h76c48 0 74-7 92-22 16-13 26-33 26-59 0-69-68-92-123-92-72 0-119 26-157 67L32 78c49-61 126-88 196-88z"/><glyph unicode="и" horiz-adv-x="585" d="M88 0h37l315 354V0h57v456h-37L145 101v355H88z"/><glyph unicode="й" horiz-adv-x="585" d="M88 0h37l315 354V0h57v456h-37L145 101v355H88zm288 659c0-46-33-78-75-78s-75 32-75 78h-53c0-69 55-125 128-125s128 56 128 125z"/><glyph unicode="к" horiz-adv-x="492" d="M484 0L212 254l242 202h-83L145 266v190H88V0h57v241L404 0z"/><glyph unicode="л" horiz-adv-x="558" d="M197 402h216V0h57v456H144l-6-199c-4-138-21-207-88-207-9 0-16 0-25 1V0c11-4 25-4 31-4 59 0 94 31 114 90 14 42 20 100 22 167z"/><glyph unicode="м" horiz-adv-x="691" d="M88 0h57v342L342 73h7l197 272V0h57v456h-42L346 157 130 456H88z"/><glyph unicode="н" horiz-adv-x="581" d="M88 0h57v220h291V0h57v456h-57V274H145v182H88z"/><glyph unicode="о" horiz-adv-x="574" d="M465 228c0-102-75-184-178-184s-178 82-178 184 75 184 178 184 178-82 178-184zm57 0c0 131-99 238-235 238S52 359 52 228 151-10 287-10 522 97 522 228z"/><glyph unicode="п" horiz-adv-x="576" d="M88 0h57v402h286V0h57v456H88z"/><glyph unicode="р" horiz-adv-x="592" d="M145-240V65c34-44 91-75 162-75 43 0 91 11 136 43 60 42 97 113 97 195 0 76-33 143-85 187-38 31-90 51-145 51-66 0-126-27-167-73v63H88v-696zm0 560c20 34 80 92 164 92 38 0 78-13 110-39 40-33 64-86 64-145 0-63-28-119-72-150-29-20-64-34-103-34-67 0-127 38-163 100z"/><glyph unicode="с" horiz-adv-x="520" d="M291 44c-107 0-183 82-183 184s77 184 182 184c69 0 111-31 144-62l37 36c-38 41-97 80-181 80-139 0-239-107-239-238S150-10 291-10c79 0 149 36 195 95l-39 34c-41-47-92-75-156-75z"/><glyph unicode="т" horiz-adv-x="429" d="M186 0h57v402h159v54H27v-54h159z"/><glyph unicode="у" horiz-adv-x="527" d="M181-240l323 696h-60L273 88 86 456H24L244 25 120-240z"/><glyph unicode="ф" horiz-adv-x="671" d="M307 46c-129 5-198 75-198 182s69 177 198 182zm57-286V-8c145 2 255 89 255 236S509 462 364 464v206h-57V464c-145-2-255-89-255-236S162-6 307-8v-232zm0 650c129-5 198-75 198-182S493 51 364 46z"/><glyph unicode="х" horiz-adv-x="470" d="M383 0h67L268 245l157 211h-67L236 289 112 456H45l157-212L20 0h67l147 201z"/><glyph unicode="ц" horiz-adv-x="608" d="M529-140h54V54H483v402h-57V54H145v402H88V0h441z"/><glyph unicode="ч" horiz-adv-x="503" d="M358 0h57v456h-57V244c-32-14-72-25-115-25-85 0-140 38-140 135v102H46V349c0-128 80-184 191-184 46 0 88 10 121 25z"/><glyph unicode="ш" horiz-adv-x="821" d="M88 0h645v456h-57V54H439v402h-57V54H145v402H88z"/><glyph unicode="щ" horiz-adv-x="858" d="M88 0h691v-140h54V54H733v402h-57V54H439v402h-57V54H145v402H88z"/><glyph unicode="ъ" horiz-adv-x="570" d="M362 0c66 0 108 21 135 54 22 26 35 59 35 96s-13 69-35 95c-27 33-69 54-135 54H224v157H27v-51h140V0zM224 54v191h135c47 0 72-11 89-29 17-17 27-40 27-66s-10-50-27-67c-17-18-42-29-89-29z"/><glyph unicode="ы" horiz-adv-x="668" d="M523 0h57v456h-57zM145 54v191h135c47 0 72-11 89-29 17-17 27-40 27-66s-10-50-27-67c-17-18-42-29-89-29zM283 0c66 0 108 21 135 54 22 26 35 59 35 96s-13 69-35 95c-27 33-69 54-135 54H145v157H88V0z"/><glyph unicode="ь" horiz-adv-x="491" d="M145 54v191h135c47 0 72-11 89-29 17-17 27-40 27-66s-10-50-27-67c-17-18-42-29-89-29zM283 0c66 0 108 21 135 54 22 26 35 59 35 96s-13 69-35 95c-27 33-69 54-135 54H145v157H88V0z"/><glyph unicode="э" horiz-adv-x="524" d="M238 466c-84 0-148-39-186-80l37-36c33 31 80 62 149 62 101 0 163-63 175-153H167v-49h247c-4-97-76-166-178-166-64 0-119 28-160 75L37 85c46-59 120-95 199-95 131 0 236 94 236 238 0 127-85 238-234 238z"/><glyph unicode="ю" horiz-adv-x="747" d="M467-10c131 0 228 104 228 238 0 133-97 238-228 238-120 0-211-88-226-204h-96v194H88V0h57v213h94C246 87 340-10 467-10zm0 54c-99 0-171 82-171 184 0 101 72 184 171 184s171-83 171-184c0-102-72-184-171-184z"/><glyph unicode="я" horiz-adv-x="514" d="M97 0l155 180h117V0h57v456H234c-61 0-99-18-124-47-21-24-34-56-34-91s13-67 34-91c17-20 41-36 74-43L26 0zm140 234c-46 0-70 12-85 31-12 15-19 33-19 53s7 38 19 53c15 19 39 31 85 31h132V234z"/><glyph unicode="ѐ" horiz-adv-x="531" d="M271 412c79 0 141-57 153-137H114c17 79 76 137 157 137zm161-301c-36-38-87-67-144-67-120 0-175 79-178 179h372c1 9 1 16 1 20 0 127-90 223-212 223-129 0-218-107-218-238C53 87 145-10 283-10c69 0 139 30 185 84zM181 674l95-140h45l-65 140z"/><glyph unicode="ё" horiz-adv-x="531" d="M271 412c79 0 141-57 153-137H114c17 79 76 137 157 137zm161-301c-36-38-87-67-144-67-120 0-175 79-178 179h372c1 9 1 16 1 20 0 127-90 223-212 223-129 0-218-107-218-238C53 87 145-10 283-10c69 0 139 30 185 84zM302 599c0-28 22-50 50-50s51 22 51 50-23 51-51 51-50-23-50-51zm-163 0c0-28 22-50 50-50s51 22 51 50-23 51-51 51-50-23-50-51z"/><glyph unicode="ђ" horiz-adv-x="585" d="M448-98c0-41-7-61-20-75s-32-23-54-23c-23 0-40 5-56 17l-28-41c17-16 50-30 83-30 35 0 66 12 89 33 27 24 43 60 43 119v341c0 75-14 113-39 146-37 50-96 77-162 77-63 0-122-24-159-72v161h130v50H145v105H88V605H3v-50h85V0h57v317c35 60 92 95 158 95 50 0 93-23 119-61 16-23 26-52 26-112z"/><glyph unicode="ѓ" horiz-adv-x="404" d="M88 0h57v402h232v54H88zm179 674l-65-140h45l95 140z"/><glyph unicode="є" horiz-adv-x="523" d="M291 44c-101 0-174 72-182 166h247v49H110c14 87 86 153 180 153 69 0 111-31 144-62l37 36c-38 41-97 80-181 80-139 0-239-107-239-238S150-10 291-10c79 0 149 36 195 95l-39 34c-41-47-92-75-156-75z"/><glyph unicode="ѕ" horiz-adv-x="427" d="M45 55c50-45 108-65 173-65 88 0 162 52 162 137 0 164-263 107-263 207 0 53 53 78 101 78 47 0 76-9 114-34l31 40c-35 26-80 48-145 48-80 0-158-47-158-133 0-158 263-95 263-209 0-56-59-80-105-80-54 0-99 18-136 51z"/><glyph unicode="і" horiz-adv-x="233" d="M88 0h57v456H88zM66 614c0-28 22-50 50-50s51 22 51 50-23 51-51 51-50-23-50-51z"/><glyph unicode="ї" horiz-adv-x="233" d="M88 0h57v456H88zm59 614c0-28 22-50 50-50s51 22 51 50-23 51-51 51-50-23-50-51zm-163 0c0-28 22-50 50-50s51 22 51 50-23 51-51 51-50-23-50-51z"/><glyph unicode="ј" horiz-adv-x="241" d="M74 614c0-28 22-50 50-50s51 22 51 50-23 51-51 51-50-23-50-51zM-62-220c17-16 50-30 83-30 35 0 66 12 89 33 27 24 43 60 43 119v554H96V-98c0-41-7-61-20-75s-32-23-54-23c-23 0-40 5-56 17z"/><glyph unicode="љ" horiz-adv-x="798" d="M460 54v191h127c47 0 72-11 89-29 17-17 27-40 27-66s-10-50-27-67c-17-18-42-29-89-29zM590 0c66 0 108 21 135 54 22 26 35 59 35 96s-13 69-35 95c-27 33-69 54-135 54H460v157H144l-6-199c-4-138-21-207-88-207-9 0-16 0-25 1V0c11-4 25-4 31-4 59 0 94 31 114 90 14 42 20 100 22 167l5 149h206V0z"/><glyph unicode="њ" horiz-adv-x="795" d="M88 0h57v225h248V0h205c64 0 102 20 128 51 20 24 32 55 32 89s-12 64-32 88c-26 31-64 51-128 51H450v177h-57V279H145v177H88zm613 140c0-22-8-42-21-57-16-18-39-29-85-29H450v171h145c46 0 69-11 85-29 13-15 21-34 21-56z"/><glyph unicode="ћ" horiz-adv-x="585" d="M145 710H88V605H3v-50h85V0h57v317c35 60 92 95 158 95 50 0 93-23 119-61 16-23 26-52 26-112V0h57v243c0 75-14 113-39 146-37 50-96 77-162 77-61 0-123-23-159-71v160h130v50H145z"/><glyph unicode="ќ" horiz-adv-x="492" d="M484 0L212 254l242 202h-83L145 266v190H88V0h57v241L404 0zM280 674l-65-140h45l95 140z"/><glyph unicode="ѝ" horiz-adv-x="585" d="M88 0h37l315 354V0h57v456h-37L145 101v355H88zm103 674l95-140h45l-65 140z"/><glyph unicode="ў" horiz-adv-x="527" d="M342 659c0-46-33-78-75-78s-75 32-75 78h-53c0-69 55-125 128-125s128 56 128 125zM181-240l323 696h-60L273 88 86 456H24L244 25 120-240z"/><glyph unicode="џ" horiz-adv-x="576" d="M262-140h54V0h172v456h-57V54H145v402H88V0h174z"/><glyph unicode="Ѣ" horiz-adv-x="690" d="M442 535v55H247v120h-60V590H37v-55h150V0h242c73 0 122 20 159 53 42 38 69 93 69 155s-27 116-69 154c-37 33-86 53-159 53H247v120zm155-327c0-42-18-82-46-109-27-26-64-42-125-42H247v301h179c61 0 98-16 125-42 28-27 46-66 46-108z"/><glyph unicode="ѣ" horiz-adv-x="538" d="M330 406v50H192v151h-57V456H25v-50h110V0h205c64 0 102 20 128 51 20 24 32 55 32 89s-12 64-32 88c-26 31-64 51-128 51H192v127zm113-266c0-22-8-42-21-57-16-18-39-29-85-29H192v171h145c46 0 69-11 85-29 13-15 21-34 21-56z"/><glyph unicode="Ґ" horiz-adv-x="488" d="M101 0h60v643h300v217h-56V700H101z"/><glyph unicode="ґ" horiz-adv-x="405" d="M88 0h57v402h233v194h-54V456H88z"/><glyph unicode="Ғ" horiz-adv-x="508" d="M116 0h60v333h200v57H176v253h300v57H116V390H16v-57h100z"/><glyph unicode="ғ" horiz-adv-x="424" d="M107 0h57v200h138v54H164v148h228v54H107V254H22v-54h85z"/><glyph unicode="Қ" horiz-adv-x="650" d="M590-160h56V57H543L223 370l358 330h-79L161 386v314h-60V0h60v354L521 0h69z"/><glyph unicode="қ" horiz-adv-x="525" d="M454-140h54V54h-82L212 254l242 202h-83L145 266v190H88V0h57v241L404 0h50z"/><glyph unicode="Ң" horiz-adv-x="809" d="M720-160h56V57H671v643h-60V415H161v285h-60V0h60v358h450V0h109z"/><glyph unicode="ң" horiz-adv-x="618" d="M88 0h57v220h291V0h103v-140h54V54H493v402h-57V274H145v182H88z"/><glyph unicode="Ү" horiz-adv-x="600" d="M570 700h-67L301 386 98 700H30l240-371V0h60v329z"/><glyph unicode="ү" horiz-adv-x="495" d="M219-240h57V0l193 456h-61L248 73 88 456H26L219 0z"/><glyph unicode="Ұ" horiz-adv-x="598" d="M569 700h-67L300 386 97 700H29l236-365H111v-57h158V0h60v278h157v57H333z"/><glyph unicode="ұ" horiz-adv-x="497" d="M220-240h57v191h140V0H277l193 456h-61L249 73 89 456H27L220 0H80v-49h140z"/><glyph unicode="Ҳ" horiz-adv-x="647" d="M71 0l219 330L507 0h82v-160h56V57H537L324 381l211 319h-66L291 431 113 700H45l212-321L5 0z"/><glyph unicode="ҳ" horiz-adv-x="518" d="M383 0h58v-140h54V52h-84L268 245l157 211h-67L236 289 112 456H45l157-212L20 0h67l147 201z"/><glyph unicode="Һ" horiz-adv-x="635" d="M161 700h-60V0h60v322c54 25 106 36 168 36 115 0 197-50 197-179V0h60v179c0 158-90 236-258 236-63 0-118-13-167-33z"/><glyph unicode="һ" horiz-adv-x="585" d="M145 710H88V0h57v317c35 60 92 95 158 95 50 0 93-23 119-61 16-23 26-52 26-112V0h57v243c0 75-14 113-39 146-37 50-96 77-162 77-61 0-123-23-159-71z"/><glyph unicode="Ә" horiz-adv-x="750" d="M367 47c-133 0-248 99-261 254h529C612 153 511 47 367 47zM47 358c-2-14-2-25-2-31C45 135 183-10 367-10c195 0 330 162 330 360 0 197-131 360-342 360-136 0-236-69-292-130l38-36c62 62 151 109 254 109 175 0 277-133 282-295z"/><glyph unicode="ә" horiz-adv-x="531" d="M260 44c-79 0-141 57-153 137h310c-17-79-76-137-157-137zM99 345c36 38 87 67 144 67 120 0 175-79 178-179H49c-1-9-1-16-1-20C48 86 138-10 260-10c129 0 218 107 218 238 0 141-92 238-230 238-69 0-139-30-185-84z"/><glyph unicode="Ө" horiz-adv-x="800" d="M52 350C52 146 202-10 400-10s348 156 348 360-150 360-348 360S52 554 52 350zM400 47c-163 0-283 127-287 284h574C682 174 562 47 400 47zm0 606c156 0 273-117 286-266H114c12 149 129 266 286 266z"/><glyph unicode="ө" horiz-adv-x="574" d="M522 228c0 131-99 238-235 238S52 359 52 228 151-10 287-10 522 97 522 228zM287 44c-97 0-171 72-176 165h351c-5-93-79-165-175-165zm0 368c92 0 165-67 175-154H112c10 87 82 154 175 154z"/><glyph unicode="Ḃ" horiz-adv-x="629" d="M521 529c0 49-21 93-54 124-31 29-72 47-137 47H101V0h252c73 0 122 20 159 53 42 38 69 92 69 154 0 84-51 157-123 190 38 31 63 79 63 132zM350 358c61 0 98-17 125-43 28-27 46-66 46-108s-18-81-46-108c-27-26-64-42-125-42H161v301zm-189 57v228h166c53 0 83-15 104-37 19-20 30-47 30-77s-11-57-30-77c-21-22-51-37-104-37zm75 413c0-28 22-50 50-50s51 22 51 50-23 51-51 51-50-23-50-51z"/><glyph unicode="ḃ" horiz-adv-x="592" d="M145 320c20 34 80 92 164 92 38 0 78-13 110-39 40-33 64-86 64-145 0-63-28-119-72-150-29-20-64-34-103-34-67 0-127 38-163 100zM307-10c43 0 91 11 136 43 60 42 97 113 97 195 0 76-33 143-85 187-38 31-90 51-145 51-63 0-122-25-165-71v315H88V0h55v67c34-46 93-77 164-77zm-32 609c0-28 22-50 50-50s51 22 51 50-23 51-51 51-50-23-50-51z"/><glyph unicode="Ḋ" horiz-adv-x="743" d="M631 350c0-94-41-180-110-234-50-39-115-59-213-59H161v586h147c98 0 163-20 213-59 69-54 110-140 110-234zm60 0c0 116-53 220-139 284-57 42-130 66-241 66H101V0h210c111 0 184 24 241 66 86 64 139 168 139 284zM271 828c0-28 22-50 50-50s51 22 51 50-23 51-51 51-50-23-50-51z"/><glyph unicode="ḋ" horiz-adv-x="592" d="M447 144C411 82 351 44 284 44c-39 0-74 14-103 34-44 31-72 87-72 150 0 59 24 112 64 145 32 26 72 39 110 39 84 0 144-58 164-92zM285-10c71 0 130 31 164 77V0h55v710h-57V395c-43 46-102 71-165 71-55 0-107-20-145-51-52-44-85-111-85-187 0-82 37-153 97-195 45-32 93-43 136-43zm-69 609c0-28 22-50 50-50s51 22 51 50-23 51-51 51-50-23-50-51z"/><glyph unicode="Ḍ" horiz-adv-x="743" d="M631 350c0-94-41-180-110-234-50-39-115-59-213-59H161v586h147c98 0 163-20 213-59 69-54 110-140 110-234zm60 0c0 116-53 220-139 284-57 42-130 66-241 66H101V0h210c111 0 184 24 241 66 86 64 139 168 139 284zM278-120c0-28 22-50 50-50s51 22 51 50-23 51-51 51-50-23-50-51z"/><glyph unicode="ḍ" horiz-adv-x="592" d="M447 144C411 82 351 44 284 44c-39 0-74 14-103 34-44 31-72 87-72 150 0 59 24 112 64 145 32 26 72 39 110 39 84 0 144-58 164-92zM285-10c71 0 130 31 164 77V0h55v710h-57V395c-43 46-102 71-165 71-55 0-107-20-145-51-52-44-85-111-85-187 0-82 37-153 97-195 45-32 93-43 136-43zm-36-110c0-28 22-50 50-50s51 22 51 50-23 51-51 51-50-23-50-51z"/><glyph unicode="Ḏ" horiz-adv-x="743" d="M631 350c0-94-41-180-110-234-50-39-115-59-213-59H161v586h147c98 0 163-20 213-59 69-54 110-140 110-234zm60 0c0 116-53 220-139 284-57 42-130 66-241 66H101V0h210c111 0 184 24 241 66 86 64 139 168 139 284zM167-92v-50h280v50z"/><glyph unicode="ḏ" horiz-adv-x="592" d="M447 144C411 82 351 44 284 44c-39 0-74 14-103 34-44 31-72 87-72 150 0 59 24 112 64 145 32 26 72 39 110 39 84 0 144-58 164-92zM285-10c71 0 130 31 164 77V0h55v710h-57V395c-43 46-102 71-165 71-55 0-107-20-145-51-52-44-85-111-85-187 0-82 37-153 97-195 45-32 93-43 136-43zM158-92v-50h280v50z"/><glyph unicode="Ḑ" horiz-adv-x="743" d="M631 350c0-94-41-180-110-234-50-39-115-59-213-59H161v586h147c98 0 163-20 213-59 69-54 110-140 110-234zm60 0c0 116-53 220-139 284-57 42-130 66-241 66H101V0h210c111 0 184 24 241 66 86 64 139 168 139 284zM306-45l-65-140h45l95 140z"/><glyph unicode="ḑ" horiz-adv-x="592" d="M447 144C411 82 351 44 284 44c-39 0-74 14-103 34-44 31-72 87-72 150 0 59 24 112 64 145 32 26 72 39 110 39 84 0 144-58 164-92zM285-10c71 0 130 31 164 77V0h55v710h-57V395c-43 46-102 71-165 71-55 0-107-20-145-51-52-44-85-111-85-187 0-82 37-153 97-195 45-32 93-43 136-43zm-8-35l-65-140h45l95 140z"/><glyph unicode="Ḟ" horiz-adv-x="506" d="M481 643v57H101V0h60v358h250v57H161v228zM251 828c0-28 22-50 50-50s51 22 51 50-23 51-51 51-50-23-50-51z"/><glyph unicode="ḟ" horiz-adv-x="349" d="M348 690c-17 16-50 30-83 30-35 0-66-12-89-33-27-24-43-60-43-119V456H23v-54h110V0h57v402h138v54H190v112c0 41 7 61 20 75s32 23 54 23c23 0 40-5 56-17zM200 813c0-28 22-50 50-50s51 22 51 50-23 51-51 51-50-23-50-51z"/><glyph unicode="Ḡ" horiz-adv-x="743" d="M403 710C201 710 52 552 52 350 52 143 203-10 412-10c108 0 210 52 270 129v296H392v-57h230V136c-53-54-127-89-213-89-174 0-297 133-297 303 0 168 123 303 291 303 87 0 165-39 215-89l39 39c-61 67-154 107-254 107zM263 848v-50h280v50z"/><glyph unicode="ḡ" horiz-adv-x="592" d="M504 2v454h-55v-63c-41 46-101 73-167 73-55 0-107-20-145-51-52-44-85-111-85-187 0-82 37-153 97-195 45-32 93-43 136-43 71 0 128 31 162 75V0c0-57-4-90-18-118-23-44-69-78-144-78-70 0-128 32-169 84l-42-29c52-73 129-109 211-109 97 0 162 44 194 105 19 36 25 80 25 147zm-57 142C411 82 351 44 284 44c-39 0-74 14-103 34-44 31-72 87-72 150 0 59 24 112 64 145 32 26 72 39 110 39 84 0 144-58 164-92zM158 619v-50h280v50z"/><glyph unicode="Ḣ" horiz-adv-x="772" d="M611 0h60v700h-60V415H161v285h-60V0h60v358h450zM336 828c0-28 22-50 50-50s51 22 51 50-23 51-51 51-50-23-50-51z"/><glyph unicode="ḣ" horiz-adv-x="585" d="M145 710H88V0h57v317c35 60 92 95 158 95 50 0 93-23 119-61 16-23 26-52 26-112V0h57v243c0 75-14 113-39 146-37 50-96 77-162 77-61 0-123-23-159-71zM66 813c0-28 22-50 50-50s51 22 51 50-23 51-51 51-50-23-50-51z"/><glyph unicode="Ḥ" horiz-adv-x="772" d="M611 0h60v700h-60V415H161v285h-60V0h60v358h450zM336-120c0-28 22-50 50-50s51 22 51 50-23 51-51 51-50-23-50-51z"/><glyph unicode="ḥ" horiz-adv-x="585" d="M145 710H88V0h57v317c35 60 92 95 158 95 50 0 93-23 119-61 16-23 26-52 26-112V0h57v243c0 75-14 113-39 146-37 50-96 77-162 77-61 0-123-23-159-71zm100-830c0-28 22-50 50-50s51 22 51 50-23 51-51 51-50-23-50-51z"/><glyph unicode="Ḫ" horiz-adv-x="772" d="M611 0h60v700h-60V415H161v285h-60V0h60v358h450zM461-55c0-41-34-75-75-75s-75 34-75 75h-50c0-69 56-125 125-125s125 56 125 125z"/><glyph unicode="ḫ" horiz-adv-x="585" d="M145 710H88V0h57v317c35 60 92 95 158 95 50 0 93-23 119-61 16-23 26-52 26-112V0h57v243c0 75-14 113-39 146-37 50-96 77-162 77-61 0-123-23-159-71zM371-55c0-41-34-75-75-75s-75 34-75 75h-50c0-69 56-125 125-125s125 56 125 125z"/><glyph unicode="Ḷ" horiz-adv-x="518" d="M161 700h-60V0h390v57H161zm82-820c0-28 22-50 50-50s51 22 51 50-23 51-51 51-50-23-50-51z"/><glyph unicode="ḷ" horiz-adv-x="233" d="M88 0h57v710H88zM66-120c0-28 22-50 50-50s51 22 51 50-23 51-51 51-50-23-50-51z"/><glyph unicode="Ḹ" horiz-adv-x="518" d="M161 700h-60V0h390v57H161zm82-820c0-28 22-50 50-50s51 22 51 50-23 51-51 51-50-23-50-51zM-4 848v-50h280v50z"/><glyph unicode="ḹ" horiz-adv-x="233" d="M88 0h57v710H88zM66-120c0-28 22-50 50-50s51 22 51 50-23 51-51 51-50-23-50-51zm-90 953v-50h280v50z"/><glyph unicode="Ḻ" horiz-adv-x="518" d="M161 700h-60V0h390v57H161zm-4-792v-50h280v50z"/><glyph unicode="ḻ" horiz-adv-x="233" d="M88 0h57v710H88zM-24-92v-50h280v50z"/><glyph unicode="Ḿ" horiz-adv-x="846" d="M685 568V0h60v700h-40L424 259 141 700h-40V0h60v567l257-402h10zM474 903l-66-140h46l96 140z"/><glyph unicode="ḿ" horiz-adv-x="925" d="M143 456H88V0h57v317c30 57 90 95 152 95 50 0 91-24 115-60 16-24 26-54 26-118V0h57v241c0 25-2 47-5 65 28 55 84 106 157 106 50 0 91-24 115-60 16-24 26-54 26-118V0h57v241c0 61-10 98-27 129-33 58-96 96-171 96-91 0-147-51-179-97-32 59-95 97-171 97-63 0-121-29-154-72zm367 218l-65-140h45l95 140z"/><glyph unicode="Ṁ" horiz-adv-x="846" d="M685 568V0h60v700h-40L424 259 141 700h-40V0h60v567l257-402h10zM373 828c0-28 22-50 50-50s51 22 51 50-23 51-51 51-50-23-50-51z"/><glyph unicode="ṁ" horiz-adv-x="925" d="M143 456H88V0h57v317c30 57 90 95 152 95 50 0 91-24 115-60 16-24 26-54 26-118V0h57v241c0 25-2 47-5 65 28 55 84 106 157 106 50 0 91-24 115-60 16-24 26-54 26-118V0h57v241c0 61-10 98-27 129-33 58-96 96-171 96-91 0-147-51-179-97-32 59-95 97-171 97-63 0-121-29-154-72zm272 143c0-28 22-50 50-50s51 22 51 50-23 51-51 51-50-23-50-51z"/><glyph unicode="Ṃ" horiz-adv-x="846" d="M685 568V0h60v700h-40L424 259 141 700h-40V0h60v567l257-402h10zM372-120c0-28 22-50 50-50s51 22 51 50-23 51-51 51-50-23-50-51z"/><glyph unicode="ṃ" horiz-adv-x="925" d="M143 456H88V0h57v317c30 57 90 95 152 95 50 0 91-24 115-60 16-24 26-54 26-118V0h57v241c0 25-2 47-5 65 28 55 84 106 157 106 50 0 91-24 115-60 16-24 26-54 26-118V0h57v241c0 61-10 98-27 129-33 58-96 96-171 96-91 0-147-51-179-97-32 59-95 97-171 97-63 0-121-29-154-72zm273-576c0-28 22-50 50-50s51 22 51 50-23 51-51 51-50-23-50-51z"/><glyph unicode="Ṅ" horiz-adv-x="772" d="M101 0h60v583L631 0h40v700h-60V117L141 700h-40zm235 828c0-28 22-50 50-50s51 22 51 50-23 51-51 51-50-23-50-51z"/><glyph unicode="ṅ" horiz-adv-x="585" d="M143 456H88V0h57v317c35 60 92 95 158 95 50 0 93-23 119-61 16-23 26-52 26-112V0h57v243c0 75-14 113-39 146-37 50-96 77-162 77-64 0-124-25-161-74zm117 143c0-28 22-50 50-50s51 22 51 50-23 51-51 51-50-23-50-51z"/><glyph unicode="Ṇ" horiz-adv-x="772" d="M101 0h60v583L631 0h40v700h-60V117L141 700h-40zm234-120c0-28 22-50 50-50s51 22 51 50-23 51-51 51-50-23-50-51z"/><glyph unicode="ṇ" horiz-adv-x="585" d="M143 456H88V0h57v317c35 60 92 95 158 95 50 0 93-23 119-61 16-23 26-52 26-112V0h57v243c0 75-14 113-39 146-37 50-96 77-162 77-64 0-124-25-161-74zm102-576c0-28 22-50 50-50s51 22 51 50-23 51-51 51-50-23-50-51z"/><glyph unicode="Ṉ" horiz-adv-x="772" d="M101 0h60v583L631 0h40v700h-60V117L141 700h-40zm145-92v-50h280v50z"/><glyph unicode="ṉ" horiz-adv-x="585" d="M143 456H88V0h57v317c35 60 92 95 158 95 50 0 93-23 119-61 16-23 26-52 26-112V0h57v243c0 75-14 113-39 146-37 50-96 77-162 77-64 0-124-25-161-74zm11-548v-50h280v50z"/><glyph unicode="Ṗ" horiz-adv-x="592" d="M360 338c64 0 106 16 137 42 39 33 64 83 64 139s-25 106-64 139c-31 26-73 42-137 42H101V0h60v338zm-199 57v248h196c54 0 85-14 108-37 22-22 36-53 36-87s-14-65-36-87c-23-23-54-37-108-37zm104 433c0-28 22-50 50-50s51 22 51 50-23 51-51 51-50-23-50-51z"/><glyph unicode="ṗ" horiz-adv-x="592" d="M145-240V65c34-44 91-75 162-75 43 0 91 11 136 43 60 42 97 113 97 195 0 76-33 143-85 187-38 31-90 51-145 51-66 0-126-27-167-73v63H88v-696zm0 560c20 34 80 92 164 92 38 0 78-13 110-39 40-33 64-86 64-145 0-63-28-119-72-150-29-20-64-34-103-34-67 0-127 38-163 100zm110 279c0-28 22-50 50-50s51 22 51 50-23 51-51 51-50-23-50-51z"/><glyph unicode="Ṛ" horiz-adv-x="621" d="M621 0L351 358c58 2 96 18 125 45 34 31 55 76 55 126s-21 95-55 126c-31 28-72 45-136 45H101V0h60v358h118L549 0zM161 415v228h176c50 0 77-11 97-30 23-21 37-51 37-84s-14-63-37-84c-20-19-47-30-97-30zm107-535c0-28 22-50 50-50s51 22 51 50-23 51-51 51-50-23-50-51z"/><glyph unicode="ṛ" horiz-adv-x="345" d="M318 459c-17 2-25 2-29 2-71 0-123-39-144-70v65H88V0h57v305c24 59 80 101 147 101 8 0 10 0 26-2zM66-120c0-28 22-50 50-50s51 22 51 50-23 51-51 51-50-23-50-51z"/><glyph unicode="Ṝ" horiz-adv-x="621" d="M621 0L351 358c58 2 96 18 125 45 34 31 55 76 55 126s-21 95-55 126c-31 28-72 45-136 45H101V0h60v358h118L549 0zM161 415v228h176c50 0 77-11 97-30 23-21 37-51 37-84s-14-63-37-84c-20-19-47-30-97-30zm107-535c0-28 22-50 50-50s51 22 51 50-23 51-51 51-50-23-50-51zM157 848v-50h280v50z"/><glyph unicode="ṝ" horiz-adv-x="345" d="M318 459c-17 2-25 2-29 2-71 0-123-39-144-70v65H88V0h57v305c24 59 80 101 147 101 8 0 10 0 26-2zM66-120c0-28 22-50 50-50s51 22 51 50-23 51-51 51-50-23-50-51zM54 619v-50h280v50z"/><glyph unicode="Ṟ" horiz-adv-x="621" d="M621 0L351 358c58 2 96 18 125 45 34 31 55 76 55 126s-21 95-55 126c-31 28-72 45-136 45H101V0h60v358h118L549 0zM161 415v228h176c50 0 77-11 97-30 23-21 37-51 37-84s-14-63-37-84c-20-19-47-30-97-30zm31-507v-50h280v50z"/><glyph unicode="ṟ" horiz-adv-x="345" d="M318 459c-17 2-25 2-29 2-71 0-123-39-144-70v65H88V0h57v305c24 59 80 101 147 101 8 0 10 0 26-2zM-20-92v-50h280v50z"/><glyph unicode="Ṡ" horiz-adv-x="524" d="M41 107C101 31 176-10 273-10c114 0 204 77 204 188 0 81-48 133-106 169-100 62-241 76-241 182 0 76 63 124 141 124 58 0 98-21 141-55l36 43c-32 28-89 69-179 69-112 0-199-75-199-184 0-71 43-112 95-144 102-63 252-77 252-204 0-81-74-131-144-131-89 0-148 45-189 96zm185 721c0-28 22-50 50-50s51 22 51 50-23 51-51 51-50-23-50-51z"/><glyph unicode="ṡ" horiz-adv-x="427" d="M45 55c50-45 108-65 173-65 88 0 162 52 162 137 0 164-263 107-263 207 0 53 53 78 101 78 47 0 76-9 114-34l31 40c-35 26-80 48-145 48-80 0-158-47-158-133 0-158 263-95 263-209 0-56-59-80-105-80-54 0-99 18-136 51zm127 544c0-28 22-50 50-50s51 22 51 50-23 51-51 51-50-23-50-51z"/><glyph unicode="Ṣ" horiz-adv-x="524" d="M41 107C101 31 176-10 273-10c114 0 204 77 204 188 0 81-48 133-106 169-100 62-241 76-241 182 0 76 63 124 141 124 58 0 98-21 141-55l36 43c-32 28-89 69-179 69-112 0-199-75-199-184 0-71 43-112 95-144 102-63 252-77 252-204 0-81-74-131-144-131-89 0-148 45-189 96zm177-227c0-28 22-50 50-50s51 22 51 50-23 51-51 51-50-23-50-51z"/><glyph unicode="ṣ" horiz-adv-x="427" d="M45 55c50-45 108-65 173-65 88 0 162 52 162 137 0 164-263 107-263 207 0 53 53 78 101 78 47 0 76-9 114-34l31 40c-35 26-80 48-145 48-80 0-158-47-158-133 0-158 263-95 263-209 0-56-59-80-105-80-54 0-99 18-136 51zm117-175c0-28 22-50 50-50s51 22 51 50-23 51-51 51-50-23-50-51z"/><glyph unicode="Ṫ" horiz-adv-x="512" d="M26 700v-57h200V0h60v643h200v57zm180 128c0-28 22-50 50-50s51 22 51 50-23 51-51 51-50-23-50-51z"/><glyph unicode="ṫ" horiz-adv-x="373" d="M321 66c-17-11-40-22-65-22-21 0-37 7-49 20-11 12-18 29-18 67v271h138v54H189v151h-57V456H22v-54h110V135c0-60 15-96 43-119 19-16 48-26 76-26 38 0 69 13 96 33zM111 733c0-28 22-50 50-50s51 22 51 50-23 51-51 51-50-23-50-51z"/><glyph unicode="Ṭ" horiz-adv-x="512" d="M26 700v-57h200V0h60v643h200v57zm180-820c0-28 22-50 50-50s51 22 51 50-23 51-51 51-50-23-50-51z"/><glyph unicode="ṭ" horiz-adv-x="373" d="M321 66c-17-11-40-22-65-22-21 0-37 7-49 20-11 12-18 29-18 67v271h138v54H189v151h-57V456H22v-54h110V135c0-60 15-96 43-119 19-16 48-26 76-26 38 0 69 13 96 33zM194-120c0-28 22-50 50-50s51 22 51 50-23 51-51 51-50-23-50-51z"/><glyph unicode="Ṯ" horiz-adv-x="512" d="M26 700v-57h200V0h60v643h200v57zm90-792v-50h280v50z"/><glyph unicode="ṯ" horiz-adv-x="373" d="M321 66c-17-11-40-22-65-22-21 0-37 7-49 20-11 12-18 29-18 67v271h138v54H189v151h-57V456H22v-54h110V135c0-60 15-96 43-119 19-16 48-26 76-26 38 0 69 13 96 33zM103-92v-50h280v50z"/><glyph unicode="Ṽ" horiz-adv-x="648" d="M568 700L325 99 81 700H19L304 0h40l285 700zm-341 85c2 32 15 45 36 45 38 0 73-45 124-45 49 0 73 44 74 84l-40 11c-2-32-15-45-36-45-38 0-73 45-124 45-49 0-73-44-74-84z"/><glyph unicode="ṽ" horiz-adv-x="507" d="M272 0l211 456h-59L254 89 85 456H24L235 0zM158 557c2 32 15 45 36 45 38 0 73-45 124-45 49 0 73 44 74 84l-40 11c-2-32-15-45-36-45-38 0-73 45-124 45-49 0-73-44-74-84z"/><glyph unicode="Ẁ" horiz-adv-x="956" d="M458 700L271 121 83 700H22L252 0h40l186 575L664 0h40l230 700h-61L685 121 498 700zM358 903l95-140h45l-65 140z"/><glyph unicode="ẁ" horiz-adv-x="744" d="M372 361L515 0h37l165 456h-59L531 99 390 456h-36L212 99 85 456H27L192 0h37zM255 674l95-140h45l-65 140z"/><glyph unicode="Ẃ" horiz-adv-x="956" d="M458 700L271 121 83 700H22L252 0h40l186 575L664 0h40l230 700h-61L685 121 498 700zm66 203l-66-140h46l96 140z"/><glyph unicode="ẃ" horiz-adv-x="744" d="M372 361L515 0h37l165 456h-59L531 99 390 456h-36L212 99 85 456H27L192 0h37zm42 313l-65-140h45l95 140z"/><glyph unicode="Ẅ" horiz-adv-x="956" d="M458 700L271 121 83 700H22L252 0h40l186 575L664 0h40l230 700h-61L685 121 498 700zm51 128c0-28 22-50 50-50s51 22 51 50-23 51-51 51-50-23-50-51zm-163 0c0-28 22-50 50-50s51 22 51 50-23 51-51 51-50-23-50-51z"/><glyph unicode="ẅ" horiz-adv-x="744" d="M372 361L515 0h37l165 456h-59L531 99 390 456h-36L212 99 85 456H27L192 0h37zm31 238c0-28 22-50 50-50s51 22 51 50-23 51-51 51-50-23-50-51zm-163 0c0-28 22-50 50-50s51 22 51 50-23 51-51 51-50-23-50-51z"/><glyph unicode="Ẋ" horiz-adv-x="580" d="M71 0l219 330L507 0h68L324 381l211 319h-66L291 431 113 700H45l212-321L5 0zm169 828c0-28 22-50 50-50s51 22 51 50-23 51-51 51-50-23-50-51z"/><glyph unicode="ẋ" horiz-adv-x="470" d="M383 0h67L268 245l157 211h-67L236 289 112 456H45l157-212L20 0h67l147 201zM186 599c0-28 22-50 50-50s51 22 51 50-23 51-51 51-50-23-50-51z"/><glyph unicode="Ẓ" horiz-adv-x="563" d="M25 37V0h510v57H108l407 606v37H55v-57h379zm202-157c0-28 22-50 50-50s51 22 51 50-23 51-51 51-50-23-50-51z"/><glyph unicode="ẓ" horiz-adv-x="477" d="M36 34V0h400v54H121l305 368v34H61v-54h279zm162-154c0-28 22-50 50-50s51 22 51 50-23 51-51 51-50-23-50-51z"/><glyph unicode="ẗ" horiz-adv-x="373" d="M321 66c-17-11-40-22-65-22-21 0-37 7-49 20-11 12-18 29-18 67v271h138v54H189v151h-57V456H22v-54h110V135c0-60 15-96 43-119 19-16 48-26 76-26 38 0 69 13 96 33zM192 733c0-28 22-50 50-50s51 22 51 50-23 51-51 51-50-23-50-51zm-163 0c0-28 22-50 50-50s51 22 51 50-23 51-51 51-50-23-50-51z"/><glyph unicode="Ạ" horiz-adv-x="670" d="M315 700L13 0h59l91 211h342L596 0h61L355 700zm19-92l146-340H188zm-50-728c0-28 22-50 50-50s51 22 51 50-23 51-51 51-50-23-50-51z"/><glyph unicode="ạ" horiz-adv-x="592" d="M504 0v456h-55v-63c-41 46-101 73-167 73-55 0-107-20-145-51-52-44-85-111-85-187 0-82 37-153 97-195 45-32 93-43 136-43 71 0 130 31 164 77V0zm-57 144C411 82 351 44 284 44c-39 0-74 14-103 34-44 31-72 87-72 150 0 59 24 112 64 145 32 26 72 39 110 39 84 0 144-58 164-92zM249-120c0-28 22-50 50-50s51 22 51 50-23 51-51 51-50-23-50-51z"/><glyph unicode="Ẹ" horiz-adv-x="539" d="M481 643v57H101V0h390v57H161v301h250v57H161v228zM253-120c0-28 22-50 50-50s51 22 51 50-23 51-51 51-50-23-50-51z"/><glyph unicode="ẹ" horiz-adv-x="531" d="M271 412c79 0 141-57 153-137H114c17 79 76 137 157 137zm161-301c-36-38-87-67-144-67-120 0-175 79-178 179h372c1 9 1 16 1 20 0 127-90 223-212 223-129 0-218-107-218-238C53 87 145-10 283-10c69 0 139 30 185 84zM215-120c0-28 22-50 50-50s51 22 51 50-23 51-51 51-50-23-50-51z"/><glyph unicode="Ẽ" horiz-adv-x="539" d="M481 643v57H101V0h390v57H161v301h250v57H161v228zM197 785c2 32 15 45 36 45 38 0 73-45 124-45 49 0 73 44 74 84l-40 11c-2-32-15-45-36-45-38 0-73 45-124 45-49 0-73-44-74-84z"/><glyph unicode="ẽ" horiz-adv-x="531" d="M271 412c79 0 141-57 153-137H114c17 79 76 137 157 137zm161-301c-36-38-87-67-144-67-120 0-175 79-178 179h372c1 9 1 16 1 20 0 127-90 223-212 223-129 0-218-107-218-238C53 87 145-10 283-10c69 0 139 30 185 84zM177 557c2 32 15 45 36 45 38 0 73-45 124-45 49 0 73 44 74 84l-40 11c-2-32-15-45-36-45-38 0-73 45-124 45-49 0-73-44-74-84z"/><glyph unicode="Ị" horiz-adv-x="262" d="M101 0h60v700h-60zM81-120c0-28 22-50 50-50s51 22 51 50-23 51-51 51-50-23-50-51z"/><glyph unicode="ị" horiz-adv-x="233" d="M88 0h57v456H88zM66 614c0-28 22-50 50-50s51 22 51 50-23 51-51 51-50-23-50-51zm2-734c0-28 22-50 50-50s51 22 51 50-23 51-51 51-50-23-50-51z"/><glyph unicode="Ọ" horiz-adv-x="800" d="M52 350C52 146 202-10 400-10s348 156 348 360-150 360-348 360S52 554 52 350zm60 0c0 166 119 303 288 303s288-137 288-303S569 47 400 47 112 184 112 350zm239-470c0-28 22-50 50-50s51 22 51 50-23 51-51 51-50-23-50-51z"/><glyph unicode="ọ" horiz-adv-x="574" d="M465 228c0-102-75-184-178-184s-178 82-178 184 75 184 178 184 178-82 178-184zm57 0c0 131-99 238-235 238S52 359 52 228 151-10 287-10 522 97 522 228zM237-120c0-28 22-50 50-50s51 22 51 50-23 51-51 51-50-23-50-51z"/><glyph unicode="Ụ" horiz-adv-x="744" d="M372-10c101 0 190 50 239 127 26 41 41 89 41 163v420h-60V277c0-61-11-98-31-130C522 86 452 47 372 47S222 86 183 147c-20 32-31 69-31 130v423H92V280c0-74 15-122 41-163C182 40 271-10 372-10zm-51-110c0-28 22-50 50-50s51 22 51 50-23 51-51 51-50-23-50-51z"/><glyph unicode="ụ" horiz-adv-x="575" d="M432 0h55v456h-57V139c-30-57-90-95-152-95-50 0-91 24-115 60-16 24-26 54-26 118v234H80V213c0-61 10-98 27-129 33-58 96-94 171-94 63 0 122 30 154 72zM237-120c0-28 22-50 50-50s51 22 51 50-23 51-51 51-50-23-50-51z"/><glyph unicode="Ỳ" horiz-adv-x="600" d="M570 700h-67L301 386 98 700H30l240-371V0h60v329zM200 903l95-140h45l-65 140z"/><glyph unicode="ỳ" horiz-adv-x="527" d="M181-240l323 696h-60L273 88 86 456H24L244 25 120-240zm-12 914l95-140h45l-65 140z"/><glyph unicode="Ỹ" horiz-adv-x="600" d="M570 700h-67L301 386 98 700H30l240-371V0h60v329zm-367 85c2 32 15 45 36 45 38 0 73-45 124-45 49 0 73 44 74 84l-40 11c-2-32-15-45-36-45-38 0-73 45-124 45-49 0-73-44-74-84z"/><glyph unicode="ỹ" horiz-adv-x="527" d="M181-240l323 696h-60L273 88 86 456H24L244 25 120-240zm-8 797c2 32 15 45 36 45 38 0 73-45 124-45 49 0 73 44 74 84l-40 11c-2-32-15-45-36-45-38 0-73 45-124 45-49 0-73-44-74-84z"/><glyph horiz-adv-x="540"/><glyph horiz-adv-x="1080"/><glyph horiz-adv-x="540"/><glyph horiz-adv-x="1080"/><glyph horiz-adv-x="360"/><glyph horiz-adv-x="270"/><glyph horiz-adv-x="180"/><glyph horiz-adv-x="590"/><glyph horiz-adv-x="290"/><glyph horiz-adv-x="135"/><glyph horiz-adv-x="45"/><glyph unicode="​" horiz-adv-x="0"/><glyph unicode="‒" horiz-adv-x="590" d="M90 334v-49h410v49z"/><glyph unicode="–" horiz-adv-x="554" d="M72 274v-49h410v49z"/><glyph unicode="—" horiz-adv-x="854" d="M72 274v-49h710v49z"/><glyph unicode="―" horiz-adv-x="854" d="M72 274v-49h710v49z"/><glyph unicode="‘" horiz-adv-x="242" d="M200 700h-50L54 460h75z"/><glyph unicode="’" horiz-adv-x="236" d="M57 460h50l96 240h-75z"/><glyph unicode="‚" horiz-adv-x="291" d="M46-140h50l96 240h-75z"/><glyph unicode="‛" horiz-adv-x="236" d="M108 700H33l96-240h50z"/><glyph unicode="“" horiz-adv-x="432" d="M390 700h-50l-96-240h75zm-190 0h-50L54 460h75z"/><glyph unicode="”" horiz-adv-x="426" d="M57 460h50l96 240h-75zm190 0h50l96 240h-75z"/><glyph unicode="„" horiz-adv-x="481" d="M46-140h50l96 240h-75zm190 0h50l96 240h-75z"/><glyph unicode="‟" horiz-adv-x="426" d="M298 700h-75l96-240h50zm-190 0H33l96-240h50z"/><glyph unicode="†" horiz-adv-x="479" d="M211-240h57v642h174v54H268v244h-57V456H37v-54h174z"/><glyph unicode="‡" horiz-adv-x="479" d="M37 216v-54h174v-402h57v402h174v54H268v186h174v54H268v244h-57V456H37v-54h174V216z"/><glyph unicode="•" horiz-adv-x="618" d="M71 228C71 97 178-10 309-10S547 97 547 228 440 466 309 466 71 359 71 228z"/><glyph unicode="…" horiz-adv-x="810" d="M93 42c0-29 23-52 52-52s52 23 52 52-23 52-52 52-52-23-52-52zm260 0c0-29 23-52 52-52s52 23 52 52-23 52-52 52-52-23-52-52zm260 0c0-29 23-52 52-52s52 23 52 52-23 52-52 52-52-23-52-52z"/><glyph unicode="‰" horiz-adv-x="1105" d="M424 170c0-100 74-180 175-180 65 0 119 33 148 84 30-51 84-84 149-84 101 0 175 80 175 180s-74 180-175 180c-65 0-119-34-149-84-29 50-83 84-148 84-101 0-175-80-175-180zm-40 360c0 100-74 180-175 180S34 630 34 530s74-180 175-180 175 80 175 180zm-297 0c0 71 54 130 122 130s122-59 122-130-54-130-122-130S87 459 87 530zm931-360c0-71-54-130-122-130S774 99 774 170s54 130 122 130 122-59 122-130zm-297 0c0-71-54-130-122-130S477 99 477 170s54 130 122 130 122-59 122-130zM582 700L174 0h52l408 700z"/><glyph unicode="′" horiz-adv-x="199" d="M81 446h37l10 254H71z"/><glyph unicode="″" horiz-adv-x="392" d="M81 446h37l10 254H71zm193 0h37l10 254h-57z"/><glyph unicode="‹" horiz-adv-x="328" d="M203 420L44 235 203 50h71L115 235l159 185z"/><glyph unicode="›" horiz-adv-x="328" d="M54 420l159-185L54 50h71l159 185-159 185z"/><glyph unicode="⁄" horiz-adv-x="170" d="M-94 0l408 700h-52L-146 0z"/><glyph unicode="⁰" horiz-adv-x="340" d="M300 520c0 104-39 190-130 190S40 624 40 520s39-190 130-190 130 86 130 190zm-210 0c0 84 26 145 80 145s80-61 80-145-26-145-80-145-80 61-80 145z"/><glyph unicode="⁴" horiz-adv-x="336" d="M24 425h176v-85h49v85h60v44h-60v231h-30L24 455zm67 44l109 137V469z"/><glyph unicode="⁵" horiz-adv-x="295" d="M78 516c14 11 33 19 54 19 47 0 79-36 79-81 0-47-36-79-78-79-29 0-57 16-73 35l-34-27c28-37 72-53 109-53 74 0 126 58 126 125s-52 123-123 123c-11 0-23-2-35-5l9 82h129v45H70L51 522z"/><glyph unicode="⁶" horiz-adv-x="318" d="M84 454c0 25 12 46 23 63 20 12 38 15 58 15 42 0 74-35 74-78 0-44-31-79-77-79-48 0-78 35-78 79zm142 246h-56L81 568c-24-36-47-73-47-114 0-67 52-124 128-124 74 0 127 56 127 124 0 72-54 122-124 122-9 0-21-2-24-3z"/><glyph unicode="⁷" horiz-adv-x="276" d="M92 340l162 330v30H29v-45h165L39 340z"/><glyph unicode="⁸" horiz-adv-x="327" d="M163 519c46 0 78-32 78-73 0-39-32-71-78-71-44 0-77 32-77 71 0 41 34 73 77 73zm0 146c30 0 53-22 53-52 0-29-23-51-53-51-28 0-52 22-52 51 0 30 24 52 52 52zm0-335c76 0 128 53 128 115 0 43-26 82-60 101 21 15 35 41 35 68 0 55-45 96-103 96-57 0-102-41-102-96 0-27 14-53 35-68-34-19-60-58-60-101 0-62 51-115 127-115z"/><glyph unicode="⁹" horiz-adv-x="318" d="M234 586c0-25-12-46-23-63-20-12-38-15-58-15-42 0-74 35-74 78 0 44 31 79 77 79 48 0 78-35 78-79zM92 340h56l89 132c24 36 47 73 47 114 0 67-52 124-128 124-74 0-127-56-127-124 0-72 54-122 124-122 9 0 21 2 24 3z"/><glyph unicode="₀" horiz-adv-x="340" d="M300 180c0 104-39 190-130 190S40 284 40 180 79-10 170-10s130 86 130 190zm-210 0c0 84 26 145 80 145s80-61 80-145-26-145-80-145-80 61-80 145z"/><glyph unicode="₁" horiz-adv-x="223" d="M102 300V0h50v360h-30l-95-50v-50z"/><glyph unicode="₂" horiz-adv-x="313" d="M78 251c8 40 34 73 76 73 43 0 69-34 69-72 0-39-21-67-56-100L38 30V0h235v46H120l78 72c48 44 75 84 75 134 0 68-52 118-118 118-70 0-108-49-122-107z"/><glyph unicode="₃" horiz-adv-x="309" d="M27 57c22-38 64-67 117-67 77 0 128 60 128 126 0 69-50 111-100 117l85 97v30H47v-45h138l-86-98v-30c14 5 30 7 44 7 45-1 79-29 79-79 0-45-35-80-78-80-38 0-63 20-81 47z"/><glyph unicode="₄" horiz-adv-x="336" d="M23 85h176V0h49v85h60v44h-60v231h-30L23 115zm67 44l109 137V129z"/><glyph unicode="₅" horiz-adv-x="295" d="M78 176c14 11 33 19 54 19 47 0 79-36 79-81 0-47-36-79-78-79-29 0-57 16-73 35L26 43C54 6 98-10 135-10c74 0 126 58 126 125s-52 123-123 123c-11 0-23-2-35-5l9 82h129v45H70L51 182z"/><glyph unicode="₆" horiz-adv-x="318" d="M84 114c0 25 12 46 23 63 20 12 38 15 58 15 42 0 74-35 74-78 0-44-31-79-77-79-48 0-78 35-78 79zm142 246h-56L81 228c-24-36-47-73-47-114C34 47 86-10 162-10c74 0 127 56 127 124 0 72-54 122-124 122-9 0-21-2-24-3z"/><glyph unicode="₇" horiz-adv-x="276" d="M92 0l162 330v30H29v-45h165L39 0z"/><glyph unicode="₈" horiz-adv-x="327" d="M163 179c46 0 78-32 78-73 0-39-32-71-78-71-44 0-77 32-77 71 0 41 34 73 77 73zm0 146c30 0 53-22 53-52 0-29-23-51-53-51-28 0-52 22-52 51 0 30 24 52 52 52zm0-335c76 0 128 53 128 115 0 43-26 82-60 101 21 15 35 41 35 68 0 55-45 96-103 96-57 0-102-41-102-96 0-27 14-53 35-68-34-19-60-58-60-101C36 43 87-10 163-10z"/><glyph unicode="₉" horiz-adv-x="318" d="M234 246c0-25-12-46-23-63-20-12-38-15-58-15-42 0-74 35-74 78 0 44 31 79 77 79 48 0 78-35 78-79zM92 0h56l89 132c24 36 47 73 47 114 0 67-52 124-128 124-74 0-127-56-127-124 0-72 54-122 124-122 9 0 21 2 24 3z"/><glyph unicode="₡" horiz-adv-x="660" d="M241-70l19 110c23-8 47-14 73-17l-16-93h51l15 90c98 1 189 50 244 118l-42 35c-46-53-112-91-192-96l92 521c31-15 59-34 81-56l39 40c-30 32-68 57-110 74l20 114h-51l-17-99c-24 6-50 9-75 9l16 90h-51l-17-94C162 652 50 517 50 350c0-129 63-234 163-289L190-70zM110 350c0 129 81 237 200 265l-86-492c-71 48-114 131-114 227zM270 97l92 526h10c22 0 44-3 65-8L343 79c-26 3-50 9-73 18z"/><glyph unicode="₦" horiz-adv-x="776" d="M613 700h-57V133L203 700h-40V455H43v-54h120V300H43v-54h120V0h57v567L573 0h40v246h120v54H613v101h120v54H613z"/><glyph unicode="€" horiz-adv-x="656" d="M39 455v-54h72c-1-17-2-34-2-51s1-34 2-50H39v-54h81C156 85 277-10 423-10c96 0 171 50 196 81l-36 39c-26-25-87-63-160-63-136 0-211 94-240 199h215l20 54H172c-2 17-3 33-3 50 0 16 1 34 3 51h282l20 54H183c29 105 104 198 236 198 73 0 133-38 159-63l36 39c-25 31-99 81-195 81-143 0-263-95-299-255z"/><glyph unicode="₲" horiz-adv-x="673" d="M398 770h-57v-91C170 665 46 526 46 350 46 171 167 37 341 21v-91h57v91c90 6 173 51 223 117v277H361v-57h200V154l8 8c-47-52-114-85-196-85-156 0-267 120-267 273 0 151 111 273 262 273 78 0 148-35 194-81l39 40c-50 54-124 90-203 97z"/><glyph unicode="₴" horiz-adv-x="642" d="M584 245v51H54v-51h70c-8-20-12-42-12-67 0-111 90-188 204-188 93 0 172 39 232 118l-42 37c-42-51-98-98-190-98-70 0-144 50-144 131 0 27 6 49 18 67zM54 456v-52h530v52h-85c12 26 20 47 20 77 0 104-86 177-195 177-70 0-134-27-183-70l37-43c44 36 91 56 145 56 78 0 136-47 136-120 0-30-11-57-27-77z"/><glyph unicode="₵" horiz-adv-x="658" d="M402 770h-57v-91C174 665 50 526 50 350 50 171 171 37 345 21v-91h57v91c90 6 172 52 223 116l-42 35c-49-56-119-95-206-95-156 0-267 120-267 273 0 151 111 273 262 273 78 0 148-35 194-81l39 40c-50 50-124 88-203 96z"/><glyph unicode="₸" horiz-adv-x="534" d="M237 0h60v491h200v52H37v-52h200zM37 649h460v51H37z"/><glyph unicode="₹" horiz-adv-x="569" d="M70 700v-54h146c56 0 89-13 112-38 17-17 29-39 35-63H70v-54h293c-5-26-17-49-35-66-23-25-56-38-112-38H70v-54h132L453 0h72L271 336c39 6 67 20 90 40 34 28 57 69 63 115h81l20 54H424c-6 39-24 74-51 101h132l20 54z"/><glyph unicode="₺" horiz-adv-x="576" d="M482 350c0-155-112-277-260-292v288l180 66v60l-180-66v58l180 66v60l-180-66v176h-60V503L52 463v-60l110 40v-58L52 345v-60l110 40V0h30c196 0 350 154 350 350z"/><glyph unicode="₼" horiz-adv-x="658" d="M299 578c-72-8-135-46-178-99-36-45-57-102-57-184V0h60v298c0 69 18 115 47 150 32 38 76 65 128 73V0h60v521c51-8 96-35 128-73 29-35 47-81 47-150V0h60v295c0 82-21 139-57 184-43 53-107 91-178 99v122h-60z"/><glyph unicode="₽" horiz-adv-x="647" d="M453 178v52H213v108h199c64 0 106 16 137 42 39 33 64 83 64 139s-25 106-64 139c-31 26-73 42-137 42H153V395H53v-57h100V230H53v-52h100V0h60v178zM213 395v248h196c54 0 85-14 108-37 22-22 36-53 36-87s-14-65-36-87c-23-23-54-37-108-37z"/><glyph unicode="₿" horiz-adv-x="580" d="M329 770h-57V670H159v100h-57V-70h57V30h113V-70h57V30c66 0 111 18 145 48 38 35 63 85 63 141 0 77-47 144-113 174 35 28 58 72 58 121 0 44-19 85-49 113-26 23-57 39-104 42zM162 358h159c57 0 90-13 114-36 26-25 42-59 42-99s-16-75-42-100c-24-23-57-36-114-36H162zm0 57v198h141c52 0 78-13 96-34 14-17 23-40 23-65s-9-48-23-65c-18-21-44-34-96-34z"/><glyph unicode="ℓ" horiz-adv-x="388" d="M333 65c-18-9-34-11-48-11-31 0-58 15-69 54-12 41-14 101-14 205 86 75 145 165 145 268 0 69-33 129-111 129-75 0-117-61-125-122-8-60-9-141-9-243v-37c-17-12-34-23-50-33v-65c17 9 34 19 51 30 2-68 10-130 31-174 22-46 60-76 135-76 29 0 64 11 83 25zM207 575c2 25 9 65 39 65s36-44 36-63c0-71-34-131-80-182 0 83 1 141 5 180z"/><glyph unicode="№" horiz-adv-x="1119" d="M764 270h294v55H764zM101 0h60v583L631 0h40v700h-60V117L141 700h-40zm645 547c0-91 72-163 165-163s165 72 165 163-72 163-165 163-165-72-165-163zm55 0c0 61 49 110 110 110s110-49 110-110-49-110-110-110-110 49-110 110z"/><glyph unicode="℗" horiz-adv-x="850" d="M425-25c207 0 375 168 375 375S632 725 425 725 50 557 50 350 218-25 425-25zM97 350c0 181 147 328 328 328s328-147 328-328S606 22 425 22 97 169 97 350zm376-7c35 0 58 8 75 23 21 18 35 45 35 76s-14 58-35 76c-17 14-40 23-75 23H321V158h47v185zm-105 44v110h104c24 0 37-5 48-16 10-10 16-24 16-39s-6-29-16-39c-11-11-24-16-48-16z"/><glyph unicode="™" horiz-adv-x="816" d="M34 700v-44h109V317h47v339h109v44zm650-109V317h47v383h-27L537 448 370 700h-27V317h47v274l143-216h8z"/><glyph unicode="Ω" horiz-adv-x="822" d="M411 656c160 0 293-128 293-301 0-209-163-321-163-321V0h220v54H636s125 113 125 301c0 195-148 355-350 355S61 550 61 355C61 167 186 54 186 54H61V0h220v34S118 146 118 355c0 173 133 301 293 301z"/><glyph unicode="℮" horiz-adv-x="808" d="M771 320c1 10 1 20 1 30 0 198-162 360-360 360S52 548 52 350 214-10 412-10c117 0 218 52 284 132l-38 32C601 85 515 40 412 40c-91 0-175 41-230 104v176zM412 660c92 0 173-39 230-101V370H182v187c56 63 138 103 230 103z"/><glyph unicode="⅐" horiz-adv-x="671" d="M114 0l408 700h-52L62 0zm8 640V340h50v360h-30l-95-50v-50zM475 0l162 330v30H412v-45h165L422 0z"/><glyph unicode="⅑" horiz-adv-x="661" d="M113 0l408 700h-52L61 0zm8 640V340h50v360h-30l-95-50v-50zm455-394c0-25-12-46-23-63-20-12-38-15-58-15-42 0-74 35-74 78 0 44 31 79 77 79 48 0 78-35 78-79zM434 0h56l89 132c24 36 47 73 47 114 0 67-52 124-128 124-74 0-127-56-127-124 0-72 54-122 124-122 9 0 21 2 24 3z"/><glyph unicode="⅒" horiz-adv-x="890" d="M111 0l408 700h-52L59 0zm743 180c0 104-39 190-130 190s-130-86-130-190S633-10 724-10s130 86 130 190zm-210 0c0 84 26 145 80 145s80-61 80-145-26-145-80-145-80 61-80 145zM459 300V0h50v360h-30l-95-50v-50zM119 640V340h50v360h-30l-95-50v-50z"/><glyph unicode="⅓" horiz-adv-x="662" d="M109 0l408 700h-52L57 0zm8 640V340h50v360h-30l-95-50v-50zM377 57c22-38 64-67 117-67 77 0 128 60 128 126 0 69-50 111-100 117l85 97v30H397v-45h138l-86-98v-30c14 5 30 7 44 7 45-1 79-29 79-79 0-45-35-80-78-80-38 0-63 20-81 47z"/><glyph unicode="⅔" horiz-adv-x="765" d="M85 591c8 40 34 73 76 73 43 0 69-34 69-72 0-39-21-67-56-100L45 370v-30h235v46H127l78 72c48 44 75 84 75 134 0 68-52 118-118 118-70 0-108-49-122-107zM212 0l408 700h-52L160 0zm268 57c22-38 64-67 117-67 77 0 128 60 128 126 0 69-50 111-100 117l85 97v30H500v-45h138l-86-98v-30c14 5 30 7 44 7 45-1 79-29 79-79 0-45-35-80-78-80-38 0-63 20-81 47z"/><glyph unicode="⅕" horiz-adv-x="643" d="M109 0l408 700h-52L57 0zm8 640V340h50v360h-30l-95-50v-50zm302-464c14 11 33 19 54 19 47 0 79-36 79-81 0-47-36-79-78-79-29 0-57 16-73 35l-34-27c28-37 72-53 109-53 74 0 126 58 126 125s-52 123-123 123c-11 0-23-2-35-5l9 82h129v45H411l-19-178z"/><glyph unicode="⅖" horiz-adv-x="746" d="M85 591c8 40 34 73 76 73 43 0 69-34 69-72 0-39-21-67-56-100L45 370v-30h235v46H127l78 72c48 44 75 84 75 134 0 68-52 118-118 118-70 0-108-49-122-107zM212 0l408 700h-52L160 0zm310 176c14 11 33 19 54 19 47 0 79-36 79-81 0-47-36-79-78-79-29 0-57 16-73 35l-34-27c28-37 72-53 109-53 74 0 126 58 126 125s-52 123-123 123c-11 0-23-2-35-5l9 82h129v45H514l-19-178z"/><glyph unicode="⅗" horiz-adv-x="718" d="M35 397c22-38 64-67 117-67 77 0 128 60 128 126 0 69-50 111-100 117l85 97v30H55v-45h138l-86-98v-30c14 5 30 7 44 7 45-1 79-29 79-79 0-45-35-80-78-80-38 0-63 20-81 47zM182 0l408 700h-52L130 0zm310 176c14 11 33 19 54 19 47 0 79-36 79-81 0-47-36-79-78-79-29 0-57 16-73 35l-34-27c28-37 72-53 109-53 74 0 126 58 126 125s-52 123-123 123c-11 0-23-2-35-5l9 82h129v45H484l-19-178z"/><glyph unicode="⅘" horiz-adv-x="755" d="M31 425h176v-85h49v85h60v44h-60v231h-30L31 455zm67 44l109 137V469zM213 0l408 700h-52L161 0zm310 176c14 11 33 19 54 19 47 0 79-36 79-81 0-47-36-79-78-79-29 0-57 16-73 35l-34-27c28-37 72-53 109-53 74 0 126 58 126 125s-52 123-123 123c-11 0-23-2-35-5l9 82h129v45H515l-19-178z"/><glyph unicode="⅙" horiz-adv-x="620" d="M119 640V340h50v360h-30l-95-50v-50zM111 0l408 700h-52L59 0zm268 114c0 25 12 46 23 63 20 12 38 15 58 15 42 0 74-35 74-78 0-44-31-79-77-79-48 0-78 35-78 79zm142 246h-56l-89-132c-24-36-47-73-47-114 0-67 52-124 128-124 74 0 127 56 127 124 0 72-54 122-124 122-9 0-21-2-24-3z"/><glyph unicode="⅚" horiz-adv-x="682" d="M173 0l408 700h-52L121 0zM88 516c14 11 33 19 54 19 47 0 79-36 79-81 0-47-36-79-78-79-29 0-57 16-73 35l-34-27c28-37 72-53 109-53 74 0 126 58 126 125s-52 123-123 123c-11 0-23-2-35-5l9 82h129v45H80L61 522zm353-402c0 25 12 46 23 63 20 12 38 15 58 15 42 0 74-35 74-78 0-44-31-79-77-79-48 0-78 35-78 79zm142 246h-56l-89-132c-24-36-47-73-47-114 0-67 52-124 128-124 74 0 127 56 127 124 0 72-54 122-124 122-9 0-21-2-24-3z"/><glyph unicode="⅛" horiz-adv-x="649" d="M110 0l408 700h-52L58 0zm8 640V340h50v360h-30l-95-50v-50zm367-461c46 0 78-32 78-73 0-39-32-71-78-71-44 0-77 32-77 71 0 41 34 73 77 73zm0 146c30 0 53-22 53-52 0-29-23-51-53-51-28 0-52 22-52 51 0 30 24 52 52 52zm0-335c76 0 128 53 128 115 0 43-26 82-60 101 21 15 35 41 35 68 0 55-45 96-103 96-57 0-102-41-102-96 0-27 14-53 35-68-34-19-60-58-60-101 0-62 51-115 127-115z"/><glyph unicode="⅜" horiz-adv-x="720" d="M35 397c22-38 64-67 117-67 77 0 128 60 128 126 0 69-50 111-100 117l85 97v30H55v-45h138l-86-98v-30c14 5 30 7 44 7 45-1 79-29 79-79 0-45-35-80-78-80-38 0-63 20-81 47zM180 0l408 700h-52L128 0zm375 179c46 0 78-32 78-73 0-39-32-71-78-71-44 0-77 32-77 71 0 41 34 73 77 73zm0 146c30 0 53-22 53-52 0-29-23-51-53-51-28 0-52 22-52 51 0 30 24 52 52 52zm0-335c76 0 128 53 128 115 0 43-26 82-60 101 21 15 35 41 35 68 0 55-45 96-103 96-57 0-102-41-102-96 0-27 14-53 35-68-34-19-60-58-60-101 0-62 51-115 127-115z"/><glyph unicode="⅝" horiz-adv-x="712" d="M88 516c14 11 33 19 54 19 47 0 79-36 79-81 0-47-36-79-78-79-29 0-57 16-73 35l-34-27c28-37 72-53 109-53 74 0 126 58 126 125s-52 123-123 123c-11 0-23-2-35-5l9 82h129v45H80L61 522zM173 0l408 700h-52L121 0zm375 179c46 0 78-32 78-73 0-39-32-71-78-71-44 0-77 32-77 71 0 41 34 73 77 73zm0 146c30 0 53-22 53-52 0-29-23-51-53-51-28 0-52 22-52 51 0 30 24 52 52 52zm0-335c76 0 128 53 128 115 0 43-26 82-60 101 21 15 35 41 35 68 0 55-45 96-103 96-57 0-102-41-102-96 0-27 14-53 35-68-34-19-60-58-60-101 0-62 51-115 127-115z"/><glyph unicode="⅞" horiz-adv-x="651" d="M112 0l408 700h-52L60 0zm375 179c46 0 78-32 78-73 0-39-32-71-78-71-44 0-77 32-77 71 0 41 34 73 77 73zm0 146c30 0 53-22 53-52 0-29-23-51-53-51-28 0-52 22-52 51 0 30 24 52 52 52zm0-335c76 0 128 53 128 115 0 43-26 82-60 101 21 15 35 41 35 68 0 55-45 96-103 96-57 0-102-41-102-96 0-27 14-53 35-68-34-19-60-58-60-101 0-62 51-115 127-115zM113 340l162 330v30H50v-45h165L60 340z"/><glyph unicode="⅟" horiz-adv-x="409" d="M121 0l408 700h-52L69 0zm8 640V340h50v360h-30l-95-50v-50z"/><glyph unicode="Ⅰ" horiz-adv-x="262" d="M101 0h60v700h-60z"/><glyph unicode="Ⅱ" horiz-adv-x="524" d="M101 0h60v700h-60zm262 0h60v700h-60z"/><glyph unicode="Ⅲ" horiz-adv-x="786" d="M101 0h60v700h-60zm262 0h60v700h-60zm262 0h60v700h-60z"/><glyph unicode="Ⅳ" horiz-adv-x="910" d="M101 0h60v700h-60zm729 700L587 99 343 700h-62L566 0h40l285 700z"/><glyph unicode="Ⅴ" horiz-adv-x="648" d="M568 700L325 99 81 700H19L304 0h40l285 700z"/><glyph unicode="Ⅵ" horiz-adv-x="910" d="M568 700L325 99 81 700H19L304 0h40l285 700zM749 0h60v700h-60z"/><glyph unicode="Ⅶ" horiz-adv-x="1172" d="M568 700L325 99 81 700H19L304 0h40l285 700zM749 0h60v700h-60zm262 0h60v700h-60z"/><glyph unicode="Ⅷ" horiz-adv-x="1434" d="M568 700L325 99 81 700H19L304 0h40l285 700zM749 0h60v700h-60zm262 0h60v700h-60zm262 0h60v700h-60z"/><glyph unicode="Ⅸ" horiz-adv-x="842" d="M101 0h60v700h-60zm232 0l219 330L769 0h68L586 381l211 319h-66L553 431 375 700h-68l212-321L267 0z"/><glyph unicode="Ⅹ" horiz-adv-x="580" d="M71 0l219 330L507 0h68L324 381l211 319h-66L291 431 113 700H45l212-321L5 0z"/><glyph unicode="Ⅺ" horiz-adv-x="842" d="M71 0l219 330L507 0h68L324 381l211 319h-66L291 431 113 700H45l212-321L5 0zm610 0h60v700h-60z"/><glyph unicode="Ⅻ" horiz-adv-x="1104" d="M71 0l219 330L507 0h68L324 381l211 319h-66L291 431 113 700H45l212-321L5 0zm610 0h60v700h-60zm262 0h60v700h-60z"/><glyph unicode="Ⅼ" horiz-adv-x="518" d="M161 700h-60V0h390v57H161z"/><glyph unicode="Ⅽ" horiz-adv-x="705" d="M640 154C586 91 505 47 409 47c-174 0-297 133-297 303 0 168 123 303 291 303 87 0 165-39 215-89l39 39c-61 67-154 107-254 107-202 0-351-158-351-360C52 143 203-10 412-10c108 0 209 53 270 129z"/><glyph unicode="Ⅾ" horiz-adv-x="743" d="M631 350c0-94-41-180-110-234-50-39-115-59-213-59H161v586h147c98 0 163-20 213-59 69-54 110-140 110-234zm60 0c0 116-53 220-139 284-57 42-130 66-241 66H101V0h210c111 0 184 24 241 66 86 64 139 168 139 284z"/><glyph unicode="Ⅿ" horiz-adv-x="846" d="M685 568V0h60v700h-40L424 259 141 700h-40V0h60v567l257-402h10z"/><glyph unicode="ⅰ" horiz-adv-x="233" d="M88 0h57v456H88zM66 614c0-28 22-50 50-50s51 22 51 50-23 51-51 51-50-23-50-51z"/><glyph unicode="ⅱ" horiz-adv-x="466" d="M88 0h57v456H88zM66 614c0-28 22-50 50-50s51 22 51 50-23 51-51 51-50-23-50-51zM321 0h57v456h-57zm-22 614c0-28 22-50 50-50s51 22 51 50-23 51-51 51-50-23-50-51z"/><glyph unicode="ⅲ" horiz-adv-x="699" d="M88 0h57v456H88zM66 614c0-28 22-50 50-50s51 22 51 50-23 51-51 51-50-23-50-51zM321 0h57v456h-57zm-22 614c0-28 22-50 50-50s51 22 51 50-23 51-51 51-50-23-50-51zM554 0h57v456h-57zm-22 614c0-28 22-50 50-50s51 22 51 50-23 51-51 51-50-23-50-51z"/><glyph unicode="ⅳ" horiz-adv-x="740" d="M88 0h57v456H88zM66 614c0-28 22-50 50-50s51 22 51 50-23 51-51 51-50-23-50-51zM505 0l211 456h-59L487 89 318 456h-61L468 0z"/><glyph unicode="ⅴ" horiz-adv-x="507" d="M272 0l211 456h-59L254 89 85 456H24L235 0z"/><glyph unicode="ⅵ" horiz-adv-x="740" d="M272 0l211 456h-59L254 89 85 456H24L235 0zm323 0h57v456h-57zm-22 614c0-28 22-50 50-50s51 22 51 50-23 51-51 51-50-23-50-51z"/><glyph unicode="ⅶ" horiz-adv-x="973" d="M272 0l211 456h-59L254 89 85 456H24L235 0zm323 0h57v456h-57zm-22 614c0-28 22-50 50-50s51 22 51 50-23 51-51 51-50-23-50-51zM828 0h57v456h-57zm-22 614c0-28 22-50 50-50s51 22 51 50-23 51-51 51-50-23-50-51z"/><glyph unicode="ⅷ" horiz-adv-x="1206" d="M272 0l211 456h-59L254 89 85 456H24L235 0zm323 0h57v456h-57zm-22 614c0-28 22-50 50-50s51 22 51 50-23 51-51 51-50-23-50-51zM828 0h57v456h-57zm-22 614c0-28 22-50 50-50s51 22 51 50-23 51-51 51-50-23-50-51zM1061 0h57v456h-57zm-22 614c0-28 22-50 50-50s51 22 51 50-23 51-51 51-50-23-50-51z"/><glyph unicode="ⅸ" horiz-adv-x="703" d="M88 0h57v456H88zM66 614c0-28 22-50 50-50s51 22 51 50-23 51-51 51-50-23-50-51zM616 0h67L501 245l157 211h-67L469 289 345 456h-67l157-212L253 0h67l147 201z"/><glyph unicode="ⅹ" horiz-adv-x="470" d="M383 0h67L268 245l157 211h-67L236 289 112 456H45l157-212L20 0h67l147 201z"/><glyph unicode="ⅺ" horiz-adv-x="703" d="M383 0h67L268 245l157 211h-67L236 289 112 456H45l157-212L20 0h67l147 201zm175 0h57v456h-57zm-22 614c0-28 22-50 50-50s51 22 51 50-23 51-51 51-50-23-50-51z"/><glyph unicode="ⅻ" horiz-adv-x="936" d="M383 0h67L268 245l157 211h-67L236 289 112 456H45l157-212L20 0h67l147 201zm175 0h57v456h-57zm-22 614c0-28 22-50 50-50s51 22 51 50-23 51-51 51-50-23-50-51zM791 0h57v456h-57zm-22 614c0-28 22-50 50-50s51 22 51 50-23 51-51 51-50-23-50-51z"/><glyph unicode="ⅼ" horiz-adv-x="233" d="M88 0h57v710H88z"/><glyph unicode="ⅽ" horiz-adv-x="520" d="M291 44c-107 0-183 82-183 184s77 184 182 184c69 0 111-31 144-62l37 36c-38 41-97 80-181 80-139 0-239-107-239-238S150-10 291-10c79 0 149 36 195 95l-39 34c-41-47-92-75-156-75z"/><glyph unicode="ⅾ" horiz-adv-x="592" d="M447 144C411 82 351 44 284 44c-39 0-74 14-103 34-44 31-72 87-72 150 0 59 24 112 64 145 32 26 72 39 110 39 84 0 144-58 164-92zM285-10c71 0 130 31 164 77V0h55v710h-57V395c-43 46-102 71-165 71-55 0-107-20-145-51-52-44-85-111-85-187 0-82 37-153 97-195 45-32 93-43 136-43z"/><glyph unicode="ⅿ" horiz-adv-x="925" d="M143 456H88V0h57v317c30 57 90 95 152 95 50 0 91-24 115-60 16-24 26-54 26-118V0h57v241c0 25-2 47-5 65 28 55 84 106 157 106 50 0 91-24 115-60 16-24 26-54 26-118V0h57v241c0 61-10 98-27 129-33 58-96 96-171 96-91 0-147-51-179-97-32 59-95 97-171 97-63 0-121-29-154-72z"/><glyph unicode="↉" horiz-adv-x="734" d="M180 0l408 700h-52L128 0zm118 520c0 104-39 190-130 190S38 624 38 520s39-190 130-190 130 86 130 190zm-210 0c0 84 26 145 80 145s80-61 80-145-26-145-80-145-80 61-80 145zM448 57c22-38 64-67 117-67 77 0 128 60 128 126 0 69-50 111-100 117l85 97v30H468v-45h138l-86-98v-30c14 5 30 7 44 7 45-1 79-29 79-79 0-45-35-80-78-80-38 0-63 20-81 47z"/><glyph unicode="←" horiz-adv-x="972" d="M149 253l173 173-35 35L54 228 287-5l35 35-173 173h765v50z"/><glyph unicode="↑" horiz-adv-x="556" d="M252-80h52v764l172-172 35 35-233 233L45 547l35-35 172 172z"/><glyph unicode="→" horiz-adv-x="972" d="M58 253v-50h765L650 30l35-35 233 233-233 233-35-35 173-173z"/><glyph unicode="↓" horiz-adv-x="556" d="M252 16L80 188l-35-35L278-80l233 233-35 35L304 16v764h-52z"/><glyph unicode="↖" horiz-adv-x="834" d="M161 650h244v50H76V370h49v244L744-5l36 36z"/><glyph unicode="↗" horiz-adv-x="834" d="M54 31L90-5l619 619V370h49v330H429v-50h244z"/><glyph unicode="↘" horiz-adv-x="834" d="M673 50H429V0h329v330h-49V86L90 705l-36-36z"/><glyph unicode="↙" horiz-adv-x="834" d="M780 669l-36 36L125 86v244H76V0h329v50H161z"/><glyph unicode="↰" horiz-adv-x="766" d="M628 0h52v456H155l173 173-35 35L60 431l233-233 35 35-173 173h473z"/><glyph unicode="↱" horiz-adv-x="766" d="M138 406h473L438 233l35-35 233 233-233 233-35-35 173-173H86V0h52z"/><glyph unicode="↲" horiz-adv-x="788" d="M633 50H160l173 173-35 35L65 25l233-233 35 35L160 0h525v456h-52z"/><glyph unicode="↳" horiz-adv-x="788" d="M155 456h-52V0h525L455-173l35-35L723 25 490 258l-35-35L628 50H155z"/><glyph unicode="∂" horiz-adv-x="574" d="M361 452c-21 10-48 14-70 14-141 0-239-107-239-238C52 95 152-10 287-10c137 0 235 108 235 237 0 66-28 123-62 175L255 710h-66zm35-63c38-36 69-99 69-161 0-102-75-184-178-184s-178 82-178 184 74 184 188 184c43 0 77-11 99-23z"/><glyph unicode="∆" horiz-adv-x="609" d="M323 700h-37L30 34V0h549v34zm-19-106L514 54H95z"/><glyph unicode="∏" horiz-adv-x="582" d="M389 0h57v646h100v54H36v-54h100V0h57v646h196z"/><glyph unicode="∑" horiz-adv-x="612" d="M478 510h57v190H45v-34l307-305L35 34V0h510v190h-57V54H129l283 291v34L143 646h335z"/><glyph unicode="−" horiz-adv-x="540" d="M480 229v54H60v-54z"/><glyph unicode="∕" horiz-adv-x="438" d="M40 0l408 700h-52L-12 0z"/><glyph unicode="∙" horiz-adv-x="330" d="M113 228c0-29 23-52 52-52s52 23 52 52-23 52-52 52-52-23-52-52z"/><glyph unicode="√" horiz-adv-x="580" d="M518 700L310 105 170 456H17v-54h117L294 0h37l244 700z"/><glyph unicode="∞" horiz-adv-x="802" d="M746 277c0 105-75 187-177 187-87 0-133-58-168-125-36 67-81 125-168 125-102 0-177-82-177-187S131 90 233 90c87 0 132 58 168 124 35-66 81-124 168-124 102 0 177 82 177 187zM233 144c-67 0-120 52-120 133s52 133 120 133c69 0 103-63 137-133-34-70-68-133-137-133zm456 133c0-81-53-133-120-133-70 0-104 63-137 133 33 70 67 133 137 133 67 0 120-52 120-133z"/><glyph unicode="∧" horiz-adv-x="562" d="M1 0h59l221 595L502 0h59L299 700h-36z"/><glyph unicode="∫" horiz-adv-x="492" d="M322 536c7 45 13 65 23 82 15 26 42 38 69 38 33 0 53-15 68-29l34 35c-29 33-70 48-103 48-46 0-84-18-109-55-16-24-28-57-37-114L170-76c-7-45-13-65-23-82-15-26-42-38-69-38-33 0-53 15-68 29l-34-35c29-33 70-48 103-48 46 0 84 18 109 55 16 24 28 57 37 114z"/><glyph unicode="≈" horiz-adv-x="540" d="M99 109c14 41 34 77 77 77 58 0 112-88 194-88 62 0 103 42 122 108l-47 23c-14-41-34-77-77-77-58 0-112 88-194 88-62 0-103-42-122-108zm0 174c14 41 34 77 77 77 58 0 112-88 194-88 62 0 103 42 122 108l-47 23c-14-41-34-77-77-77-58 0-112 88-194 88-62 0-103-42-122-108z"/><glyph unicode="≠" horiz-adv-x="540" d="M428 476h-63l-61-105H60v-54h213l-70-122H60v-54h112L112 36h63l60 105h245v54H266l70 122h144v54H367z"/><glyph unicode="≡" horiz-adv-x="564" d="M492 73v54H72V73zm0 312v54H72v-54zm0-156v54H72v-54z"/><glyph unicode="≤" horiz-adv-x="540" d="M478 26v54H58V26zm0 123L159 279l319 130v58L58 296v-34L478 91z"/><glyph unicode="≥" horiz-adv-x="540" d="M482 26v54H62V26zM62 91l420 171v34L62 467v-58l319-130L62 149z"/><glyph unicode="⋮" horiz-adv-x="264" d="M80 42c0-29 23-52 52-52s52 23 52 52-23 52-52 52-52-23-52-52zm0 308c0-29 23-52 52-52s52 23 52 52-23 52-52 52-52-23-52-52zm0 308c0-29 23-52 52-52s52 23 52 52-23 52-52 52-52-23-52-52z"/><glyph unicode="⌀" horiz-adv-x="834" d="M107 350c0 171 139 310 310 310 76 0 147-27 201-73L181 149c-47 54-74 124-74 201zm620 0c0-171-139-310-310-310-77 0-147 27-201 73l437 438c47-54 74-124 74-201zm50 0c0 90-34 173-89 236l79 79-36 35-78-78c-64 55-146 88-236 88-198 0-360-162-360-360 0-90 34-173 89-236L67 35l36-35 78 78c64-55 146-88 236-88 198 0 360 162 360 360z"/><glyph unicode="░" horiz-adv-x="700" d="M700 0v50h-50v50h-50v50h-50v50h-50v50h-50v50h-50v50h-50v50h-50v50h-50v50h-50v50h-50v50h-50v50H50v50H0v-50h50v-50h50v-50h50v-50h50v-50h50v-50h50v-50h50v-50h50v-50h50v-50h50v-50h50v-50h50V50h50V0zm0 100v50h-50v50h-50v50h-50v50h-50v50h-50v50h-50v50h-50v50h-50v50h-50v50h-50v50h-50v50h-50v-50h50v-50h50v-50h50v-50h50v-50h50v-50h50v-50h50v-50h50v-50h50v-50h50v-50h50v-50zM600 0v50h-50v50h-50v50h-50v50h-50v50h-50v50h-50v50h-50v50h-50v50h-50v50h-50v50H50v50H0v-50h50v-50h50v-50h50v-50h50v-50h50v-50h50v-50h50v-50h50v-50h50v-50h50V50h50V0zm100 200v50h-50v50h-50v50h-50v50h-50v50h-50v50h-50v50h-50v50h-50v50h-50v50h-50v-50h50v-50h50v-50h50v-50h50v-50h50v-50h50v-50h50v-50h50v-50h50v-50zM500 0v50h-50v50h-50v50h-50v50h-50v50h-50v50h-50v50h-50v50h-50v50H50v50H0v-50h50v-50h50v-50h50v-50h50v-50h50v-50h50v-50h50v-50h50V50h50V0zM400 0v50h-50v50h-50v50h-50v50h-50v50h-50v50h-50v50H50v50H0v-50h50v-50h50v-50h50v-50h50v-50h50v-50h50V50h50V0zm300 300v50h-50v50h-50v50h-50v50h-50v50h-50v50h-50v50h-50v50h-50v-50h50v-50h50v-50h50v-50h50v-50h50v-50h50v-50h50v-50zm0 100v50h-50v50h-50v50h-50v50h-50v50h-50v50h-50v-50h50v-50h50v-50h50v-50h50v-50h50v-50zM300 0v50h-50v50h-50v50h-50v50h-50v50H50v50H0v-50h50v-50h50v-50h50v-50h50V50h50V0zm400 500v50h-50v50h-50v50h-50v50h-50v-50h50v-50h50v-50h50v-50zM200 0v50h-50v50h-50v50H50v50H0v-50h50v-50h50V50h50V0zM100 0v50H50v50H0V50h50V0zm600 600v50h-50v50h-50v-50h50v-50z"/><glyph unicode="■" horiz-adv-x="800" d="M750 0v700H50V0z"/><glyph unicode="□" horiz-adv-x="800" d="M750 0v700H50V0zm-50 50H100v600h600z"/><glyph unicode="▮" horiz-adv-x="556" d="M506 0v700H50V0z"/><glyph unicode="▯" horiz-adv-x="556" d="M506 0v700H50V0zm-50 50H100v600h356z"/><glyph unicode="▲" horiz-adv-x="576" d="M50 0h476L288 466z"/><glyph unicode="►" horiz-adv-x="576" d="M70 466V-10l466 238z"/><glyph unicode="▼" horiz-adv-x="576" d="M288 0l238 466H50z"/><glyph unicode="◄" horiz-adv-x="576" d="M506-10v476L40 228z"/><glyph unicode="◊" horiz-adv-x="521" d="M279 0l212 333v34L279 700h-37L30 367v-34L242 0zM83 350l177 278 178-278L260 71z"/><glyph unicode="○" horiz-adv-x="820" d="M410-10c198 0 360 162 360 360S608 710 410 710 50 548 50 350 212-10 410-10zM100 350c0 171 139 310 310 310s310-139 310-310S581 40 410 40 100 179 100 350z"/><glyph unicode="●" horiz-adv-x="820" d="M410-10c198 0 360 162 360 360S608 710 410 710 50 548 50 350 212-10 410-10z"/><glyph unicode="◻" horiz-adv-x="556" d="M506 0v456H50V0zm-50 50H100v356h356z"/><glyph unicode="◼" horiz-adv-x="556" d="M506 0v456H50V0z"/><glyph unicode="☮" horiz-adv-x="820" d="M410-10c198 0 360 162 360 360S608 710 410 710 50 548 50 350 212-10 410-10zM100 350c0 162 125 296 285 309V370L169 154c-43 54-69 122-69 196zm102-230l183 183V41c-70 5-134 34-183 79zm518 230c0-74-26-142-69-196L435 370v289c160-13 285-147 285-309zM618 120c-49-45-113-74-183-79v262z"/><glyph unicode="☺" horiz-adv-x="830" d="M647 307c-29-100-121-172-232-172s-203 72-232 172l10 4c6 3 9 7 9 12 0 7-4 17-14 17-6 0-14-3-19-5l-36-14c-6-2-11-7-11-15 0-11 8-17 14-17 5 0 12 3 18 5 34-109 136-190 261-190s227 81 261 190c6-2 13-5 18-5 6 0 14 6 14 17 0 8-5 13-11 15l-36 14c-5 2-13 5-19 5-10 0-14-10-14-17 0-5 3-9 9-12zm-132 51c25 0 40 48 40 110 0 61-15 111-40 111s-40-50-40-111c0-62 15-110 40-110zm-200 0c25 0 40 48 40 110 0 61-15 111-40 111s-40-50-40-111c0-62 15-110 40-110zM415-15c201 0 365 164 365 365S616 715 415 715 50 551 50 350 214-15 415-15zm0 35C234 20 87 169 87 350s147 330 328 330 328-149 328-330S596 20 415 20z"/><glyph unicode="☻" horiz-adv-x="820" d="M692 331c6-2 11-7 11-15 0-11-8-17-14-17-5 0-12 3-18 5-34-109-136-190-261-190s-227 81-261 190c-6-2-13-5-18-5-6 0-14 6-14 17 0 8 5 13 11 15l36 14c5 2 13 5 19 5 10 0 14-10 14-17 0-5-3-9-9-12l-10-4c29-100 121-172 232-172s203 72 232 172l-10 4c-6 3-9 7-9 12 0 7 4 17 14 17 6 0 14-3 19-5zm-182 27c-25 0-40 48-40 110 0 61 15 111 40 111s40-50 40-111c0-62-15-110-40-110zm-200 0c-25 0-40 48-40 110 0 61 15 111 40 111s40-50 40-111c0-62-15-110-40-110zM410-10c198 0 360 162 360 360S608 710 410 710 50 548 50 350 212-10 410-10z"/><glyph unicode="✎" horiz-adv-x="795" d="M745 0l-90 350-350 350H168L50 582V448L399 98zM497 187L212 472l69 69 281-283c1-4 2-8 2-13 0-32-26-58-58-58zm-34-15c0-24-17-41-48-41L99 448h88zm158 162c1-2 1-5 1-8 0-22-17-39-38-39L305 565v86zM269 577l-95-95H86v88l96 96h87zm412-467c0-25-19-44-43-44l-165 46c11 10 20 23 24 38h9c53 0 95 42 95 95v7c14 3 27 12 37 23zM157 537c26 0 52 29 52 53 0 12-9 18-19 18-26 0-52-27-52-51 0-13 8-20 19-20z"/><glyph unicode="✓" horiz-adv-x="760" d="M244 110c-20 47-67 136-103 176-9 10-19 14-32 14-30 0-59-26-59-52 0-14 4-23 15-39 32-45 69-115 102-182 17-35 36-42 65-42 36 0 52 11 69 48 152 334 250 443 397 632 7 9 12 17 12 26 0 12-15 24-25 24-13 0-26-14-39-28-162-175-312-391-402-577z"/><glyph unicode="✺" horiz-adv-x="800" d="M633 88l29 29-217 202 271-122 15 38-280 104 299-10v42l-299-11 280 105-16 38-269-122 216 202-29 29-205-221 125 275-38 15-105-279 11 298h-42l10-297-104 278-38-16 123-271-203 218-29-29 218-204L84 503l-15-38 278-104-297 10v-42l297 10L69 235l16-38 271 123-218-203 29-29 203 218L247 34l38-15 104 278L379 0h42l-11 297L515 19l38 16-125 273z"/><glyph unicode="❏" horiz-adv-x="700" d="M650 0v500H550v100H50V100h100V0zM500 150H100v399h400z"/><glyph unicode="❤" horiz-adv-x="790" d="M395 535c-12 102-80 175-156 175-109 0-189-93-189-233C50 260 216 76 395-10c179 86 345 270 345 487 0 140-80 233-189 233-76 0-144-73-156-175z"/><glyph unicode="➀" horiz-adv-x="900" d="M450-25c207 0 375 168 375 375S657 725 450 725 75 557 75 350 243-25 450-25zM122 350c0 181 147 328 328 328s328-147 328-328S631 22 450 22 122 169 122 350zm310 125V175h50v360h-30l-95-50v-50z"/><glyph unicode="➁" horiz-adv-x="900" d="M450-25c207 0 375 168 375 375S657 725 450 725 75 557 75 350 243-25 450-25zM122 350c0 181 147 328 328 328s328-147 328-328S631 22 450 22 122 169 122 350zm251 84c8 40 34 73 76 73 43 0 69-34 69-72 0-39-21-67-56-100L333 213v-30h235v46H415l78 72c48 44 75 84 75 134 0 68-52 118-118 118-70 0-108-49-122-107z"/><glyph unicode="➂" horiz-adv-x="900" d="M450-25c207 0 375 168 375 375S657 725 450 725 75 557 75 350 243-25 450-25zM122 350c0 181 147 328 328 328s328-147 328-328S631 22 450 22 122 169 122 350zm208-125c22-38 64-67 117-67 77 0 128 60 128 126 0 69-50 111-100 117l85 97v30H350v-45h138l-86-98v-30c14 5 30 7 44 7 45-1 79-29 79-79 0-45-35-80-78-80-38 0-63 20-81 47z"/><glyph unicode="➃" horiz-adv-x="900" d="M450-25c207 0 375 168 375 375S657 725 450 725 75 557 75 350 243-25 450-25zM122 350c0 181 147 328 328 328s328-147 328-328S631 22 450 22 122 169 122 350zm167-74h176v-85h49v85h60v44h-60v231h-30L289 306zm67 44l109 137V320z"/><glyph unicode="➄" horiz-adv-x="900" d="M450-25c207 0 375 168 375 375S657 725 450 725 75 557 75 350 243-25 450-25zM122 350c0 181 147 328 328 328s328-147 328-328S631 22 450 22 122 169 122 350zm266 2c14 11 33 19 54 19 47 0 79-36 79-81 0-47-36-79-78-79-29 0-57 16-73 35l-34-27c28-37 72-53 109-53 74 0 126 58 126 125s-52 123-123 123c-11 0-23-2-35-5l9 82h129v45H380l-19-178z"/><glyph unicode="➅" horiz-adv-x="900" d="M450-25c207 0 375 168 375 375S657 725 450 725 75 557 75 350 243-25 450-25zM122 350c0 181 147 328 328 328s328-147 328-328S631 22 450 22 122 169 122 350zm248-48c0 25 12 46 23 63 20 12 38 15 58 15 42 0 74-35 74-78 0-44-31-79-77-79-48 0-78 35-78 79zm142 246h-56l-89-132c-24-36-47-73-47-114 0-67 52-124 128-124 74 0 127 56 127 124 0 72-54 122-124 122-9 0-21-2-24-3z"/><glyph unicode="➆" horiz-adv-x="900" d="M450-25c207 0 375 168 375 375S657 725 450 725 75 557 75 350 243-25 450-25zM122 350c0 181 147 328 328 328s328-147 328-328S631 22 450 22 122 169 122 350zm296-191l162 330v30H355v-45h165L365 159z"/><glyph unicode="➇" horiz-adv-x="900" d="M450-25c207 0 375 168 375 375S657 725 450 725 75 557 75 350 243-25 450-25zM122 350c0 181 147 328 328 328s328-147 328-328S631 22 450 22 122 169 122 350zm328 3c46 0 78-32 78-73 0-39-32-71-78-71-44 0-77 32-77 71 0 41 34 73 77 73zm0 146c30 0 53-22 53-52 0-29-23-51-53-51-28 0-52 22-52 51 0 30 24 52 52 52zm0-335c76 0 128 53 128 115 0 43-26 82-60 101 21 15 35 41 35 68 0 55-45 96-103 96-57 0-102-41-102-96 0-27 14-53 35-68-34-19-60-58-60-101 0-62 51-115 127-115z"/><glyph unicode="➈" horiz-adv-x="900" d="M450-25c207 0 375 168 375 375S657 725 450 725 75 557 75 350 243-25 450-25zM122 350c0 181 147 328 328 328s328-147 328-328S631 22 450 22 122 169 122 350zm418 61c0-25-12-46-23-63-20-12-38-15-58-15-42 0-74 35-74 78 0 44 31 79 77 79 48 0 78-35 78-79zM398 165h56l89 132c24 36 47 73 47 114 0 67-52 124-128 124-74 0-127-56-127-124 0-72 54-122 124-122 9 0 21 2 24 3z"/><glyph unicode="➊" horiz-adv-x="900" d="M450-25c207 0 375 168 375 375S657 725 450 725 75 557 75 350 243-25 450-25zm-93 460v50l95 50h30V175h-50v300z"/><glyph unicode="➋" horiz-adv-x="900" d="M329 446c15 57 53 106 121 106 65 0 117-50 117-117 0-49-27-89-75-133l-80-74h155v-44H334v28c41 38 88 83 129 122 34 32 56 61 56 101 0 39-26 73-70 73-42 0-68-33-77-73zM450-25c207 0 375 168 375 375S657 725 450 725 75 557 75 350 243-25 450-25z"/><glyph unicode="➌" horiz-adv-x="900" d="M365 248c18-26 43-46 82-46 44 0 79 35 79 81 0 51-34 79-80 80-14 0-29-2-43-7v28l88 100H351v43h208v-28l-87-99c51-6 102-48 102-116 0-65-51-125-127-125-51 0-93 28-115 65zm85-273c207 0 375 168 375 375S657 725 450 725 75 557 75 350 243-25 450-25z"/><glyph unicode="➍" horiz-adv-x="900" d="M290 305c63 78 132 167 195 245h28V319h60v-42h-60v-85h-47v85H290zm176 14v141L353 319zM450-25c207 0 375 168 375 375S657 725 450 725 75 557 75 350 243-25 450-25z"/><glyph unicode="➎" horiz-adv-x="900" d="M362 358l19 177h169v-43H421l-9-84c12 3 24 5 36 5 70 0 122-56 122-122s-52-124-125-124c-36 0-79 16-107 52l32 25c16-18 45-34 73-34 43 0 79 32 79 80 0 46-32 82-80 82-21 0-41-9-55-19zm88-383c207 0 375 168 375 375S657 725 450 725 75 557 75 350 243-25 450-25z"/><glyph unicode="➏" horiz-adv-x="900" d="M369 302c0-45 30-80 79-80 47 0 78 35 78 80 0 44-32 79-75 79-21 0-39-3-59-15-11-17-23-38-23-64zm55 117c4 1 18 4 27 4 69 0 123-50 123-121 0-67-53-123-126-123-75 0-127 57-127 123 0 40 23 77 47 113 28 43 61 89 89 132h53zm26-444c207 0 375 168 375 375S657 725 450 725 75 557 75 350 243-25 450-25z"/><glyph unicode="➐" horiz-adv-x="900" d="M366 160l155 315H356v43h223v-29c-53-109-109-220-162-329zm84-185c207 0 375 168 375 375S657 725 450 725 75 557 75 350 243-25 450-25z"/><glyph unicode="➑" horiz-adv-x="900" d="M450 354c-44 0-78-32-78-74 0-40 33-72 78-72 47 0 79 32 79 72 0 42-32 74-79 74zm0 146c-29 0-53-22-53-53 0-30 24-52 53-52 31 0 54 22 54 52 0 31-23 53-54 53zm0-335c-75 0-126 53-126 114 0 43 27 82 61 101-22 16-36 42-36 68 0 54 45 95 101 95 57 0 102-41 102-95 0-26-14-52-36-68 34-19 61-58 61-101 0-61-52-114-127-114zm0-190c207 0 375 168 375 375S657 725 450 725 75 557 75 350 243-25 450-25z"/><glyph unicode="➒" horiz-adv-x="900" d="M541 411c0 45-30 80-79 80-47 0-78-35-78-80 0-44 32-79 75-79 21 0 39 3 59 15 11 17 23 38 23 64zm-55-117c-4-1-18-4-27-4-69 0-123 50-123 121 0 67 53 123 126 123 75 0 127-57 127-123 0-40-23-77-47-113-28-43-61-89-89-132h-53zM450-25c207 0 375 168 375 375S657 725 450 725 75 557 75 350 243-25 450-25z"/><glyph unicode="ﬀ" horiz-adv-x="698" d="M348 690c-17 16-50 30-83 30-35 0-66-12-89-33-27-24-43-60-43-119V456H23v-54h110V0h57v402h138v54H190v112c0 41 7 61 20 75s32 23 54 23c23 0 40-5 56-17zm349 0c-17 16-50 30-83 30-35 0-66-12-89-33-27-24-43-60-43-119V456H372v-54h110V0h57v402h138v54H539v112c0 41 7 61 20 75s32 23 54 23c23 0 40-5 56-17z"/><glyph unicode="ﬁ" horiz-adv-x="582" d="M348 690c-17 16-50 30-83 30-35 0-66-12-89-33-27-24-43-60-43-119V456H23v-54h110V0h57v402h138v54H190v112c0 41 7 61 20 75s32 23 54 23c23 0 40-5 56-17zM437 0h57v456h-57zm-22 614c0-28 22-50 50-50s51 22 51 50-23 51-51 51-50-23-50-51z"/><glyph unicode="ﬂ" horiz-adv-x="582" d="M348 690c-17 16-50 30-83 30-35 0-66-12-89-33-27-24-43-60-43-119V456H23v-54h110V0h57v402h138v54H190v112c0 41 7 61 20 75s32 23 54 23c23 0 40-5 56-17zM437 0h57v710h-57z"/><glyph unicode="ﬃ" horiz-adv-x="931" d="M348 690c-17 16-50 30-83 30-35 0-66-12-89-33-27-24-43-60-43-119V456H23v-54h110V0h57v402h138v54H190v112c0 41 7 61 20 75s32 23 54 23c23 0 40-5 56-17zm349 0c-17 16-50 30-83 30-35 0-66-12-89-33-27-24-43-60-43-119V456H372v-54h110V0h57v402h138v54H539v112c0 41 7 61 20 75s32 23 54 23c23 0 40-5 56-17zM786 0h57v456h-57zm-22 614c0-28 22-50 50-50s51 22 51 50-23 51-51 51-50-23-50-51z"/><glyph unicode="ﬄ" horiz-adv-x="931" d="M348 690c-17 16-50 30-83 30-35 0-66-12-89-33-27-24-43-60-43-119V456H23v-54h110V0h57v402h138v54H190v112c0 41 7 61 20 75s32 23 54 23c23 0 40-5 56-17zm349 0c-17 16-50 30-83 30-35 0-66-12-89-33-27-24-43-60-43-119V456H372v-54h110V0h57v402h138v54H539v112c0 41 7 61 20 75s32 23 54 23c23 0 40-5 56-17zM786 0h57v710h-57z"/><glyph horiz-adv-x="0"/></font>
</defs>
</svg>
